<?xml version="1.0" encoding="utf-8" standalone="no"?>
<!DOCTYPE svg PUBLIC "-//W3C//DTD SVG 1.1//EN"
  "http://www.w3.org/Graphics/SVG/1.1/DTD/svg11.dtd">
<svg xmlns:xlink="http://www.w3.org/1999/xlink" width="648pt" height="324pt" viewBox="0 0 648 324" xmlns="http://www.w3.org/2000/svg" version="1.1">
 <metadata>
  <rdf:RDF xmlns:dc="http://purl.org/dc/elements/1.1/" xmlns:cc="http://creativecommons.org/ns#" xmlns:rdf="http://www.w3.org/1999/02/22-rdf-syntax-ns#">
   <cc:Work>
    <dc:type rdf:resource="http://purl.org/dc/dcmitype/StillImage"/>
    <dc:date>2026-04-28T15:31:56.302039</dc:date>
    <dc:format>image/svg+xml</dc:format>
    <dc:creator>
     <cc:Agent>
      <dc:title>Matplotlib v3.10.8, https://matplotlib.org/</dc:title>
     </cc:Agent>
    </dc:creator>
   </cc:Work>
  </rdf:RDF>
 </metadata>
 <defs>
  <style type="text/css">*{stroke-linejoin: round; stroke-linecap: butt}</style>
 </defs>
 <g id="figure_1">
  <g id="patch_1">
   <path d="M 0 324 
L 648 324 
L 648 0 
L 0 0 
z
" style="fill: #ffffff"/>
  </g>
  <g id="axes_1">
   <g id="patch_2">
    <path d="M 60.32 282.04 
L 601.36 282.04 
L 601.36 26.88 
L 60.32 26.88 
z
" style="fill: #ffffff"/>
   </g>
   <g id="matplotlib.axis_1">
    <g id="xtick_1">
     <g id="line2d_1">
      <path d="M 84.6668 282.04 
L 84.6668 26.88 
" clip-path="url(#p362bd26391)" style="fill: none; stroke: #b0b0b0; stroke-width: 0.8; stroke-linecap: square"/>
     </g>
     <g id="line2d_2">
      <defs>
       <path id="m7c01b9aa94" d="M 0 0 
L 0 3.5 
" style="stroke: #000000; stroke-width: 0.8"/>
      </defs>
      <g>
       <use xlink:href="#m7c01b9aa94" x="84.6668" y="282.04" style="stroke: #000000; stroke-width: 0.8"/>
      </g>
     </g>
     <g id="text_1">
      <!-- 0 -->
      <g transform="translate(81.48555 296.638438) scale(0.1 -0.1)">
       <defs>
        <path id="DejaVuSans-30" d="M 2034 4250 
Q 1547 4250 1301 3770 
Q 1056 3291 1056 2328 
Q 1056 1369 1301 889 
Q 1547 409 2034 409 
Q 2525 409 2770 889 
Q 3016 1369 3016 2328 
Q 3016 3291 2770 3770 
Q 2525 4250 2034 4250 
z
M 2034 4750 
Q 2819 4750 3233 4129 
Q 3647 3509 3647 2328 
Q 3647 1150 3233 529 
Q 2819 -91 2034 -91 
Q 1250 -91 836 529 
Q 422 1150 422 2328 
Q 422 3509 836 4129 
Q 1250 4750 2034 4750 
z
" transform="scale(0.015625)"/>
       </defs>
       <use xlink:href="#DejaVuSans-30"/>
      </g>
     </g>
    </g>
    <g id="xtick_2">
     <g id="line2d_3">
      <path d="M 166.699319 282.04 
L 166.699319 26.88 
" clip-path="url(#p362bd26391)" style="fill: none; stroke: #b0b0b0; stroke-width: 0.8; stroke-linecap: square"/>
     </g>
     <g id="line2d_4">
      <g>
       <use xlink:href="#m7c01b9aa94" x="166.699319" y="282.04" style="stroke: #000000; stroke-width: 0.8"/>
      </g>
     </g>
     <g id="text_2">
      <!-- 10 -->
      <g transform="translate(160.336819 296.638438) scale(0.1 -0.1)">
       <defs>
        <path id="DejaVuSans-31" d="M 794 531 
L 1825 531 
L 1825 4091 
L 703 3866 
L 703 4441 
L 1819 4666 
L 2450 4666 
L 2450 531 
L 3481 531 
L 3481 0 
L 794 0 
L 794 531 
z
" transform="scale(0.015625)"/>
       </defs>
       <use xlink:href="#DejaVuSans-31"/>
       <use xlink:href="#DejaVuSans-30" transform="translate(63.623047 0)"/>
      </g>
     </g>
    </g>
    <g id="xtick_3">
     <g id="line2d_5">
      <path d="M 248.731838 282.04 
L 248.731838 26.88 
" clip-path="url(#p362bd26391)" style="fill: none; stroke: #b0b0b0; stroke-width: 0.8; stroke-linecap: square"/>
     </g>
     <g id="line2d_6">
      <g>
       <use xlink:href="#m7c01b9aa94" x="248.731838" y="282.04" style="stroke: #000000; stroke-width: 0.8"/>
      </g>
     </g>
     <g id="text_3">
      <!-- 20 -->
      <g transform="translate(242.369338 296.638438) scale(0.1 -0.1)">
       <defs>
        <path id="DejaVuSans-32" d="M 1228 531 
L 3431 531 
L 3431 0 
L 469 0 
L 469 531 
Q 828 903 1448 1529 
Q 2069 2156 2228 2338 
Q 2531 2678 2651 2914 
Q 2772 3150 2772 3378 
Q 2772 3750 2511 3984 
Q 2250 4219 1831 4219 
Q 1534 4219 1204 4116 
Q 875 4013 500 3803 
L 500 4441 
Q 881 4594 1212 4672 
Q 1544 4750 1819 4750 
Q 2544 4750 2975 4387 
Q 3406 4025 3406 3419 
Q 3406 3131 3298 2873 
Q 3191 2616 2906 2266 
Q 2828 2175 2409 1742 
Q 1991 1309 1228 531 
z
" transform="scale(0.015625)"/>
       </defs>
       <use xlink:href="#DejaVuSans-32"/>
       <use xlink:href="#DejaVuSans-30" transform="translate(63.623047 0)"/>
      </g>
     </g>
    </g>
    <g id="xtick_4">
     <g id="line2d_7">
      <path d="M 330.764357 282.04 
L 330.764357 26.88 
" clip-path="url(#p362bd26391)" style="fill: none; stroke: #b0b0b0; stroke-width: 0.8; stroke-linecap: square"/>
     </g>
     <g id="line2d_8">
      <g>
       <use xlink:href="#m7c01b9aa94" x="330.764357" y="282.04" style="stroke: #000000; stroke-width: 0.8"/>
      </g>
     </g>
     <g id="text_4">
      <!-- 30 -->
      <g transform="translate(324.401857 296.638438) scale(0.1 -0.1)">
       <defs>
        <path id="DejaVuSans-33" d="M 2597 2516 
Q 3050 2419 3304 2112 
Q 3559 1806 3559 1356 
Q 3559 666 3084 287 
Q 2609 -91 1734 -91 
Q 1441 -91 1130 -33 
Q 819 25 488 141 
L 488 750 
Q 750 597 1062 519 
Q 1375 441 1716 441 
Q 2309 441 2620 675 
Q 2931 909 2931 1356 
Q 2931 1769 2642 2001 
Q 2353 2234 1838 2234 
L 1294 2234 
L 1294 2753 
L 1863 2753 
Q 2328 2753 2575 2939 
Q 2822 3125 2822 3475 
Q 2822 3834 2567 4026 
Q 2313 4219 1838 4219 
Q 1578 4219 1281 4162 
Q 984 4106 628 3988 
L 628 4550 
Q 988 4650 1302 4700 
Q 1616 4750 1894 4750 
Q 2613 4750 3031 4423 
Q 3450 4097 3450 3541 
Q 3450 3153 3228 2886 
Q 3006 2619 2597 2516 
z
" transform="scale(0.015625)"/>
       </defs>
       <use xlink:href="#DejaVuSans-33"/>
       <use xlink:href="#DejaVuSans-30" transform="translate(63.623047 0)"/>
      </g>
     </g>
    </g>
    <g id="xtick_5">
     <g id="line2d_9">
      <path d="M 412.796876 282.04 
L 412.796876 26.88 
" clip-path="url(#p362bd26391)" style="fill: none; stroke: #b0b0b0; stroke-width: 0.8; stroke-linecap: square"/>
     </g>
     <g id="line2d_10">
      <g>
       <use xlink:href="#m7c01b9aa94" x="412.796876" y="282.04" style="stroke: #000000; stroke-width: 0.8"/>
      </g>
     </g>
     <g id="text_5">
      <!-- 40 -->
      <g transform="translate(406.434376 296.638438) scale(0.1 -0.1)">
       <defs>
        <path id="DejaVuSans-34" d="M 2419 4116 
L 825 1625 
L 2419 1625 
L 2419 4116 
z
M 2253 4666 
L 3047 4666 
L 3047 1625 
L 3713 1625 
L 3713 1100 
L 3047 1100 
L 3047 0 
L 2419 0 
L 2419 1100 
L 313 1100 
L 313 1709 
L 2253 4666 
z
" transform="scale(0.015625)"/>
       </defs>
       <use xlink:href="#DejaVuSans-34"/>
       <use xlink:href="#DejaVuSans-30" transform="translate(63.623047 0)"/>
      </g>
     </g>
    </g>
    <g id="xtick_6">
     <g id="line2d_11">
      <path d="M 494.829395 282.04 
L 494.829395 26.88 
" clip-path="url(#p362bd26391)" style="fill: none; stroke: #b0b0b0; stroke-width: 0.8; stroke-linecap: square"/>
     </g>
     <g id="line2d_12">
      <g>
       <use xlink:href="#m7c01b9aa94" x="494.829395" y="282.04" style="stroke: #000000; stroke-width: 0.8"/>
      </g>
     </g>
     <g id="text_6">
      <!-- 50 -->
      <g transform="translate(488.466895 296.638438) scale(0.1 -0.1)">
       <defs>
        <path id="DejaVuSans-35" d="M 691 4666 
L 3169 4666 
L 3169 4134 
L 1269 4134 
L 1269 2991 
Q 1406 3038 1543 3061 
Q 1681 3084 1819 3084 
Q 2600 3084 3056 2656 
Q 3513 2228 3513 1497 
Q 3513 744 3044 326 
Q 2575 -91 1722 -91 
Q 1428 -91 1123 -41 
Q 819 9 494 109 
L 494 744 
Q 775 591 1075 516 
Q 1375 441 1709 441 
Q 2250 441 2565 725 
Q 2881 1009 2881 1497 
Q 2881 1984 2565 2268 
Q 2250 2553 1709 2553 
Q 1456 2553 1204 2497 
Q 953 2441 691 2322 
L 691 4666 
z
" transform="scale(0.015625)"/>
       </defs>
       <use xlink:href="#DejaVuSans-35"/>
       <use xlink:href="#DejaVuSans-30" transform="translate(63.623047 0)"/>
      </g>
     </g>
    </g>
    <g id="xtick_7">
     <g id="line2d_13">
      <path d="M 576.861913 282.04 
L 576.861913 26.88 
" clip-path="url(#p362bd26391)" style="fill: none; stroke: #b0b0b0; stroke-width: 0.8; stroke-linecap: square"/>
     </g>
     <g id="line2d_14">
      <g>
       <use xlink:href="#m7c01b9aa94" x="576.861913" y="282.04" style="stroke: #000000; stroke-width: 0.8"/>
      </g>
     </g>
     <g id="text_7">
      <!-- 60 -->
      <g transform="translate(570.499413 296.638438) scale(0.1 -0.1)">
       <defs>
        <path id="DejaVuSans-36" d="M 2113 2584 
Q 1688 2584 1439 2293 
Q 1191 2003 1191 1497 
Q 1191 994 1439 701 
Q 1688 409 2113 409 
Q 2538 409 2786 701 
Q 3034 994 3034 1497 
Q 3034 2003 2786 2293 
Q 2538 2584 2113 2584 
z
M 3366 4563 
L 3366 3988 
Q 3128 4100 2886 4159 
Q 2644 4219 2406 4219 
Q 1781 4219 1451 3797 
Q 1122 3375 1075 2522 
Q 1259 2794 1537 2939 
Q 1816 3084 2150 3084 
Q 2853 3084 3261 2657 
Q 3669 2231 3669 1497 
Q 3669 778 3244 343 
Q 2819 -91 2113 -91 
Q 1303 -91 875 529 
Q 447 1150 447 2328 
Q 447 3434 972 4092 
Q 1497 4750 2381 4750 
Q 2619 4750 2861 4703 
Q 3103 4656 3366 4563 
z
" transform="scale(0.015625)"/>
       </defs>
       <use xlink:href="#DejaVuSans-36"/>
       <use xlink:href="#DejaVuSans-30" transform="translate(63.623047 0)"/>
      </g>
     </g>
    </g>
    <g id="text_8">
     <!-- s [m] -->
     <g transform="translate(317.874375 310.316563) scale(0.1 -0.1)">
      <defs>
       <path id="DejaVuSans-73" d="M 2834 3397 
L 2834 2853 
Q 2591 2978 2328 3040 
Q 2066 3103 1784 3103 
Q 1356 3103 1142 2972 
Q 928 2841 928 2578 
Q 928 2378 1081 2264 
Q 1234 2150 1697 2047 
L 1894 2003 
Q 2506 1872 2764 1633 
Q 3022 1394 3022 966 
Q 3022 478 2636 193 
Q 2250 -91 1575 -91 
Q 1294 -91 989 -36 
Q 684 19 347 128 
L 347 722 
Q 666 556 975 473 
Q 1284 391 1588 391 
Q 1994 391 2212 530 
Q 2431 669 2431 922 
Q 2431 1156 2273 1281 
Q 2116 1406 1581 1522 
L 1381 1569 
Q 847 1681 609 1914 
Q 372 2147 372 2553 
Q 372 3047 722 3315 
Q 1072 3584 1716 3584 
Q 2034 3584 2315 3537 
Q 2597 3491 2834 3397 
z
" transform="scale(0.015625)"/>
       <path id="DejaVuSans-20" transform="scale(0.015625)"/>
       <path id="DejaVuSans-5b" d="M 550 4863 
L 1875 4863 
L 1875 4416 
L 1125 4416 
L 1125 -397 
L 1875 -397 
L 1875 -844 
L 550 -844 
L 550 4863 
z
" transform="scale(0.015625)"/>
       <path id="DejaVuSans-6d" d="M 3328 2828 
Q 3544 3216 3844 3400 
Q 4144 3584 4550 3584 
Q 5097 3584 5394 3201 
Q 5691 2819 5691 2113 
L 5691 0 
L 5113 0 
L 5113 2094 
Q 5113 2597 4934 2840 
Q 4756 3084 4391 3084 
Q 3944 3084 3684 2787 
Q 3425 2491 3425 1978 
L 3425 0 
L 2847 0 
L 2847 2094 
Q 2847 2600 2669 2842 
Q 2491 3084 2119 3084 
Q 1678 3084 1418 2786 
Q 1159 2488 1159 1978 
L 1159 0 
L 581 0 
L 581 3500 
L 1159 3500 
L 1159 2956 
Q 1356 3278 1631 3431 
Q 1906 3584 2284 3584 
Q 2666 3584 2933 3390 
Q 3200 3197 3328 2828 
z
" transform="scale(0.015625)"/>
       <path id="DejaVuSans-5d" d="M 1947 4863 
L 1947 -844 
L 622 -844 
L 622 -397 
L 1369 -397 
L 1369 4416 
L 622 4416 
L 622 4863 
L 1947 4863 
z
" transform="scale(0.015625)"/>
      </defs>
      <use xlink:href="#DejaVuSans-73"/>
      <use xlink:href="#DejaVuSans-20" transform="translate(52.099609 0)"/>
      <use xlink:href="#DejaVuSans-5b" transform="translate(83.886719 0)"/>
      <use xlink:href="#DejaVuSans-6d" transform="translate(122.900391 0)"/>
      <use xlink:href="#DejaVuSans-5d" transform="translate(220.3125 0)"/>
     </g>
    </g>
   </g>
   <g id="matplotlib.axis_2">
    <g id="ytick_1">
     <g id="line2d_15">
      <path d="M 60.32 270.458918 
L 601.36 270.458918 
" clip-path="url(#p362bd26391)" style="fill: none; stroke: #b0b0b0; stroke-width: 0.8; stroke-linecap: square"/>
     </g>
     <g id="line2d_16">
      <defs>
       <path id="mfde0288514" d="M 0 0 
L -3.5 0 
" style="stroke: #000000; stroke-width: 0.8"/>
      </defs>
      <g>
       <use xlink:href="#mfde0288514" x="60.32" y="270.458918" style="stroke: #000000; stroke-width: 0.8"/>
      </g>
     </g>
     <g id="text_9">
      <!-- 0.000 -->
      <g transform="translate(24.691875 274.258137) scale(0.1 -0.1)">
       <defs>
        <path id="DejaVuSans-2e" d="M 684 794 
L 1344 794 
L 1344 0 
L 684 0 
L 684 794 
z
" transform="scale(0.015625)"/>
       </defs>
       <use xlink:href="#DejaVuSans-30"/>
       <use xlink:href="#DejaVuSans-2e" transform="translate(63.623047 0)"/>
       <use xlink:href="#DejaVuSans-30" transform="translate(95.410156 0)"/>
       <use xlink:href="#DejaVuSans-30" transform="translate(159.033203 0)"/>
       <use xlink:href="#DejaVuSans-30" transform="translate(222.65625 0)"/>
      </g>
     </g>
    </g>
    <g id="ytick_2">
     <g id="line2d_17">
      <path d="M 60.32 222.853594 
L 601.36 222.853594 
" clip-path="url(#p362bd26391)" style="fill: none; stroke: #b0b0b0; stroke-width: 0.8; stroke-linecap: square"/>
     </g>
     <g id="line2d_18">
      <g>
       <use xlink:href="#mfde0288514" x="60.32" y="222.853594" style="stroke: #000000; stroke-width: 0.8"/>
      </g>
     </g>
     <g id="text_10">
      <!-- 0.001 -->
      <g transform="translate(24.691875 226.652813) scale(0.1 -0.1)">
       <use xlink:href="#DejaVuSans-30"/>
       <use xlink:href="#DejaVuSans-2e" transform="translate(63.623047 0)"/>
       <use xlink:href="#DejaVuSans-30" transform="translate(95.410156 0)"/>
       <use xlink:href="#DejaVuSans-30" transform="translate(159.033203 0)"/>
       <use xlink:href="#DejaVuSans-31" transform="translate(222.65625 0)"/>
      </g>
     </g>
    </g>
    <g id="ytick_3">
     <g id="line2d_19">
      <path d="M 60.32 175.248271 
L 601.36 175.248271 
" clip-path="url(#p362bd26391)" style="fill: none; stroke: #b0b0b0; stroke-width: 0.8; stroke-linecap: square"/>
     </g>
     <g id="line2d_20">
      <g>
       <use xlink:href="#mfde0288514" x="60.32" y="175.248271" style="stroke: #000000; stroke-width: 0.8"/>
      </g>
     </g>
     <g id="text_11">
      <!-- 0.002 -->
      <g transform="translate(24.691875 179.04749) scale(0.1 -0.1)">
       <use xlink:href="#DejaVuSans-30"/>
       <use xlink:href="#DejaVuSans-2e" transform="translate(63.623047 0)"/>
       <use xlink:href="#DejaVuSans-30" transform="translate(95.410156 0)"/>
       <use xlink:href="#DejaVuSans-30" transform="translate(159.033203 0)"/>
       <use xlink:href="#DejaVuSans-32" transform="translate(222.65625 0)"/>
      </g>
     </g>
    </g>
    <g id="ytick_4">
     <g id="line2d_21">
      <path d="M 60.32 127.642947 
L 601.36 127.642947 
" clip-path="url(#p362bd26391)" style="fill: none; stroke: #b0b0b0; stroke-width: 0.8; stroke-linecap: square"/>
     </g>
     <g id="line2d_22">
      <g>
       <use xlink:href="#mfde0288514" x="60.32" y="127.642947" style="stroke: #000000; stroke-width: 0.8"/>
      </g>
     </g>
     <g id="text_12">
      <!-- 0.003 -->
      <g transform="translate(24.691875 131.442166) scale(0.1 -0.1)">
       <use xlink:href="#DejaVuSans-30"/>
       <use xlink:href="#DejaVuSans-2e" transform="translate(63.623047 0)"/>
       <use xlink:href="#DejaVuSans-30" transform="translate(95.410156 0)"/>
       <use xlink:href="#DejaVuSans-30" transform="translate(159.033203 0)"/>
       <use xlink:href="#DejaVuSans-33" transform="translate(222.65625 0)"/>
      </g>
     </g>
    </g>
    <g id="ytick_5">
     <g id="line2d_23">
      <path d="M 60.32 80.037623 
L 601.36 80.037623 
" clip-path="url(#p362bd26391)" style="fill: none; stroke: #b0b0b0; stroke-width: 0.8; stroke-linecap: square"/>
     </g>
     <g id="line2d_24">
      <g>
       <use xlink:href="#mfde0288514" x="60.32" y="80.037623" style="stroke: #000000; stroke-width: 0.8"/>
      </g>
     </g>
     <g id="text_13">
      <!-- 0.004 -->
      <g transform="translate(24.691875 83.836842) scale(0.1 -0.1)">
       <use xlink:href="#DejaVuSans-30"/>
       <use xlink:href="#DejaVuSans-2e" transform="translate(63.623047 0)"/>
       <use xlink:href="#DejaVuSans-30" transform="translate(95.410156 0)"/>
       <use xlink:href="#DejaVuSans-30" transform="translate(159.033203 0)"/>
       <use xlink:href="#DejaVuSans-34" transform="translate(222.65625 0)"/>
      </g>
     </g>
    </g>
    <g id="ytick_6">
     <g id="line2d_25">
      <path d="M 60.32 32.4323 
L 601.36 32.4323 
" clip-path="url(#p362bd26391)" style="fill: none; stroke: #b0b0b0; stroke-width: 0.8; stroke-linecap: square"/>
     </g>
     <g id="line2d_26">
      <g>
       <use xlink:href="#mfde0288514" x="60.32" y="32.4323" style="stroke: #000000; stroke-width: 0.8"/>
      </g>
     </g>
     <g id="text_14">
      <!-- 0.005 -->
      <g transform="translate(24.691875 36.231519) scale(0.1 -0.1)">
       <use xlink:href="#DejaVuSans-30"/>
       <use xlink:href="#DejaVuSans-2e" transform="translate(63.623047 0)"/>
       <use xlink:href="#DejaVuSans-30" transform="translate(95.410156 0)"/>
       <use xlink:href="#DejaVuSans-30" transform="translate(159.033203 0)"/>
       <use xlink:href="#DejaVuSans-35" transform="translate(222.65625 0)"/>
      </g>
     </g>
    </g>
    <g id="text_15">
     <!-- emit(x) [m] -->
     <g transform="translate(18.612188 182.977969) rotate(-90) scale(0.1 -0.1)">
      <defs>
       <path id="DejaVuSans-65" d="M 3597 1894 
L 3597 1613 
L 953 1613 
Q 991 1019 1311 708 
Q 1631 397 2203 397 
Q 2534 397 2845 478 
Q 3156 559 3463 722 
L 3463 178 
Q 3153 47 2828 -22 
Q 2503 -91 2169 -91 
Q 1331 -91 842 396 
Q 353 884 353 1716 
Q 353 2575 817 3079 
Q 1281 3584 2069 3584 
Q 2775 3584 3186 3129 
Q 3597 2675 3597 1894 
z
M 3022 2063 
Q 3016 2534 2758 2815 
Q 2500 3097 2075 3097 
Q 1594 3097 1305 2825 
Q 1016 2553 972 2059 
L 3022 2063 
z
" transform="scale(0.015625)"/>
       <path id="DejaVuSans-69" d="M 603 3500 
L 1178 3500 
L 1178 0 
L 603 0 
L 603 3500 
z
M 603 4863 
L 1178 4863 
L 1178 4134 
L 603 4134 
L 603 4863 
z
" transform="scale(0.015625)"/>
       <path id="DejaVuSans-74" d="M 1172 4494 
L 1172 3500 
L 2356 3500 
L 2356 3053 
L 1172 3053 
L 1172 1153 
Q 1172 725 1289 603 
Q 1406 481 1766 481 
L 2356 481 
L 2356 0 
L 1766 0 
Q 1100 0 847 248 
Q 594 497 594 1153 
L 594 3053 
L 172 3053 
L 172 3500 
L 594 3500 
L 594 4494 
L 1172 4494 
z
" transform="scale(0.015625)"/>
       <path id="DejaVuSans-28" d="M 1984 4856 
Q 1566 4138 1362 3434 
Q 1159 2731 1159 2009 
Q 1159 1288 1364 580 
Q 1569 -128 1984 -844 
L 1484 -844 
Q 1016 -109 783 600 
Q 550 1309 550 2009 
Q 550 2706 781 3412 
Q 1013 4119 1484 4856 
L 1984 4856 
z
" transform="scale(0.015625)"/>
       <path id="DejaVuSans-78" d="M 3513 3500 
L 2247 1797 
L 3578 0 
L 2900 0 
L 1881 1375 
L 863 0 
L 184 0 
L 1544 1831 
L 300 3500 
L 978 3500 
L 1906 2253 
L 2834 3500 
L 3513 3500 
z
" transform="scale(0.015625)"/>
       <path id="DejaVuSans-29" d="M 513 4856 
L 1013 4856 
Q 1481 4119 1714 3412 
Q 1947 2706 1947 2009 
Q 1947 1309 1714 600 
Q 1481 -109 1013 -844 
L 513 -844 
Q 928 -128 1133 580 
Q 1338 1288 1338 2009 
Q 1338 2731 1133 3434 
Q 928 4138 513 4856 
z
" transform="scale(0.015625)"/>
      </defs>
      <use xlink:href="#DejaVuSans-65"/>
      <use xlink:href="#DejaVuSans-6d" transform="translate(61.523438 0)"/>
      <use xlink:href="#DejaVuSans-69" transform="translate(158.935547 0)"/>
      <use xlink:href="#DejaVuSans-74" transform="translate(186.71875 0)"/>
      <use xlink:href="#DejaVuSans-28" transform="translate(225.927734 0)"/>
      <use xlink:href="#DejaVuSans-78" transform="translate(264.941406 0)"/>
      <use xlink:href="#DejaVuSans-29" transform="translate(324.121094 0)"/>
      <use xlink:href="#DejaVuSans-20" transform="translate(363.134766 0)"/>
      <use xlink:href="#DejaVuSans-5b" transform="translate(394.921875 0)"/>
      <use xlink:href="#DejaVuSans-6d" transform="translate(433.935547 0)"/>
      <use xlink:href="#DejaVuSans-5d" transform="translate(531.347656 0)"/>
     </g>
    </g>
   </g>
   <g id="line2d_27">
    <path d="M 84.912727 270.441707 
L 88.601636 270.441551 
L 88.847564 209.223739 
L 89.093491 208.476542 
L 109.0136 208.476542 
L 109.505455 205.586021 
L 113.194364 205.585941 
L 113.440291 208.21039 
L 113.932145 208.286284 
L 133.606327 208.286284 
L 133.852255 208.747819 
L 134.098182 209.453594 
L 137.787091 209.453703 
L 138.033018 206.345714 
L 138.278945 206.053857 
L 158.199055 206.053857 
L 158.444982 203.815061 
L 158.690909 196.078589 
L 162.379818 196.078662 
L 162.625745 207.280313 
L 162.871673 209.006701 
L 182.791782 209.006701 
L 183.037709 208.595853 
L 183.283636 171.263013 
L 186.972545 171.264071 
L 187.218473 142.801656 
L 187.4644 142.400621 
L 207.384509 142.400621 
L 207.630436 140.97682 
L 207.876364 130.236506 
L 211.565273 130.236986 
L 211.8112 155.984101 
L 212.057127 161.249945 
L 231.977236 161.249945 
L 232.223164 159.639814 
L 232.469091 70.26359 
L 236.158 70.265136 
L 236.403927 56.420896 
L 236.649855 80.513537 
L 256.815891 80.513537 
L 257.061818 85.823376 
L 260.750727 85.822194 
L 260.996655 96.147377 
L 261.242582 100.549276 
L 281.408618 100.549276 
L 281.654545 93.722975 
L 285.343455 93.723298 
L 285.589382 92.124692 
L 285.835309 104.196543 
L 306.001345 104.196543 
L 306.247273 103.753736 
L 306.985055 103.701182 
L 310.182109 103.744661 
L 310.428036 103.210701 
L 330.594073 103.210701 
L 330.84 103.841674 
L 331.331855 103.918271 
L 334.774836 103.900762 
L 335.020764 105.305306 
L 355.1868 105.305306 
L 355.432727 99.141688 
L 355.678655 98.158832 
L 359.367564 98.182077 
L 359.613491 89.825666 
L 379.779527 89.825666 
L 380.025455 96.951775 
L 380.271382 97.681693 
L 383.960291 97.680749 
L 384.206218 104.600246 
L 404.372255 104.600246 
L 404.618182 82.240612 
L 404.864109 75.727783 
L 408.553018 75.728636 
L 408.798945 89.506894 
L 428.964982 89.506894 
L 429.210909 91.189549 
L 429.456836 89.4453 
L 433.145745 89.445337 
L 433.391673 56.483409 
L 433.6376 55.259774 
L 453.557709 55.259774 
L 454.049564 38.479777 
L 457.738473 38.478183 
L 457.9844 66.472558 
L 458.230327 67.590111 
L 478.150436 67.590111 
L 478.642291 82.78476 
L 482.3312 82.78538 
L 482.577127 71.53761 
L 482.823055 71.10246 
L 502.743164 71.10246 
L 502.989091 70.824236 
L 503.235018 70.299036 
L 506.923927 70.298922 
L 507.169855 70.774808 
L 508.153564 70.807002 
L 527.581818 70.795812 
L 527.827745 70.313651 
L 531.516655 70.313768 
L 531.762582 69.418426 
L 532.254436 69.357368 
L 552.174545 69.370268 
L 552.420473 68.592942 
L 556.109382 68.592948 
L 556.355309 72.112038 
L 556.601236 72.388084 
L 576.767273 72.388084 
L 576.767273 72.388084 
" clip-path="url(#p362bd26391)" style="fill: none; stroke: #1f77b4; stroke-width: 2; stroke-linecap: square"/>
   </g>
   <g id="line2d_28">
    <path d="M 84.912727 270.441707 
L 88.601636 270.441551 
L 88.847564 209.223739 
L 89.093491 208.476542 
L 109.0136 208.476542 
L 109.505455 205.586021 
L 113.194364 205.585941 
L 113.440291 208.21039 
L 113.932145 208.286284 
L 133.606327 208.286284 
L 133.852255 208.747819 
L 134.098182 209.453594 
L 137.787091 209.453703 
L 138.033018 206.345714 
L 138.278945 206.053857 
L 158.199055 206.053857 
L 158.444982 203.815061 
L 158.690909 196.078589 
L 162.379818 196.078662 
L 162.625745 207.280313 
L 162.871673 209.006701 
L 182.791782 209.006701 
L 183.037709 208.595853 
L 183.283636 171.263013 
L 186.972545 171.264071 
L 187.218473 142.801656 
L 187.4644 142.400621 
L 207.384509 142.400621 
L 207.630436 140.97682 
L 207.876364 130.236506 
L 211.565273 130.236986 
L 211.8112 155.984101 
L 212.057127 161.249945 
L 231.977236 161.249945 
L 232.223164 159.639814 
L 232.469091 70.26359 
L 236.158 70.265136 
L 236.403927 56.420896 
L 236.649855 80.513537 
L 256.815891 80.513537 
L 257.061818 85.823376 
L 260.750727 85.822194 
L 260.996655 96.147377 
L 261.242582 100.549276 
L 281.408618 100.549276 
L 281.654545 93.722975 
L 285.343455 93.723298 
L 285.589382 92.124692 
L 285.835309 104.196543 
L 306.001345 104.196543 
L 306.247273 103.753736 
L 306.985055 103.701182 
L 310.182109 103.744661 
L 310.428036 103.210701 
L 330.594073 103.210701 
L 330.84 103.841674 
L 331.331855 103.918271 
L 334.774836 103.900762 
L 335.020764 105.305306 
L 355.1868 105.305306 
L 355.432727 99.141688 
L 355.678655 98.158832 
L 359.367564 98.182077 
L 359.613491 89.825666 
L 379.779527 89.825666 
L 380.025455 96.951775 
L 380.271382 97.681693 
L 383.960291 97.680749 
L 384.206218 104.600246 
L 404.372255 104.600246 
L 404.618182 82.240612 
L 404.864109 75.727783 
L 408.553018 75.728636 
L 408.798945 89.506894 
L 428.964982 89.506894 
L 429.210909 91.189549 
L 429.456836 89.4453 
L 433.145745 89.445337 
L 433.391673 56.483409 
L 433.6376 55.259774 
L 453.557709 55.259774 
L 454.049564 38.479777 
L 457.738473 38.478183 
L 457.9844 66.472558 
L 458.230327 67.590111 
L 478.150436 67.590111 
L 478.642291 82.78476 
L 482.3312 82.78538 
L 482.577127 71.53761 
L 482.823055 71.10246 
L 502.743164 71.10246 
L 502.989091 70.824236 
L 503.235018 70.299036 
L 506.923927 70.298922 
L 507.169855 70.774808 
L 508.153564 70.807002 
L 527.581818 70.795812 
L 527.827745 70.313651 
L 531.516655 70.313768 
L 531.762582 69.418426 
L 532.254436 69.357368 
L 552.174545 69.370268 
L 552.420473 68.592942 
L 556.109382 68.592948 
L 556.355309 72.112038 
L 556.601236 72.388084 
L 576.767273 72.388084 
L 576.767273 72.388084 
" clip-path="url(#p362bd26391)" style="fill: none; stroke: #ff7f0e; stroke-width: 2; stroke-linecap: square"/>
   </g>
   <g id="patch_3">
    <path d="M 60.32 282.04 
L 60.32 26.88 
" style="fill: none; stroke: #000000; stroke-width: 0.8; stroke-linejoin: miter; stroke-linecap: square"/>
   </g>
   <g id="patch_4">
    <path d="M 601.36 282.04 
L 601.36 26.88 
" style="fill: none; stroke: #000000; stroke-width: 0.8; stroke-linejoin: miter; stroke-linecap: square"/>
   </g>
   <g id="patch_5">
    <path d="M 60.32 282.04 
L 601.36 282.04 
" style="fill: none; stroke: #000000; stroke-width: 0.8; stroke-linejoin: miter; stroke-linecap: square"/>
   </g>
   <g id="patch_6">
    <path d="M 60.32 26.88 
L 601.36 26.88 
" style="fill: none; stroke: #000000; stroke-width: 0.8; stroke-linejoin: miter; stroke-linecap: square"/>
   </g>
   <g id="text_16">
    <!-- FodoCell-multibeam-fromfile -->
    <g transform="translate(245.458125 20.88) scale(0.12 -0.12)">
     <defs>
      <path id="DejaVuSans-46" d="M 628 4666 
L 3309 4666 
L 3309 4134 
L 1259 4134 
L 1259 2759 
L 3109 2759 
L 3109 2228 
L 1259 2228 
L 1259 0 
L 628 0 
L 628 4666 
z
" transform="scale(0.015625)"/>
      <path id="DejaVuSans-6f" d="M 1959 3097 
Q 1497 3097 1228 2736 
Q 959 2375 959 1747 
Q 959 1119 1226 758 
Q 1494 397 1959 397 
Q 2419 397 2687 759 
Q 2956 1122 2956 1747 
Q 2956 2369 2687 2733 
Q 2419 3097 1959 3097 
z
M 1959 3584 
Q 2709 3584 3137 3096 
Q 3566 2609 3566 1747 
Q 3566 888 3137 398 
Q 2709 -91 1959 -91 
Q 1206 -91 779 398 
Q 353 888 353 1747 
Q 353 2609 779 3096 
Q 1206 3584 1959 3584 
z
" transform="scale(0.015625)"/>
      <path id="DejaVuSans-64" d="M 2906 2969 
L 2906 4863 
L 3481 4863 
L 3481 0 
L 2906 0 
L 2906 525 
Q 2725 213 2448 61 
Q 2172 -91 1784 -91 
Q 1150 -91 751 415 
Q 353 922 353 1747 
Q 353 2572 751 3078 
Q 1150 3584 1784 3584 
Q 2172 3584 2448 3432 
Q 2725 3281 2906 2969 
z
M 947 1747 
Q 947 1113 1208 752 
Q 1469 391 1925 391 
Q 2381 391 2643 752 
Q 2906 1113 2906 1747 
Q 2906 2381 2643 2742 
Q 2381 3103 1925 3103 
Q 1469 3103 1208 2742 
Q 947 2381 947 1747 
z
" transform="scale(0.015625)"/>
      <path id="DejaVuSans-43" d="M 4122 4306 
L 4122 3641 
Q 3803 3938 3442 4084 
Q 3081 4231 2675 4231 
Q 1875 4231 1450 3742 
Q 1025 3253 1025 2328 
Q 1025 1406 1450 917 
Q 1875 428 2675 428 
Q 3081 428 3442 575 
Q 3803 722 4122 1019 
L 4122 359 
Q 3791 134 3420 21 
Q 3050 -91 2638 -91 
Q 1578 -91 968 557 
Q 359 1206 359 2328 
Q 359 3453 968 4101 
Q 1578 4750 2638 4750 
Q 3056 4750 3426 4639 
Q 3797 4528 4122 4306 
z
" transform="scale(0.015625)"/>
      <path id="DejaVuSans-6c" d="M 603 4863 
L 1178 4863 
L 1178 0 
L 603 0 
L 603 4863 
z
" transform="scale(0.015625)"/>
      <path id="DejaVuSans-2d" d="M 313 2009 
L 1997 2009 
L 1997 1497 
L 313 1497 
L 313 2009 
z
" transform="scale(0.015625)"/>
      <path id="DejaVuSans-75" d="M 544 1381 
L 544 3500 
L 1119 3500 
L 1119 1403 
Q 1119 906 1312 657 
Q 1506 409 1894 409 
Q 2359 409 2629 706 
Q 2900 1003 2900 1516 
L 2900 3500 
L 3475 3500 
L 3475 0 
L 2900 0 
L 2900 538 
Q 2691 219 2414 64 
Q 2138 -91 1772 -91 
Q 1169 -91 856 284 
Q 544 659 544 1381 
z
M 1991 3584 
L 1991 3584 
z
" transform="scale(0.015625)"/>
      <path id="DejaVuSans-62" d="M 3116 1747 
Q 3116 2381 2855 2742 
Q 2594 3103 2138 3103 
Q 1681 3103 1420 2742 
Q 1159 2381 1159 1747 
Q 1159 1113 1420 752 
Q 1681 391 2138 391 
Q 2594 391 2855 752 
Q 3116 1113 3116 1747 
z
M 1159 2969 
Q 1341 3281 1617 3432 
Q 1894 3584 2278 3584 
Q 2916 3584 3314 3078 
Q 3713 2572 3713 1747 
Q 3713 922 3314 415 
Q 2916 -91 2278 -91 
Q 1894 -91 1617 61 
Q 1341 213 1159 525 
L 1159 0 
L 581 0 
L 581 4863 
L 1159 4863 
L 1159 2969 
z
" transform="scale(0.015625)"/>
      <path id="DejaVuSans-61" d="M 2194 1759 
Q 1497 1759 1228 1600 
Q 959 1441 959 1056 
Q 959 750 1161 570 
Q 1363 391 1709 391 
Q 2188 391 2477 730 
Q 2766 1069 2766 1631 
L 2766 1759 
L 2194 1759 
z
M 3341 1997 
L 3341 0 
L 2766 0 
L 2766 531 
Q 2569 213 2275 61 
Q 1981 -91 1556 -91 
Q 1019 -91 701 211 
Q 384 513 384 1019 
Q 384 1609 779 1909 
Q 1175 2209 1959 2209 
L 2766 2209 
L 2766 2266 
Q 2766 2663 2505 2880 
Q 2244 3097 1772 3097 
Q 1472 3097 1187 3025 
Q 903 2953 641 2809 
L 641 3341 
Q 956 3463 1253 3523 
Q 1550 3584 1831 3584 
Q 2591 3584 2966 3190 
Q 3341 2797 3341 1997 
z
" transform="scale(0.015625)"/>
      <path id="DejaVuSans-66" d="M 2375 4863 
L 2375 4384 
L 1825 4384 
Q 1516 4384 1395 4259 
Q 1275 4134 1275 3809 
L 1275 3500 
L 2222 3500 
L 2222 3053 
L 1275 3053 
L 1275 0 
L 697 0 
L 697 3053 
L 147 3053 
L 147 3500 
L 697 3500 
L 697 3744 
Q 697 4328 969 4595 
Q 1241 4863 1831 4863 
L 2375 4863 
z
" transform="scale(0.015625)"/>
      <path id="DejaVuSans-72" d="M 2631 2963 
Q 2534 3019 2420 3045 
Q 2306 3072 2169 3072 
Q 1681 3072 1420 2755 
Q 1159 2438 1159 1844 
L 1159 0 
L 581 0 
L 581 3500 
L 1159 3500 
L 1159 2956 
Q 1341 3275 1631 3429 
Q 1922 3584 2338 3584 
Q 2397 3584 2469 3576 
Q 2541 3569 2628 3553 
L 2631 2963 
z
" transform="scale(0.015625)"/>
     </defs>
     <use xlink:href="#DejaVuSans-46"/>
     <use xlink:href="#DejaVuSans-6f" transform="translate(53.894531 0)"/>
     <use xlink:href="#DejaVuSans-64" transform="translate(115.076172 0)"/>
     <use xlink:href="#DejaVuSans-6f" transform="translate(178.552734 0)"/>
     <use xlink:href="#DejaVuSans-43" transform="translate(239.734375 0)"/>
     <use xlink:href="#DejaVuSans-65" transform="translate(309.558594 0)"/>
     <use xlink:href="#DejaVuSans-6c" transform="translate(371.082031 0)"/>
     <use xlink:href="#DejaVuSans-6c" transform="translate(398.865234 0)"/>
     <use xlink:href="#DejaVuSans-2d" transform="translate(426.648438 0)"/>
     <use xlink:href="#DejaVuSans-6d" transform="translate(462.732422 0)"/>
     <use xlink:href="#DejaVuSans-75" transform="translate(560.144531 0)"/>
     <use xlink:href="#DejaVuSans-6c" transform="translate(623.523438 0)"/>
     <use xlink:href="#DejaVuSans-74" transform="translate(651.306641 0)"/>
     <use xlink:href="#DejaVuSans-69" transform="translate(690.515625 0)"/>
     <use xlink:href="#DejaVuSans-62" transform="translate(718.298828 0)"/>
     <use xlink:href="#DejaVuSans-65" transform="translate(781.775391 0)"/>
     <use xlink:href="#DejaVuSans-61" transform="translate(843.298828 0)"/>
     <use xlink:href="#DejaVuSans-6d" transform="translate(904.578125 0)"/>
     <use xlink:href="#DejaVuSans-2d" transform="translate(1001.990234 0)"/>
     <use xlink:href="#DejaVuSans-66" transform="translate(1038.074219 0)"/>
     <use xlink:href="#DejaVuSans-72" transform="translate(1073.279297 0)"/>
     <use xlink:href="#DejaVuSans-6f" transform="translate(1112.142578 0)"/>
     <use xlink:href="#DejaVuSans-6d" transform="translate(1173.324219 0)"/>
     <use xlink:href="#DejaVuSans-66" transform="translate(1270.736328 0)"/>
     <use xlink:href="#DejaVuSans-69" transform="translate(1305.941406 0)"/>
     <use xlink:href="#DejaVuSans-6c" transform="translate(1333.724609 0)"/>
     <use xlink:href="#DejaVuSans-65" transform="translate(1361.507812 0)"/>
    </g>
   </g>
   <g id="legend_1">
    <g id="patch_7">
     <path d="M 67.32 277.04 
L 147.060625 277.04 
Q 149.060625 277.04 149.060625 275.04 
L 149.060625 246.68375 
Q 149.060625 244.68375 147.060625 244.68375 
L 67.32 244.68375 
Q 65.32 244.68375 65.32 246.68375 
L 65.32 275.04 
Q 65.32 277.04 67.32 277.04 
z
" style="fill: #ffffff; opacity: 0.8; stroke: #cccccc; stroke-linejoin: miter"/>
    </g>
    <g id="line2d_29">
     <path d="M 69.32 252.782188 
L 79.32 252.782188 
L 89.32 252.782188 
" style="fill: none; stroke: #1f77b4; stroke-width: 2; stroke-linecap: square"/>
    </g>
    <g id="text_17">
     <!-- current -->
     <g transform="translate(97.32 256.282188) scale(0.1 -0.1)">
      <defs>
       <path id="DejaVuSans-63" d="M 3122 3366 
L 3122 2828 
Q 2878 2963 2633 3030 
Q 2388 3097 2138 3097 
Q 1578 3097 1268 2742 
Q 959 2388 959 1747 
Q 959 1106 1268 751 
Q 1578 397 2138 397 
Q 2388 397 2633 464 
Q 2878 531 3122 666 
L 3122 134 
Q 2881 22 2623 -34 
Q 2366 -91 2075 -91 
Q 1284 -91 818 406 
Q 353 903 353 1747 
Q 353 2603 823 3093 
Q 1294 3584 2113 3584 
Q 2378 3584 2631 3529 
Q 2884 3475 3122 3366 
z
" transform="scale(0.015625)"/>
       <path id="DejaVuSans-6e" d="M 3513 2113 
L 3513 0 
L 2938 0 
L 2938 2094 
Q 2938 2591 2744 2837 
Q 2550 3084 2163 3084 
Q 1697 3084 1428 2787 
Q 1159 2491 1159 1978 
L 1159 0 
L 581 0 
L 581 3500 
L 1159 3500 
L 1159 2956 
Q 1366 3272 1645 3428 
Q 1925 3584 2291 3584 
Q 2894 3584 3203 3211 
Q 3513 2838 3513 2113 
z
" transform="scale(0.015625)"/>
      </defs>
      <use xlink:href="#DejaVuSans-63"/>
      <use xlink:href="#DejaVuSans-75" transform="translate(54.980469 0)"/>
      <use xlink:href="#DejaVuSans-72" transform="translate(118.359375 0)"/>
      <use xlink:href="#DejaVuSans-72" transform="translate(157.722656 0)"/>
      <use xlink:href="#DejaVuSans-65" transform="translate(196.585938 0)"/>
      <use xlink:href="#DejaVuSans-6e" transform="translate(258.109375 0)"/>
      <use xlink:href="#DejaVuSans-74" transform="translate(321.488281 0)"/>
     </g>
    </g>
    <g id="line2d_30">
     <path d="M 69.32 267.460312 
L 79.32 267.460312 
L 89.32 267.460312 
" style="fill: none; stroke: #ff7f0e; stroke-width: 2; stroke-linecap: square"/>
    </g>
    <g id="text_18">
     <!-- reference -->
     <g transform="translate(97.32 270.960312) scale(0.1 -0.1)">
      <use xlink:href="#DejaVuSans-72"/>
      <use xlink:href="#DejaVuSans-65" transform="translate(38.863281 0)"/>
      <use xlink:href="#DejaVuSans-66" transform="translate(100.386719 0)"/>
      <use xlink:href="#DejaVuSans-65" transform="translate(135.591797 0)"/>
      <use xlink:href="#DejaVuSans-72" transform="translate(197.115234 0)"/>
      <use xlink:href="#DejaVuSans-65" transform="translate(235.978516 0)"/>
      <use xlink:href="#DejaVuSans-6e" transform="translate(297.501953 0)"/>
      <use xlink:href="#DejaVuSans-63" transform="translate(360.880859 0)"/>
      <use xlink:href="#DejaVuSans-65" transform="translate(415.861328 0)"/>
     </g>
    </g>
   </g>
  </g>
  <g id="axes_2">
   <g id="matplotlib.axis_3">
    <g id="ytick_7">
     <g id="line2d_31">
      <defs>
       <path id="mf85d56fe70" d="M 0 0 
L 3.5 0 
" style="stroke: #000000; stroke-width: 0.8"/>
      </defs>
      <g>
       <use xlink:href="#mf85d56fe70" x="601.36" y="274.960731" style="stroke: #000000; stroke-width: 0.8"/>
      </g>
     </g>
     <g id="text_19">
      <!-- −4 -->
      <g transform="translate(608.36 278.75995) scale(0.1 -0.1)">
       <defs>
        <path id="DejaVuSans-2212" d="M 678 2272 
L 4684 2272 
L 4684 1741 
L 678 1741 
L 678 2272 
z
" transform="scale(0.015625)"/>
       </defs>
       <use xlink:href="#DejaVuSans-2212"/>
       <use xlink:href="#DejaVuSans-34" transform="translate(83.789062 0)"/>
      </g>
     </g>
    </g>
    <g id="ytick_8">
     <g id="line2d_32">
      <g>
       <use xlink:href="#mf85d56fe70" x="601.36" y="239.007594" style="stroke: #000000; stroke-width: 0.8"/>
      </g>
     </g>
     <g id="text_20">
      <!-- −3 -->
      <g transform="translate(608.36 242.806813) scale(0.1 -0.1)">
       <use xlink:href="#DejaVuSans-2212"/>
       <use xlink:href="#DejaVuSans-33" transform="translate(83.789062 0)"/>
      </g>
     </g>
    </g>
    <g id="ytick_9">
     <g id="line2d_33">
      <g>
       <use xlink:href="#mf85d56fe70" x="601.36" y="203.054457" style="stroke: #000000; stroke-width: 0.8"/>
      </g>
     </g>
     <g id="text_21">
      <!-- −2 -->
      <g transform="translate(608.36 206.853675) scale(0.1 -0.1)">
       <use xlink:href="#DejaVuSans-2212"/>
       <use xlink:href="#DejaVuSans-32" transform="translate(83.789062 0)"/>
      </g>
     </g>
    </g>
    <g id="ytick_10">
     <g id="line2d_34">
      <g>
       <use xlink:href="#mf85d56fe70" x="601.36" y="167.10132" style="stroke: #000000; stroke-width: 0.8"/>
      </g>
     </g>
     <g id="text_22">
      <!-- −1 -->
      <g transform="translate(608.36 170.900538) scale(0.1 -0.1)">
       <use xlink:href="#DejaVuSans-2212"/>
       <use xlink:href="#DejaVuSans-31" transform="translate(83.789062 0)"/>
      </g>
     </g>
    </g>
    <g id="ytick_11">
     <g id="line2d_35">
      <g>
       <use xlink:href="#mf85d56fe70" x="601.36" y="131.148182" style="stroke: #000000; stroke-width: 0.8"/>
      </g>
     </g>
     <g id="text_23">
      <!-- 0 -->
      <g transform="translate(608.36 134.947401) scale(0.1 -0.1)">
       <use xlink:href="#DejaVuSans-30"/>
      </g>
     </g>
    </g>
    <g id="ytick_12">
     <g id="line2d_36">
      <g>
       <use xlink:href="#mf85d56fe70" x="601.36" y="95.195045" style="stroke: #000000; stroke-width: 0.8"/>
      </g>
     </g>
     <g id="text_24">
      <!-- 1 -->
      <g transform="translate(608.36 98.994264) scale(0.1 -0.1)">
       <use xlink:href="#DejaVuSans-31"/>
      </g>
     </g>
    </g>
    <g id="ytick_13">
     <g id="line2d_37">
      <g>
       <use xlink:href="#mf85d56fe70" x="601.36" y="59.241908" style="stroke: #000000; stroke-width: 0.8"/>
      </g>
     </g>
     <g id="text_25">
      <!-- 2 -->
      <g transform="translate(608.36 63.041127) scale(0.1 -0.1)">
       <use xlink:href="#DejaVuSans-32"/>
      </g>
     </g>
    </g>
    <g id="text_26">
     <!-- delta emit(x) [m] -->
     <g transform="translate(634.700625 197.231094) rotate(-90) scale(0.1 -0.1)">
      <use xlink:href="#DejaVuSans-64"/>
      <use xlink:href="#DejaVuSans-65" transform="translate(63.476562 0)"/>
      <use xlink:href="#DejaVuSans-6c" transform="translate(125 0)"/>
      <use xlink:href="#DejaVuSans-74" transform="translate(152.783203 0)"/>
      <use xlink:href="#DejaVuSans-61" transform="translate(191.992188 0)"/>
      <use xlink:href="#DejaVuSans-20" transform="translate(253.271484 0)"/>
      <use xlink:href="#DejaVuSans-65" transform="translate(285.058594 0)"/>
      <use xlink:href="#DejaVuSans-6d" transform="translate(346.582031 0)"/>
      <use xlink:href="#DejaVuSans-69" transform="translate(443.994141 0)"/>
      <use xlink:href="#DejaVuSans-74" transform="translate(471.777344 0)"/>
      <use xlink:href="#DejaVuSans-28" transform="translate(510.986328 0)"/>
      <use xlink:href="#DejaVuSans-78" transform="translate(550 0)"/>
      <use xlink:href="#DejaVuSans-29" transform="translate(609.179688 0)"/>
      <use xlink:href="#DejaVuSans-20" transform="translate(648.193359 0)"/>
      <use xlink:href="#DejaVuSans-5b" transform="translate(679.980469 0)"/>
      <use xlink:href="#DejaVuSans-6d" transform="translate(718.994141 0)"/>
      <use xlink:href="#DejaVuSans-5d" transform="translate(816.40625 0)"/>
     </g>
    </g>
    <g id="text_27">
     <!-- 1e−12 -->
     <g transform="translate(567.739688 23.88) scale(0.1 -0.1)">
      <use xlink:href="#DejaVuSans-31"/>
      <use xlink:href="#DejaVuSans-65" transform="translate(63.623047 0)"/>
      <use xlink:href="#DejaVuSans-2212" transform="translate(125.146484 0)"/>
      <use xlink:href="#DejaVuSans-31" transform="translate(208.935547 0)"/>
      <use xlink:href="#DejaVuSans-32" transform="translate(272.558594 0)"/>
     </g>
    </g>
   </g>
   <g id="line2d_38">
    <path d="M 84.912727 131.148182 
L 85.158655 131.174503 
L 85.404582 129.3611 
L 85.650509 126.054722 
L 86.142364 130.094672 
L 86.388291 131.196012 
L 86.634218 123.924861 
L 86.880145 144.283265 
L 87.126073 200.456064 
L 87.372 103.99074 
L 87.617927 81.963474 
L 87.863855 122.502267 
L 88.109782 129.521282 
L 88.355709 162.281934 
L 88.601636 136.075 
L 88.847564 131.169793 
L 89.585345 131.125457 
L 110.981018 131.150155 
L 120.080327 131.148541 
L 163.1176 131.162208 
L 163.363527 131.23447 
L 163.855382 131.090296 
L 164.593164 131.21678 
L 165.085018 131.109787 
L 165.576873 131.074735 
L 165.8228 131.265358 
L 166.068727 131.15799 
L 166.314655 131.284014 
L 167.298364 131.114168 
L 167.790218 131.191755 
L 168.773927 131.155838 
L 169.019855 131.196861 
L 169.265782 131.060858 
L 170.003564 131.14872 
L 170.741345 131.032629 
L 171.2332 131.167883 
L 171.479127 131.116795 
L 171.725055 131.257764 
L 171.970982 131.096299 
L 172.216909 131.260353 
L 172.708764 131.098779 
L 172.954691 131.099932 
L 173.200618 131.212867 
L 173.9384 131.202903 
L 174.184327 131.470465 
L 174.430255 131.169832 
L 175.168036 131.312345 
L 176.151745 131.192332 
L 176.6436 131.290305 
L 176.889527 131.087529 
L 177.135455 131.113303 
L 177.381382 131.288255 
L 177.627309 131.18636 
L 177.873236 131.364836 
L 178.365091 131.144588 
L 178.611018 131.306412 
L 178.856945 131.134266 
L 179.102873 131.321513 
L 179.3488 131.35948 
L 179.594727 131.173348 
L 180.086582 131.254599 
L 180.332509 131.020981 
L 180.578436 131.250826 
L 181.316218 131.231414 
L 181.562145 131.44077 
L 182.054 131.131787 
L 182.545855 131.183023 
L 182.791782 131.140527 
L 183.037709 130.719514 
L 183.283636 131.163463 
L 183.529564 131.251184 
L 183.775491 131.009412 
L 184.021418 237.436883 
L 184.267345 38.478182 
L 184.513273 132.213721 
L 185.251055 131.735197 
L 186.972545 130.54899 
L 187.218473 130.035758 
L 187.4644 130.433873 
L 190.415527 130.452319 
L 191.399236 130.415022 
L 198.2852 130.42642 
L 199.760764 130.43024 
L 200.252618 130.439518 
L 204.679309 130.425204 
L 207.384509 130.427356 
L 207.876364 131.215946 
L 209.106 131.101842 
L 209.351927 130.338231 
L 209.597855 131.163463 
L 211.565273 131.208119 
L 211.8112 131.446851 
L 212.057127 131.150163 
L 212.303055 131.281137 
L 212.794909 131.229932 
L 213.778618 131.180458 
L 214.024545 131.230369 
L 214.5164 131.182937 
L 215.500109 131.204876 
L 215.746036 131.2304 
L 216.237891 131.14812 
L 216.729745 131.211424 
L 216.975673 131.250436 
L 217.467527 131.189954 
L 217.959382 131.28859 
L 218.205309 131.197906 
L 218.451236 131.306022 
L 218.697164 131.184497 
L 220.418655 131.282961 
L 220.664582 131.137814 
L 221.156436 131.175188 
L 222.386073 131.30702 
L 222.632 131.102404 
L 223.123855 131.242811 
L 223.369782 131.152174 
L 223.615709 131.231195 
L 224.107564 131.161732 
L 224.353491 131.282322 
L 224.599418 131.041766 
L 225.091273 131.193727 
L 225.583127 131.25134 
L 225.829055 131.279843 
L 226.320909 131.180037 
L 226.812764 131.275851 
L 227.058691 131.158255 
L 227.550545 131.238243 
L 227.796473 131.150662 
L 228.0424 131.271174 
L 229.272036 131.245587 
L 229.517964 131.299333 
L 229.763891 131.137003 
L 230.009818 131.344566 
L 230.501673 131.134368 
L 230.993527 131.28898 
L 231.731309 131.177262 
L 231.977236 131.330034 
L 232.469091 130.746434 
L 233.206873 130.925308 
L 233.4528 78.670336 
L 233.698727 131.042935 
L 236.158 131.64417 
L 236.403927 132.0162 
L 236.649855 131.469101 
L 237.387636 131.668837 
L 237.633564 131.568174 
L 238.125418 131.721476 
L 238.371345 131.54597 
L 238.8632 131.700738 
L 239.109127 131.499693 
L 239.355055 131.694626 
L 240.338764 131.525451 
L 240.830618 131.645823 
L 241.076545 131.594899 
L 241.5684 131.610428 
L 241.814327 131.501907 
L 242.060255 131.588069 
L 242.306182 131.540918 
L 242.798036 131.695406 
L 243.289891 131.621935 
L 243.535818 131.723877 
L 243.781745 131.512946 
L 244.027673 131.662662 
L 245.503236 131.492801 
L 245.995091 131.659357 
L 246.9788 131.572945 
L 247.470655 131.609181 
L 247.962509 131.589441 
L 248.454364 131.568236 
L 249.929927 131.545222 
L 250.175855 131.629544 
L 250.667709 131.557509 
L 251.651418 131.564962 
L 251.897345 131.624898 
L 252.3892 131.558631 
L 253.618836 131.64417 
L 253.864764 131.512541 
L 254.356618 131.55018 
L 256.078109 131.612237 
L 256.569964 131.553829 
L 256.815891 131.594306 
L 257.061818 131.299318 
L 257.307745 131.362965 
L 257.553673 270.441818 
L 257.7996 131.384357 
L 258.045527 131.276974 
L 258.783309 131.271064 
L 260.258873 131.17985 
L 262.964073 131.138157 
L 282.392327 131.224584 
L 285.343455 131.460697 
L 286.327164 131.344847 
L 299.361309 131.343412 
L 303.788 131.338002 
L 374.1232 131.298959 
L 374.369127 131.405142 
L 374.860982 131.289682 
L 376.336545 131.340855 
L 376.582473 131.398203 
L 376.8284 131.301734 
L 377.566182 131.346219 
L 377.812109 131.257655 
L 378.058036 131.40352 
L 378.303964 131.233893 
L 378.795818 131.323532 
L 379.041745 131.21869 
L 379.5336 131.364087 
L 379.779527 131.287467 
L 380.763236 131.432241 
L 383.960291 131.022884 
L 384.452145 131.114488 
L 405.847818 131.150428 
L 406.093745 130.325507 
L 406.339673 131.190874 
L 408.553018 131.422792 
L 408.798945 131.87205 
L 409.2908 131.865766 
L 410.274509 131.858578 
L 410.766364 131.900256 
L 412.733782 131.838121 
L 413.225636 131.837092 
L 413.471564 131.924767 
L 413.963418 131.861494 
L 417.160473 131.872783 
L 417.652327 131.907413 
L 418.144182 131.895516 
L 418.881964 131.842939 
L 419.373818 131.830356 
L 420.357527 131.875012 
L 420.603455 131.939798 
L 421.095309 131.873001 
L 421.341236 131.925593 
L 421.587164 131.798829 
L 421.833091 131.915568 
L 422.324945 131.858578 
L 422.8168 131.929554 
L 423.062727 131.836671 
L 423.554582 131.915568 
L 423.800509 131.819925 
L 424.046436 131.92578 
L 424.784218 131.84941 
L 425.276073 131.879253 
L 426.997564 131.92656 
L 427.243491 131.869321 
L 427.735345 131.941263 
L 428.2272 131.870865 
L 428.473127 131.97159 
L 428.964982 131.86257 
L 429.210909 130.747588 
L 429.456836 130.963493 
L 430.194618 131.068616 
L 433.145745 131.319416 
L 433.6376 133.271714 
L 433.883527 133.179533 
L 434.129455 133.284749 
L 434.375382 133.010139 
L 434.867236 133.34481 
L 435.850945 133.155146 
L 436.3428 133.298719 
L 436.834655 133.140958 
L 437.080582 133.284 
L 437.326509 133.214958 
L 437.572436 133.297534 
L 438.064291 133.218981 
L 439.785782 133.259895 
L 440.031709 133.133006 
L 440.523564 133.231517 
L 440.769491 133.129045 
L 441.7532 133.247577 
L 441.999127 133.188888 
L 442.245055 133.260862 
L 442.490982 133.164034 
L 443.228764 133.266163 
L 444.950255 133.232515 
L 445.196182 133.261392 
L 445.442109 133.166622 
L 445.933964 133.223004 
L 446.179891 133.140615 
L 446.917673 133.227619 
L 448.393236 133.222661 
L 448.885091 133.184148 
L 449.8688 133.239188 
L 450.360655 133.216455 
L 452.082145 133.204044 
L 453.557709 133.159731 
L 454.049564 132.112185 
L 454.541418 131.98093 
L 455.2792 131.769344 
L 455.525127 224.759156 
L 455.771055 131.608339 
L 457.000691 131.334977 
L 458.230327 131.144752 
L 478.642291 131.182017 
L 483.068982 131.609961 
L 483.560836 131.633443 
L 484.298618 131.632663 
L 485.774182 131.597362 
L 486.266036 131.609368 
L 487.249745 131.642767 
L 488.479382 131.623682 
L 502.989091 131.60547 
L 503.235018 131.429809 
L 504.464655 131.382595 
L 526.106255 131.354031 
L 527.827745 131.3806 
L 528.073673 238.913401 
L 528.3196 131.373178 
L 536.189273 131.2945 
L 553.158255 131.290539 
L 553.404182 74.508126 
L 553.650109 70.888805 
L 553.896036 130.501013 
L 556.109382 130.093776 
L 556.355309 129.874737 
L 556.601236 130.012229 
L 558.322727 129.987063 
L 559.060509 130.028975 
L 559.798291 130.013633 
L 561.273855 130.016844 
L 561.765709 130.010732 
L 563.979055 129.934175 
L 564.470909 130.004932 
L 565.208691 130.059162 
L 565.700545 130.050867 
L 565.946473 129.931649 
L 566.438327 130.011668 
L 567.667964 129.986814 
L 568.8976 130.039079 
L 570.127236 129.959185 
L 570.865018 130.001907 
L 571.356873 129.991928 
L 572.094655 130.008113 
L 572.586509 129.997791 
L 574.062073 129.956253 
L 574.553927 130.061407 
L 574.799855 129.907574 
L 575.045782 129.900059 
L 575.291709 130.013976 
L 575.537636 129.933832 
L 576.029491 130.043632 
L 576.275418 129.866536 
L 576.767273 129.909851 
L 576.767273 129.909851 
" clip-path="url(#p362bd26391)" style="fill: none; stroke-dasharray: 3.7,1.6; stroke-dashoffset: 0; stroke: #808080"/>
   </g>
   <g id="patch_8">
    <path d="M 60.32 282.04 
L 60.32 26.88 
" style="fill: none; stroke: #000000; stroke-width: 0.8; stroke-linejoin: miter; stroke-linecap: square"/>
   </g>
   <g id="patch_9">
    <path d="M 601.36 282.04 
L 601.36 26.88 
" style="fill: none; stroke: #000000; stroke-width: 0.8; stroke-linejoin: miter; stroke-linecap: square"/>
   </g>
   <g id="patch_10">
    <path d="M 60.32 282.04 
L 601.36 282.04 
" style="fill: none; stroke: #000000; stroke-width: 0.8; stroke-linejoin: miter; stroke-linecap: square"/>
   </g>
   <g id="patch_11">
    <path d="M 60.32 26.88 
L 601.36 26.88 
" style="fill: none; stroke: #000000; stroke-width: 0.8; stroke-linejoin: miter; stroke-linecap: square"/>
   </g>
   <g id="legend_2">
    <g id="patch_12">
     <path d="M 512.011562 277.04 
L 594.36 277.04 
Q 596.36 277.04 596.36 275.04 
L 596.36 261.361875 
Q 596.36 259.361875 594.36 259.361875 
L 512.011562 259.361875 
Q 510.011562 259.361875 510.011562 261.361875 
L 510.011562 275.04 
Q 510.011562 277.04 512.011562 277.04 
z
" style="fill: #ffffff; opacity: 0.8; stroke: #cccccc; stroke-linejoin: miter"/>
    </g>
    <g id="line2d_39">
     <path d="M 514.011562 267.460312 
L 524.011562 267.460312 
L 534.011562 267.460312 
" style="fill: none; stroke-dasharray: 3.7,1.6; stroke-dashoffset: 0; stroke: #808080"/>
    </g>
    <g id="text_28">
     <!-- difference -->
     <g transform="translate(542.011562 270.960312) scale(0.1 -0.1)">
      <use xlink:href="#DejaVuSans-64"/>
      <use xlink:href="#DejaVuSans-69" transform="translate(63.476562 0)"/>
      <use xlink:href="#DejaVuSans-66" transform="translate(91.259766 0)"/>
      <use xlink:href="#DejaVuSans-66" transform="translate(126.464844 0)"/>
      <use xlink:href="#DejaVuSans-65" transform="translate(161.669922 0)"/>
      <use xlink:href="#DejaVuSans-72" transform="translate(223.193359 0)"/>
      <use xlink:href="#DejaVuSans-65" transform="translate(262.056641 0)"/>
      <use xlink:href="#DejaVuSans-6e" transform="translate(323.580078 0)"/>
      <use xlink:href="#DejaVuSans-63" transform="translate(386.958984 0)"/>
      <use xlink:href="#DejaVuSans-65" transform="translate(441.939453 0)"/>
     </g>
    </g>
   </g>
  </g>
 </g>
 <defs>
  <clipPath id="p362bd26391">
   <rect x="60.32" y="26.88" width="541.04" height="255.16"/>
  </clipPath>
 </defs>
</svg>
