<?xml version="1.0" encoding="utf-8" standalone="no"?>
<!DOCTYPE svg PUBLIC "-//W3C//DTD SVG 1.1//EN"
  "http://www.w3.org/Graphics/SVG/1.1/DTD/svg11.dtd">
<svg xmlns:xlink="http://www.w3.org/1999/xlink" width="648pt" height="324pt" viewBox="0 0 648 324" xmlns="http://www.w3.org/2000/svg" version="1.1">
 <metadata>
  <rdf:RDF xmlns:dc="http://purl.org/dc/elements/1.1/" xmlns:cc="http://creativecommons.org/ns#" xmlns:rdf="http://www.w3.org/1999/02/22-rdf-syntax-ns#">
   <cc:Work>
    <dc:type rdf:resource="http://purl.org/dc/dcmitype/StillImage"/>
    <dc:date>2026-04-28T15:31:56.544111</dc:date>
    <dc:format>image/svg+xml</dc:format>
    <dc:creator>
     <cc:Agent>
      <dc:title>Matplotlib v3.10.8, https://matplotlib.org/</dc:title>
     </cc:Agent>
    </dc:creator>
   </cc:Work>
  </rdf:RDF>
 </metadata>
 <defs>
  <style type="text/css">*{stroke-linejoin: round; stroke-linecap: butt}</style>
 </defs>
 <g id="figure_1">
  <g id="patch_1">
   <path d="M 0 324 
L 648 324 
L 648 0 
L 0 0 
z
" style="fill: #ffffff"/>
  </g>
  <g id="axes_1">
   <g id="patch_2">
    <path d="M 60.59 282.04 
L 601.45 282.04 
L 601.45 26.88 
L 60.59 26.88 
z
" style="fill: #ffffff"/>
   </g>
   <g id="matplotlib.axis_1">
    <g id="xtick_1">
     <g id="line2d_1">
      <path d="M 84.9287 282.04 
L 84.9287 26.88 
" clip-path="url(#pe8c611e58e)" style="fill: none; stroke: #b0b0b0; stroke-width: 0.8; stroke-linecap: square"/>
     </g>
     <g id="line2d_2">
      <defs>
       <path id="m444fe54623" d="M 0 0 
L 0 3.5 
" style="stroke: #000000; stroke-width: 0.8"/>
      </defs>
      <g>
       <use xlink:href="#m444fe54623" x="84.9287" y="282.04" style="stroke: #000000; stroke-width: 0.8"/>
      </g>
     </g>
     <g id="text_1">
      <!-- 0 -->
      <g transform="translate(81.74745 296.638438) scale(0.1 -0.1)">
       <defs>
        <path id="DejaVuSans-30" d="M 2034 4250 
Q 1547 4250 1301 3770 
Q 1056 3291 1056 2328 
Q 1056 1369 1301 889 
Q 1547 409 2034 409 
Q 2525 409 2770 889 
Q 3016 1369 3016 2328 
Q 3016 3291 2770 3770 
Q 2525 4250 2034 4250 
z
M 2034 4750 
Q 2819 4750 3233 4129 
Q 3647 3509 3647 2328 
Q 3647 1150 3233 529 
Q 2819 -91 2034 -91 
Q 1250 -91 836 529 
Q 422 1150 422 2328 
Q 422 3509 836 4129 
Q 1250 4750 2034 4750 
z
" transform="scale(0.015625)"/>
       </defs>
       <use xlink:href="#DejaVuSans-30"/>
      </g>
     </g>
    </g>
    <g id="xtick_2">
     <g id="line2d_3">
      <path d="M 166.933927 282.04 
L 166.933927 26.88 
" clip-path="url(#pe8c611e58e)" style="fill: none; stroke: #b0b0b0; stroke-width: 0.8; stroke-linecap: square"/>
     </g>
     <g id="line2d_4">
      <g>
       <use xlink:href="#m444fe54623" x="166.933927" y="282.04" style="stroke: #000000; stroke-width: 0.8"/>
      </g>
     </g>
     <g id="text_2">
      <!-- 10 -->
      <g transform="translate(160.571427 296.638438) scale(0.1 -0.1)">
       <defs>
        <path id="DejaVuSans-31" d="M 794 531 
L 1825 531 
L 1825 4091 
L 703 3866 
L 703 4441 
L 1819 4666 
L 2450 4666 
L 2450 531 
L 3481 531 
L 3481 0 
L 794 0 
L 794 531 
z
" transform="scale(0.015625)"/>
       </defs>
       <use xlink:href="#DejaVuSans-31"/>
       <use xlink:href="#DejaVuSans-30" transform="translate(63.623047 0)"/>
      </g>
     </g>
    </g>
    <g id="xtick_3">
     <g id="line2d_5">
      <path d="M 248.939155 282.04 
L 248.939155 26.88 
" clip-path="url(#pe8c611e58e)" style="fill: none; stroke: #b0b0b0; stroke-width: 0.8; stroke-linecap: square"/>
     </g>
     <g id="line2d_6">
      <g>
       <use xlink:href="#m444fe54623" x="248.939155" y="282.04" style="stroke: #000000; stroke-width: 0.8"/>
      </g>
     </g>
     <g id="text_3">
      <!-- 20 -->
      <g transform="translate(242.576655 296.638438) scale(0.1 -0.1)">
       <defs>
        <path id="DejaVuSans-32" d="M 1228 531 
L 3431 531 
L 3431 0 
L 469 0 
L 469 531 
Q 828 903 1448 1529 
Q 2069 2156 2228 2338 
Q 2531 2678 2651 2914 
Q 2772 3150 2772 3378 
Q 2772 3750 2511 3984 
Q 2250 4219 1831 4219 
Q 1534 4219 1204 4116 
Q 875 4013 500 3803 
L 500 4441 
Q 881 4594 1212 4672 
Q 1544 4750 1819 4750 
Q 2544 4750 2975 4387 
Q 3406 4025 3406 3419 
Q 3406 3131 3298 2873 
Q 3191 2616 2906 2266 
Q 2828 2175 2409 1742 
Q 1991 1309 1228 531 
z
" transform="scale(0.015625)"/>
       </defs>
       <use xlink:href="#DejaVuSans-32"/>
       <use xlink:href="#DejaVuSans-30" transform="translate(63.623047 0)"/>
      </g>
     </g>
    </g>
    <g id="xtick_4">
     <g id="line2d_7">
      <path d="M 330.944382 282.04 
L 330.944382 26.88 
" clip-path="url(#pe8c611e58e)" style="fill: none; stroke: #b0b0b0; stroke-width: 0.8; stroke-linecap: square"/>
     </g>
     <g id="line2d_8">
      <g>
       <use xlink:href="#m444fe54623" x="330.944382" y="282.04" style="stroke: #000000; stroke-width: 0.8"/>
      </g>
     </g>
     <g id="text_4">
      <!-- 30 -->
      <g transform="translate(324.581882 296.638438) scale(0.1 -0.1)">
       <defs>
        <path id="DejaVuSans-33" d="M 2597 2516 
Q 3050 2419 3304 2112 
Q 3559 1806 3559 1356 
Q 3559 666 3084 287 
Q 2609 -91 1734 -91 
Q 1441 -91 1130 -33 
Q 819 25 488 141 
L 488 750 
Q 750 597 1062 519 
Q 1375 441 1716 441 
Q 2309 441 2620 675 
Q 2931 909 2931 1356 
Q 2931 1769 2642 2001 
Q 2353 2234 1838 2234 
L 1294 2234 
L 1294 2753 
L 1863 2753 
Q 2328 2753 2575 2939 
Q 2822 3125 2822 3475 
Q 2822 3834 2567 4026 
Q 2313 4219 1838 4219 
Q 1578 4219 1281 4162 
Q 984 4106 628 3988 
L 628 4550 
Q 988 4650 1302 4700 
Q 1616 4750 1894 4750 
Q 2613 4750 3031 4423 
Q 3450 4097 3450 3541 
Q 3450 3153 3228 2886 
Q 3006 2619 2597 2516 
z
" transform="scale(0.015625)"/>
       </defs>
       <use xlink:href="#DejaVuSans-33"/>
       <use xlink:href="#DejaVuSans-30" transform="translate(63.623047 0)"/>
      </g>
     </g>
    </g>
    <g id="xtick_5">
     <g id="line2d_9">
      <path d="M 412.949609 282.04 
L 412.949609 26.88 
" clip-path="url(#pe8c611e58e)" style="fill: none; stroke: #b0b0b0; stroke-width: 0.8; stroke-linecap: square"/>
     </g>
     <g id="line2d_10">
      <g>
       <use xlink:href="#m444fe54623" x="412.949609" y="282.04" style="stroke: #000000; stroke-width: 0.8"/>
      </g>
     </g>
     <g id="text_5">
      <!-- 40 -->
      <g transform="translate(406.587109 296.638438) scale(0.1 -0.1)">
       <defs>
        <path id="DejaVuSans-34" d="M 2419 4116 
L 825 1625 
L 2419 1625 
L 2419 4116 
z
M 2253 4666 
L 3047 4666 
L 3047 1625 
L 3713 1625 
L 3713 1100 
L 3047 1100 
L 3047 0 
L 2419 0 
L 2419 1100 
L 313 1100 
L 313 1709 
L 2253 4666 
z
" transform="scale(0.015625)"/>
       </defs>
       <use xlink:href="#DejaVuSans-34"/>
       <use xlink:href="#DejaVuSans-30" transform="translate(63.623047 0)"/>
      </g>
     </g>
    </g>
    <g id="xtick_6">
     <g id="line2d_11">
      <path d="M 494.954836 282.04 
L 494.954836 26.88 
" clip-path="url(#pe8c611e58e)" style="fill: none; stroke: #b0b0b0; stroke-width: 0.8; stroke-linecap: square"/>
     </g>
     <g id="line2d_12">
      <g>
       <use xlink:href="#m444fe54623" x="494.954836" y="282.04" style="stroke: #000000; stroke-width: 0.8"/>
      </g>
     </g>
     <g id="text_6">
      <!-- 50 -->
      <g transform="translate(488.592336 296.638438) scale(0.1 -0.1)">
       <defs>
        <path id="DejaVuSans-35" d="M 691 4666 
L 3169 4666 
L 3169 4134 
L 1269 4134 
L 1269 2991 
Q 1406 3038 1543 3061 
Q 1681 3084 1819 3084 
Q 2600 3084 3056 2656 
Q 3513 2228 3513 1497 
Q 3513 744 3044 326 
Q 2575 -91 1722 -91 
Q 1428 -91 1123 -41 
Q 819 9 494 109 
L 494 744 
Q 775 591 1075 516 
Q 1375 441 1709 441 
Q 2250 441 2565 725 
Q 2881 1009 2881 1497 
Q 2881 1984 2565 2268 
Q 2250 2553 1709 2553 
Q 1456 2553 1204 2497 
Q 953 2441 691 2322 
L 691 4666 
z
" transform="scale(0.015625)"/>
       </defs>
       <use xlink:href="#DejaVuSans-35"/>
       <use xlink:href="#DejaVuSans-30" transform="translate(63.623047 0)"/>
      </g>
     </g>
    </g>
    <g id="xtick_7">
     <g id="line2d_13">
      <path d="M 576.960064 282.04 
L 576.960064 26.88 
" clip-path="url(#pe8c611e58e)" style="fill: none; stroke: #b0b0b0; stroke-width: 0.8; stroke-linecap: square"/>
     </g>
     <g id="line2d_14">
      <g>
       <use xlink:href="#m444fe54623" x="576.960064" y="282.04" style="stroke: #000000; stroke-width: 0.8"/>
      </g>
     </g>
     <g id="text_7">
      <!-- 60 -->
      <g transform="translate(570.597564 296.638438) scale(0.1 -0.1)">
       <defs>
        <path id="DejaVuSans-36" d="M 2113 2584 
Q 1688 2584 1439 2293 
Q 1191 2003 1191 1497 
Q 1191 994 1439 701 
Q 1688 409 2113 409 
Q 2538 409 2786 701 
Q 3034 994 3034 1497 
Q 3034 2003 2786 2293 
Q 2538 2584 2113 2584 
z
M 3366 4563 
L 3366 3988 
Q 3128 4100 2886 4159 
Q 2644 4219 2406 4219 
Q 1781 4219 1451 3797 
Q 1122 3375 1075 2522 
Q 1259 2794 1537 2939 
Q 1816 3084 2150 3084 
Q 2853 3084 3261 2657 
Q 3669 2231 3669 1497 
Q 3669 778 3244 343 
Q 2819 -91 2113 -91 
Q 1303 -91 875 529 
Q 447 1150 447 2328 
Q 447 3434 972 4092 
Q 1497 4750 2381 4750 
Q 2619 4750 2861 4703 
Q 3103 4656 3366 4563 
z
" transform="scale(0.015625)"/>
       </defs>
       <use xlink:href="#DejaVuSans-36"/>
       <use xlink:href="#DejaVuSans-30" transform="translate(63.623047 0)"/>
      </g>
     </g>
    </g>
    <g id="text_8">
     <!-- s [m] -->
     <g transform="translate(318.054375 310.316563) scale(0.1 -0.1)">
      <defs>
       <path id="DejaVuSans-73" d="M 2834 3397 
L 2834 2853 
Q 2591 2978 2328 3040 
Q 2066 3103 1784 3103 
Q 1356 3103 1142 2972 
Q 928 2841 928 2578 
Q 928 2378 1081 2264 
Q 1234 2150 1697 2047 
L 1894 2003 
Q 2506 1872 2764 1633 
Q 3022 1394 3022 966 
Q 3022 478 2636 193 
Q 2250 -91 1575 -91 
Q 1294 -91 989 -36 
Q 684 19 347 128 
L 347 722 
Q 666 556 975 473 
Q 1284 391 1588 391 
Q 1994 391 2212 530 
Q 2431 669 2431 922 
Q 2431 1156 2273 1281 
Q 2116 1406 1581 1522 
L 1381 1569 
Q 847 1681 609 1914 
Q 372 2147 372 2553 
Q 372 3047 722 3315 
Q 1072 3584 1716 3584 
Q 2034 3584 2315 3537 
Q 2597 3491 2834 3397 
z
" transform="scale(0.015625)"/>
       <path id="DejaVuSans-20" transform="scale(0.015625)"/>
       <path id="DejaVuSans-5b" d="M 550 4863 
L 1875 4863 
L 1875 4416 
L 1125 4416 
L 1125 -397 
L 1875 -397 
L 1875 -844 
L 550 -844 
L 550 4863 
z
" transform="scale(0.015625)"/>
       <path id="DejaVuSans-6d" d="M 3328 2828 
Q 3544 3216 3844 3400 
Q 4144 3584 4550 3584 
Q 5097 3584 5394 3201 
Q 5691 2819 5691 2113 
L 5691 0 
L 5113 0 
L 5113 2094 
Q 5113 2597 4934 2840 
Q 4756 3084 4391 3084 
Q 3944 3084 3684 2787 
Q 3425 2491 3425 1978 
L 3425 0 
L 2847 0 
L 2847 2094 
Q 2847 2600 2669 2842 
Q 2491 3084 2119 3084 
Q 1678 3084 1418 2786 
Q 1159 2488 1159 1978 
L 1159 0 
L 581 0 
L 581 3500 
L 1159 3500 
L 1159 2956 
Q 1356 3278 1631 3431 
Q 1906 3584 2284 3584 
Q 2666 3584 2933 3390 
Q 3200 3197 3328 2828 
z
" transform="scale(0.015625)"/>
       <path id="DejaVuSans-5d" d="M 1947 4863 
L 1947 -844 
L 622 -844 
L 622 -397 
L 1369 -397 
L 1369 4416 
L 622 4416 
L 622 4863 
L 1947 4863 
z
" transform="scale(0.015625)"/>
      </defs>
      <use xlink:href="#DejaVuSans-73"/>
      <use xlink:href="#DejaVuSans-20" transform="translate(52.099609 0)"/>
      <use xlink:href="#DejaVuSans-5b" transform="translate(83.886719 0)"/>
      <use xlink:href="#DejaVuSans-6d" transform="translate(122.900391 0)"/>
      <use xlink:href="#DejaVuSans-5d" transform="translate(220.3125 0)"/>
     </g>
    </g>
   </g>
   <g id="matplotlib.axis_2">
    <g id="ytick_1">
     <g id="line2d_15">
      <path d="M 60.59 272.5 
L 601.45 272.5 
" clip-path="url(#pe8c611e58e)" style="fill: none; stroke: #b0b0b0; stroke-width: 0.8; stroke-linecap: square"/>
     </g>
     <g id="line2d_16">
      <defs>
       <path id="mf06dd0e1be" d="M 0 0 
L -3.5 0 
" style="stroke: #000000; stroke-width: 0.8"/>
      </defs>
      <g>
       <use xlink:href="#mf06dd0e1be" x="60.59" y="272.5" style="stroke: #000000; stroke-width: 0.8"/>
      </g>
     </g>
     <g id="text_9">
      <!-- 6.398 -->
      <g transform="translate(24.961875 276.299219) scale(0.1 -0.1)">
       <defs>
        <path id="DejaVuSans-2e" d="M 684 794 
L 1344 794 
L 1344 0 
L 684 0 
L 684 794 
z
" transform="scale(0.015625)"/>
        <path id="DejaVuSans-39" d="M 703 97 
L 703 672 
Q 941 559 1184 500 
Q 1428 441 1663 441 
Q 2288 441 2617 861 
Q 2947 1281 2994 2138 
Q 2813 1869 2534 1725 
Q 2256 1581 1919 1581 
Q 1219 1581 811 2004 
Q 403 2428 403 3163 
Q 403 3881 828 4315 
Q 1253 4750 1959 4750 
Q 2769 4750 3195 4129 
Q 3622 3509 3622 2328 
Q 3622 1225 3098 567 
Q 2575 -91 1691 -91 
Q 1453 -91 1209 -44 
Q 966 3 703 97 
z
M 1959 2075 
Q 2384 2075 2632 2365 
Q 2881 2656 2881 3163 
Q 2881 3666 2632 3958 
Q 2384 4250 1959 4250 
Q 1534 4250 1286 3958 
Q 1038 3666 1038 3163 
Q 1038 2656 1286 2365 
Q 1534 2075 1959 2075 
z
" transform="scale(0.015625)"/>
        <path id="DejaVuSans-38" d="M 2034 2216 
Q 1584 2216 1326 1975 
Q 1069 1734 1069 1313 
Q 1069 891 1326 650 
Q 1584 409 2034 409 
Q 2484 409 2743 651 
Q 3003 894 3003 1313 
Q 3003 1734 2745 1975 
Q 2488 2216 2034 2216 
z
M 1403 2484 
Q 997 2584 770 2862 
Q 544 3141 544 3541 
Q 544 4100 942 4425 
Q 1341 4750 2034 4750 
Q 2731 4750 3128 4425 
Q 3525 4100 3525 3541 
Q 3525 3141 3298 2862 
Q 3072 2584 2669 2484 
Q 3125 2378 3379 2068 
Q 3634 1759 3634 1313 
Q 3634 634 3220 271 
Q 2806 -91 2034 -91 
Q 1263 -91 848 271 
Q 434 634 434 1313 
Q 434 1759 690 2068 
Q 947 2378 1403 2484 
z
M 1172 3481 
Q 1172 3119 1398 2916 
Q 1625 2713 2034 2713 
Q 2441 2713 2670 2916 
Q 2900 3119 2900 3481 
Q 2900 3844 2670 4047 
Q 2441 4250 2034 4250 
Q 1625 4250 1398 4047 
Q 1172 3844 1172 3481 
z
" transform="scale(0.015625)"/>
       </defs>
       <use xlink:href="#DejaVuSans-36"/>
       <use xlink:href="#DejaVuSans-2e" transform="translate(63.623047 0)"/>
       <use xlink:href="#DejaVuSans-33" transform="translate(95.410156 0)"/>
       <use xlink:href="#DejaVuSans-39" transform="translate(159.033203 0)"/>
       <use xlink:href="#DejaVuSans-38" transform="translate(222.65625 0)"/>
      </g>
     </g>
    </g>
    <g id="ytick_2">
     <g id="line2d_17">
      <path d="M 60.59 230.75 
L 601.45 230.75 
" clip-path="url(#pe8c611e58e)" style="fill: none; stroke: #b0b0b0; stroke-width: 0.8; stroke-linecap: square"/>
     </g>
     <g id="line2d_18">
      <g>
       <use xlink:href="#mf06dd0e1be" x="60.59" y="230.75" style="stroke: #000000; stroke-width: 0.8"/>
      </g>
     </g>
     <g id="text_10">
      <!-- 6.598 -->
      <g transform="translate(24.961875 234.549219) scale(0.1 -0.1)">
       <use xlink:href="#DejaVuSans-36"/>
       <use xlink:href="#DejaVuSans-2e" transform="translate(63.623047 0)"/>
       <use xlink:href="#DejaVuSans-35" transform="translate(95.410156 0)"/>
       <use xlink:href="#DejaVuSans-39" transform="translate(159.033203 0)"/>
       <use xlink:href="#DejaVuSans-38" transform="translate(222.65625 0)"/>
      </g>
     </g>
    </g>
    <g id="ytick_3">
     <g id="line2d_19">
      <path d="M 60.59 189 
L 601.45 189 
" clip-path="url(#pe8c611e58e)" style="fill: none; stroke: #b0b0b0; stroke-width: 0.8; stroke-linecap: square"/>
     </g>
     <g id="line2d_20">
      <g>
       <use xlink:href="#mf06dd0e1be" x="60.59" y="189" style="stroke: #000000; stroke-width: 0.8"/>
      </g>
     </g>
     <g id="text_11">
      <!-- 6.798 -->
      <g transform="translate(24.961875 192.799219) scale(0.1 -0.1)">
       <defs>
        <path id="DejaVuSans-37" d="M 525 4666 
L 3525 4666 
L 3525 4397 
L 1831 0 
L 1172 0 
L 2766 4134 
L 525 4134 
L 525 4666 
z
" transform="scale(0.015625)"/>
       </defs>
       <use xlink:href="#DejaVuSans-36"/>
       <use xlink:href="#DejaVuSans-2e" transform="translate(63.623047 0)"/>
       <use xlink:href="#DejaVuSans-37" transform="translate(95.410156 0)"/>
       <use xlink:href="#DejaVuSans-39" transform="translate(159.033203 0)"/>
       <use xlink:href="#DejaVuSans-38" transform="translate(222.65625 0)"/>
      </g>
     </g>
    </g>
    <g id="ytick_4">
     <g id="line2d_21">
      <path d="M 60.59 147 
L 601.45 147 
" clip-path="url(#pe8c611e58e)" style="fill: none; stroke: #b0b0b0; stroke-width: 0.8; stroke-linecap: square"/>
     </g>
     <g id="line2d_22">
      <g>
       <use xlink:href="#mf06dd0e1be" x="60.59" y="147" style="stroke: #000000; stroke-width: 0.8"/>
      </g>
     </g>
     <g id="text_12">
      <!-- 6.999 -->
      <g transform="translate(24.961875 150.799219) scale(0.1 -0.1)">
       <use xlink:href="#DejaVuSans-36"/>
       <use xlink:href="#DejaVuSans-2e" transform="translate(63.623047 0)"/>
       <use xlink:href="#DejaVuSans-39" transform="translate(95.410156 0)"/>
       <use xlink:href="#DejaVuSans-39" transform="translate(159.033203 0)"/>
       <use xlink:href="#DejaVuSans-39" transform="translate(222.65625 0)"/>
      </g>
     </g>
    </g>
    <g id="ytick_5">
     <g id="line2d_23">
      <path d="M 60.59 105.25 
L 601.45 105.25 
" clip-path="url(#pe8c611e58e)" style="fill: none; stroke: #b0b0b0; stroke-width: 0.8; stroke-linecap: square"/>
     </g>
     <g id="line2d_24">
      <g>
       <use xlink:href="#mf06dd0e1be" x="60.59" y="105.25" style="stroke: #000000; stroke-width: 0.8"/>
      </g>
     </g>
     <g id="text_13">
      <!-- 7.199 -->
      <g transform="translate(24.961875 109.049219) scale(0.1 -0.1)">
       <use xlink:href="#DejaVuSans-37"/>
       <use xlink:href="#DejaVuSans-2e" transform="translate(63.623047 0)"/>
       <use xlink:href="#DejaVuSans-31" transform="translate(95.410156 0)"/>
       <use xlink:href="#DejaVuSans-39" transform="translate(159.033203 0)"/>
       <use xlink:href="#DejaVuSans-39" transform="translate(222.65625 0)"/>
      </g>
     </g>
    </g>
    <g id="ytick_6">
     <g id="line2d_25">
      <path d="M 60.59 63.5 
L 601.45 63.5 
" clip-path="url(#pe8c611e58e)" style="fill: none; stroke: #b0b0b0; stroke-width: 0.8; stroke-linecap: square"/>
     </g>
     <g id="line2d_26">
      <g>
       <use xlink:href="#mf06dd0e1be" x="60.59" y="63.5" style="stroke: #000000; stroke-width: 0.8"/>
      </g>
     </g>
     <g id="text_14">
      <!-- 7.399 -->
      <g transform="translate(24.961875 67.299219) scale(0.1 -0.1)">
       <use xlink:href="#DejaVuSans-37"/>
       <use xlink:href="#DejaVuSans-2e" transform="translate(63.623047 0)"/>
       <use xlink:href="#DejaVuSans-33" transform="translate(95.410156 0)"/>
       <use xlink:href="#DejaVuSans-39" transform="translate(159.033203 0)"/>
       <use xlink:href="#DejaVuSans-39" transform="translate(222.65625 0)"/>
      </g>
     </g>
    </g>
    <g id="text_15">
     <!-- energy [MeV] -->
     <g transform="translate(18.882188 188.185) rotate(-90) scale(0.1 -0.1)">
      <defs>
       <path id="DejaVuSans-65" d="M 3597 1894 
L 3597 1613 
L 953 1613 
Q 991 1019 1311 708 
Q 1631 397 2203 397 
Q 2534 397 2845 478 
Q 3156 559 3463 722 
L 3463 178 
Q 3153 47 2828 -22 
Q 2503 -91 2169 -91 
Q 1331 -91 842 396 
Q 353 884 353 1716 
Q 353 2575 817 3079 
Q 1281 3584 2069 3584 
Q 2775 3584 3186 3129 
Q 3597 2675 3597 1894 
z
M 3022 2063 
Q 3016 2534 2758 2815 
Q 2500 3097 2075 3097 
Q 1594 3097 1305 2825 
Q 1016 2553 972 2059 
L 3022 2063 
z
" transform="scale(0.015625)"/>
       <path id="DejaVuSans-6e" d="M 3513 2113 
L 3513 0 
L 2938 0 
L 2938 2094 
Q 2938 2591 2744 2837 
Q 2550 3084 2163 3084 
Q 1697 3084 1428 2787 
Q 1159 2491 1159 1978 
L 1159 0 
L 581 0 
L 581 3500 
L 1159 3500 
L 1159 2956 
Q 1366 3272 1645 3428 
Q 1925 3584 2291 3584 
Q 2894 3584 3203 3211 
Q 3513 2838 3513 2113 
z
" transform="scale(0.015625)"/>
       <path id="DejaVuSans-72" d="M 2631 2963 
Q 2534 3019 2420 3045 
Q 2306 3072 2169 3072 
Q 1681 3072 1420 2755 
Q 1159 2438 1159 1844 
L 1159 0 
L 581 0 
L 581 3500 
L 1159 3500 
L 1159 2956 
Q 1341 3275 1631 3429 
Q 1922 3584 2338 3584 
Q 2397 3584 2469 3576 
Q 2541 3569 2628 3553 
L 2631 2963 
z
" transform="scale(0.015625)"/>
       <path id="DejaVuSans-67" d="M 2906 1791 
Q 2906 2416 2648 2759 
Q 2391 3103 1925 3103 
Q 1463 3103 1205 2759 
Q 947 2416 947 1791 
Q 947 1169 1205 825 
Q 1463 481 1925 481 
Q 2391 481 2648 825 
Q 2906 1169 2906 1791 
z
M 3481 434 
Q 3481 -459 3084 -895 
Q 2688 -1331 1869 -1331 
Q 1566 -1331 1297 -1286 
Q 1028 -1241 775 -1147 
L 775 -588 
Q 1028 -725 1275 -790 
Q 1522 -856 1778 -856 
Q 2344 -856 2625 -561 
Q 2906 -266 2906 331 
L 2906 616 
Q 2728 306 2450 153 
Q 2172 0 1784 0 
Q 1141 0 747 490 
Q 353 981 353 1791 
Q 353 2603 747 3093 
Q 1141 3584 1784 3584 
Q 2172 3584 2450 3431 
Q 2728 3278 2906 2969 
L 2906 3500 
L 3481 3500 
L 3481 434 
z
" transform="scale(0.015625)"/>
       <path id="DejaVuSans-79" d="M 2059 -325 
Q 1816 -950 1584 -1140 
Q 1353 -1331 966 -1331 
L 506 -1331 
L 506 -850 
L 844 -850 
Q 1081 -850 1212 -737 
Q 1344 -625 1503 -206 
L 1606 56 
L 191 3500 
L 800 3500 
L 1894 763 
L 2988 3500 
L 3597 3500 
L 2059 -325 
z
" transform="scale(0.015625)"/>
       <path id="DejaVuSans-4d" d="M 628 4666 
L 1569 4666 
L 2759 1491 
L 3956 4666 
L 4897 4666 
L 4897 0 
L 4281 0 
L 4281 4097 
L 3078 897 
L 2444 897 
L 1241 4097 
L 1241 0 
L 628 0 
L 628 4666 
z
" transform="scale(0.015625)"/>
       <path id="DejaVuSans-56" d="M 1831 0 
L 50 4666 
L 709 4666 
L 2188 738 
L 3669 4666 
L 4325 4666 
L 2547 0 
L 1831 0 
z
" transform="scale(0.015625)"/>
      </defs>
      <use xlink:href="#DejaVuSans-65"/>
      <use xlink:href="#DejaVuSans-6e" transform="translate(61.523438 0)"/>
      <use xlink:href="#DejaVuSans-65" transform="translate(124.902344 0)"/>
      <use xlink:href="#DejaVuSans-72" transform="translate(186.425781 0)"/>
      <use xlink:href="#DejaVuSans-67" transform="translate(225.789062 0)"/>
      <use xlink:href="#DejaVuSans-79" transform="translate(289.265625 0)"/>
      <use xlink:href="#DejaVuSans-20" transform="translate(348.445312 0)"/>
      <use xlink:href="#DejaVuSans-5b" transform="translate(380.232422 0)"/>
      <use xlink:href="#DejaVuSans-4d" transform="translate(419.246094 0)"/>
      <use xlink:href="#DejaVuSans-65" transform="translate(505.525391 0)"/>
      <use xlink:href="#DejaVuSans-56" transform="translate(567.048828 0)"/>
      <use xlink:href="#DejaVuSans-5d" transform="translate(635.457031 0)"/>
     </g>
    </g>
    <g id="text_16">
     <!-- 1e−10+1e3 -->
     <g transform="translate(60.59 23.88) scale(0.1 -0.1)">
      <defs>
       <path id="DejaVuSans-2212" d="M 678 2272 
L 4684 2272 
L 4684 1741 
L 678 1741 
L 678 2272 
z
" transform="scale(0.015625)"/>
       <path id="DejaVuSans-2b" d="M 2944 4013 
L 2944 2272 
L 4684 2272 
L 4684 1741 
L 2944 1741 
L 2944 0 
L 2419 0 
L 2419 1741 
L 678 1741 
L 678 2272 
L 2419 2272 
L 2419 4013 
L 2944 4013 
z
" transform="scale(0.015625)"/>
      </defs>
      <use xlink:href="#DejaVuSans-31"/>
      <use xlink:href="#DejaVuSans-65" transform="translate(63.623047 0)"/>
      <use xlink:href="#DejaVuSans-2212" transform="translate(125.146484 0)"/>
      <use xlink:href="#DejaVuSans-31" transform="translate(208.935547 0)"/>
      <use xlink:href="#DejaVuSans-30" transform="translate(272.558594 0)"/>
      <use xlink:href="#DejaVuSans-2b" transform="translate(336.181641 0)"/>
      <use xlink:href="#DejaVuSans-31" transform="translate(419.970703 0)"/>
      <use xlink:href="#DejaVuSans-65" transform="translate(483.59375 0)"/>
      <use xlink:href="#DejaVuSans-33" transform="translate(545.117188 0)"/>
     </g>
    </g>
   </g>
   <g id="line2d_27">
    <path d="M 85.174545 153.25 
L 88.616382 153.25 
L 88.862227 155.5 
L 89.599764 155.5 
L 89.845609 157.5 
L 91.074836 157.5 
L 91.320682 159.75 
L 93.0416 159.75 
L 93.287445 161.5 
L 94.762518 161.5 
L 95.008364 163.75 
L 95.991745 163.75 
L 96.237591 165.75 
L 97.958509 165.75 
L 98.204355 168 
L 99.925273 168 
L 100.171118 170 
L 101.646191 170 
L 101.892036 172 
L 103.612955 172 
L 103.8588 174.25 
L 106.5631 174.25 
L 106.808945 176.25 
L 108.038173 176.25 
L 108.284018 178.5 
L 109.513245 178.5 
L 109.759091 180.25 
L 111.9717 180.25 
L 112.217545 182.5 
L 113.938464 182.5 
L 114.184309 180.25 
L 116.151073 180.25 
L 116.396918 178.5 
L 118.363682 178.5 
L 118.609527 176.25 
L 121.313827 176.25 
L 121.559673 174.25 
L 122.7889 174.25 
L 123.034745 172 
L 125.739045 172 
L 125.984891 170 
L 127.459964 170 
L 127.705809 168 
L 129.426727 168 
L 129.672573 165.75 
L 131.147645 165.75 
L 131.393491 163.75 
L 133.360255 163.75 
L 133.6061 161.5 
L 139.0147 161.5 
L 139.260545 163.75 
L 140.489773 163.75 
L 140.735618 165.75 
L 141.964845 165.75 
L 142.210691 168 
L 143.931609 168 
L 144.177455 170 
L 145.898373 170 
L 146.144218 172 
L 148.602673 172 
L 148.848518 174.25 
L 149.8319 174.25 
L 150.077745 176.25 
L 152.782045 176.25 
L 153.027891 178.5 
L 155.486345 178.5 
L 155.732191 180.25 
L 157.453109 180.25 
L 157.698955 182.5 
L 160.6491 182.5 
L 160.894945 184.5 
L 161.386636 184.5 
L 161.632482 182.5 
L 161.878327 184.5 
L 163.3534 184.5 
L 163.599245 186.75 
L 165.811855 186.75 
L 166.0577 189 
L 166.795236 189 
L 167.041082 190.75 
L 168.762 190.75 
L 169.007845 193 
L 171.712145 193 
L 171.957991 195 
L 173.187218 195 
L 173.433064 197.25 
L 175.399827 197.25 
L 175.645673 199.25 
L 176.629055 199.25 
L 176.8749 201.25 
L 177.858282 201.25 
L 178.104127 203.25 
L 180.316736 203.25 
L 180.562582 205.5 
L 181.300118 205.5 
L 181.545964 207.75 
L 182.775191 207.75 
L 183.021036 209.75 
L 183.266882 209.75 
L 183.512727 211.75 
L 183.758573 209.75 
L 184.004418 209.75 
L 184.250264 211.75 
L 184.496109 209.75 
L 184.741955 211.75 
L 184.9878 209.75 
L 185.233645 209.75 
L 185.479491 211.75 
L 185.971182 211.75 
L 186.217027 209.75 
L 187.446255 209.75 
L 187.6921 211.75 
L 187.937945 211.75 
L 188.183791 213.75 
L 188.675482 213.75 
L 188.921327 216 
L 189.413018 216 
L 189.658864 218 
L 190.3964 218 
L 190.642245 220.25 
L 191.379782 220.25 
L 191.625627 222 
L 192.363164 222 
L 192.609009 224.25 
L 192.854855 224.25 
L 193.1007 226.5 
L 193.592391 226.5 
L 193.838236 228.5 
L 194.821618 228.5 
L 195.067464 230.75 
L 195.805 230.75 
L 196.050845 232.5 
L 197.034227 232.5 
L 197.280073 234.75 
L 197.525918 234.75 
L 197.771764 236.75 
L 198.017609 236.75 
L 198.263455 239 
L 198.755145 239 
L 199.000991 241 
L 199.738527 241 
L 199.984373 243 
L 200.230218 243 
L 200.476064 245.25 
L 200.967755 245.25 
L 201.2136 247.25 
L 201.951136 247.25 
L 202.196982 249.5 
L 202.688673 249.5 
L 202.934518 251.5 
L 203.180364 251.5 
L 203.426209 253.5 
L 203.9179 253.5 
L 204.163745 255.5 
L 204.409591 255.5 
L 204.655436 257.75 
L 205.147127 257.75 
L 205.392973 259.75 
L 205.638818 259.75 
L 205.884664 262 
L 206.6222 262 
L 206.868045 264 
L 207.605582 264 
L 208.097273 268.25 
L 209.572345 268.25 
L 209.818191 270.25 
L 210.555727 270.25 
L 210.801573 268.25 
L 211.539109 268.25 
L 211.784955 270.25 
L 212.0308 268.25 
L 213.014182 268.25 
L 213.260027 266 
L 213.997564 266 
L 214.243409 264 
L 214.980945 264 
L 215.226791 262 
L 216.210173 262 
L 216.456018 259.75 
L 218.176936 259.75 
L 218.422782 257.75 
L 219.406164 257.75 
L 219.652009 255.5 
L 220.1437 255.5 
L 220.389545 253.5 
L 221.127082 253.5 
L 221.372927 251.5 
L 222.356309 251.5 
L 222.602155 249.5 
L 224.077227 249.5 
L 224.323073 247.25 
L 225.306455 247.25 
L 225.5523 245.25 
L 227.764909 245.25 
L 228.010755 243 
L 228.994136 243 
L 229.239982 241 
L 229.977518 241 
L 230.223364 239 
L 230.9609 239 
L 231.206745 236.75 
L 231.944282 236.75 
L 232.190127 234.75 
L 233.419355 234.75 
L 233.6652 232.5 
L 236.123655 232.5 
L 236.3695 230.75 
L 241.532255 230.75 
L 241.7781 228.5 
L 242.023945 230.75 
L 242.761482 230.75 
L 243.007327 228.5 
L 253.086991 228.5 
L 253.332836 226.5 
L 257.266364 226.5 
L 257.512209 228.5 
L 257.758055 226.5 
L 260.462355 226.5 
L 260.7082 224.25 
L 261.199891 224.25 
L 261.445736 226.5 
L 262.674964 226.5 
L 262.920809 228.5 
L 265.625109 228.5 
L 265.870955 230.75 
L 267.346027 230.75 
L 267.591873 232.5 
L 269.312791 232.5 
L 269.558636 234.75 
L 272.017091 234.75 
L 272.262936 236.75 
L 274.2297 236.75 
L 274.475545 239 
L 275.704773 239 
L 275.950618 241 
L 276.934 241 
L 277.179845 243 
L 279.392455 243 
L 279.6383 245.25 
L 280.867527 245.25 
L 281.113373 247.25 
L 282.096755 247.25 
L 282.3426 249.5 
L 282.588445 249.5 
L 282.834291 247.25 
L 283.080136 247.25 
L 283.325982 249.5 
L 283.817673 249.5 
L 284.063518 251.5 
L 284.309364 249.5 
L 285.292745 249.5 
L 285.538591 251.5 
L 285.784436 249.5 
L 286.276127 249.5 
L 286.521973 247.25 
L 287.013664 247.25 
L 287.259509 245.25 
L 287.997045 245.25 
L 288.242891 243 
L 289.472118 243 
L 289.717964 241 
L 290.4555 241 
L 290.701345 239 
L 291.438882 239 
L 291.684727 236.75 
L 291.930573 236.75 
L 292.176418 234.75 
L 292.668109 234.75 
L 292.913955 232.5 
L 293.405645 232.5 
L 293.651491 230.75 
L 294.634873 230.75 
L 294.880718 228.5 
L 295.8641 228.5 
L 296.109945 226.5 
L 296.601636 226.5 
L 296.847482 224.25 
L 298.5684 224.25 
L 298.814245 222 
L 300.043473 222 
L 300.289318 220.25 
L 300.781009 220.25 
L 301.026855 218 
L 302.010236 218 
L 302.256082 216 
L 302.747773 216 
L 302.993618 213.75 
L 303.977 213.75 
L 304.222845 211.75 
L 305.206227 211.75 
L 305.452073 209.75 
L 306.189609 209.75 
L 306.435455 207.75 
L 306.927145 207.75 
L 307.172991 209.75 
L 308.402218 209.75 
L 308.648064 207.75 
L 309.3856 207.75 
L 309.631445 205.5 
L 310.614827 205.5 
L 310.860673 207.75 
L 313.319127 207.75 
L 313.564973 209.75 
L 316.515118 209.75 
L 316.760964 211.75 
L 320.448645 211.75 
L 320.694491 213.75 
L 324.628018 213.75 
L 324.873864 216 
L 326.103091 216 
L 326.348936 218 
L 329.299082 218 
L 329.544927 220.25 
L 331.757536 220.25 
L 332.003382 222 
L 335.691064 222 
L 335.936909 220.25 
L 337.166136 220.25 
L 337.411982 218 
L 339.870436 218 
L 340.116282 216 
L 341.591355 216 
L 341.8372 213.75 
L 344.049809 213.75 
L 344.295655 211.75 
L 345.279036 211.75 
L 345.524882 209.75 
L 347.2458 209.75 
L 347.491645 207.75 
L 349.9501 207.75 
L 350.195945 205.5 
L 351.916864 205.5 
L 352.162709 203.25 
L 354.621164 203.25 
L 354.867009 201.25 
L 359.292227 201.25 
L 359.538073 203.25 
L 360.521455 203.25 
L 360.7673 201.25 
L 363.225755 201.25 
L 363.4716 199.25 
L 366.913436 199.25 
L 367.159282 197.25 
L 370.109427 197.25 
L 370.355273 195 
L 372.322036 195 
L 372.567882 193 
L 374.780491 193 
L 375.026336 190.75 
L 376.747255 190.75 
L 376.9931 189 
L 379.6974 189 
L 379.943245 186.75 
L 380.680782 186.75 
L 380.926627 189 
L 381.172473 186.75 
L 382.647545 186.75 
L 382.893391 189 
L 383.139236 189 
L 383.385082 186.75 
L 384.614309 186.75 
L 384.860155 184.5 
L 386.089382 184.5 
L 386.335227 182.5 
L 388.301991 182.5 
L 388.547836 180.25 
L 389.531218 180.25 
L 389.777064 178.5 
L 390.5146 178.5 
L 390.760445 176.25 
L 391.989673 176.25 
L 392.235518 174.25 
L 393.464745 174.25 
L 393.710591 172 
L 394.693973 172 
L 394.939818 170 
L 396.169045 170 
L 396.414891 168 
L 397.889964 168 
L 398.135809 165.75 
L 399.119191 165.75 
L 399.365036 163.75 
L 401.3318 163.75 
L 401.577645 161.5 
L 402.315182 161.5 
L 402.561027 159.75 
L 404.0361 159.75 
L 404.281945 157.5 
L 407.477936 157.5 
L 407.723782 159.75 
L 407.969627 157.5 
L 408.215473 157.5 
L 408.461318 159.75 
L 408.707164 157.5 
L 408.953009 159.75 
L 409.198855 157.5 
L 409.690545 157.5 
L 409.936391 155.5 
L 410.428082 155.5 
L 410.673927 153.25 
L 411.165618 153.25 
L 411.411464 151.25 
L 411.657309 151.25 
L 411.903155 149.25 
L 412.640691 149.25 
L 412.886536 147 
L 413.378227 147 
L 413.624073 145 
L 414.8533 145 
L 415.099145 142.75 
L 415.344991 145 
L 415.590836 142.75 
L 416.328373 142.75 
L 416.574218 140.75 
L 417.5576 140.75 
L 417.803445 138.75 
L 418.786827 138.75 
L 419.032673 136.75 
L 419.770209 136.75 
L 420.016055 134.5 
L 420.2619 134.5 
L 420.507745 132.5 
L 420.999436 132.5 
L 421.245282 130.25 
L 421.982818 130.25 
L 422.228664 128.25 
L 422.9662 128.25 
L 423.212045 126.25 
L 424.195427 126.25 
L 424.441273 124 
L 424.932964 124 
L 425.178809 122 
L 425.916345 122 
L 426.162191 119.75 
L 426.899727 119.75 
L 427.145573 118 
L 427.391418 118 
L 427.637264 115.75 
L 427.883109 115.75 
L 428.128955 113.75 
L 428.866491 113.75 
L 429.112336 111.5 
L 433.045864 111.5 
L 433.291709 113.75 
L 434.029245 113.75 
L 434.275091 111.5 
L 435.258473 111.5 
L 435.504318 109.5 
L 436.733545 109.5 
L 436.979391 107.5 
L 437.962773 107.5 
L 438.208618 105.25 
L 439.437845 105.25 
L 439.683691 103.25 
L 440.421227 103.25 
L 440.667073 101 
L 442.142145 101 
L 442.387991 99 
L 443.863064 99 
L 444.108909 97 
L 445.583982 97 
L 445.829827 95 
L 446.321518 95 
L 446.567364 92.75 
L 447.550745 92.75 
L 447.796591 90.5 
L 449.025818 90.5 
L 449.271664 88.5 
L 450.0092 88.5 
L 450.255045 86.5 
L 451.730118 86.5 
L 451.975964 84.5 
L 452.221809 84.5 
L 452.467655 82.25 
L 453.205191 82.25 
L 453.451036 80.25 
L 459.843018 80.25 
L 460.088864 82.25 
L 461.072245 82.25 
L 461.318091 84.5 
L 462.793164 84.5 
L 463.039009 86.5 
L 464.268236 86.5 
L 464.514082 88.5 
L 465.497464 88.5 
L 465.743309 90.5 
L 467.218382 90.5 
L 467.464227 92.75 
L 468.693455 92.75 
L 468.9393 95 
L 470.906064 95 
L 471.151909 97 
L 473.364518 97 
L 473.610364 99 
L 475.577127 99 
L 475.822973 101 
L 478.035582 101 
L 478.281427 103.25 
L 479.018964 103.25 
L 479.264809 105.25 
L 480.002345 105.25 
L 480.248191 103.25 
L 482.4608 103.25 
L 482.706645 105.25 
L 483.198336 105.25 
L 483.444182 107.5 
L 484.427564 107.5 
L 484.673409 109.5 
L 486.148482 109.5 
L 486.394327 111.5 
L 487.623555 111.5 
L 487.8694 113.75 
L 489.590318 113.75 
L 489.836164 115.75 
L 490.5737 115.75 
L 490.819545 118 
L 492.540464 118 
L 492.786309 119.75 
L 494.753073 119.75 
L 494.998918 122 
L 497.211527 122 
L 497.457373 124 
L 498.440755 124 
L 498.6866 126.25 
L 500.653364 126.25 
L 500.899209 128.25 
L 501.636745 128.25 
L 501.882591 130.25 
L 503.111818 130.25 
L 503.357664 132.5 
L 503.603509 130.25 
L 503.849355 132.5 
L 504.0952 132.5 
L 504.341045 130.25 
L 505.324427 130.25 
L 505.570273 132.5 
L 508.520418 132.5 
L 508.766264 130.25 
L 510.241336 130.25 
L 510.487182 128.25 
L 512.453945 128.25 
L 512.699791 126.25 
L 514.420709 126.25 
L 514.666555 124 
L 518.108391 124 
L 518.354236 122 
L 519.829309 122 
L 520.075155 119.75 
L 521.304382 119.75 
L 521.550227 118 
L 523.271145 118 
L 523.516991 115.75 
L 524.992064 115.75 
L 525.237909 113.75 
L 526.958827 113.75 
L 527.204673 111.5 
L 528.188055 111.5 
L 528.4339 109.5 
L 530.646509 109.5 
L 530.892355 107.5 
L 531.384045 107.5 
L 531.629891 109.5 
L 531.875736 109.5 
L 532.121582 107.5 
L 532.859118 107.5 
L 533.104964 105.25 
L 533.8425 105.25 
L 534.088345 103.25 
L 534.825882 103.25 
L 535.071727 101 
L 536.300955 101 
L 536.5468 99 
L 536.792645 99 
L 537.038491 97 
L 537.530182 97 
L 537.776027 95 
L 538.513564 95 
L 538.759409 92.75 
L 539.2511 92.75 
L 539.496945 90.5 
L 540.480327 90.5 
L 540.726173 88.5 
L 541.217864 88.5 
L 541.463709 86.5 
L 542.447091 86.5 
L 542.692936 84.5 
L 543.184627 84.5 
L 543.430473 82.25 
L 544.413855 82.25 
L 544.6597 80.25 
L 545.397236 80.25 
L 545.643082 78 
L 546.134773 78 
L 546.380618 76.25 
L 547.364 76.25 
L 547.609845 74 
L 548.347382 74 
L 548.593227 71.75 
L 549.084918 71.75 
L 549.330764 69.75 
L 550.0683 69.75 
L 550.314145 67.5 
L 550.559991 67.5 
L 550.805836 65.75 
L 551.789218 65.75 
L 552.035064 63.5 
L 552.280909 63.5 
L 552.526755 61.5 
L 552.7726 63.5 
L 555.968591 63.5 
L 556.214436 65.75 
L 556.706127 65.75 
L 556.951973 63.5 
L 557.689509 63.5 
L 557.935355 61.5 
L 559.656273 61.5 
L 559.902118 59.25 
L 561.131345 59.25 
L 561.377191 57.5 
L 562.852264 57.5 
L 563.098109 55.25 
L 564.327336 55.25 
L 564.573182 53 
L 566.048255 53 
L 566.2941 51 
L 567.769173 51 
L 568.015018 48.75 
L 569.490091 48.75 
L 569.735936 47 
L 571.7027 47 
L 571.948545 44.75 
L 572.931927 44.75 
L 573.177773 42.75 
L 573.915309 42.75 
L 574.161155 40.5 
L 575.390382 40.5 
L 575.636227 38.5 
L 576.865455 38.5 
L 576.865455 38.5 
" clip-path="url(#pe8c611e58e)" style="fill: none; stroke: #1f77b4; stroke-width: 2; stroke-linecap: square"/>
   </g>
   <g id="line2d_28">
    <path d="M 85.174545 153.25 
L 109.021555 153.25 
L 109.2674 155.5 
L 109.513245 155.5 
L 109.759091 153.25 
L 112.709236 153.25 
L 112.955082 155.5 
L 113.446773 155.5 
L 113.692618 153.25 
L 115.659382 153.25 
L 115.905227 155.5 
L 121.313827 155.5 
L 121.559673 157.5 
L 130.9018 157.5 
L 131.147645 159.75 
L 140.243927 159.75 
L 140.489773 161.5 
L 144.669145 161.5 
L 144.914991 163.75 
L 151.061127 163.75 
L 151.306973 165.75 
L 156.961418 165.75 
L 157.207264 168 
L 176.8749 168 
L 177.120745 170 
L 183.512727 170 
L 183.758573 168 
L 186.462873 168 
L 186.708718 170 
L 186.954564 168 
L 187.200409 170 
L 190.642245 170 
L 190.888091 168 
L 208.588964 168 
L 208.834809 170 
L 209.080655 168 
L 214.980945 168 
L 215.226791 165.75 
L 220.389545 165.75 
L 220.635391 163.75 
L 225.306455 163.75 
L 225.5523 161.5 
L 230.469209 161.5 
L 230.715055 159.75 
L 233.911045 159.75 
L 234.156891 157.5 
L 234.402736 159.75 
L 234.648582 159.75 
L 234.894427 157.5 
L 260.954045 157.5 
L 261.199891 155.5 
L 261.445736 157.5 
L 265.870955 157.5 
L 266.1168 159.75 
L 270.787864 159.75 
L 271.033709 161.5 
L 275.704773 161.5 
L 275.950618 163.75 
L 279.6383 163.75 
L 279.884145 165.75 
L 283.080136 165.75 
L 283.325982 168 
L 285.538591 168 
L 285.784436 165.75 
L 287.259509 165.75 
L 287.505355 163.75 
L 290.701345 163.75 
L 290.947191 161.5 
L 293.405645 161.5 
L 293.651491 159.75 
L 296.355791 159.75 
L 296.601636 157.5 
L 298.322555 157.5 
L 298.5684 155.5 
L 301.518545 155.5 
L 301.764391 153.25 
L 303.485309 153.25 
L 303.731155 151.25 
L 304.960382 151.25 
L 305.206227 149.25 
L 317.4985 149.25 
L 317.744345 151.25 
L 326.103091 151.25 
L 326.348936 153.25 
L 339.1329 153.25 
L 339.378745 155.5 
L 345.033191 155.5 
L 345.279036 157.5 
L 357.571309 157.5 
L 357.817155 159.75 
L 359.292227 159.75 
L 359.538073 157.5 
L 362.488218 157.5 
L 362.734064 155.5 
L 365.930055 155.5 
L 366.1759 153.25 
L 368.8802 153.25 
L 369.126045 151.25 
L 371.830345 151.25 
L 372.076191 149.25 
L 374.780491 149.25 
L 375.026336 147 
L 375.518027 147 
L 375.763873 145 
L 379.6974 145 
L 379.943245 142.75 
L 385.597691 142.75 
L 385.843536 145 
L 387.318609 145 
L 387.564455 147 
L 390.268755 147 
L 390.5146 149.25 
L 392.235518 149.25 
L 392.481364 151.25 
L 394.202282 151.25 
L 394.448127 153.25 
L 395.9232 153.25 
L 396.169045 155.5 
L 397.889964 155.5 
L 398.135809 157.5 
L 401.085955 157.5 
L 401.3318 159.75 
L 403.298564 159.75 
L 403.544409 161.5 
L 407.723782 161.5 
L 407.969627 163.75 
L 411.165618 163.75 
L 411.411464 165.75 
L 414.361609 165.75 
L 414.607455 168 
L 417.5576 168 
L 417.803445 170 
L 422.720355 170 
L 422.9662 172 
L 424.932964 172 
L 425.178809 174.25 
L 428.3748 174.25 
L 428.620645 176.25 
L 436.733545 176.25 
L 436.979391 178.5 
L 441.158764 178.5 
L 441.404609 180.25 
L 447.3049 180.25 
L 447.550745 182.5 
L 451.238427 182.5 
L 451.484273 184.5 
L 458.859636 184.5 
L 459.105482 186.75 
L 463.039009 186.75 
L 463.284855 189 
L 465.743309 189 
L 465.989155 190.75 
L 468.9393 190.75 
L 469.185145 193 
L 474.102055 193 
L 474.3479 195 
L 476.806355 195 
L 477.0522 197.25 
L 479.018964 197.25 
L 479.264809 199.25 
L 479.510655 197.25 
L 481.969109 197.25 
L 482.214955 199.25 
L 484.181718 199.25 
L 484.427564 201.25 
L 487.131864 201.25 
L 487.377709 203.25 
L 491.802927 203.25 
L 492.048773 205.5 
L 495.736455 205.5 
L 495.9823 207.75 
L 498.932445 207.75 
L 499.178291 209.75 
L 502.620127 209.75 
L 502.865973 211.75 
L 508.274573 211.75 
L 508.520418 209.75 
L 513.191482 209.75 
L 513.437327 207.75 
L 516.633318 207.75 
L 516.879164 205.5 
L 520.566845 205.5 
L 520.812691 203.25 
L 524.254527 203.25 
L 524.500373 201.25 
L 528.679745 201.25 
L 528.925591 199.25 
L 534.088345 199.25 
L 534.334191 197.25 
L 536.792645 197.25 
L 537.038491 195 
L 538.513564 195 
L 538.759409 193 
L 542.201245 193 
L 542.447091 190.75 
L 545.643082 190.75 
L 545.888927 189 
L 548.593227 189 
L 548.839073 186.75 
L 550.559991 186.75 
L 550.805836 184.5 
L 557.935355 184.5 
L 558.1812 186.75 
L 561.623036 186.75 
L 561.868882 189 
L 570.719318 189 
L 570.965164 190.75 
L 576.373764 190.75 
L 576.619609 193 
L 576.865455 193 
L 576.865455 193 
" clip-path="url(#pe8c611e58e)" style="fill: none; stroke: #ff7f0e; stroke-width: 2; stroke-linecap: square"/>
   </g>
   <g id="patch_3">
    <path d="M 60.59 282 
L 60.59 26.75 
" style="fill: none; stroke: #000000; stroke-width: 0.8; stroke-linejoin: miter; stroke-linecap: square"/>
   </g>
   <g id="patch_4">
    <path d="M 601.45 282 
L 601.45 26.75 
" style="fill: none; stroke: #000000; stroke-width: 0.8; stroke-linejoin: miter; stroke-linecap: square"/>
   </g>
   <g id="patch_5">
    <path d="M 60.59 282.04 
L 601.45 282.04 
" style="fill: none; stroke: #000000; stroke-width: 0.8; stroke-linejoin: miter; stroke-linecap: square"/>
   </g>
   <g id="patch_6">
    <path d="M 60.59 26.88 
L 601.45 26.88 
" style="fill: none; stroke: #000000; stroke-width: 0.8; stroke-linejoin: miter; stroke-linecap: square"/>
   </g>
   <g id="text_17">
    <!-- FodoCell-multibeam-fromfile -->
    <g transform="translate(245.638125 20.88) scale(0.12 -0.12)">
     <defs>
      <path id="DejaVuSans-46" d="M 628 4666 
L 3309 4666 
L 3309 4134 
L 1259 4134 
L 1259 2759 
L 3109 2759 
L 3109 2228 
L 1259 2228 
L 1259 0 
L 628 0 
L 628 4666 
z
" transform="scale(0.015625)"/>
      <path id="DejaVuSans-6f" d="M 1959 3097 
Q 1497 3097 1228 2736 
Q 959 2375 959 1747 
Q 959 1119 1226 758 
Q 1494 397 1959 397 
Q 2419 397 2687 759 
Q 2956 1122 2956 1747 
Q 2956 2369 2687 2733 
Q 2419 3097 1959 3097 
z
M 1959 3584 
Q 2709 3584 3137 3096 
Q 3566 2609 3566 1747 
Q 3566 888 3137 398 
Q 2709 -91 1959 -91 
Q 1206 -91 779 398 
Q 353 888 353 1747 
Q 353 2609 779 3096 
Q 1206 3584 1959 3584 
z
" transform="scale(0.015625)"/>
      <path id="DejaVuSans-64" d="M 2906 2969 
L 2906 4863 
L 3481 4863 
L 3481 0 
L 2906 0 
L 2906 525 
Q 2725 213 2448 61 
Q 2172 -91 1784 -91 
Q 1150 -91 751 415 
Q 353 922 353 1747 
Q 353 2572 751 3078 
Q 1150 3584 1784 3584 
Q 2172 3584 2448 3432 
Q 2725 3281 2906 2969 
z
M 947 1747 
Q 947 1113 1208 752 
Q 1469 391 1925 391 
Q 2381 391 2643 752 
Q 2906 1113 2906 1747 
Q 2906 2381 2643 2742 
Q 2381 3103 1925 3103 
Q 1469 3103 1208 2742 
Q 947 2381 947 1747 
z
" transform="scale(0.015625)"/>
      <path id="DejaVuSans-43" d="M 4122 4306 
L 4122 3641 
Q 3803 3938 3442 4084 
Q 3081 4231 2675 4231 
Q 1875 4231 1450 3742 
Q 1025 3253 1025 2328 
Q 1025 1406 1450 917 
Q 1875 428 2675 428 
Q 3081 428 3442 575 
Q 3803 722 4122 1019 
L 4122 359 
Q 3791 134 3420 21 
Q 3050 -91 2638 -91 
Q 1578 -91 968 557 
Q 359 1206 359 2328 
Q 359 3453 968 4101 
Q 1578 4750 2638 4750 
Q 3056 4750 3426 4639 
Q 3797 4528 4122 4306 
z
" transform="scale(0.015625)"/>
      <path id="DejaVuSans-6c" d="M 603 4863 
L 1178 4863 
L 1178 0 
L 603 0 
L 603 4863 
z
" transform="scale(0.015625)"/>
      <path id="DejaVuSans-2d" d="M 313 2009 
L 1997 2009 
L 1997 1497 
L 313 1497 
L 313 2009 
z
" transform="scale(0.015625)"/>
      <path id="DejaVuSans-75" d="M 544 1381 
L 544 3500 
L 1119 3500 
L 1119 1403 
Q 1119 906 1312 657 
Q 1506 409 1894 409 
Q 2359 409 2629 706 
Q 2900 1003 2900 1516 
L 2900 3500 
L 3475 3500 
L 3475 0 
L 2900 0 
L 2900 538 
Q 2691 219 2414 64 
Q 2138 -91 1772 -91 
Q 1169 -91 856 284 
Q 544 659 544 1381 
z
M 1991 3584 
L 1991 3584 
z
" transform="scale(0.015625)"/>
      <path id="DejaVuSans-74" d="M 1172 4494 
L 1172 3500 
L 2356 3500 
L 2356 3053 
L 1172 3053 
L 1172 1153 
Q 1172 725 1289 603 
Q 1406 481 1766 481 
L 2356 481 
L 2356 0 
L 1766 0 
Q 1100 0 847 248 
Q 594 497 594 1153 
L 594 3053 
L 172 3053 
L 172 3500 
L 594 3500 
L 594 4494 
L 1172 4494 
z
" transform="scale(0.015625)"/>
      <path id="DejaVuSans-69" d="M 603 3500 
L 1178 3500 
L 1178 0 
L 603 0 
L 603 3500 
z
M 603 4863 
L 1178 4863 
L 1178 4134 
L 603 4134 
L 603 4863 
z
" transform="scale(0.015625)"/>
      <path id="DejaVuSans-62" d="M 3116 1747 
Q 3116 2381 2855 2742 
Q 2594 3103 2138 3103 
Q 1681 3103 1420 2742 
Q 1159 2381 1159 1747 
Q 1159 1113 1420 752 
Q 1681 391 2138 391 
Q 2594 391 2855 752 
Q 3116 1113 3116 1747 
z
M 1159 2969 
Q 1341 3281 1617 3432 
Q 1894 3584 2278 3584 
Q 2916 3584 3314 3078 
Q 3713 2572 3713 1747 
Q 3713 922 3314 415 
Q 2916 -91 2278 -91 
Q 1894 -91 1617 61 
Q 1341 213 1159 525 
L 1159 0 
L 581 0 
L 581 4863 
L 1159 4863 
L 1159 2969 
z
" transform="scale(0.015625)"/>
      <path id="DejaVuSans-61" d="M 2194 1759 
Q 1497 1759 1228 1600 
Q 959 1441 959 1056 
Q 959 750 1161 570 
Q 1363 391 1709 391 
Q 2188 391 2477 730 
Q 2766 1069 2766 1631 
L 2766 1759 
L 2194 1759 
z
M 3341 1997 
L 3341 0 
L 2766 0 
L 2766 531 
Q 2569 213 2275 61 
Q 1981 -91 1556 -91 
Q 1019 -91 701 211 
Q 384 513 384 1019 
Q 384 1609 779 1909 
Q 1175 2209 1959 2209 
L 2766 2209 
L 2766 2266 
Q 2766 2663 2505 2880 
Q 2244 3097 1772 3097 
Q 1472 3097 1187 3025 
Q 903 2953 641 2809 
L 641 3341 
Q 956 3463 1253 3523 
Q 1550 3584 1831 3584 
Q 2591 3584 2966 3190 
Q 3341 2797 3341 1997 
z
" transform="scale(0.015625)"/>
      <path id="DejaVuSans-66" d="M 2375 4863 
L 2375 4384 
L 1825 4384 
Q 1516 4384 1395 4259 
Q 1275 4134 1275 3809 
L 1275 3500 
L 2222 3500 
L 2222 3053 
L 1275 3053 
L 1275 0 
L 697 0 
L 697 3053 
L 147 3053 
L 147 3500 
L 697 3500 
L 697 3744 
Q 697 4328 969 4595 
Q 1241 4863 1831 4863 
L 2375 4863 
z
" transform="scale(0.015625)"/>
     </defs>
     <use xlink:href="#DejaVuSans-46"/>
     <use xlink:href="#DejaVuSans-6f" transform="translate(53.894531 0)"/>
     <use xlink:href="#DejaVuSans-64" transform="translate(115.076172 0)"/>
     <use xlink:href="#DejaVuSans-6f" transform="translate(178.552734 0)"/>
     <use xlink:href="#DejaVuSans-43" transform="translate(239.734375 0)"/>
     <use xlink:href="#DejaVuSans-65" transform="translate(309.558594 0)"/>
     <use xlink:href="#DejaVuSans-6c" transform="translate(371.082031 0)"/>
     <use xlink:href="#DejaVuSans-6c" transform="translate(398.865234 0)"/>
     <use xlink:href="#DejaVuSans-2d" transform="translate(426.648438 0)"/>
     <use xlink:href="#DejaVuSans-6d" transform="translate(462.732422 0)"/>
     <use xlink:href="#DejaVuSans-75" transform="translate(560.144531 0)"/>
     <use xlink:href="#DejaVuSans-6c" transform="translate(623.523438 0)"/>
     <use xlink:href="#DejaVuSans-74" transform="translate(651.306641 0)"/>
     <use xlink:href="#DejaVuSans-69" transform="translate(690.515625 0)"/>
     <use xlink:href="#DejaVuSans-62" transform="translate(718.298828 0)"/>
     <use xlink:href="#DejaVuSans-65" transform="translate(781.775391 0)"/>
     <use xlink:href="#DejaVuSans-61" transform="translate(843.298828 0)"/>
     <use xlink:href="#DejaVuSans-6d" transform="translate(904.578125 0)"/>
     <use xlink:href="#DejaVuSans-2d" transform="translate(1001.990234 0)"/>
     <use xlink:href="#DejaVuSans-66" transform="translate(1038.074219 0)"/>
     <use xlink:href="#DejaVuSans-72" transform="translate(1073.279297 0)"/>
     <use xlink:href="#DejaVuSans-6f" transform="translate(1112.142578 0)"/>
     <use xlink:href="#DejaVuSans-6d" transform="translate(1173.324219 0)"/>
     <use xlink:href="#DejaVuSans-66" transform="translate(1270.736328 0)"/>
     <use xlink:href="#DejaVuSans-69" transform="translate(1305.941406 0)"/>
     <use xlink:href="#DejaVuSans-6c" transform="translate(1333.724609 0)"/>
     <use xlink:href="#DejaVuSans-65" transform="translate(1361.507812 0)"/>
    </g>
   </g>
   <g id="legend_1">
    <g id="patch_7">
     <path d="M 67.59 277.04 
L 147.330625 277.04 
Q 149.330625 277.04 149.330625 275.04 
L 149.330625 246.68375 
Q 149.330625 244.68375 147.330625 244.68375 
L 67.59 244.68375 
Q 65.59 244.68375 65.59 246.68375 
L 65.59 275.04 
Q 65.59 277.04 67.59 277.04 
z
" style="fill: #ffffff; opacity: 0.8; stroke: #cccccc; stroke-linejoin: miter"/>
    </g>
    <g id="line2d_29">
     <path d="M 69.59 252.782188 
L 79.59 252.782188 
L 89.59 252.782188 
" style="fill: none; stroke: #1f77b4; stroke-width: 2; stroke-linecap: square"/>
    </g>
    <g id="text_18">
     <!-- current -->
     <g transform="translate(97.59 256.282188) scale(0.1 -0.1)">
      <defs>
       <path id="DejaVuSans-63" d="M 3122 3366 
L 3122 2828 
Q 2878 2963 2633 3030 
Q 2388 3097 2138 3097 
Q 1578 3097 1268 2742 
Q 959 2388 959 1747 
Q 959 1106 1268 751 
Q 1578 397 2138 397 
Q 2388 397 2633 464 
Q 2878 531 3122 666 
L 3122 134 
Q 2881 22 2623 -34 
Q 2366 -91 2075 -91 
Q 1284 -91 818 406 
Q 353 903 353 1747 
Q 353 2603 823 3093 
Q 1294 3584 2113 3584 
Q 2378 3584 2631 3529 
Q 2884 3475 3122 3366 
z
" transform="scale(0.015625)"/>
      </defs>
      <use xlink:href="#DejaVuSans-63"/>
      <use xlink:href="#DejaVuSans-75" transform="translate(54.980469 0)"/>
      <use xlink:href="#DejaVuSans-72" transform="translate(118.359375 0)"/>
      <use xlink:href="#DejaVuSans-72" transform="translate(157.722656 0)"/>
      <use xlink:href="#DejaVuSans-65" transform="translate(196.585938 0)"/>
      <use xlink:href="#DejaVuSans-6e" transform="translate(258.109375 0)"/>
      <use xlink:href="#DejaVuSans-74" transform="translate(321.488281 0)"/>
     </g>
    </g>
    <g id="line2d_30">
     <path d="M 69.59 267.460312 
L 79.59 267.460312 
L 89.59 267.460312 
" style="fill: none; stroke: #ff7f0e; stroke-width: 2; stroke-linecap: square"/>
    </g>
    <g id="text_19">
     <!-- reference -->
     <g transform="translate(97.59 270.960312) scale(0.1 -0.1)">
      <use xlink:href="#DejaVuSans-72"/>
      <use xlink:href="#DejaVuSans-65" transform="translate(38.863281 0)"/>
      <use xlink:href="#DejaVuSans-66" transform="translate(100.386719 0)"/>
      <use xlink:href="#DejaVuSans-65" transform="translate(135.591797 0)"/>
      <use xlink:href="#DejaVuSans-72" transform="translate(197.115234 0)"/>
      <use xlink:href="#DejaVuSans-65" transform="translate(235.978516 0)"/>
      <use xlink:href="#DejaVuSans-6e" transform="translate(297.501953 0)"/>
      <use xlink:href="#DejaVuSans-63" transform="translate(360.880859 0)"/>
      <use xlink:href="#DejaVuSans-65" transform="translate(415.861328 0)"/>
     </g>
    </g>
   </g>
  </g>
  <g id="axes_2">
   <g id="matplotlib.axis_3">
    <g id="ytick_7">
     <g id="line2d_31">
      <defs>
       <path id="mcf7b09a998" d="M 0 0 
L 3.5 0 
" style="stroke: #000000; stroke-width: 0.8"/>
      </defs>
      <g>
       <use xlink:href="#mcf7b09a998" x="601.45" y="253.471968" style="stroke: #000000; stroke-width: 0.8"/>
      </g>
     </g>
     <g id="text_20">
      <!-- −4 -->
      <g transform="translate(608.45 257.271186) scale(0.1 -0.1)">
       <use xlink:href="#DejaVuSans-2212"/>
       <use xlink:href="#DejaVuSans-34" transform="translate(83.789062 0)"/>
      </g>
     </g>
    </g>
    <g id="ytick_8">
     <g id="line2d_32">
      <g>
       <use xlink:href="#mcf7b09a998" x="601.45" y="215.757111" style="stroke: #000000; stroke-width: 0.8"/>
      </g>
     </g>
     <g id="text_21">
      <!-- −2 -->
      <g transform="translate(608.45 219.55633) scale(0.1 -0.1)">
       <use xlink:href="#DejaVuSans-2212"/>
       <use xlink:href="#DejaVuSans-32" transform="translate(83.789062 0)"/>
      </g>
     </g>
    </g>
    <g id="ytick_9">
     <g id="line2d_33">
      <g>
       <use xlink:href="#mcf7b09a998" x="601.45" y="178.042255" style="stroke: #000000; stroke-width: 0.8"/>
      </g>
     </g>
     <g id="text_22">
      <!-- 0 -->
      <g transform="translate(608.45 181.841474) scale(0.1 -0.1)">
       <use xlink:href="#DejaVuSans-30"/>
      </g>
     </g>
    </g>
    <g id="ytick_10">
     <g id="line2d_34">
      <g>
       <use xlink:href="#mcf7b09a998" x="601.45" y="140.327399" style="stroke: #000000; stroke-width: 0.8"/>
      </g>
     </g>
     <g id="text_23">
      <!-- 2 -->
      <g transform="translate(608.45 144.126618) scale(0.1 -0.1)">
       <use xlink:href="#DejaVuSans-32"/>
      </g>
     </g>
    </g>
    <g id="ytick_11">
     <g id="line2d_35">
      <g>
       <use xlink:href="#mcf7b09a998" x="601.45" y="102.612543" style="stroke: #000000; stroke-width: 0.8"/>
      </g>
     </g>
     <g id="text_24">
      <!-- 4 -->
      <g transform="translate(608.45 106.411761) scale(0.1 -0.1)">
       <use xlink:href="#DejaVuSans-34"/>
      </g>
     </g>
    </g>
    <g id="ytick_12">
     <g id="line2d_36">
      <g>
       <use xlink:href="#mcf7b09a998" x="601.45" y="64.897686" style="stroke: #000000; stroke-width: 0.8"/>
      </g>
     </g>
     <g id="text_25">
      <!-- 6 -->
      <g transform="translate(608.45 68.696905) scale(0.1 -0.1)">
       <use xlink:href="#DejaVuSans-36"/>
      </g>
     </g>
    </g>
    <g id="ytick_13">
     <g id="line2d_37">
      <g>
       <use xlink:href="#mcf7b09a998" x="601.45" y="27.18283" style="stroke: #000000; stroke-width: 0.8"/>
      </g>
     </g>
     <g id="text_26">
      <!-- 8 -->
      <g transform="translate(608.45 30.982049) scale(0.1 -0.1)">
       <use xlink:href="#DejaVuSans-38"/>
      </g>
     </g>
    </g>
    <g id="text_27">
     <!-- delta energy [MeV] -->
     <g transform="translate(634.790625 202.438125) rotate(-90) scale(0.1 -0.1)">
      <use xlink:href="#DejaVuSans-64"/>
      <use xlink:href="#DejaVuSans-65" transform="translate(63.476562 0)"/>
      <use xlink:href="#DejaVuSans-6c" transform="translate(125 0)"/>
      <use xlink:href="#DejaVuSans-74" transform="translate(152.783203 0)"/>
      <use xlink:href="#DejaVuSans-61" transform="translate(191.992188 0)"/>
      <use xlink:href="#DejaVuSans-20" transform="translate(253.271484 0)"/>
      <use xlink:href="#DejaVuSans-65" transform="translate(285.058594 0)"/>
      <use xlink:href="#DejaVuSans-6e" transform="translate(346.582031 0)"/>
      <use xlink:href="#DejaVuSans-65" transform="translate(409.960938 0)"/>
      <use xlink:href="#DejaVuSans-72" transform="translate(471.484375 0)"/>
      <use xlink:href="#DejaVuSans-67" transform="translate(510.847656 0)"/>
      <use xlink:href="#DejaVuSans-79" transform="translate(574.324219 0)"/>
      <use xlink:href="#DejaVuSans-20" transform="translate(633.503906 0)"/>
      <use xlink:href="#DejaVuSans-5b" transform="translate(665.291016 0)"/>
      <use xlink:href="#DejaVuSans-4d" transform="translate(704.304688 0)"/>
      <use xlink:href="#DejaVuSans-65" transform="translate(790.583984 0)"/>
      <use xlink:href="#DejaVuSans-56" transform="translate(852.107422 0)"/>
      <use xlink:href="#DejaVuSans-5d" transform="translate(920.515625 0)"/>
     </g>
    </g>
    <g id="text_28">
     <!-- 1e−11 -->
     <g transform="translate(567.829688 23.88) scale(0.1 -0.1)">
      <use xlink:href="#DejaVuSans-31"/>
      <use xlink:href="#DejaVuSans-65" transform="translate(63.623047 0)"/>
      <use xlink:href="#DejaVuSans-2212" transform="translate(125.146484 0)"/>
      <use xlink:href="#DejaVuSans-31" transform="translate(208.935547 0)"/>
      <use xlink:href="#DejaVuSans-31" transform="translate(272.558594 0)"/>
     </g>
    </g>
   </g>
   <g id="line2d_38">
    <path d="M 85.174545 178.042255 
L 88.616382 178.042255 
L 88.862227 179.971712 
L 89.599764 179.971712 
L 89.845609 181.90117 
L 91.074836 181.90117 
L 91.320682 183.830627 
L 93.0416 183.830627 
L 93.287445 185.5457 
L 94.762518 185.5457 
L 95.008364 187.475157 
L 95.991745 187.475157 
L 96.237591 189.404614 
L 97.958509 189.404614 
L 98.204355 191.334072 
L 99.925273 191.334072 
L 100.171118 193.049145 
L 101.646191 193.049145 
L 101.892036 194.978602 
L 103.612955 194.978602 
L 103.8588 196.908059 
L 106.5631 196.908059 
L 106.808945 198.837516 
L 108.038173 198.837516 
L 108.284018 200.766974 
L 109.021555 200.766974 
L 109.2674 198.837516 
L 109.513245 198.837516 
L 109.759091 202.482047 
L 111.9717 202.482047 
L 112.217545 204.411504 
L 112.709236 204.411504 
L 112.955082 202.482047 
L 113.446773 202.482047 
L 113.692618 204.411504 
L 113.938464 204.411504 
L 114.184309 202.482047 
L 115.659382 202.482047 
L 115.905227 200.552589 
L 116.151073 200.552589 
L 116.396918 198.837516 
L 118.363682 198.837516 
L 118.609527 196.908059 
L 121.313827 196.908059 
L 121.559673 193.049145 
L 122.7889 193.049145 
L 123.034745 191.119687 
L 125.739045 191.119687 
L 125.984891 189.19023 
L 127.459964 189.19023 
L 127.705809 187.475157 
L 129.426727 187.475157 
L 129.672573 185.5457 
L 130.9018 185.5457 
L 131.393491 181.686785 
L 133.360255 181.686785 
L 133.6061 179.757328 
L 139.0147 179.757328 
L 139.260545 181.686785 
L 140.243927 181.686785 
L 140.489773 179.971712 
L 140.735618 181.90117 
L 141.964845 181.90117 
L 142.210691 183.830627 
L 143.931609 183.830627 
L 144.177455 185.5457 
L 144.669145 185.5457 
L 144.914991 183.616243 
L 145.898373 183.616243 
L 146.144218 185.5457 
L 148.602673 185.5457 
L 148.848518 187.475157 
L 149.8319 187.475157 
L 150.077745 189.404614 
L 151.061127 189.404614 
L 151.306973 187.475157 
L 152.782045 187.475157 
L 153.027891 189.404614 
L 155.486345 189.404614 
L 155.732191 191.119687 
L 156.961418 191.119687 
L 157.207264 189.19023 
L 157.453109 189.19023 
L 157.698955 191.119687 
L 160.6491 191.119687 
L 160.894945 193.049145 
L 161.386636 193.049145 
L 161.632482 191.119687 
L 161.878327 193.049145 
L 163.3534 193.049145 
L 163.599245 194.978602 
L 165.811855 194.978602 
L 166.0577 196.908059 
L 166.795236 196.908059 
L 167.041082 198.623132 
L 168.762 198.623132 
L 169.007845 200.552589 
L 171.712145 200.552589 
L 171.957991 202.482047 
L 173.187218 202.482047 
L 173.433064 204.411504 
L 175.399827 204.411504 
L 175.645673 206.340961 
L 176.629055 206.340961 
L 176.8749 208.056034 
L 177.120745 206.340961 
L 177.858282 206.340961 
L 178.104127 208.270418 
L 180.316736 208.270418 
L 180.562582 210.199876 
L 181.300118 210.199876 
L 181.545964 212.129333 
L 182.775191 212.129333 
L 183.021036 214.05879 
L 183.266882 214.05879 
L 183.512727 215.773863 
L 184.004418 215.773863 
L 184.250264 217.488936 
L 184.496109 215.773863 
L 184.741955 217.488936 
L 184.9878 215.773863 
L 185.233645 215.773863 
L 185.479491 217.488936 
L 185.971182 217.488936 
L 186.217027 215.773863 
L 186.462873 215.773863 
L 186.708718 214.05879 
L 186.954564 215.773863 
L 187.200409 214.05879 
L 187.446255 214.05879 
L 187.6921 215.773863 
L 187.937945 215.773863 
L 188.183791 217.70332 
L 188.675482 217.70332 
L 188.921327 219.632778 
L 189.413018 219.632778 
L 189.658864 221.562235 
L 190.3964 221.562235 
L 190.888091 225.206765 
L 191.379782 225.206765 
L 191.625627 226.921838 
L 192.363164 226.921838 
L 192.609009 228.851296 
L 192.854855 228.851296 
L 193.1007 230.780753 
L 193.592391 230.780753 
L 193.838236 232.71021 
L 194.821618 232.71021 
L 195.067464 234.639667 
L 195.805 234.639667 
L 196.050845 236.35474 
L 197.034227 236.35474 
L 197.280073 238.284198 
L 197.525918 238.284198 
L 197.771764 240.213655 
L 198.017609 240.213655 
L 198.263455 242.143112 
L 198.755145 242.143112 
L 199.000991 244.072569 
L 199.738527 244.072569 
L 199.984373 245.787642 
L 200.230218 245.787642 
L 200.476064 247.7171 
L 200.967755 247.7171 
L 201.2136 249.646557 
L 201.951136 249.646557 
L 202.196982 251.576014 
L 202.688673 251.576014 
L 202.934518 253.505471 
L 203.180364 253.505471 
L 203.426209 255.220544 
L 203.9179 255.220544 
L 204.163745 257.150002 
L 204.409591 257.150002 
L 204.655436 259.079459 
L 205.147127 259.079459 
L 205.392973 261.008916 
L 205.638818 261.008916 
L 205.884664 262.938373 
L 206.6222 262.938373 
L 206.868045 264.653446 
L 207.605582 264.653446 
L 208.097273 268.512361 
L 208.588964 268.512361 
L 208.834809 266.797288 
L 209.080655 268.512361 
L 209.572345 268.512361 
L 209.818191 270.441818 
L 210.555727 270.441818 
L 210.801573 268.512361 
L 211.539109 268.512361 
L 211.784955 270.441818 
L 212.0308 268.512361 
L 213.014182 268.512361 
L 213.260027 266.582904 
L 213.997564 266.582904 
L 214.243409 264.653446 
L 214.980945 264.653446 
L 215.226791 264.867831 
L 216.210173 264.867831 
L 216.456018 262.938373 
L 218.176936 262.938373 
L 218.422782 261.008916 
L 219.406164 261.008916 
L 219.652009 259.079459 
L 220.1437 259.079459 
L 220.389545 257.150002 
L 220.635391 259.079459 
L 221.127082 259.079459 
L 221.372927 257.364386 
L 222.356309 257.364386 
L 222.602155 255.434929 
L 224.077227 255.434929 
L 224.323073 253.505471 
L 227.764909 253.505471 
L 228.010755 251.576014 
L 228.994136 251.576014 
L 229.239982 249.860941 
L 229.977518 249.860941 
L 230.223364 247.931484 
L 230.469209 247.931484 
L 230.715055 249.646557 
L 230.9609 249.646557 
L 231.206745 247.7171 
L 231.944282 247.7171 
L 232.190127 245.787642 
L 233.419355 245.787642 
L 233.6652 243.858185 
L 233.911045 243.858185 
L 234.156891 245.787642 
L 234.402736 243.858185 
L 234.648582 243.858185 
L 234.894427 245.787642 
L 236.123655 245.787642 
L 236.3695 244.072569 
L 241.532255 244.072569 
L 241.7781 242.143112 
L 242.023945 244.072569 
L 242.761482 244.072569 
L 243.007327 242.143112 
L 253.086991 242.143112 
L 253.332836 240.213655 
L 257.266364 240.213655 
L 257.512209 242.143112 
L 257.758055 240.213655 
L 260.462355 240.213655 
L 260.7082 238.284198 
L 260.954045 238.284198 
L 261.199891 240.213655 
L 262.674964 240.213655 
L 262.920809 242.143112 
L 265.625109 242.143112 
L 265.870955 244.072569 
L 266.1168 242.143112 
L 267.346027 242.143112 
L 267.591873 243.858185 
L 269.312791 243.858185 
L 269.558636 245.787642 
L 270.787864 245.787642 
L 271.033709 244.072569 
L 272.017091 244.072569 
L 272.262936 246.002027 
L 274.2297 246.002027 
L 274.475545 247.931484 
L 276.934 247.931484 
L 277.179845 249.646557 
L 279.392455 249.646557 
L 279.6383 251.576014 
L 279.884145 249.646557 
L 280.867527 249.646557 
L 281.113373 251.576014 
L 282.096755 251.576014 
L 282.3426 253.505471 
L 282.588445 253.505471 
L 282.834291 251.576014 
L 283.817673 251.576014 
L 284.063518 253.505471 
L 284.309364 251.576014 
L 285.292745 251.576014 
L 285.538591 253.505471 
L 286.276127 253.505471 
L 286.521973 251.576014 
L 287.013664 251.576014 
L 287.259509 249.646557 
L 287.505355 251.576014 
L 287.997045 251.576014 
L 288.242891 249.646557 
L 289.472118 249.646557 
L 289.717964 247.931484 
L 290.4555 247.931484 
L 290.701345 246.002027 
L 290.947191 247.931484 
L 291.438882 247.931484 
L 291.684727 246.002027 
L 291.930573 246.002027 
L 292.176418 244.072569 
L 292.668109 244.072569 
L 292.913955 242.143112 
L 294.634873 242.143112 
L 294.880718 240.213655 
L 295.8641 240.213655 
L 296.109945 238.284198 
L 296.355791 238.284198 
L 296.601636 240.213655 
L 296.847482 238.284198 
L 298.322555 238.284198 
L 298.5684 240.213655 
L 298.814245 238.284198 
L 300.043473 238.284198 
L 300.289318 236.569125 
L 300.781009 236.569125 
L 301.026855 234.639667 
L 301.518545 234.639667 
L 301.764391 236.569125 
L 302.010236 236.569125 
L 302.256082 234.639667 
L 302.747773 234.639667 
L 302.993618 232.71021 
L 303.485309 232.71021 
L 303.731155 234.639667 
L 303.977 234.639667 
L 304.222845 232.71021 
L 304.960382 232.71021 
L 305.206227 234.425283 
L 305.452073 232.71021 
L 306.189609 232.71021 
L 306.435455 230.780753 
L 306.927145 230.780753 
L 307.172991 232.71021 
L 308.402218 232.71021 
L 308.648064 230.780753 
L 309.3856 230.780753 
L 309.631445 228.851296 
L 310.614827 228.851296 
L 310.860673 230.780753 
L 313.319127 230.780753 
L 313.564973 232.71021 
L 316.515118 232.71021 
L 316.760964 234.425283 
L 317.4985 234.425283 
L 317.744345 232.71021 
L 320.448645 232.71021 
L 320.694491 234.639667 
L 324.628018 234.639667 
L 324.873864 236.569125 
L 329.299082 236.569125 
L 329.544927 238.498582 
L 331.757536 238.498582 
L 332.003382 240.213655 
L 335.691064 240.213655 
L 335.936909 238.498582 
L 337.166136 238.498582 
L 337.411982 236.569125 
L 339.1329 236.569125 
L 339.378745 234.639667 
L 339.870436 234.639667 
L 340.116282 232.71021 
L 341.591355 232.71021 
L 341.8372 230.780753 
L 344.049809 230.780753 
L 344.295655 228.851296 
L 345.033191 228.851296 
L 345.524882 225.206765 
L 347.2458 225.206765 
L 347.491645 223.277308 
L 349.9501 223.277308 
L 350.195945 221.347851 
L 351.916864 221.347851 
L 352.162709 219.418394 
L 354.621164 219.418394 
L 354.867009 217.488936 
L 357.571309 217.488936 
L 357.817155 215.559479 
L 359.292227 215.559479 
L 359.538073 219.418394 
L 360.521455 219.418394 
L 360.7673 217.488936 
L 362.488218 217.488936 
L 362.734064 219.418394 
L 363.225755 219.418394 
L 363.4716 217.70332 
L 365.930055 217.70332 
L 366.1759 219.632778 
L 366.913436 219.632778 
L 367.159282 217.70332 
L 368.8802 217.70332 
L 369.126045 219.632778 
L 370.109427 219.632778 
L 370.355273 217.70332 
L 371.830345 217.70332 
L 372.076191 219.418394 
L 372.322036 219.418394 
L 372.567882 217.488936 
L 375.518027 217.488936 
L 375.763873 219.418394 
L 376.747255 219.418394 
L 376.9931 217.70332 
L 380.680782 217.70332 
L 380.926627 219.632778 
L 381.172473 217.70332 
L 382.647545 217.70332 
L 382.893391 219.632778 
L 383.139236 219.632778 
L 383.385082 217.70332 
L 384.614309 217.70332 
L 384.860155 215.773863 
L 385.597691 215.773863 
L 385.843536 213.844406 
L 386.089382 213.844406 
L 386.335227 211.914949 
L 387.318609 211.914949 
L 387.564455 209.985492 
L 388.301991 209.985492 
L 388.547836 208.056034 
L 389.531218 208.056034 
L 389.777064 206.340961 
L 390.268755 206.340961 
L 390.760445 202.482047 
L 391.989673 202.482047 
L 392.481364 198.837516 
L 393.464745 198.837516 
L 393.710591 196.908059 
L 394.202282 196.908059 
L 394.448127 194.978602 
L 394.693973 194.978602 
L 394.939818 193.049145 
L 395.9232 193.049145 
L 396.414891 189.404614 
L 397.889964 189.404614 
L 398.135809 185.5457 
L 399.119191 185.5457 
L 399.365036 183.616243 
L 401.085955 183.616243 
L 401.577645 179.757328 
L 402.315182 179.757328 
L 402.561027 178.042255 
L 403.298564 178.042255 
L 403.544409 176.327182 
L 404.0361 176.327182 
L 404.281945 174.397725 
L 407.477936 174.397725 
L 407.723782 176.327182 
L 407.969627 172.468268 
L 408.215473 172.468268 
L 408.461318 174.397725 
L 408.707164 172.468268 
L 408.953009 174.397725 
L 409.198855 172.468268 
L 409.690545 172.468268 
L 409.936391 170.53881 
L 410.428082 170.53881 
L 410.673927 168.609353 
L 411.165618 168.609353 
L 411.411464 164.750439 
L 411.657309 164.750439 
L 411.903155 163.035365 
L 412.640691 163.035365 
L 412.886536 161.105908 
L 413.378227 161.105908 
L 413.624073 159.176451 
L 414.361609 159.176451 
L 414.607455 157.246994 
L 414.8533 157.246994 
L 415.099145 155.317537 
L 415.344991 157.246994 
L 415.590836 155.317537 
L 416.328373 155.317537 
L 416.574218 153.388079 
L 417.5576 153.388079 
L 417.803445 149.957933 
L 418.786827 149.957933 
L 419.032673 148.028476 
L 419.770209 148.028476 
L 420.016055 146.099019 
L 420.2619 146.099019 
L 420.507745 144.169561 
L 420.999436 144.169561 
L 421.245282 142.240104 
L 421.982818 142.240104 
L 422.228664 140.525031 
L 422.720355 140.525031 
L 423.212045 136.666117 
L 424.195427 136.666117 
L 424.441273 134.736659 
L 424.932964 134.736659 
L 425.178809 130.877745 
L 425.916345 130.877745 
L 426.162191 128.948288 
L 426.899727 128.948288 
L 427.145573 127.233215 
L 427.391418 127.233215 
L 427.637264 125.303757 
L 427.883109 125.303757 
L 428.128955 123.3743 
L 428.3748 123.3743 
L 428.620645 121.444843 
L 428.866491 121.444843 
L 429.112336 119.515386 
L 433.045864 119.515386 
L 433.291709 121.444843 
L 434.029245 121.444843 
L 434.275091 119.515386 
L 435.258473 119.515386 
L 435.504318 117.585928 
L 436.733545 117.585928 
L 436.979391 113.941398 
L 437.962773 113.941398 
L 438.208618 112.011941 
L 439.437845 112.011941 
L 439.683691 110.082484 
L 440.421227 110.082484 
L 440.667073 108.153026 
L 441.158764 108.153026 
L 441.404609 106.437953 
L 442.142145 106.437953 
L 442.387991 104.508496 
L 443.863064 104.508496 
L 444.108909 102.793423 
L 445.583982 102.793423 
L 445.829827 100.863966 
L 446.321518 100.863966 
L 446.567364 98.934508 
L 447.3049 98.934508 
L 447.796591 95.075594 
L 449.025818 95.075594 
L 449.271664 93.146137 
L 450.0092 93.146137 
L 450.255045 91.431064 
L 451.238427 91.431064 
L 451.484273 89.501606 
L 451.730118 89.501606 
L 451.975964 87.572149 
L 452.221809 87.572149 
L 452.467655 85.642692 
L 453.205191 85.642692 
L 453.451036 83.713235 
L 458.859636 83.713235 
L 459.105482 81.783778 
L 459.843018 81.783778 
L 460.088864 83.713235 
L 461.072245 83.713235 
L 461.318091 85.642692 
L 462.793164 85.642692 
L 463.039009 87.572149 
L 463.284855 85.642692 
L 464.268236 85.642692 
L 464.514082 87.357765 
L 465.497464 87.357765 
L 465.743309 89.287222 
L 465.989155 87.572149 
L 467.218382 87.572149 
L 467.464227 89.501606 
L 468.693455 89.501606 
L 468.9393 91.431064 
L 469.185145 89.501606 
L 470.906064 89.501606 
L 471.151909 91.431064 
L 473.364518 91.431064 
L 473.610364 93.146137 
L 474.102055 93.146137 
L 474.3479 91.21668 
L 475.577127 91.21668 
L 475.822973 93.146137 
L 476.806355 93.146137 
L 477.0522 91.21668 
L 478.035582 91.21668 
L 478.281427 93.146137 
L 479.264809 93.146137 
L 479.510655 95.075594 
L 480.002345 95.075594 
L 480.248191 93.146137 
L 481.969109 93.146137 
L 482.214955 91.21668 
L 482.4608 91.21668 
L 482.706645 93.146137 
L 483.198336 93.146137 
L 483.444182 95.075594 
L 484.181718 95.075594 
L 484.427564 93.360521 
L 484.673409 95.075594 
L 486.148482 95.075594 
L 486.394327 97.005051 
L 487.131864 97.005051 
L 487.377709 95.075594 
L 487.623555 95.075594 
L 487.8694 97.005051 
L 489.590318 97.005051 
L 489.836164 98.934508 
L 490.5737 98.934508 
L 490.819545 100.863966 
L 491.802927 100.863966 
L 492.048773 98.934508 
L 492.540464 98.934508 
L 492.786309 100.649582 
L 494.753073 100.649582 
L 494.998918 102.579039 
L 495.736455 102.579039 
L 495.9823 100.649582 
L 497.211527 100.649582 
L 497.457373 102.579039 
L 498.440755 102.579039 
L 498.6866 104.508496 
L 498.932445 104.508496 
L 499.178291 102.579039 
L 500.653364 102.579039 
L 500.899209 104.508496 
L 501.636745 104.508496 
L 501.882591 106.223569 
L 502.620127 106.223569 
L 502.865973 104.508496 
L 503.111818 104.508496 
L 503.357664 106.437953 
L 503.603509 104.508496 
L 503.849355 106.437953 
L 504.0952 106.437953 
L 504.341045 104.508496 
L 505.324427 104.508496 
L 505.570273 106.437953 
L 508.274573 106.437953 
L 508.520418 108.153026 
L 508.766264 106.223569 
L 510.241336 106.223569 
L 510.487182 104.508496 
L 512.453945 104.508496 
L 512.699791 102.579039 
L 513.191482 102.579039 
L 513.437327 104.508496 
L 514.420709 104.508496 
L 514.666555 102.579039 
L 516.633318 102.579039 
L 516.879164 104.508496 
L 518.108391 104.508496 
L 518.354236 102.579039 
L 519.829309 102.579039 
L 520.075155 100.649582 
L 520.566845 100.649582 
L 520.812691 102.579039 
L 521.304382 102.579039 
L 521.550227 100.863966 
L 523.271145 100.863966 
L 523.516991 98.934508 
L 524.254527 98.934508 
L 524.500373 100.863966 
L 524.992064 100.863966 
L 525.237909 98.934508 
L 526.958827 98.934508 
L 527.204673 97.005051 
L 528.188055 97.005051 
L 528.4339 95.075594 
L 528.679745 95.075594 
L 528.925591 96.790667 
L 530.646509 96.790667 
L 530.892355 95.075594 
L 531.384045 95.075594 
L 531.629891 96.790667 
L 531.875736 96.790667 
L 532.121582 95.075594 
L 532.859118 95.075594 
L 533.104964 93.146137 
L 533.8425 93.146137 
L 534.088345 91.21668 
L 534.334191 93.146137 
L 534.825882 93.146137 
L 535.071727 91.21668 
L 536.300955 91.21668 
L 536.5468 89.287222 
L 536.792645 89.287222 
L 537.038491 89.501606 
L 537.530182 89.501606 
L 537.776027 87.572149 
L 539.2511 87.572149 
L 539.496945 85.642692 
L 540.480327 85.642692 
L 540.726173 83.713235 
L 541.217864 83.713235 
L 541.463709 81.998162 
L 542.201245 81.998162 
L 542.447091 83.927619 
L 542.692936 81.998162 
L 543.184627 81.998162 
L 543.430473 80.068704 
L 544.413855 80.068704 
L 544.6597 78.139247 
L 545.397236 78.139247 
L 545.643082 76.20979 
L 545.888927 77.924863 
L 546.134773 77.924863 
L 546.380618 76.20979 
L 547.364 76.20979 
L 547.609845 74.280333 
L 548.347382 74.280333 
L 548.593227 72.350875 
L 548.839073 74.280333 
L 549.084918 74.280333 
L 549.330764 72.350875 
L 550.0683 72.350875 
L 550.314145 70.421418 
L 550.559991 70.421418 
L 550.805836 70.635802 
L 551.789218 70.635802 
L 552.035064 68.706345 
L 552.280909 68.706345 
L 552.526755 66.776888 
L 552.7726 68.706345 
L 555.968591 68.706345 
L 556.214436 70.635802 
L 556.706127 70.635802 
L 556.951973 68.706345 
L 557.689509 68.706345 
L 558.1812 64.847431 
L 559.656273 64.847431 
L 559.902118 62.917973 
L 561.131345 62.917973 
L 561.377191 61.2029 
L 561.623036 61.2029 
L 561.868882 59.273443 
L 562.852264 59.273443 
L 563.098109 57.343986 
L 564.327336 57.343986 
L 564.573182 55.414529 
L 566.048255 55.414529 
L 566.2941 53.485071 
L 567.769173 53.485071 
L 568.015018 51.555614 
L 569.490091 51.555614 
L 569.735936 49.840541 
L 570.719318 49.840541 
L 570.965164 48.125468 
L 571.7027 48.125468 
L 571.948545 46.196011 
L 572.931927 46.196011 
L 573.177773 44.266554 
L 573.915309 44.266554 
L 574.161155 42.337096 
L 575.390382 42.337096 
L 575.636227 40.407639 
L 576.373764 40.407639 
L 576.619609 38.478182 
L 576.865455 38.478182 
L 576.865455 38.478182 
" clip-path="url(#pe8c611e58e)" style="fill: none; stroke-dasharray: 3.7,1.6; stroke-dashoffset: 0; stroke: #808080"/>
   </g>
   <g id="patch_8">
    <path d="M 60.59 282.04 
L 60.59 26.88 
" style="fill: none; stroke: #000000; stroke-width: 0.8; stroke-linejoin: miter; stroke-linecap: square"/>
   </g>
   <g id="patch_9">
    <path d="M 601.45 282.04 
L 601.45 26.88 
" style="fill: none; stroke: #000000; stroke-width: 0.8; stroke-linejoin: miter; stroke-linecap: square"/>
   </g>
   <g id="patch_10">
    <path d="M 60.59 282.04 
L 601.45 282.04 
" style="fill: none; stroke: #000000; stroke-width: 0.8; stroke-linejoin: miter; stroke-linecap: square"/>
   </g>
   <g id="patch_11">
    <path d="M 60.59 26.88 
L 601.45 26.88 
" style="fill: none; stroke: #000000; stroke-width: 0.8; stroke-linejoin: miter; stroke-linecap: square"/>
   </g>
   <g id="legend_2">
    <g id="patch_12">
     <path d="M 512.101562 277.04 
L 594.45 277.04 
Q 596.45 277.04 596.45 275.04 
L 596.45 261.361875 
Q 596.45 259.361875 594.45 259.361875 
L 512.101562 259.361875 
Q 510.101562 259.361875 510.101562 261.361875 
L 510.101562 275.04 
Q 510.101562 277.04 512.101562 277.04 
z
" style="fill: #ffffff; opacity: 0.8; stroke: #cccccc; stroke-linejoin: miter"/>
    </g>
    <g id="line2d_39">
     <path d="M 514.101562 267.460312 
L 524.101562 267.460312 
L 534.101562 267.460312 
" style="fill: none; stroke-dasharray: 3.7,1.6; stroke-dashoffset: 0; stroke: #808080"/>
    </g>
    <g id="text_29">
     <!-- difference -->
     <g transform="translate(542.101562 270.960312) scale(0.1 -0.1)">
      <use xlink:href="#DejaVuSans-64"/>
      <use xlink:href="#DejaVuSans-69" transform="translate(63.476562 0)"/>
      <use xlink:href="#DejaVuSans-66" transform="translate(91.259766 0)"/>
      <use xlink:href="#DejaVuSans-66" transform="translate(126.464844 0)"/>
      <use xlink:href="#DejaVuSans-65" transform="translate(161.669922 0)"/>
      <use xlink:href="#DejaVuSans-72" transform="translate(223.193359 0)"/>
      <use xlink:href="#DejaVuSans-65" transform="translate(262.056641 0)"/>
      <use xlink:href="#DejaVuSans-6e" transform="translate(323.580078 0)"/>
      <use xlink:href="#DejaVuSans-63" transform="translate(386.958984 0)"/>
      <use xlink:href="#DejaVuSans-65" transform="translate(441.939453 0)"/>
     </g>
    </g>
   </g>
  </g>
 </g>
 <defs>
  <clipPath id="pe8c611e58e">
   <rect x="60.59" y="26.88" width="540.86" height="255.16"/>
  </clipPath>
 </defs>
</svg>
