<?xml version="1.0" encoding="utf-8" standalone="no"?>
<!DOCTYPE svg PUBLIC "-//W3C//DTD SVG 1.1//EN"
  "http://www.w3.org/Graphics/SVG/1.1/DTD/svg11.dtd">
<svg xmlns:xlink="http://www.w3.org/1999/xlink" width="648pt" height="324pt" viewBox="0 0 648 324" xmlns="http://www.w3.org/2000/svg" version="1.1">
 <metadata>
  <rdf:RDF xmlns:dc="http://purl.org/dc/elements/1.1/" xmlns:cc="http://creativecommons.org/ns#" xmlns:rdf="http://www.w3.org/1999/02/22-rdf-syntax-ns#">
   <cc:Work>
    <dc:type rdf:resource="http://purl.org/dc/dcmitype/StillImage"/>
    <dc:date>2026-04-28T15:31:55.440807</dc:date>
    <dc:format>image/svg+xml</dc:format>
    <dc:creator>
     <cc:Agent>
      <dc:title>Matplotlib v3.10.8, https://matplotlib.org/</dc:title>
     </cc:Agent>
    </dc:creator>
   </cc:Work>
  </rdf:RDF>
 </metadata>
 <defs>
  <style type="text/css">*{stroke-linejoin: round; stroke-linecap: butt}</style>
 </defs>
 <g id="figure_1">
  <g id="patch_1">
   <path d="M 0 324 
L 648 324 
L 648 0 
L 0 0 
z
" style="fill: #ffffff"/>
  </g>
  <g id="axes_1">
   <g id="patch_2">
    <path d="M 66.62 282.04 
L 601.45 282.04 
L 601.45 26.88 
L 66.62 26.88 
z
" style="fill: #ffffff"/>
   </g>
   <g id="matplotlib.axis_1">
    <g id="xtick_1">
     <g id="line2d_1">
      <path d="M 90.68735 282.04 
L 90.68735 26.88 
" clip-path="url(#pac55cfbd4d)" style="fill: none; stroke: #b0b0b0; stroke-width: 0.8; stroke-linecap: square"/>
     </g>
     <g id="line2d_2">
      <defs>
       <path id="m2cb671ea57" d="M 0 0 
L 0 3.5 
" style="stroke: #000000; stroke-width: 0.8"/>
      </defs>
      <g>
       <use xlink:href="#m2cb671ea57" x="90.68735" y="282.04" style="stroke: #000000; stroke-width: 0.8"/>
      </g>
     </g>
     <g id="text_1">
      <!-- 0 -->
      <g transform="translate(87.5061 296.638438) scale(0.1 -0.1)">
       <defs>
        <path id="DejaVuSans-30" d="M 2034 4250 
Q 1547 4250 1301 3770 
Q 1056 3291 1056 2328 
Q 1056 1369 1301 889 
Q 1547 409 2034 409 
Q 2525 409 2770 889 
Q 3016 1369 3016 2328 
Q 3016 3291 2770 3770 
Q 2525 4250 2034 4250 
z
M 2034 4750 
Q 2819 4750 3233 4129 
Q 3647 3509 3647 2328 
Q 3647 1150 3233 529 
Q 2819 -91 2034 -91 
Q 1250 -91 836 529 
Q 422 1150 422 2328 
Q 422 3509 836 4129 
Q 1250 4750 2034 4750 
z
" transform="scale(0.015625)"/>
       </defs>
       <use xlink:href="#DejaVuSans-30"/>
      </g>
     </g>
    </g>
    <g id="xtick_2">
     <g id="line2d_3">
      <path d="M 171.778308 282.04 
L 171.778308 26.88 
" clip-path="url(#pac55cfbd4d)" style="fill: none; stroke: #b0b0b0; stroke-width: 0.8; stroke-linecap: square"/>
     </g>
     <g id="line2d_4">
      <g>
       <use xlink:href="#m2cb671ea57" x="171.778308" y="282.04" style="stroke: #000000; stroke-width: 0.8"/>
      </g>
     </g>
     <g id="text_2">
      <!-- 10 -->
      <g transform="translate(165.415808 296.638438) scale(0.1 -0.1)">
       <defs>
        <path id="DejaVuSans-31" d="M 794 531 
L 1825 531 
L 1825 4091 
L 703 3866 
L 703 4441 
L 1819 4666 
L 2450 4666 
L 2450 531 
L 3481 531 
L 3481 0 
L 794 0 
L 794 531 
z
" transform="scale(0.015625)"/>
       </defs>
       <use xlink:href="#DejaVuSans-31"/>
       <use xlink:href="#DejaVuSans-30" transform="translate(63.623047 0)"/>
      </g>
     </g>
    </g>
    <g id="xtick_3">
     <g id="line2d_5">
      <path d="M 252.869267 282.04 
L 252.869267 26.88 
" clip-path="url(#pac55cfbd4d)" style="fill: none; stroke: #b0b0b0; stroke-width: 0.8; stroke-linecap: square"/>
     </g>
     <g id="line2d_6">
      <g>
       <use xlink:href="#m2cb671ea57" x="252.869267" y="282.04" style="stroke: #000000; stroke-width: 0.8"/>
      </g>
     </g>
     <g id="text_3">
      <!-- 20 -->
      <g transform="translate(246.506767 296.638438) scale(0.1 -0.1)">
       <defs>
        <path id="DejaVuSans-32" d="M 1228 531 
L 3431 531 
L 3431 0 
L 469 0 
L 469 531 
Q 828 903 1448 1529 
Q 2069 2156 2228 2338 
Q 2531 2678 2651 2914 
Q 2772 3150 2772 3378 
Q 2772 3750 2511 3984 
Q 2250 4219 1831 4219 
Q 1534 4219 1204 4116 
Q 875 4013 500 3803 
L 500 4441 
Q 881 4594 1212 4672 
Q 1544 4750 1819 4750 
Q 2544 4750 2975 4387 
Q 3406 4025 3406 3419 
Q 3406 3131 3298 2873 
Q 3191 2616 2906 2266 
Q 2828 2175 2409 1742 
Q 1991 1309 1228 531 
z
" transform="scale(0.015625)"/>
       </defs>
       <use xlink:href="#DejaVuSans-32"/>
       <use xlink:href="#DejaVuSans-30" transform="translate(63.623047 0)"/>
      </g>
     </g>
    </g>
    <g id="xtick_4">
     <g id="line2d_7">
      <path d="M 333.960225 282.04 
L 333.960225 26.88 
" clip-path="url(#pac55cfbd4d)" style="fill: none; stroke: #b0b0b0; stroke-width: 0.8; stroke-linecap: square"/>
     </g>
     <g id="line2d_8">
      <g>
       <use xlink:href="#m2cb671ea57" x="333.960225" y="282.04" style="stroke: #000000; stroke-width: 0.8"/>
      </g>
     </g>
     <g id="text_4">
      <!-- 30 -->
      <g transform="translate(327.597725 296.638438) scale(0.1 -0.1)">
       <defs>
        <path id="DejaVuSans-33" d="M 2597 2516 
Q 3050 2419 3304 2112 
Q 3559 1806 3559 1356 
Q 3559 666 3084 287 
Q 2609 -91 1734 -91 
Q 1441 -91 1130 -33 
Q 819 25 488 141 
L 488 750 
Q 750 597 1062 519 
Q 1375 441 1716 441 
Q 2309 441 2620 675 
Q 2931 909 2931 1356 
Q 2931 1769 2642 2001 
Q 2353 2234 1838 2234 
L 1294 2234 
L 1294 2753 
L 1863 2753 
Q 2328 2753 2575 2939 
Q 2822 3125 2822 3475 
Q 2822 3834 2567 4026 
Q 2313 4219 1838 4219 
Q 1578 4219 1281 4162 
Q 984 4106 628 3988 
L 628 4550 
Q 988 4650 1302 4700 
Q 1616 4750 1894 4750 
Q 2613 4750 3031 4423 
Q 3450 4097 3450 3541 
Q 3450 3153 3228 2886 
Q 3006 2619 2597 2516 
z
" transform="scale(0.015625)"/>
       </defs>
       <use xlink:href="#DejaVuSans-33"/>
       <use xlink:href="#DejaVuSans-30" transform="translate(63.623047 0)"/>
      </g>
     </g>
    </g>
    <g id="xtick_5">
     <g id="line2d_9">
      <path d="M 415.051183 282.04 
L 415.051183 26.88 
" clip-path="url(#pac55cfbd4d)" style="fill: none; stroke: #b0b0b0; stroke-width: 0.8; stroke-linecap: square"/>
     </g>
     <g id="line2d_10">
      <g>
       <use xlink:href="#m2cb671ea57" x="415.051183" y="282.04" style="stroke: #000000; stroke-width: 0.8"/>
      </g>
     </g>
     <g id="text_5">
      <!-- 40 -->
      <g transform="translate(408.688683 296.638438) scale(0.1 -0.1)">
       <defs>
        <path id="DejaVuSans-34" d="M 2419 4116 
L 825 1625 
L 2419 1625 
L 2419 4116 
z
M 2253 4666 
L 3047 4666 
L 3047 1625 
L 3713 1625 
L 3713 1100 
L 3047 1100 
L 3047 0 
L 2419 0 
L 2419 1100 
L 313 1100 
L 313 1709 
L 2253 4666 
z
" transform="scale(0.015625)"/>
       </defs>
       <use xlink:href="#DejaVuSans-34"/>
       <use xlink:href="#DejaVuSans-30" transform="translate(63.623047 0)"/>
      </g>
     </g>
    </g>
    <g id="xtick_6">
     <g id="line2d_11">
      <path d="M 496.142142 282.04 
L 496.142142 26.88 
" clip-path="url(#pac55cfbd4d)" style="fill: none; stroke: #b0b0b0; stroke-width: 0.8; stroke-linecap: square"/>
     </g>
     <g id="line2d_12">
      <g>
       <use xlink:href="#m2cb671ea57" x="496.142142" y="282.04" style="stroke: #000000; stroke-width: 0.8"/>
      </g>
     </g>
     <g id="text_6">
      <!-- 50 -->
      <g transform="translate(489.779642 296.638438) scale(0.1 -0.1)">
       <defs>
        <path id="DejaVuSans-35" d="M 691 4666 
L 3169 4666 
L 3169 4134 
L 1269 4134 
L 1269 2991 
Q 1406 3038 1543 3061 
Q 1681 3084 1819 3084 
Q 2600 3084 3056 2656 
Q 3513 2228 3513 1497 
Q 3513 744 3044 326 
Q 2575 -91 1722 -91 
Q 1428 -91 1123 -41 
Q 819 9 494 109 
L 494 744 
Q 775 591 1075 516 
Q 1375 441 1709 441 
Q 2250 441 2565 725 
Q 2881 1009 2881 1497 
Q 2881 1984 2565 2268 
Q 2250 2553 1709 2553 
Q 1456 2553 1204 2497 
Q 953 2441 691 2322 
L 691 4666 
z
" transform="scale(0.015625)"/>
       </defs>
       <use xlink:href="#DejaVuSans-35"/>
       <use xlink:href="#DejaVuSans-30" transform="translate(63.623047 0)"/>
      </g>
     </g>
    </g>
    <g id="xtick_7">
     <g id="line2d_13">
      <path d="M 577.2331 282.04 
L 577.2331 26.88 
" clip-path="url(#pac55cfbd4d)" style="fill: none; stroke: #b0b0b0; stroke-width: 0.8; stroke-linecap: square"/>
     </g>
     <g id="line2d_14">
      <g>
       <use xlink:href="#m2cb671ea57" x="577.2331" y="282.04" style="stroke: #000000; stroke-width: 0.8"/>
      </g>
     </g>
     <g id="text_7">
      <!-- 60 -->
      <g transform="translate(570.8706 296.638438) scale(0.1 -0.1)">
       <defs>
        <path id="DejaVuSans-36" d="M 2113 2584 
Q 1688 2584 1439 2293 
Q 1191 2003 1191 1497 
Q 1191 994 1439 701 
Q 1688 409 2113 409 
Q 2538 409 2786 701 
Q 3034 994 3034 1497 
Q 3034 2003 2786 2293 
Q 2538 2584 2113 2584 
z
M 3366 4563 
L 3366 3988 
Q 3128 4100 2886 4159 
Q 2644 4219 2406 4219 
Q 1781 4219 1451 3797 
Q 1122 3375 1075 2522 
Q 1259 2794 1537 2939 
Q 1816 3084 2150 3084 
Q 2853 3084 3261 2657 
Q 3669 2231 3669 1497 
Q 3669 778 3244 343 
Q 2819 -91 2113 -91 
Q 1303 -91 875 529 
Q 447 1150 447 2328 
Q 447 3434 972 4092 
Q 1497 4750 2381 4750 
Q 2619 4750 2861 4703 
Q 3103 4656 3366 4563 
z
" transform="scale(0.015625)"/>
       </defs>
       <use xlink:href="#DejaVuSans-36"/>
       <use xlink:href="#DejaVuSans-30" transform="translate(63.623047 0)"/>
      </g>
     </g>
    </g>
    <g id="text_8">
     <!-- s [m] -->
     <g transform="translate(321.069375 310.316563) scale(0.1 -0.1)">
      <defs>
       <path id="DejaVuSans-73" d="M 2834 3397 
L 2834 2853 
Q 2591 2978 2328 3040 
Q 2066 3103 1784 3103 
Q 1356 3103 1142 2972 
Q 928 2841 928 2578 
Q 928 2378 1081 2264 
Q 1234 2150 1697 2047 
L 1894 2003 
Q 2506 1872 2764 1633 
Q 3022 1394 3022 966 
Q 3022 478 2636 193 
Q 2250 -91 1575 -91 
Q 1294 -91 989 -36 
Q 684 19 347 128 
L 347 722 
Q 666 556 975 473 
Q 1284 391 1588 391 
Q 1994 391 2212 530 
Q 2431 669 2431 922 
Q 2431 1156 2273 1281 
Q 2116 1406 1581 1522 
L 1381 1569 
Q 847 1681 609 1914 
Q 372 2147 372 2553 
Q 372 3047 722 3315 
Q 1072 3584 1716 3584 
Q 2034 3584 2315 3537 
Q 2597 3491 2834 3397 
z
" transform="scale(0.015625)"/>
       <path id="DejaVuSans-20" transform="scale(0.015625)"/>
       <path id="DejaVuSans-5b" d="M 550 4863 
L 1875 4863 
L 1875 4416 
L 1125 4416 
L 1125 -397 
L 1875 -397 
L 1875 -844 
L 550 -844 
L 550 4863 
z
" transform="scale(0.015625)"/>
       <path id="DejaVuSans-6d" d="M 3328 2828 
Q 3544 3216 3844 3400 
Q 4144 3584 4550 3584 
Q 5097 3584 5394 3201 
Q 5691 2819 5691 2113 
L 5691 0 
L 5113 0 
L 5113 2094 
Q 5113 2597 4934 2840 
Q 4756 3084 4391 3084 
Q 3944 3084 3684 2787 
Q 3425 2491 3425 1978 
L 3425 0 
L 2847 0 
L 2847 2094 
Q 2847 2600 2669 2842 
Q 2491 3084 2119 3084 
Q 1678 3084 1418 2786 
Q 1159 2488 1159 1978 
L 1159 0 
L 581 0 
L 581 3500 
L 1159 3500 
L 1159 2956 
Q 1356 3278 1631 3431 
Q 1906 3584 2284 3584 
Q 2666 3584 2933 3390 
Q 3200 3197 3328 2828 
z
" transform="scale(0.015625)"/>
       <path id="DejaVuSans-5d" d="M 1947 4863 
L 1947 -844 
L 622 -844 
L 622 -397 
L 1369 -397 
L 1369 4416 
L 622 4416 
L 622 4863 
L 1947 4863 
z
" transform="scale(0.015625)"/>
      </defs>
      <use xlink:href="#DejaVuSans-73"/>
      <use xlink:href="#DejaVuSans-20" transform="translate(52.099609 0)"/>
      <use xlink:href="#DejaVuSans-5b" transform="translate(83.886719 0)"/>
      <use xlink:href="#DejaVuSans-6d" transform="translate(122.900391 0)"/>
      <use xlink:href="#DejaVuSans-5d" transform="translate(220.3125 0)"/>
     </g>
    </g>
   </g>
   <g id="matplotlib.axis_2">
    <g id="ytick_1">
     <g id="line2d_15">
      <path d="M 66.62 249.69678 
L 601.45 249.69678 
" clip-path="url(#pac55cfbd4d)" style="fill: none; stroke: #b0b0b0; stroke-width: 0.8; stroke-linecap: square"/>
     </g>
     <g id="line2d_16">
      <defs>
       <path id="mea3582661b" d="M 0 0 
L -3.5 0 
" style="stroke: #000000; stroke-width: 0.8"/>
      </defs>
      <g>
       <use xlink:href="#mea3582661b" x="66.62" y="249.69678" style="stroke: #000000; stroke-width: 0.8"/>
      </g>
     </g>
     <g id="text_9">
      <!-- 0.0025 -->
      <g transform="translate(24.629375 253.495998) scale(0.1 -0.1)">
       <defs>
        <path id="DejaVuSans-2e" d="M 684 794 
L 1344 794 
L 1344 0 
L 684 0 
L 684 794 
z
" transform="scale(0.015625)"/>
       </defs>
       <use xlink:href="#DejaVuSans-30"/>
       <use xlink:href="#DejaVuSans-2e" transform="translate(63.623047 0)"/>
       <use xlink:href="#DejaVuSans-30" transform="translate(95.410156 0)"/>
       <use xlink:href="#DejaVuSans-30" transform="translate(159.033203 0)"/>
       <use xlink:href="#DejaVuSans-32" transform="translate(222.65625 0)"/>
       <use xlink:href="#DejaVuSans-35" transform="translate(286.279297 0)"/>
      </g>
     </g>
    </g>
    <g id="ytick_2">
     <g id="line2d_17">
      <path d="M 66.62 217.027371 
L 601.45 217.027371 
" clip-path="url(#pac55cfbd4d)" style="fill: none; stroke: #b0b0b0; stroke-width: 0.8; stroke-linecap: square"/>
     </g>
     <g id="line2d_18">
      <g>
       <use xlink:href="#mea3582661b" x="66.62" y="217.027371" style="stroke: #000000; stroke-width: 0.8"/>
      </g>
     </g>
     <g id="text_10">
      <!-- 0.0050 -->
      <g transform="translate(24.629375 220.826589) scale(0.1 -0.1)">
       <use xlink:href="#DejaVuSans-30"/>
       <use xlink:href="#DejaVuSans-2e" transform="translate(63.623047 0)"/>
       <use xlink:href="#DejaVuSans-30" transform="translate(95.410156 0)"/>
       <use xlink:href="#DejaVuSans-30" transform="translate(159.033203 0)"/>
       <use xlink:href="#DejaVuSans-35" transform="translate(222.65625 0)"/>
       <use xlink:href="#DejaVuSans-30" transform="translate(286.279297 0)"/>
      </g>
     </g>
    </g>
    <g id="ytick_3">
     <g id="line2d_19">
      <path d="M 66.62 184.357962 
L 601.45 184.357962 
" clip-path="url(#pac55cfbd4d)" style="fill: none; stroke: #b0b0b0; stroke-width: 0.8; stroke-linecap: square"/>
     </g>
     <g id="line2d_20">
      <g>
       <use xlink:href="#mea3582661b" x="66.62" y="184.357962" style="stroke: #000000; stroke-width: 0.8"/>
      </g>
     </g>
     <g id="text_11">
      <!-- 0.0075 -->
      <g transform="translate(24.629375 188.157181) scale(0.1 -0.1)">
       <defs>
        <path id="DejaVuSans-37" d="M 525 4666 
L 3525 4666 
L 3525 4397 
L 1831 0 
L 1172 0 
L 2766 4134 
L 525 4134 
L 525 4666 
z
" transform="scale(0.015625)"/>
       </defs>
       <use xlink:href="#DejaVuSans-30"/>
       <use xlink:href="#DejaVuSans-2e" transform="translate(63.623047 0)"/>
       <use xlink:href="#DejaVuSans-30" transform="translate(95.410156 0)"/>
       <use xlink:href="#DejaVuSans-30" transform="translate(159.033203 0)"/>
       <use xlink:href="#DejaVuSans-37" transform="translate(222.65625 0)"/>
       <use xlink:href="#DejaVuSans-35" transform="translate(286.279297 0)"/>
      </g>
     </g>
    </g>
    <g id="ytick_4">
     <g id="line2d_21">
      <path d="M 66.62 151.688553 
L 601.45 151.688553 
" clip-path="url(#pac55cfbd4d)" style="fill: none; stroke: #b0b0b0; stroke-width: 0.8; stroke-linecap: square"/>
     </g>
     <g id="line2d_22">
      <g>
       <use xlink:href="#mea3582661b" x="66.62" y="151.688553" style="stroke: #000000; stroke-width: 0.8"/>
      </g>
     </g>
     <g id="text_12">
      <!-- 0.0100 -->
      <g transform="translate(24.629375 155.487772) scale(0.1 -0.1)">
       <use xlink:href="#DejaVuSans-30"/>
       <use xlink:href="#DejaVuSans-2e" transform="translate(63.623047 0)"/>
       <use xlink:href="#DejaVuSans-30" transform="translate(95.410156 0)"/>
       <use xlink:href="#DejaVuSans-31" transform="translate(159.033203 0)"/>
       <use xlink:href="#DejaVuSans-30" transform="translate(222.65625 0)"/>
       <use xlink:href="#DejaVuSans-30" transform="translate(286.279297 0)"/>
      </g>
     </g>
    </g>
    <g id="ytick_5">
     <g id="line2d_23">
      <path d="M 66.62 119.019144 
L 601.45 119.019144 
" clip-path="url(#pac55cfbd4d)" style="fill: none; stroke: #b0b0b0; stroke-width: 0.8; stroke-linecap: square"/>
     </g>
     <g id="line2d_24">
      <g>
       <use xlink:href="#mea3582661b" x="66.62" y="119.019144" style="stroke: #000000; stroke-width: 0.8"/>
      </g>
     </g>
     <g id="text_13">
      <!-- 0.0125 -->
      <g transform="translate(24.629375 122.818363) scale(0.1 -0.1)">
       <use xlink:href="#DejaVuSans-30"/>
       <use xlink:href="#DejaVuSans-2e" transform="translate(63.623047 0)"/>
       <use xlink:href="#DejaVuSans-30" transform="translate(95.410156 0)"/>
       <use xlink:href="#DejaVuSans-31" transform="translate(159.033203 0)"/>
       <use xlink:href="#DejaVuSans-32" transform="translate(222.65625 0)"/>
       <use xlink:href="#DejaVuSans-35" transform="translate(286.279297 0)"/>
      </g>
     </g>
    </g>
    <g id="ytick_6">
     <g id="line2d_25">
      <path d="M 66.62 86.349735 
L 601.45 86.349735 
" clip-path="url(#pac55cfbd4d)" style="fill: none; stroke: #b0b0b0; stroke-width: 0.8; stroke-linecap: square"/>
     </g>
     <g id="line2d_26">
      <g>
       <use xlink:href="#mea3582661b" x="66.62" y="86.349735" style="stroke: #000000; stroke-width: 0.8"/>
      </g>
     </g>
     <g id="text_14">
      <!-- 0.0150 -->
      <g transform="translate(24.629375 90.148954) scale(0.1 -0.1)">
       <use xlink:href="#DejaVuSans-30"/>
       <use xlink:href="#DejaVuSans-2e" transform="translate(63.623047 0)"/>
       <use xlink:href="#DejaVuSans-30" transform="translate(95.410156 0)"/>
       <use xlink:href="#DejaVuSans-31" transform="translate(159.033203 0)"/>
       <use xlink:href="#DejaVuSans-35" transform="translate(222.65625 0)"/>
       <use xlink:href="#DejaVuSans-30" transform="translate(286.279297 0)"/>
      </g>
     </g>
    </g>
    <g id="ytick_7">
     <g id="line2d_27">
      <path d="M 66.62 53.680326 
L 601.45 53.680326 
" clip-path="url(#pac55cfbd4d)" style="fill: none; stroke: #b0b0b0; stroke-width: 0.8; stroke-linecap: square"/>
     </g>
     <g id="line2d_28">
      <g>
       <use xlink:href="#mea3582661b" x="66.62" y="53.680326" style="stroke: #000000; stroke-width: 0.8"/>
      </g>
     </g>
     <g id="text_15">
      <!-- 0.0175 -->
      <g transform="translate(24.629375 57.479545) scale(0.1 -0.1)">
       <use xlink:href="#DejaVuSans-30"/>
       <use xlink:href="#DejaVuSans-2e" transform="translate(63.623047 0)"/>
       <use xlink:href="#DejaVuSans-30" transform="translate(95.410156 0)"/>
       <use xlink:href="#DejaVuSans-31" transform="translate(159.033203 0)"/>
       <use xlink:href="#DejaVuSans-37" transform="translate(222.65625 0)"/>
       <use xlink:href="#DejaVuSans-35" transform="translate(286.279297 0)"/>
      </g>
     </g>
    </g>
    <g id="text_16">
     <!-- rms(x) [m] -->
     <g transform="translate(18.549688 181.124844) rotate(-90) scale(0.1 -0.1)">
      <defs>
       <path id="DejaVuSans-72" d="M 2631 2963 
Q 2534 3019 2420 3045 
Q 2306 3072 2169 3072 
Q 1681 3072 1420 2755 
Q 1159 2438 1159 1844 
L 1159 0 
L 581 0 
L 581 3500 
L 1159 3500 
L 1159 2956 
Q 1341 3275 1631 3429 
Q 1922 3584 2338 3584 
Q 2397 3584 2469 3576 
Q 2541 3569 2628 3553 
L 2631 2963 
z
" transform="scale(0.015625)"/>
       <path id="DejaVuSans-28" d="M 1984 4856 
Q 1566 4138 1362 3434 
Q 1159 2731 1159 2009 
Q 1159 1288 1364 580 
Q 1569 -128 1984 -844 
L 1484 -844 
Q 1016 -109 783 600 
Q 550 1309 550 2009 
Q 550 2706 781 3412 
Q 1013 4119 1484 4856 
L 1984 4856 
z
" transform="scale(0.015625)"/>
       <path id="DejaVuSans-78" d="M 3513 3500 
L 2247 1797 
L 3578 0 
L 2900 0 
L 1881 1375 
L 863 0 
L 184 0 
L 1544 1831 
L 300 3500 
L 978 3500 
L 1906 2253 
L 2834 3500 
L 3513 3500 
z
" transform="scale(0.015625)"/>
       <path id="DejaVuSans-29" d="M 513 4856 
L 1013 4856 
Q 1481 4119 1714 3412 
Q 1947 2706 1947 2009 
Q 1947 1309 1714 600 
Q 1481 -109 1013 -844 
L 513 -844 
Q 928 -128 1133 580 
Q 1338 1288 1338 2009 
Q 1338 2731 1133 3434 
Q 928 4138 513 4856 
z
" transform="scale(0.015625)"/>
      </defs>
      <use xlink:href="#DejaVuSans-72"/>
      <use xlink:href="#DejaVuSans-6d" transform="translate(39.363281 0)"/>
      <use xlink:href="#DejaVuSans-73" transform="translate(136.775391 0)"/>
      <use xlink:href="#DejaVuSans-28" transform="translate(188.875 0)"/>
      <use xlink:href="#DejaVuSans-78" transform="translate(227.888672 0)"/>
      <use xlink:href="#DejaVuSans-29" transform="translate(287.068359 0)"/>
      <use xlink:href="#DejaVuSans-20" transform="translate(326.082031 0)"/>
      <use xlink:href="#DejaVuSans-5b" transform="translate(357.869141 0)"/>
      <use xlink:href="#DejaVuSans-6d" transform="translate(396.882812 0)"/>
      <use xlink:href="#DejaVuSans-5d" transform="translate(494.294922 0)"/>
     </g>
    </g>
   </g>
   <g id="line2d_29">
    <path d="M 90.930455 151.086405 
L 91.416664 150.71829 
L 91.902873 150.094197 
L 92.632186 148.675306 
L 93.3615 146.671413 
L 94.090814 144.073752 
L 95.063232 139.730634 
L 115.727118 42.451377 
L 116.456432 40.559629 
L 116.942641 39.885488 
L 117.42885 39.68263 
L 117.671955 39.758092 
L 118.158164 40.262611 
L 118.644373 41.23768 
L 119.373686 43.482282 
L 139.794468 111.6786 
L 140.523782 113.267996 
L 141.009991 113.916181 
L 141.4962 114.236798 
L 141.982409 114.230469 
L 142.468618 113.897182 
L 142.954827 113.23629 
L 143.684141 111.689523 
L 164.104923 64.43683 
L 164.591132 63.911225 
L 165.077341 63.810187 
L 165.56355 64.133911 
L 166.049759 64.881767 
L 166.535968 66.052302 
L 167.265282 68.595419 
L 168.2377 73.202878 
L 188.901586 174.68265 
L 189.874005 178.245793 
L 190.846423 180.997224 
L 191.575736 182.541141 
L 192.548155 184.025816 
L 205.432695 202.261641 
L 213.212041 213.239444 
L 214.184459 215.327595 
L 215.156877 217.930658 
L 216.3724 221.87527 
L 223.908641 248.237413 
L 227.312105 259.393142 
L 229.256941 265.030669 
L 230.472464 267.909175 
L 231.201777 269.222893 
L 231.931091 270.099377 
L 232.4173 270.391307 
L 232.903509 270.427278 
L 233.389718 270.205019 
L 233.875927 269.738159 
L 234.605241 268.637276 
L 235.577659 266.588698 
L 236.793182 263.403506 
L 238.008705 259.650784 
L 239.467332 254.468297 
L 241.169064 247.598177 
L 247.489782 220.575578 
L 262.076055 157.76756 
L 262.805368 155.676741 
L 263.534682 154.139299 
L 264.263995 153.161978 
L 264.750205 152.823829 
L 265.722623 152.62697 
L 282.496836 149.807596 
L 285.657195 149.176472 
L 286.143405 148.774108 
L 286.629614 148.111829 
L 287.358927 146.62812 
L 288.088241 144.550115 
L 288.817555 141.86874 
L 290.033077 136.317721 
L 310.210755 41.695399 
L 310.940068 39.608673 
L 311.426277 38.806757 
L 311.912486 38.478182 
L 312.155591 38.491633 
L 312.6418 38.873981 
L 313.128009 39.72954 
L 313.614218 41.056139 
L 320.907355 65.210256 
L 334.521209 110.052987 
L 335.250523 111.520956 
L 335.736732 112.083887 
L 336.222941 112.315616 
L 336.70915 112.216593 
L 337.195359 111.786624 
L 337.681568 111.024876 
L 338.897091 108.241604 
L 358.831664 61.453444 
L 359.317873 60.987893 
L 359.804082 60.952557 
L 360.290291 61.347503 
L 360.7765 62.171963 
L 361.262709 63.424333 
L 361.992023 66.09966 
L 363.45065 73.172596 
L 383.385223 171.055662 
L 384.357641 174.718349 
L 385.330059 177.541342 
L 386.059373 179.120883 
L 386.788686 180.259769 
L 397.728391 194.721081 
L 406.480155 205.937255 
L 407.695677 207.637616 
L 408.668095 209.589358 
L 409.640514 212.099742 
L 410.856036 215.991983 
L 420.094009 248.62601 
L 422.768159 257.272399 
L 424.469891 262.161257 
L 425.685414 265.081816 
L 426.657832 266.86216 
L 427.387145 267.749853 
L 427.873355 268.08585 
L 428.359564 268.198918 
L 428.845773 268.083761 
L 429.331982 267.74577 
L 430.061295 266.855425 
L 430.790609 265.572752 
L 431.763027 263.372152 
L 432.97855 259.906364 
L 434.437177 254.911525 
L 436.382014 247.208629 
L 441.244105 226.844906 
L 451.6976 181.917633 
L 456.559691 161.337592 
L 457.532109 158.527723 
L 458.261423 157.049935 
L 458.990736 156.119252 
L 459.476945 155.804863 
L 460.935573 155.482462 
L 473.577009 152.764724 
L 480.140832 151.233987 
L 480.627041 150.872298 
L 481.11325 150.254665 
L 481.842564 148.845568 
L 482.571877 146.851646 
L 483.301191 144.264203 
L 484.273609 139.924493 
L 504.937495 42.177168 
L 505.666809 40.239832 
L 506.153018 39.536 
L 506.639227 39.304082 
L 506.882332 39.365267 
L 507.368541 39.841776 
L 507.85475 40.789603 
L 508.584064 43.011515 
L 529.004845 111.03707 
L 529.734159 112.637188 
L 530.220368 113.29079 
L 530.706577 113.615449 
L 531.192786 113.611795 
L 531.678995 113.279821 
L 532.165205 112.618882 
L 532.894518 111.062165 
L 553.558405 62.777412 
L 554.044614 62.427634 
L 554.530823 62.505233 
L 555.017032 63.010056 
L 555.503241 63.941121 
L 555.98945 65.296616 
L 556.718764 68.119668 
L 559.149809 80.068741 
L 577.139545 168.736585 
L 577.139545 168.736585 
" clip-path="url(#pac55cfbd4d)" style="fill: none; stroke: #1f77b4; stroke-width: 2; stroke-linecap: square"/>
   </g>
   <g id="line2d_30">
    <path d="M 90.930455 151.086405 
L 91.416664 150.71829 
L 91.902873 150.094197 
L 92.632186 148.675306 
L 93.3615 146.671413 
L 94.090814 144.073752 
L 95.063232 139.730634 
L 115.727118 42.451377 
L 116.456432 40.559629 
L 116.942641 39.885488 
L 117.42885 39.68263 
L 117.671955 39.758092 
L 118.158164 40.262611 
L 118.644373 41.23768 
L 119.373686 43.482282 
L 139.794468 111.6786 
L 140.523782 113.267996 
L 141.009991 113.916181 
L 141.4962 114.236798 
L 141.982409 114.230469 
L 142.468618 113.897182 
L 142.954827 113.23629 
L 143.684141 111.689523 
L 164.104923 64.43683 
L 164.591132 63.911225 
L 165.077341 63.810187 
L 165.56355 64.133911 
L 166.049759 64.881767 
L 166.535968 66.052302 
L 167.265282 68.595419 
L 168.2377 73.202878 
L 188.901586 174.68265 
L 189.874005 178.245793 
L 190.846423 180.997224 
L 191.575736 182.541141 
L 192.548155 184.025816 
L 205.432695 202.261641 
L 213.212041 213.239444 
L 214.184459 215.327595 
L 215.156877 217.930658 
L 216.3724 221.87527 
L 223.908641 248.237413 
L 227.312105 259.393142 
L 229.256941 265.030669 
L 230.472464 267.909175 
L 231.201777 269.222893 
L 231.931091 270.099377 
L 232.4173 270.391307 
L 232.903509 270.427278 
L 233.389718 270.205019 
L 233.875927 269.738159 
L 234.605241 268.637276 
L 235.577659 266.588698 
L 236.793182 263.403506 
L 238.008705 259.650784 
L 239.467332 254.468297 
L 241.169064 247.598177 
L 247.489782 220.575578 
L 262.076055 157.76756 
L 262.805368 155.676741 
L 263.534682 154.139299 
L 264.263995 153.161978 
L 264.750205 152.823829 
L 265.722623 152.62697 
L 282.496836 149.807596 
L 285.657195 149.176472 
L 286.143405 148.774108 
L 286.629614 148.111829 
L 287.358927 146.62812 
L 288.088241 144.550115 
L 288.817555 141.86874 
L 290.033077 136.317721 
L 310.210755 41.695399 
L 310.940068 39.608673 
L 311.426277 38.806757 
L 311.912486 38.478182 
L 312.155591 38.491633 
L 312.6418 38.873981 
L 313.128009 39.72954 
L 313.614218 41.056139 
L 320.907355 65.210256 
L 334.521209 110.052987 
L 335.250523 111.520956 
L 335.736732 112.083887 
L 336.222941 112.315616 
L 336.70915 112.216593 
L 337.195359 111.786624 
L 337.681568 111.024876 
L 338.897091 108.241604 
L 358.831664 61.453444 
L 359.317873 60.987893 
L 359.804082 60.952557 
L 360.290291 61.347503 
L 360.7765 62.171963 
L 361.262709 63.424333 
L 361.992023 66.09966 
L 363.45065 73.172596 
L 383.385223 171.055662 
L 384.357641 174.718349 
L 385.330059 177.541342 
L 386.059373 179.120883 
L 386.788686 180.259769 
L 397.728391 194.721081 
L 406.480155 205.937255 
L 407.695677 207.637616 
L 408.668095 209.589358 
L 409.640514 212.099742 
L 410.856036 215.991983 
L 420.094009 248.62601 
L 422.768159 257.272399 
L 424.469891 262.161257 
L 425.685414 265.081816 
L 426.657832 266.86216 
L 427.387145 267.749853 
L 427.873355 268.08585 
L 428.359564 268.198918 
L 428.845773 268.083761 
L 429.331982 267.74577 
L 430.061295 266.855425 
L 430.790609 265.572752 
L 431.763027 263.372152 
L 432.97855 259.906364 
L 434.437177 254.911525 
L 436.382014 247.208629 
L 441.244105 226.844906 
L 451.6976 181.917633 
L 456.559691 161.337592 
L 457.532109 158.527723 
L 458.261423 157.049935 
L 458.990736 156.119252 
L 459.476945 155.804863 
L 460.935573 155.482462 
L 473.577009 152.764724 
L 480.140832 151.233987 
L 480.627041 150.872298 
L 481.11325 150.254665 
L 481.842564 148.845568 
L 482.571877 146.851646 
L 483.301191 144.264203 
L 484.273609 139.924493 
L 504.937495 42.177168 
L 505.666809 40.239832 
L 506.153018 39.536 
L 506.639227 39.304082 
L 506.882332 39.365267 
L 507.368541 39.841776 
L 507.85475 40.789603 
L 508.584064 43.011515 
L 529.004845 111.03707 
L 529.734159 112.637188 
L 530.220368 113.29079 
L 530.706577 113.615449 
L 531.192786 113.611795 
L 531.678995 113.279821 
L 532.165205 112.618882 
L 532.894518 111.062165 
L 553.558405 62.777412 
L 554.044614 62.427634 
L 554.530823 62.505233 
L 555.017032 63.010056 
L 555.503241 63.941121 
L 555.98945 65.296616 
L 556.718764 68.119668 
L 559.149809 80.068741 
L 577.139545 168.736585 
L 577.139545 168.736585 
" clip-path="url(#pac55cfbd4d)" style="fill: none; stroke: #ff7f0e; stroke-width: 2; stroke-linecap: square"/>
   </g>
   <g id="patch_3">
    <path d="M 66.62 282.04 
L 66.62 26.88 
" style="fill: none; stroke: #000000; stroke-width: 0.8; stroke-linejoin: miter; stroke-linecap: square"/>
   </g>
   <g id="patch_4">
    <path d="M 601.45 282.04 
L 601.45 26.88 
" style="fill: none; stroke: #000000; stroke-width: 0.8; stroke-linejoin: miter; stroke-linecap: square"/>
   </g>
   <g id="patch_5">
    <path d="M 66.62 282.04 
L 601.45 282.04 
" style="fill: none; stroke: #000000; stroke-width: 0.8; stroke-linejoin: miter; stroke-linecap: square"/>
   </g>
   <g id="patch_6">
    <path d="M 66.62 26.88 
L 601.45 26.88 
" style="fill: none; stroke: #000000; stroke-width: 0.8; stroke-linejoin: miter; stroke-linecap: square"/>
   </g>
   <g id="text_17">
    <!-- FodoCell-multibeam-fromfile -->
    <g transform="translate(248.653125 20.88) scale(0.12 -0.12)">
     <defs>
      <path id="DejaVuSans-46" d="M 628 4666 
L 3309 4666 
L 3309 4134 
L 1259 4134 
L 1259 2759 
L 3109 2759 
L 3109 2228 
L 1259 2228 
L 1259 0 
L 628 0 
L 628 4666 
z
" transform="scale(0.015625)"/>
      <path id="DejaVuSans-6f" d="M 1959 3097 
Q 1497 3097 1228 2736 
Q 959 2375 959 1747 
Q 959 1119 1226 758 
Q 1494 397 1959 397 
Q 2419 397 2687 759 
Q 2956 1122 2956 1747 
Q 2956 2369 2687 2733 
Q 2419 3097 1959 3097 
z
M 1959 3584 
Q 2709 3584 3137 3096 
Q 3566 2609 3566 1747 
Q 3566 888 3137 398 
Q 2709 -91 1959 -91 
Q 1206 -91 779 398 
Q 353 888 353 1747 
Q 353 2609 779 3096 
Q 1206 3584 1959 3584 
z
" transform="scale(0.015625)"/>
      <path id="DejaVuSans-64" d="M 2906 2969 
L 2906 4863 
L 3481 4863 
L 3481 0 
L 2906 0 
L 2906 525 
Q 2725 213 2448 61 
Q 2172 -91 1784 -91 
Q 1150 -91 751 415 
Q 353 922 353 1747 
Q 353 2572 751 3078 
Q 1150 3584 1784 3584 
Q 2172 3584 2448 3432 
Q 2725 3281 2906 2969 
z
M 947 1747 
Q 947 1113 1208 752 
Q 1469 391 1925 391 
Q 2381 391 2643 752 
Q 2906 1113 2906 1747 
Q 2906 2381 2643 2742 
Q 2381 3103 1925 3103 
Q 1469 3103 1208 2742 
Q 947 2381 947 1747 
z
" transform="scale(0.015625)"/>
      <path id="DejaVuSans-43" d="M 4122 4306 
L 4122 3641 
Q 3803 3938 3442 4084 
Q 3081 4231 2675 4231 
Q 1875 4231 1450 3742 
Q 1025 3253 1025 2328 
Q 1025 1406 1450 917 
Q 1875 428 2675 428 
Q 3081 428 3442 575 
Q 3803 722 4122 1019 
L 4122 359 
Q 3791 134 3420 21 
Q 3050 -91 2638 -91 
Q 1578 -91 968 557 
Q 359 1206 359 2328 
Q 359 3453 968 4101 
Q 1578 4750 2638 4750 
Q 3056 4750 3426 4639 
Q 3797 4528 4122 4306 
z
" transform="scale(0.015625)"/>
      <path id="DejaVuSans-65" d="M 3597 1894 
L 3597 1613 
L 953 1613 
Q 991 1019 1311 708 
Q 1631 397 2203 397 
Q 2534 397 2845 478 
Q 3156 559 3463 722 
L 3463 178 
Q 3153 47 2828 -22 
Q 2503 -91 2169 -91 
Q 1331 -91 842 396 
Q 353 884 353 1716 
Q 353 2575 817 3079 
Q 1281 3584 2069 3584 
Q 2775 3584 3186 3129 
Q 3597 2675 3597 1894 
z
M 3022 2063 
Q 3016 2534 2758 2815 
Q 2500 3097 2075 3097 
Q 1594 3097 1305 2825 
Q 1016 2553 972 2059 
L 3022 2063 
z
" transform="scale(0.015625)"/>
      <path id="DejaVuSans-6c" d="M 603 4863 
L 1178 4863 
L 1178 0 
L 603 0 
L 603 4863 
z
" transform="scale(0.015625)"/>
      <path id="DejaVuSans-2d" d="M 313 2009 
L 1997 2009 
L 1997 1497 
L 313 1497 
L 313 2009 
z
" transform="scale(0.015625)"/>
      <path id="DejaVuSans-75" d="M 544 1381 
L 544 3500 
L 1119 3500 
L 1119 1403 
Q 1119 906 1312 657 
Q 1506 409 1894 409 
Q 2359 409 2629 706 
Q 2900 1003 2900 1516 
L 2900 3500 
L 3475 3500 
L 3475 0 
L 2900 0 
L 2900 538 
Q 2691 219 2414 64 
Q 2138 -91 1772 -91 
Q 1169 -91 856 284 
Q 544 659 544 1381 
z
M 1991 3584 
L 1991 3584 
z
" transform="scale(0.015625)"/>
      <path id="DejaVuSans-74" d="M 1172 4494 
L 1172 3500 
L 2356 3500 
L 2356 3053 
L 1172 3053 
L 1172 1153 
Q 1172 725 1289 603 
Q 1406 481 1766 481 
L 2356 481 
L 2356 0 
L 1766 0 
Q 1100 0 847 248 
Q 594 497 594 1153 
L 594 3053 
L 172 3053 
L 172 3500 
L 594 3500 
L 594 4494 
L 1172 4494 
z
" transform="scale(0.015625)"/>
      <path id="DejaVuSans-69" d="M 603 3500 
L 1178 3500 
L 1178 0 
L 603 0 
L 603 3500 
z
M 603 4863 
L 1178 4863 
L 1178 4134 
L 603 4134 
L 603 4863 
z
" transform="scale(0.015625)"/>
      <path id="DejaVuSans-62" d="M 3116 1747 
Q 3116 2381 2855 2742 
Q 2594 3103 2138 3103 
Q 1681 3103 1420 2742 
Q 1159 2381 1159 1747 
Q 1159 1113 1420 752 
Q 1681 391 2138 391 
Q 2594 391 2855 752 
Q 3116 1113 3116 1747 
z
M 1159 2969 
Q 1341 3281 1617 3432 
Q 1894 3584 2278 3584 
Q 2916 3584 3314 3078 
Q 3713 2572 3713 1747 
Q 3713 922 3314 415 
Q 2916 -91 2278 -91 
Q 1894 -91 1617 61 
Q 1341 213 1159 525 
L 1159 0 
L 581 0 
L 581 4863 
L 1159 4863 
L 1159 2969 
z
" transform="scale(0.015625)"/>
      <path id="DejaVuSans-61" d="M 2194 1759 
Q 1497 1759 1228 1600 
Q 959 1441 959 1056 
Q 959 750 1161 570 
Q 1363 391 1709 391 
Q 2188 391 2477 730 
Q 2766 1069 2766 1631 
L 2766 1759 
L 2194 1759 
z
M 3341 1997 
L 3341 0 
L 2766 0 
L 2766 531 
Q 2569 213 2275 61 
Q 1981 -91 1556 -91 
Q 1019 -91 701 211 
Q 384 513 384 1019 
Q 384 1609 779 1909 
Q 1175 2209 1959 2209 
L 2766 2209 
L 2766 2266 
Q 2766 2663 2505 2880 
Q 2244 3097 1772 3097 
Q 1472 3097 1187 3025 
Q 903 2953 641 2809 
L 641 3341 
Q 956 3463 1253 3523 
Q 1550 3584 1831 3584 
Q 2591 3584 2966 3190 
Q 3341 2797 3341 1997 
z
" transform="scale(0.015625)"/>
      <path id="DejaVuSans-66" d="M 2375 4863 
L 2375 4384 
L 1825 4384 
Q 1516 4384 1395 4259 
Q 1275 4134 1275 3809 
L 1275 3500 
L 2222 3500 
L 2222 3053 
L 1275 3053 
L 1275 0 
L 697 0 
L 697 3053 
L 147 3053 
L 147 3500 
L 697 3500 
L 697 3744 
Q 697 4328 969 4595 
Q 1241 4863 1831 4863 
L 2375 4863 
z
" transform="scale(0.015625)"/>
     </defs>
     <use xlink:href="#DejaVuSans-46"/>
     <use xlink:href="#DejaVuSans-6f" transform="translate(53.894531 0)"/>
     <use xlink:href="#DejaVuSans-64" transform="translate(115.076172 0)"/>
     <use xlink:href="#DejaVuSans-6f" transform="translate(178.552734 0)"/>
     <use xlink:href="#DejaVuSans-43" transform="translate(239.734375 0)"/>
     <use xlink:href="#DejaVuSans-65" transform="translate(309.558594 0)"/>
     <use xlink:href="#DejaVuSans-6c" transform="translate(371.082031 0)"/>
     <use xlink:href="#DejaVuSans-6c" transform="translate(398.865234 0)"/>
     <use xlink:href="#DejaVuSans-2d" transform="translate(426.648438 0)"/>
     <use xlink:href="#DejaVuSans-6d" transform="translate(462.732422 0)"/>
     <use xlink:href="#DejaVuSans-75" transform="translate(560.144531 0)"/>
     <use xlink:href="#DejaVuSans-6c" transform="translate(623.523438 0)"/>
     <use xlink:href="#DejaVuSans-74" transform="translate(651.306641 0)"/>
     <use xlink:href="#DejaVuSans-69" transform="translate(690.515625 0)"/>
     <use xlink:href="#DejaVuSans-62" transform="translate(718.298828 0)"/>
     <use xlink:href="#DejaVuSans-65" transform="translate(781.775391 0)"/>
     <use xlink:href="#DejaVuSans-61" transform="translate(843.298828 0)"/>
     <use xlink:href="#DejaVuSans-6d" transform="translate(904.578125 0)"/>
     <use xlink:href="#DejaVuSans-2d" transform="translate(1001.990234 0)"/>
     <use xlink:href="#DejaVuSans-66" transform="translate(1038.074219 0)"/>
     <use xlink:href="#DejaVuSans-72" transform="translate(1073.279297 0)"/>
     <use xlink:href="#DejaVuSans-6f" transform="translate(1112.142578 0)"/>
     <use xlink:href="#DejaVuSans-6d" transform="translate(1173.324219 0)"/>
     <use xlink:href="#DejaVuSans-66" transform="translate(1270.736328 0)"/>
     <use xlink:href="#DejaVuSans-69" transform="translate(1305.941406 0)"/>
     <use xlink:href="#DejaVuSans-6c" transform="translate(1333.724609 0)"/>
     <use xlink:href="#DejaVuSans-65" transform="translate(1361.507812 0)"/>
    </g>
   </g>
   <g id="legend_1">
    <g id="patch_7">
     <path d="M 73.62 277.04 
L 153.360625 277.04 
Q 155.360625 277.04 155.360625 275.04 
L 155.360625 246.68375 
Q 155.360625 244.68375 153.360625 244.68375 
L 73.62 244.68375 
Q 71.62 244.68375 71.62 246.68375 
L 71.62 275.04 
Q 71.62 277.04 73.62 277.04 
z
" style="fill: #ffffff; opacity: 0.8; stroke: #cccccc; stroke-linejoin: miter"/>
    </g>
    <g id="line2d_31">
     <path d="M 75.62 252.782188 
L 85.62 252.782188 
L 95.62 252.782188 
" style="fill: none; stroke: #1f77b4; stroke-width: 2; stroke-linecap: square"/>
    </g>
    <g id="text_18">
     <!-- current -->
     <g transform="translate(103.62 256.282188) scale(0.1 -0.1)">
      <defs>
       <path id="DejaVuSans-63" d="M 3122 3366 
L 3122 2828 
Q 2878 2963 2633 3030 
Q 2388 3097 2138 3097 
Q 1578 3097 1268 2742 
Q 959 2388 959 1747 
Q 959 1106 1268 751 
Q 1578 397 2138 397 
Q 2388 397 2633 464 
Q 2878 531 3122 666 
L 3122 134 
Q 2881 22 2623 -34 
Q 2366 -91 2075 -91 
Q 1284 -91 818 406 
Q 353 903 353 1747 
Q 353 2603 823 3093 
Q 1294 3584 2113 3584 
Q 2378 3584 2631 3529 
Q 2884 3475 3122 3366 
z
" transform="scale(0.015625)"/>
       <path id="DejaVuSans-6e" d="M 3513 2113 
L 3513 0 
L 2938 0 
L 2938 2094 
Q 2938 2591 2744 2837 
Q 2550 3084 2163 3084 
Q 1697 3084 1428 2787 
Q 1159 2491 1159 1978 
L 1159 0 
L 581 0 
L 581 3500 
L 1159 3500 
L 1159 2956 
Q 1366 3272 1645 3428 
Q 1925 3584 2291 3584 
Q 2894 3584 3203 3211 
Q 3513 2838 3513 2113 
z
" transform="scale(0.015625)"/>
      </defs>
      <use xlink:href="#DejaVuSans-63"/>
      <use xlink:href="#DejaVuSans-75" transform="translate(54.980469 0)"/>
      <use xlink:href="#DejaVuSans-72" transform="translate(118.359375 0)"/>
      <use xlink:href="#DejaVuSans-72" transform="translate(157.722656 0)"/>
      <use xlink:href="#DejaVuSans-65" transform="translate(196.585938 0)"/>
      <use xlink:href="#DejaVuSans-6e" transform="translate(258.109375 0)"/>
      <use xlink:href="#DejaVuSans-74" transform="translate(321.488281 0)"/>
     </g>
    </g>
    <g id="line2d_32">
     <path d="M 75.62 267.460312 
L 85.62 267.460312 
L 95.62 267.460312 
" style="fill: none; stroke: #ff7f0e; stroke-width: 2; stroke-linecap: square"/>
    </g>
    <g id="text_19">
     <!-- reference -->
     <g transform="translate(103.62 270.960312) scale(0.1 -0.1)">
      <use xlink:href="#DejaVuSans-72"/>
      <use xlink:href="#DejaVuSans-65" transform="translate(38.863281 0)"/>
      <use xlink:href="#DejaVuSans-66" transform="translate(100.386719 0)"/>
      <use xlink:href="#DejaVuSans-65" transform="translate(135.591797 0)"/>
      <use xlink:href="#DejaVuSans-72" transform="translate(197.115234 0)"/>
      <use xlink:href="#DejaVuSans-65" transform="translate(235.978516 0)"/>
      <use xlink:href="#DejaVuSans-6e" transform="translate(297.501953 0)"/>
      <use xlink:href="#DejaVuSans-63" transform="translate(360.880859 0)"/>
      <use xlink:href="#DejaVuSans-65" transform="translate(415.861328 0)"/>
     </g>
    </g>
   </g>
  </g>
  <g id="axes_2">
   <g id="matplotlib.axis_3">
    <g id="ytick_8">
     <g id="line2d_33">
      <defs>
       <path id="m39e9d6cf80" d="M 0 0 
L 3.5 0 
" style="stroke: #000000; stroke-width: 0.8"/>
      </defs>
      <g>
       <use xlink:href="#m39e9d6cf80" x="601.45" y="268.494091" style="stroke: #000000; stroke-width: 0.8"/>
      </g>
     </g>
     <g id="text_20">
      <!-- −4 -->
      <g transform="translate(608.45 272.293309) scale(0.1 -0.1)">
       <defs>
        <path id="DejaVuSans-2212" d="M 678 2272 
L 4684 2272 
L 4684 1741 
L 678 1741 
L 678 2272 
z
" transform="scale(0.015625)"/>
       </defs>
       <use xlink:href="#DejaVuSans-2212"/>
       <use xlink:href="#DejaVuSans-34" transform="translate(83.789062 0)"/>
      </g>
     </g>
    </g>
    <g id="ytick_9">
     <g id="line2d_34">
      <g>
       <use xlink:href="#m39e9d6cf80" x="601.45" y="213.773292" style="stroke: #000000; stroke-width: 0.8"/>
      </g>
     </g>
     <g id="text_21">
      <!-- −2 -->
      <g transform="translate(608.45 217.572511) scale(0.1 -0.1)">
       <use xlink:href="#DejaVuSans-2212"/>
       <use xlink:href="#DejaVuSans-32" transform="translate(83.789062 0)"/>
      </g>
     </g>
    </g>
    <g id="ytick_10">
     <g id="line2d_35">
      <g>
       <use xlink:href="#m39e9d6cf80" x="601.45" y="159.052493" style="stroke: #000000; stroke-width: 0.8"/>
      </g>
     </g>
     <g id="text_22">
      <!-- 0 -->
      <g transform="translate(608.45 162.851712) scale(0.1 -0.1)">
       <use xlink:href="#DejaVuSans-30"/>
      </g>
     </g>
    </g>
    <g id="ytick_11">
     <g id="line2d_36">
      <g>
       <use xlink:href="#m39e9d6cf80" x="601.45" y="104.331695" style="stroke: #000000; stroke-width: 0.8"/>
      </g>
     </g>
     <g id="text_23">
      <!-- 2 -->
      <g transform="translate(608.45 108.130914) scale(0.1 -0.1)">
       <use xlink:href="#DejaVuSans-32"/>
      </g>
     </g>
    </g>
    <g id="ytick_12">
     <g id="line2d_37">
      <g>
       <use xlink:href="#m39e9d6cf80" x="601.45" y="49.610896" style="stroke: #000000; stroke-width: 0.8"/>
      </g>
     </g>
     <g id="text_24">
      <!-- 4 -->
      <g transform="translate(608.45 53.410115) scale(0.1 -0.1)">
       <use xlink:href="#DejaVuSans-34"/>
      </g>
     </g>
    </g>
    <g id="text_25">
     <!-- delta rms(x) [m] -->
     <g transform="translate(634.790625 195.377969) rotate(-90) scale(0.1 -0.1)">
      <use xlink:href="#DejaVuSans-64"/>
      <use xlink:href="#DejaVuSans-65" transform="translate(63.476562 0)"/>
      <use xlink:href="#DejaVuSans-6c" transform="translate(125 0)"/>
      <use xlink:href="#DejaVuSans-74" transform="translate(152.783203 0)"/>
      <use xlink:href="#DejaVuSans-61" transform="translate(191.992188 0)"/>
      <use xlink:href="#DejaVuSans-20" transform="translate(253.271484 0)"/>
      <use xlink:href="#DejaVuSans-72" transform="translate(285.058594 0)"/>
      <use xlink:href="#DejaVuSans-6d" transform="translate(324.421875 0)"/>
      <use xlink:href="#DejaVuSans-73" transform="translate(421.833984 0)"/>
      <use xlink:href="#DejaVuSans-28" transform="translate(473.933594 0)"/>
      <use xlink:href="#DejaVuSans-78" transform="translate(512.947266 0)"/>
      <use xlink:href="#DejaVuSans-29" transform="translate(572.126953 0)"/>
      <use xlink:href="#DejaVuSans-20" transform="translate(611.140625 0)"/>
      <use xlink:href="#DejaVuSans-5b" transform="translate(642.927734 0)"/>
      <use xlink:href="#DejaVuSans-6d" transform="translate(681.941406 0)"/>
      <use xlink:href="#DejaVuSans-5d" transform="translate(779.353516 0)"/>
     </g>
    </g>
    <g id="text_26">
     <!-- 1e−13 -->
     <g transform="translate(567.829688 23.88) scale(0.1 -0.1)">
      <use xlink:href="#DejaVuSans-31"/>
      <use xlink:href="#DejaVuSans-65" transform="translate(63.623047 0)"/>
      <use xlink:href="#DejaVuSans-2212" transform="translate(125.146484 0)"/>
      <use xlink:href="#DejaVuSans-31" transform="translate(208.935547 0)"/>
      <use xlink:href="#DejaVuSans-33" transform="translate(272.558594 0)"/>
     </g>
    </g>
   </g>
   <g id="line2d_38">
    <path d="M 90.930455 159.052493 
L 167.265282 159.017371 
L 167.508386 140.499313 
L 167.751491 159.014523 
L 172.856686 159.00598 
L 189.387795 158.966586 
L 189.6309 166.609983 
L 189.874005 158.964687 
L 199.111977 158.946414 
L 212.239623 158.921971 
L 212.482727 130.303133 
L 212.725832 158.919835 
L 232.660405 159.050298 
L 238.251809 159.183016 
L 264.750205 159.362425 
L 264.993309 99.330144 
L 265.965727 99.011669 
L 283.469255 92.804494 
L 285.414091 92.107266 
L 285.657195 237.77085 
L 285.9003 131.905712 
L 286.143405 250.479944 
L 286.386509 110.49053 
L 286.629614 257.254774 
L 286.872718 117.117276 
L 287.115823 259.448976 
L 287.358927 51.763948 
L 287.602032 202.153396 
L 287.845136 201.912285 
L 288.088241 45.208871 
L 288.331345 270.441818 
L 288.57445 204.875383 
L 288.817555 38.478182 
L 289.060659 206.757755 
L 289.303764 135.834677 
L 291.491705 135.820912 
L 303.890036 135.776772 
L 306.807291 135.768229 
L 309.724545 135.774874 
L 309.96765 127.908401 
L 310.210755 170.609667 
L 310.696964 170.551763 
L 310.940068 128.022312 
L 311.426277 128.296646 
L 311.669382 167.810316 
L 311.912486 167.758107 
L 312.155591 128.830127 
L 312.398695 167.641349 
L 314.100427 167.273987 
L 334.035 167.818859 
L 334.278105 163.87091 
L 335.007418 163.829617 
L 335.250523 152.302819 
L 335.736732 152.248237 
L 335.979836 163.725674 
L 336.222941 152.171347 
L 336.466045 163.780256 
L 336.70915 163.813005 
L 336.952255 152.007126 
L 337.195359 163.733742 
L 337.438464 151.711433 
L 337.681568 163.665396 
L 337.924673 151.383466 
L 342.300555 151.131439 
L 345.217809 150.994746 
L 349.107482 150.797776 
L 358.345455 150.39814 
L 358.588559 144.925687 
L 358.831664 168.209952 
L 359.317873 168.253618 
L 359.560977 144.787096 
L 359.804082 168.262161 
L 360.047186 144.768111 
L 360.290291 168.262161 
L 361.262709 168.166286 
L 361.505814 145.249383 
L 361.748918 168.092244 
L 362.721336 168.002065 
L 376.092086 168.683155 
L 382.655909 169.276914 
L 382.899014 164.460397 
L 383.142118 153.33276 
L 383.385223 153.337981 
L 383.628327 164.326552 
L 383.871432 153.334659 
L 384.114536 164.328925 
L 384.357641 153.316148 
L 384.600745 153.298112 
L 384.84385 164.360725 
L 385.086955 153.247802 
L 385.330059 164.413883 
L 385.573164 153.176133 
L 386.059373 153.082632 
L 386.302477 164.666859 
L 386.545582 152.96967 
L 386.788686 164.874746 
L 403.5629 166.228383 
L 406.966364 166.614018 
L 407.209468 173.209438 
L 407.452573 173.313856 
L 407.695677 132.173165 
L 407.938782 131.954599 
L 408.181886 174.311523 
L 408.668095 174.531275 
L 408.9112 131.229843 
L 409.397409 130.956695 
L 409.640514 175.539621 
L 409.883618 130.74691 
L 410.126723 175.659702 
L 410.369827 130.597165 
L 410.612932 175.745846 
L 411.342245 175.896066 
L 413.773291 177.015712 
L 415.718127 178.162649 
L 417.419859 179.428598 
L 418.878486 180.778319 
L 420.337114 182.460992 
L 421.552636 184.188516 
L 422.768159 186.276639 
L 424.226786 189.272902 
L 426.171623 193.334525 
L 426.657832 193.990103 
L 427.144041 194.297306 
L 427.387145 194.284194 
L 427.63025 194.141925 
L 428.116459 193.442324 
L 428.602668 192.179934 
L 429.331982 189.380642 
L 430.790609 182.244502 
L 431.276818 179.89753 
L 431.519923 170.677895 
L 431.763027 170.022138 
L 432.006132 141.365093 
L 432.249236 168.765147 
L 433.221655 166.72164 
L 433.464759 147.016065 
L 433.707864 165.904094 
L 434.194073 165.202476 
L 434.437177 149.554609 
L 434.680282 164.59792 
L 435.166491 164.078084 
L 435.409595 151.484918 
L 436.382014 153.345694 
L 437.597536 155.171941 
L 438.813059 156.602112 
L 440.271686 157.955155 
L 441.973418 159.18444 
L 443.918255 160.273235 
L 446.106195 161.228897 
L 448.780345 162.132587 
L 451.940705 162.955591 
L 455.587273 163.696247 
L 455.830377 166.505091 
L 456.073482 166.652225 
L 456.316586 142.367921 
L 456.559691 166.918491 
L 456.802795 167.05376 
L 457.0459 141.324216 
L 458.018318 139.986241 
L 458.261423 171.576009 
L 458.504527 139.36353 
L 458.747632 171.903027 
L 458.990736 138.761703 
L 459.233841 172.215806 
L 461.421782 173.577037 
L 473.820114 180.883449 
L 479.897727 184.319751 
L 480.140832 151.703365 
L 480.383936 161.730815 
L 480.627041 177.690157 
L 480.870145 155.290598 
L 481.11325 159.263228 
L 481.842564 160.206787 
L 484.030505 162.428992 
L 504.208182 162.837171 
L 504.451286 170.715984 
L 506.153018 170.67042 
L 506.396123 134.291189 
L 506.639227 170.590682 
L 506.882332 170.541321 
L 507.125436 134.605392 
L 507.368541 134.740186 
L 507.611645 168.617182 
L 508.097855 168.475743 
L 508.340959 135.426497 
L 518.55135 134.660449 
L 525.844486 133.981732 
L 528.518636 133.695057 
L 528.761741 154.923711 
L 529.734159 154.858212 
L 529.977264 165.301436 
L 530.220368 154.948391 
L 530.706577 154.890962 
L 530.949682 165.400159 
L 531.678995 165.536851 
L 531.9221 154.828311 
L 532.165205 165.783183 
L 532.408309 154.858212 
L 532.651414 166.05989 
L 537.756609 166.234553 
L 547.723895 166.459527 
L 551.613568 166.529771 
L 552.829091 166.532619 
L 553.072195 172.957174 
L 553.3153 147.276042 
L 554.287718 147.147892 
L 555.260136 147.156436 
L 555.503241 172.675245 
L 555.746345 147.202949 
L 555.98945 147.238071 
L 556.232555 172.513872 
L 556.475659 172.448374 
L 556.718764 147.717445 
L 557.204973 147.806675 
L 566.442945 148.458338 
L 573.492977 149.284664 
L 576.167127 149.734136 
L 577.139545 149.924462 
L 577.139545 149.924462 
" clip-path="url(#pac55cfbd4d)" style="fill: none; stroke-dasharray: 3.7,1.6; stroke-dashoffset: 0; stroke: #808080"/>
   </g>
   <g id="patch_8">
    <path d="M 66.62 282.04 
L 66.62 26.88 
" style="fill: none; stroke: #000000; stroke-width: 0.8; stroke-linejoin: miter; stroke-linecap: square"/>
   </g>
   <g id="patch_9">
    <path d="M 601.45 282.04 
L 601.45 26.88 
" style="fill: none; stroke: #000000; stroke-width: 0.8; stroke-linejoin: miter; stroke-linecap: square"/>
   </g>
   <g id="patch_10">
    <path d="M 66.62 282.04 
L 601.45 282.04 
" style="fill: none; stroke: #000000; stroke-width: 0.8; stroke-linejoin: miter; stroke-linecap: square"/>
   </g>
   <g id="patch_11">
    <path d="M 66.62 26.88 
L 601.45 26.88 
" style="fill: none; stroke: #000000; stroke-width: 0.8; stroke-linejoin: miter; stroke-linecap: square"/>
   </g>
   <g id="legend_2">
    <g id="patch_12">
     <path d="M 512.101562 277.04 
L 594.45 277.04 
Q 596.45 277.04 596.45 275.04 
L 596.45 261.361875 
Q 596.45 259.361875 594.45 259.361875 
L 512.101562 259.361875 
Q 510.101562 259.361875 510.101562 261.361875 
L 510.101562 275.04 
Q 510.101562 277.04 512.101562 277.04 
z
" style="fill: #ffffff; opacity: 0.8; stroke: #cccccc; stroke-linejoin: miter"/>
    </g>
    <g id="line2d_39">
     <path d="M 514.101562 267.460312 
L 524.101562 267.460312 
L 534.101562 267.460312 
" style="fill: none; stroke-dasharray: 3.7,1.6; stroke-dashoffset: 0; stroke: #808080"/>
    </g>
    <g id="text_27">
     <!-- difference -->
     <g transform="translate(542.101562 270.960312) scale(0.1 -0.1)">
      <use xlink:href="#DejaVuSans-64"/>
      <use xlink:href="#DejaVuSans-69" transform="translate(63.476562 0)"/>
      <use xlink:href="#DejaVuSans-66" transform="translate(91.259766 0)"/>
      <use xlink:href="#DejaVuSans-66" transform="translate(126.464844 0)"/>
      <use xlink:href="#DejaVuSans-65" transform="translate(161.669922 0)"/>
      <use xlink:href="#DejaVuSans-72" transform="translate(223.193359 0)"/>
      <use xlink:href="#DejaVuSans-65" transform="translate(262.056641 0)"/>
      <use xlink:href="#DejaVuSans-6e" transform="translate(323.580078 0)"/>
      <use xlink:href="#DejaVuSans-63" transform="translate(386.958984 0)"/>
      <use xlink:href="#DejaVuSans-65" transform="translate(441.939453 0)"/>
     </g>
    </g>
   </g>
  </g>
 </g>
 <defs>
  <clipPath id="pac55cfbd4d">
   <rect x="66.62" y="26.88" width="534.83" height="255.16"/>
  </clipPath>
 </defs>
</svg>
