<?xml version="1.0" encoding="utf-8" standalone="no"?>
<!DOCTYPE svg PUBLIC "-//W3C//DTD SVG 1.1//EN"
  "http://www.w3.org/Graphics/SVG/1.1/DTD/svg11.dtd">
<svg xmlns:xlink="http://www.w3.org/1999/xlink" width="648pt" height="324pt" viewBox="0 0 648 324" xmlns="http://www.w3.org/2000/svg" version="1.1">
 <metadata>
  <rdf:RDF xmlns:dc="http://purl.org/dc/elements/1.1/" xmlns:cc="http://creativecommons.org/ns#" xmlns:rdf="http://www.w3.org/1999/02/22-rdf-syntax-ns#">
   <cc:Work>
    <dc:type rdf:resource="http://purl.org/dc/dcmitype/StillImage"/>
    <dc:date>2026-04-28T15:31:56.462749</dc:date>
    <dc:format>image/svg+xml</dc:format>
    <dc:creator>
     <cc:Agent>
      <dc:title>Matplotlib v3.10.8, https://matplotlib.org/</dc:title>
     </cc:Agent>
    </dc:creator>
   </cc:Work>
  </rdf:RDF>
 </metadata>
 <defs>
  <style type="text/css">*{stroke-linejoin: round; stroke-linecap: butt}</style>
 </defs>
 <g id="figure_1">
  <g id="patch_1">
   <path d="M 0 324 
L 648 324 
L 648 0 
L 0 0 
z
" style="fill: #ffffff"/>
  </g>
  <g id="axes_1">
   <g id="patch_2">
    <path d="M 72.92 282.04 
L 585.61 282.04 
L 585.61 26.88 
L 72.92 26.88 
z
" style="fill: #ffffff"/>
   </g>
   <g id="matplotlib.axis_1">
    <g id="xtick_1">
     <g id="line2d_1">
      <path d="M 95.99105 282.04 
L 95.99105 26.88 
" clip-path="url(#p4c69215145)" style="fill: none; stroke: #b0b0b0; stroke-width: 0.8; stroke-linecap: square"/>
     </g>
     <g id="line2d_2">
      <defs>
       <path id="m11fa63fcaf" d="M 0 0 
L 0 3.5 
" style="stroke: #000000; stroke-width: 0.8"/>
      </defs>
      <g>
       <use xlink:href="#m11fa63fcaf" x="95.99105" y="282.04" style="stroke: #000000; stroke-width: 0.8"/>
      </g>
     </g>
     <g id="text_1">
      <!-- 0 -->
      <g transform="translate(92.8098 296.638438) scale(0.1 -0.1)">
       <defs>
        <path id="DejaVuSans-30" d="M 2034 4250 
Q 1547 4250 1301 3770 
Q 1056 3291 1056 2328 
Q 1056 1369 1301 889 
Q 1547 409 2034 409 
Q 2525 409 2770 889 
Q 3016 1369 3016 2328 
Q 3016 3291 2770 3770 
Q 2525 4250 2034 4250 
z
M 2034 4750 
Q 2819 4750 3233 4129 
Q 3647 3509 3647 2328 
Q 3647 1150 3233 529 
Q 2819 -91 2034 -91 
Q 1250 -91 836 529 
Q 422 1150 422 2328 
Q 422 3509 836 4129 
Q 1250 4750 2034 4750 
z
" transform="scale(0.015625)"/>
       </defs>
       <use xlink:href="#DejaVuSans-30"/>
      </g>
     </g>
    </g>
    <g id="xtick_2">
     <g id="line2d_3">
      <path d="M 173.72514 282.04 
L 173.72514 26.88 
" clip-path="url(#p4c69215145)" style="fill: none; stroke: #b0b0b0; stroke-width: 0.8; stroke-linecap: square"/>
     </g>
     <g id="line2d_4">
      <g>
       <use xlink:href="#m11fa63fcaf" x="173.72514" y="282.04" style="stroke: #000000; stroke-width: 0.8"/>
      </g>
     </g>
     <g id="text_2">
      <!-- 10 -->
      <g transform="translate(167.36264 296.638438) scale(0.1 -0.1)">
       <defs>
        <path id="DejaVuSans-31" d="M 794 531 
L 1825 531 
L 1825 4091 
L 703 3866 
L 703 4441 
L 1819 4666 
L 2450 4666 
L 2450 531 
L 3481 531 
L 3481 0 
L 794 0 
L 794 531 
z
" transform="scale(0.015625)"/>
       </defs>
       <use xlink:href="#DejaVuSans-31"/>
       <use xlink:href="#DejaVuSans-30" transform="translate(63.623047 0)"/>
      </g>
     </g>
    </g>
    <g id="xtick_3">
     <g id="line2d_5">
      <path d="M 251.45923 282.04 
L 251.45923 26.88 
" clip-path="url(#p4c69215145)" style="fill: none; stroke: #b0b0b0; stroke-width: 0.8; stroke-linecap: square"/>
     </g>
     <g id="line2d_6">
      <g>
       <use xlink:href="#m11fa63fcaf" x="251.45923" y="282.04" style="stroke: #000000; stroke-width: 0.8"/>
      </g>
     </g>
     <g id="text_3">
      <!-- 20 -->
      <g transform="translate(245.09673 296.638438) scale(0.1 -0.1)">
       <defs>
        <path id="DejaVuSans-32" d="M 1228 531 
L 3431 531 
L 3431 0 
L 469 0 
L 469 531 
Q 828 903 1448 1529 
Q 2069 2156 2228 2338 
Q 2531 2678 2651 2914 
Q 2772 3150 2772 3378 
Q 2772 3750 2511 3984 
Q 2250 4219 1831 4219 
Q 1534 4219 1204 4116 
Q 875 4013 500 3803 
L 500 4441 
Q 881 4594 1212 4672 
Q 1544 4750 1819 4750 
Q 2544 4750 2975 4387 
Q 3406 4025 3406 3419 
Q 3406 3131 3298 2873 
Q 3191 2616 2906 2266 
Q 2828 2175 2409 1742 
Q 1991 1309 1228 531 
z
" transform="scale(0.015625)"/>
       </defs>
       <use xlink:href="#DejaVuSans-32"/>
       <use xlink:href="#DejaVuSans-30" transform="translate(63.623047 0)"/>
      </g>
     </g>
    </g>
    <g id="xtick_4">
     <g id="line2d_7">
      <path d="M 329.19332 282.04 
L 329.19332 26.88 
" clip-path="url(#p4c69215145)" style="fill: none; stroke: #b0b0b0; stroke-width: 0.8; stroke-linecap: square"/>
     </g>
     <g id="line2d_8">
      <g>
       <use xlink:href="#m11fa63fcaf" x="329.19332" y="282.04" style="stroke: #000000; stroke-width: 0.8"/>
      </g>
     </g>
     <g id="text_4">
      <!-- 30 -->
      <g transform="translate(322.83082 296.638438) scale(0.1 -0.1)">
       <defs>
        <path id="DejaVuSans-33" d="M 2597 2516 
Q 3050 2419 3304 2112 
Q 3559 1806 3559 1356 
Q 3559 666 3084 287 
Q 2609 -91 1734 -91 
Q 1441 -91 1130 -33 
Q 819 25 488 141 
L 488 750 
Q 750 597 1062 519 
Q 1375 441 1716 441 
Q 2309 441 2620 675 
Q 2931 909 2931 1356 
Q 2931 1769 2642 2001 
Q 2353 2234 1838 2234 
L 1294 2234 
L 1294 2753 
L 1863 2753 
Q 2328 2753 2575 2939 
Q 2822 3125 2822 3475 
Q 2822 3834 2567 4026 
Q 2313 4219 1838 4219 
Q 1578 4219 1281 4162 
Q 984 4106 628 3988 
L 628 4550 
Q 988 4650 1302 4700 
Q 1616 4750 1894 4750 
Q 2613 4750 3031 4423 
Q 3450 4097 3450 3541 
Q 3450 3153 3228 2886 
Q 3006 2619 2597 2516 
z
" transform="scale(0.015625)"/>
       </defs>
       <use xlink:href="#DejaVuSans-33"/>
       <use xlink:href="#DejaVuSans-30" transform="translate(63.623047 0)"/>
      </g>
     </g>
    </g>
    <g id="xtick_5">
     <g id="line2d_9">
      <path d="M 406.92741 282.04 
L 406.92741 26.88 
" clip-path="url(#p4c69215145)" style="fill: none; stroke: #b0b0b0; stroke-width: 0.8; stroke-linecap: square"/>
     </g>
     <g id="line2d_10">
      <g>
       <use xlink:href="#m11fa63fcaf" x="406.92741" y="282.04" style="stroke: #000000; stroke-width: 0.8"/>
      </g>
     </g>
     <g id="text_5">
      <!-- 40 -->
      <g transform="translate(400.56491 296.638438) scale(0.1 -0.1)">
       <defs>
        <path id="DejaVuSans-34" d="M 2419 4116 
L 825 1625 
L 2419 1625 
L 2419 4116 
z
M 2253 4666 
L 3047 4666 
L 3047 1625 
L 3713 1625 
L 3713 1100 
L 3047 1100 
L 3047 0 
L 2419 0 
L 2419 1100 
L 313 1100 
L 313 1709 
L 2253 4666 
z
" transform="scale(0.015625)"/>
       </defs>
       <use xlink:href="#DejaVuSans-34"/>
       <use xlink:href="#DejaVuSans-30" transform="translate(63.623047 0)"/>
      </g>
     </g>
    </g>
    <g id="xtick_6">
     <g id="line2d_11">
      <path d="M 484.661501 282.04 
L 484.661501 26.88 
" clip-path="url(#p4c69215145)" style="fill: none; stroke: #b0b0b0; stroke-width: 0.8; stroke-linecap: square"/>
     </g>
     <g id="line2d_12">
      <g>
       <use xlink:href="#m11fa63fcaf" x="484.661501" y="282.04" style="stroke: #000000; stroke-width: 0.8"/>
      </g>
     </g>
     <g id="text_6">
      <!-- 50 -->
      <g transform="translate(478.299001 296.638438) scale(0.1 -0.1)">
       <defs>
        <path id="DejaVuSans-35" d="M 691 4666 
L 3169 4666 
L 3169 4134 
L 1269 4134 
L 1269 2991 
Q 1406 3038 1543 3061 
Q 1681 3084 1819 3084 
Q 2600 3084 3056 2656 
Q 3513 2228 3513 1497 
Q 3513 744 3044 326 
Q 2575 -91 1722 -91 
Q 1428 -91 1123 -41 
Q 819 9 494 109 
L 494 744 
Q 775 591 1075 516 
Q 1375 441 1709 441 
Q 2250 441 2565 725 
Q 2881 1009 2881 1497 
Q 2881 1984 2565 2268 
Q 2250 2553 1709 2553 
Q 1456 2553 1204 2497 
Q 953 2441 691 2322 
L 691 4666 
z
" transform="scale(0.015625)"/>
       </defs>
       <use xlink:href="#DejaVuSans-35"/>
       <use xlink:href="#DejaVuSans-30" transform="translate(63.623047 0)"/>
      </g>
     </g>
    </g>
    <g id="xtick_7">
     <g id="line2d_13">
      <path d="M 562.395591 282.04 
L 562.395591 26.88 
" clip-path="url(#p4c69215145)" style="fill: none; stroke: #b0b0b0; stroke-width: 0.8; stroke-linecap: square"/>
     </g>
     <g id="line2d_14">
      <g>
       <use xlink:href="#m11fa63fcaf" x="562.395591" y="282.04" style="stroke: #000000; stroke-width: 0.8"/>
      </g>
     </g>
     <g id="text_7">
      <!-- 60 -->
      <g transform="translate(556.033091 296.638438) scale(0.1 -0.1)">
       <defs>
        <path id="DejaVuSans-36" d="M 2113 2584 
Q 1688 2584 1439 2293 
Q 1191 2003 1191 1497 
Q 1191 994 1439 701 
Q 1688 409 2113 409 
Q 2538 409 2786 701 
Q 3034 994 3034 1497 
Q 3034 2003 2786 2293 
Q 2538 2584 2113 2584 
z
M 3366 4563 
L 3366 3988 
Q 3128 4100 2886 4159 
Q 2644 4219 2406 4219 
Q 1781 4219 1451 3797 
Q 1122 3375 1075 2522 
Q 1259 2794 1537 2939 
Q 1816 3084 2150 3084 
Q 2853 3084 3261 2657 
Q 3669 2231 3669 1497 
Q 3669 778 3244 343 
Q 2819 -91 2113 -91 
Q 1303 -91 875 529 
Q 447 1150 447 2328 
Q 447 3434 972 4092 
Q 1497 4750 2381 4750 
Q 2619 4750 2861 4703 
Q 3103 4656 3366 4563 
z
" transform="scale(0.015625)"/>
       </defs>
       <use xlink:href="#DejaVuSans-36"/>
       <use xlink:href="#DejaVuSans-30" transform="translate(63.623047 0)"/>
      </g>
     </g>
    </g>
    <g id="text_8">
     <!-- s [m] -->
     <g transform="translate(316.299375 310.316563) scale(0.1 -0.1)">
      <defs>
       <path id="DejaVuSans-73" d="M 2834 3397 
L 2834 2853 
Q 2591 2978 2328 3040 
Q 2066 3103 1784 3103 
Q 1356 3103 1142 2972 
Q 928 2841 928 2578 
Q 928 2378 1081 2264 
Q 1234 2150 1697 2047 
L 1894 2003 
Q 2506 1872 2764 1633 
Q 3022 1394 3022 966 
Q 3022 478 2636 193 
Q 2250 -91 1575 -91 
Q 1294 -91 989 -36 
Q 684 19 347 128 
L 347 722 
Q 666 556 975 473 
Q 1284 391 1588 391 
Q 1994 391 2212 530 
Q 2431 669 2431 922 
Q 2431 1156 2273 1281 
Q 2116 1406 1581 1522 
L 1381 1569 
Q 847 1681 609 1914 
Q 372 2147 372 2553 
Q 372 3047 722 3315 
Q 1072 3584 1716 3584 
Q 2034 3584 2315 3537 
Q 2597 3491 2834 3397 
z
" transform="scale(0.015625)"/>
       <path id="DejaVuSans-20" transform="scale(0.015625)"/>
       <path id="DejaVuSans-5b" d="M 550 4863 
L 1875 4863 
L 1875 4416 
L 1125 4416 
L 1125 -397 
L 1875 -397 
L 1875 -844 
L 550 -844 
L 550 4863 
z
" transform="scale(0.015625)"/>
       <path id="DejaVuSans-6d" d="M 3328 2828 
Q 3544 3216 3844 3400 
Q 4144 3584 4550 3584 
Q 5097 3584 5394 3201 
Q 5691 2819 5691 2113 
L 5691 0 
L 5113 0 
L 5113 2094 
Q 5113 2597 4934 2840 
Q 4756 3084 4391 3084 
Q 3944 3084 3684 2787 
Q 3425 2491 3425 1978 
L 3425 0 
L 2847 0 
L 2847 2094 
Q 2847 2600 2669 2842 
Q 2491 3084 2119 3084 
Q 1678 3084 1418 2786 
Q 1159 2488 1159 1978 
L 1159 0 
L 581 0 
L 581 3500 
L 1159 3500 
L 1159 2956 
Q 1356 3278 1631 3431 
Q 1906 3584 2284 3584 
Q 2666 3584 2933 3390 
Q 3200 3197 3328 2828 
z
" transform="scale(0.015625)"/>
       <path id="DejaVuSans-5d" d="M 1947 4863 
L 1947 -844 
L 622 -844 
L 622 -397 
L 1369 -397 
L 1369 4416 
L 622 4416 
L 622 4863 
L 1947 4863 
z
" transform="scale(0.015625)"/>
      </defs>
      <use xlink:href="#DejaVuSans-73"/>
      <use xlink:href="#DejaVuSans-20" transform="translate(52.099609 0)"/>
      <use xlink:href="#DejaVuSans-5b" transform="translate(83.886719 0)"/>
      <use xlink:href="#DejaVuSans-6d" transform="translate(122.900391 0)"/>
      <use xlink:href="#DejaVuSans-5d" transform="translate(220.3125 0)"/>
     </g>
    </g>
   </g>
   <g id="matplotlib.axis_2">
    <g id="ytick_1">
     <g id="line2d_15">
      <path d="M 72.92 270.442264 
L 585.61 270.442264 
" clip-path="url(#p4c69215145)" style="fill: none; stroke: #b0b0b0; stroke-width: 0.8; stroke-linecap: square"/>
     </g>
     <g id="line2d_16">
      <defs>
       <path id="m320bd0294a" d="M 0 0 
L -3.5 0 
" style="stroke: #000000; stroke-width: 0.8"/>
      </defs>
      <g>
       <use xlink:href="#m320bd0294a" x="72.92" y="270.442264" style="stroke: #000000; stroke-width: 0.8"/>
      </g>
     </g>
     <g id="text_9">
      <!-- 0.00000 -->
      <g transform="translate(24.566875 274.241482) scale(0.1 -0.1)">
       <defs>
        <path id="DejaVuSans-2e" d="M 684 794 
L 1344 794 
L 1344 0 
L 684 0 
L 684 794 
z
" transform="scale(0.015625)"/>
       </defs>
       <use xlink:href="#DejaVuSans-30"/>
       <use xlink:href="#DejaVuSans-2e" transform="translate(63.623047 0)"/>
       <use xlink:href="#DejaVuSans-30" transform="translate(95.410156 0)"/>
       <use xlink:href="#DejaVuSans-30" transform="translate(159.033203 0)"/>
       <use xlink:href="#DejaVuSans-30" transform="translate(222.65625 0)"/>
       <use xlink:href="#DejaVuSans-30" transform="translate(286.279297 0)"/>
       <use xlink:href="#DejaVuSans-30" transform="translate(349.902344 0)"/>
      </g>
     </g>
    </g>
    <g id="ytick_2">
     <g id="line2d_17">
      <path d="M 72.92 238.034412 
L 585.61 238.034412 
" clip-path="url(#p4c69215145)" style="fill: none; stroke: #b0b0b0; stroke-width: 0.8; stroke-linecap: square"/>
     </g>
     <g id="line2d_18">
      <g>
       <use xlink:href="#m320bd0294a" x="72.92" y="238.034412" style="stroke: #000000; stroke-width: 0.8"/>
      </g>
     </g>
     <g id="text_10">
      <!-- 0.00002 -->
      <g transform="translate(24.566875 241.833631) scale(0.1 -0.1)">
       <use xlink:href="#DejaVuSans-30"/>
       <use xlink:href="#DejaVuSans-2e" transform="translate(63.623047 0)"/>
       <use xlink:href="#DejaVuSans-30" transform="translate(95.410156 0)"/>
       <use xlink:href="#DejaVuSans-30" transform="translate(159.033203 0)"/>
       <use xlink:href="#DejaVuSans-30" transform="translate(222.65625 0)"/>
       <use xlink:href="#DejaVuSans-30" transform="translate(286.279297 0)"/>
       <use xlink:href="#DejaVuSans-32" transform="translate(349.902344 0)"/>
      </g>
     </g>
    </g>
    <g id="ytick_3">
     <g id="line2d_19">
      <path d="M 72.92 205.62656 
L 585.61 205.62656 
" clip-path="url(#p4c69215145)" style="fill: none; stroke: #b0b0b0; stroke-width: 0.8; stroke-linecap: square"/>
     </g>
     <g id="line2d_20">
      <g>
       <use xlink:href="#m320bd0294a" x="72.92" y="205.62656" style="stroke: #000000; stroke-width: 0.8"/>
      </g>
     </g>
     <g id="text_11">
      <!-- 0.00004 -->
      <g transform="translate(24.566875 209.425779) scale(0.1 -0.1)">
       <use xlink:href="#DejaVuSans-30"/>
       <use xlink:href="#DejaVuSans-2e" transform="translate(63.623047 0)"/>
       <use xlink:href="#DejaVuSans-30" transform="translate(95.410156 0)"/>
       <use xlink:href="#DejaVuSans-30" transform="translate(159.033203 0)"/>
       <use xlink:href="#DejaVuSans-30" transform="translate(222.65625 0)"/>
       <use xlink:href="#DejaVuSans-30" transform="translate(286.279297 0)"/>
       <use xlink:href="#DejaVuSans-34" transform="translate(349.902344 0)"/>
      </g>
     </g>
    </g>
    <g id="ytick_4">
     <g id="line2d_21">
      <path d="M 72.92 173.218709 
L 585.61 173.218709 
" clip-path="url(#p4c69215145)" style="fill: none; stroke: #b0b0b0; stroke-width: 0.8; stroke-linecap: square"/>
     </g>
     <g id="line2d_22">
      <g>
       <use xlink:href="#m320bd0294a" x="72.92" y="173.218709" style="stroke: #000000; stroke-width: 0.8"/>
      </g>
     </g>
     <g id="text_12">
      <!-- 0.00006 -->
      <g transform="translate(24.566875 177.017928) scale(0.1 -0.1)">
       <use xlink:href="#DejaVuSans-30"/>
       <use xlink:href="#DejaVuSans-2e" transform="translate(63.623047 0)"/>
       <use xlink:href="#DejaVuSans-30" transform="translate(95.410156 0)"/>
       <use xlink:href="#DejaVuSans-30" transform="translate(159.033203 0)"/>
       <use xlink:href="#DejaVuSans-30" transform="translate(222.65625 0)"/>
       <use xlink:href="#DejaVuSans-30" transform="translate(286.279297 0)"/>
       <use xlink:href="#DejaVuSans-36" transform="translate(349.902344 0)"/>
      </g>
     </g>
    </g>
    <g id="ytick_5">
     <g id="line2d_23">
      <path d="M 72.92 140.810857 
L 585.61 140.810857 
" clip-path="url(#p4c69215145)" style="fill: none; stroke: #b0b0b0; stroke-width: 0.8; stroke-linecap: square"/>
     </g>
     <g id="line2d_24">
      <g>
       <use xlink:href="#m320bd0294a" x="72.92" y="140.810857" style="stroke: #000000; stroke-width: 0.8"/>
      </g>
     </g>
     <g id="text_13">
      <!-- 0.00008 -->
      <g transform="translate(24.566875 144.610076) scale(0.1 -0.1)">
       <defs>
        <path id="DejaVuSans-38" d="M 2034 2216 
Q 1584 2216 1326 1975 
Q 1069 1734 1069 1313 
Q 1069 891 1326 650 
Q 1584 409 2034 409 
Q 2484 409 2743 651 
Q 3003 894 3003 1313 
Q 3003 1734 2745 1975 
Q 2488 2216 2034 2216 
z
M 1403 2484 
Q 997 2584 770 2862 
Q 544 3141 544 3541 
Q 544 4100 942 4425 
Q 1341 4750 2034 4750 
Q 2731 4750 3128 4425 
Q 3525 4100 3525 3541 
Q 3525 3141 3298 2862 
Q 3072 2584 2669 2484 
Q 3125 2378 3379 2068 
Q 3634 1759 3634 1313 
Q 3634 634 3220 271 
Q 2806 -91 2034 -91 
Q 1263 -91 848 271 
Q 434 634 434 1313 
Q 434 1759 690 2068 
Q 947 2378 1403 2484 
z
M 1172 3481 
Q 1172 3119 1398 2916 
Q 1625 2713 2034 2713 
Q 2441 2713 2670 2916 
Q 2900 3119 2900 3481 
Q 2900 3844 2670 4047 
Q 2441 4250 2034 4250 
Q 1625 4250 1398 4047 
Q 1172 3844 1172 3481 
z
" transform="scale(0.015625)"/>
       </defs>
       <use xlink:href="#DejaVuSans-30"/>
       <use xlink:href="#DejaVuSans-2e" transform="translate(63.623047 0)"/>
       <use xlink:href="#DejaVuSans-30" transform="translate(95.410156 0)"/>
       <use xlink:href="#DejaVuSans-30" transform="translate(159.033203 0)"/>
       <use xlink:href="#DejaVuSans-30" transform="translate(222.65625 0)"/>
       <use xlink:href="#DejaVuSans-30" transform="translate(286.279297 0)"/>
       <use xlink:href="#DejaVuSans-38" transform="translate(349.902344 0)"/>
      </g>
     </g>
    </g>
    <g id="ytick_6">
     <g id="line2d_25">
      <path d="M 72.92 108.403006 
L 585.61 108.403006 
" clip-path="url(#p4c69215145)" style="fill: none; stroke: #b0b0b0; stroke-width: 0.8; stroke-linecap: square"/>
     </g>
     <g id="line2d_26">
      <g>
       <use xlink:href="#m320bd0294a" x="72.92" y="108.403006" style="stroke: #000000; stroke-width: 0.8"/>
      </g>
     </g>
     <g id="text_14">
      <!-- 0.00010 -->
      <g transform="translate(24.566875 112.202224) scale(0.1 -0.1)">
       <use xlink:href="#DejaVuSans-30"/>
       <use xlink:href="#DejaVuSans-2e" transform="translate(63.623047 0)"/>
       <use xlink:href="#DejaVuSans-30" transform="translate(95.410156 0)"/>
       <use xlink:href="#DejaVuSans-30" transform="translate(159.033203 0)"/>
       <use xlink:href="#DejaVuSans-30" transform="translate(222.65625 0)"/>
       <use xlink:href="#DejaVuSans-31" transform="translate(286.279297 0)"/>
       <use xlink:href="#DejaVuSans-30" transform="translate(349.902344 0)"/>
      </g>
     </g>
    </g>
    <g id="ytick_7">
     <g id="line2d_27">
      <path d="M 72.92 75.995154 
L 585.61 75.995154 
" clip-path="url(#p4c69215145)" style="fill: none; stroke: #b0b0b0; stroke-width: 0.8; stroke-linecap: square"/>
     </g>
     <g id="line2d_28">
      <g>
       <use xlink:href="#m320bd0294a" x="72.92" y="75.995154" style="stroke: #000000; stroke-width: 0.8"/>
      </g>
     </g>
     <g id="text_15">
      <!-- 0.00012 -->
      <g transform="translate(24.566875 79.794373) scale(0.1 -0.1)">
       <use xlink:href="#DejaVuSans-30"/>
       <use xlink:href="#DejaVuSans-2e" transform="translate(63.623047 0)"/>
       <use xlink:href="#DejaVuSans-30" transform="translate(95.410156 0)"/>
       <use xlink:href="#DejaVuSans-30" transform="translate(159.033203 0)"/>
       <use xlink:href="#DejaVuSans-30" transform="translate(222.65625 0)"/>
       <use xlink:href="#DejaVuSans-31" transform="translate(286.279297 0)"/>
       <use xlink:href="#DejaVuSans-32" transform="translate(349.902344 0)"/>
      </g>
     </g>
    </g>
    <g id="ytick_8">
     <g id="line2d_29">
      <path d="M 72.92 43.587302 
L 585.61 43.587302 
" clip-path="url(#p4c69215145)" style="fill: none; stroke: #b0b0b0; stroke-width: 0.8; stroke-linecap: square"/>
     </g>
     <g id="line2d_30">
      <g>
       <use xlink:href="#m320bd0294a" x="72.92" y="43.587302" style="stroke: #000000; stroke-width: 0.8"/>
      </g>
     </g>
     <g id="text_16">
      <!-- 0.00014 -->
      <g transform="translate(24.566875 47.386521) scale(0.1 -0.1)">
       <use xlink:href="#DejaVuSans-30"/>
       <use xlink:href="#DejaVuSans-2e" transform="translate(63.623047 0)"/>
       <use xlink:href="#DejaVuSans-30" transform="translate(95.410156 0)"/>
       <use xlink:href="#DejaVuSans-30" transform="translate(159.033203 0)"/>
       <use xlink:href="#DejaVuSans-30" transform="translate(222.65625 0)"/>
       <use xlink:href="#DejaVuSans-31" transform="translate(286.279297 0)"/>
       <use xlink:href="#DejaVuSans-34" transform="translate(349.902344 0)"/>
      </g>
     </g>
    </g>
    <g id="text_17">
     <!-- emit(s) [m] -->
     <g transform="translate(18.487187 182.623281) rotate(-90) scale(0.1 -0.1)">
      <defs>
       <path id="DejaVuSans-65" d="M 3597 1894 
L 3597 1613 
L 953 1613 
Q 991 1019 1311 708 
Q 1631 397 2203 397 
Q 2534 397 2845 478 
Q 3156 559 3463 722 
L 3463 178 
Q 3153 47 2828 -22 
Q 2503 -91 2169 -91 
Q 1331 -91 842 396 
Q 353 884 353 1716 
Q 353 2575 817 3079 
Q 1281 3584 2069 3584 
Q 2775 3584 3186 3129 
Q 3597 2675 3597 1894 
z
M 3022 2063 
Q 3016 2534 2758 2815 
Q 2500 3097 2075 3097 
Q 1594 3097 1305 2825 
Q 1016 2553 972 2059 
L 3022 2063 
z
" transform="scale(0.015625)"/>
       <path id="DejaVuSans-69" d="M 603 3500 
L 1178 3500 
L 1178 0 
L 603 0 
L 603 3500 
z
M 603 4863 
L 1178 4863 
L 1178 4134 
L 603 4134 
L 603 4863 
z
" transform="scale(0.015625)"/>
       <path id="DejaVuSans-74" d="M 1172 4494 
L 1172 3500 
L 2356 3500 
L 2356 3053 
L 1172 3053 
L 1172 1153 
Q 1172 725 1289 603 
Q 1406 481 1766 481 
L 2356 481 
L 2356 0 
L 1766 0 
Q 1100 0 847 248 
Q 594 497 594 1153 
L 594 3053 
L 172 3053 
L 172 3500 
L 594 3500 
L 594 4494 
L 1172 4494 
z
" transform="scale(0.015625)"/>
       <path id="DejaVuSans-28" d="M 1984 4856 
Q 1566 4138 1362 3434 
Q 1159 2731 1159 2009 
Q 1159 1288 1364 580 
Q 1569 -128 1984 -844 
L 1484 -844 
Q 1016 -109 783 600 
Q 550 1309 550 2009 
Q 550 2706 781 3412 
Q 1013 4119 1484 4856 
L 1984 4856 
z
" transform="scale(0.015625)"/>
       <path id="DejaVuSans-29" d="M 513 4856 
L 1013 4856 
Q 1481 4119 1714 3412 
Q 1947 2706 1947 2009 
Q 1947 1309 1714 600 
Q 1481 -109 1013 -844 
L 513 -844 
Q 928 -128 1133 580 
Q 1338 1288 1338 2009 
Q 1338 2731 1133 3434 
Q 928 4138 513 4856 
z
" transform="scale(0.015625)"/>
      </defs>
      <use xlink:href="#DejaVuSans-65"/>
      <use xlink:href="#DejaVuSans-6d" transform="translate(61.523438 0)"/>
      <use xlink:href="#DejaVuSans-69" transform="translate(158.935547 0)"/>
      <use xlink:href="#DejaVuSans-74" transform="translate(186.71875 0)"/>
      <use xlink:href="#DejaVuSans-28" transform="translate(225.927734 0)"/>
      <use xlink:href="#DejaVuSans-73" transform="translate(264.941406 0)"/>
      <use xlink:href="#DejaVuSans-29" transform="translate(317.041016 0)"/>
      <use xlink:href="#DejaVuSans-20" transform="translate(356.054688 0)"/>
      <use xlink:href="#DejaVuSans-5b" transform="translate(387.841797 0)"/>
      <use xlink:href="#DejaVuSans-6d" transform="translate(426.855469 0)"/>
      <use xlink:href="#DejaVuSans-5d" transform="translate(524.267578 0)"/>
     </g>
    </g>
   </g>
   <g id="line2d_31">
    <path d="M 96.224091 270.441818 
L 96.457132 269.663908 
L 96.690173 267.329773 
L 97.156255 257.993023 
L 97.622336 242.427948 
L 98.321459 207.382578 
L 99.020582 158.245677 
L 99.952745 76.678098 
L 112.769995 76.680152 
L 119.0621 76.680152 
L 119.295141 77.579716 
L 119.994264 138.032787 
L 120.460345 160.32405 
L 120.926427 172.247193 
L 121.858591 186.734565 
L 122.091632 189.183423 
L 122.324673 189.739341 
L 122.557714 186.96875 
L 122.790755 179.519917 
L 123.256836 152.787751 
L 133.277595 152.785133 
L 142.366191 152.785133 
L 142.599232 153.369743 
L 143.298355 192.575302 
L 143.764436 210.133424 
L 144.230518 221.398912 
L 144.929641 231.339827 
L 145.861805 240.71909 
L 146.094845 241.263134 
L 146.327886 239.667761 
L 146.560927 236.210795 
L 148.658295 236.198419 
L 165.903323 236.11348 
L 166.136364 238.583776 
L 166.369405 238.089872 
L 166.835486 229.523997 
L 167.534609 210.999777 
L 168.000691 194.059814 
L 168.466773 170.004275 
L 169.165895 116.617419 
L 169.865018 43.332718 
L 170.3311 43.254007 
L 188.974373 43.254007 
L 189.207414 43.464347 
L 190.605659 157.745201 
L 191.304782 191.181594 
L 192.003905 213.953366 
L 192.703027 230.960176 
L 192.936068 233.805 
L 193.169109 233.27358 
L 194.101273 233.242258 
L 212.511505 233.243877 
L 212.744545 234.898954 
L 212.977586 235.478114 
L 213.210627 234.53482 
L 213.676709 230.365959 
L 214.608873 219.298238 
L 215.074955 211.29023 
L 215.541036 199.307675 
L 216.007118 181.788179 
L 216.4732 159.247329 
L 216.706241 158.036047 
L 235.815595 158.060151 
L 236.514718 179.053561 
L 236.747759 179.82942 
L 236.9808 178.100278 
L 237.446882 171.079122 
L 238.379045 152.649529 
L 238.845127 137.574502 
L 239.311209 112.924224 
L 239.777291 76.758737 
L 240.010332 74.83112 
L 259.119686 74.831119 
L 259.352727 87.080382 
L 260.284891 170.400314 
L 260.984014 216.079799 
L 261.683136 247.229175 
L 262.149218 259.983078 
L 262.6153 266.674696 
L 262.848341 267.577979 
L 263.081382 267.090324 
L 263.780505 267.041601 
L 282.423777 267.041601 
L 282.656818 268.285612 
L 282.889859 268.668096 
L 283.1229 266.604472 
L 283.588982 258.887096 
L 284.055064 245.333379 
L 284.521145 225.424011 
L 285.220268 183.417539 
L 285.919391 126.699013 
L 286.385473 80.999855 
L 286.618514 76.855979 
L 305.727868 76.855979 
L 305.960909 84.847848 
L 306.426991 128.470064 
L 306.893073 155.72174 
L 307.359155 170.263418 
L 308.058277 181.897552 
L 308.524359 187.852279 
L 308.7574 189.244366 
L 308.990441 188.000289 
L 309.223482 182.651913 
L 309.456523 172.103197 
L 309.689564 156.142182 
L 309.922605 151.999275 
L 329.031959 151.999275 
L 329.265 155.454068 
L 329.964123 195.072539 
L 330.430205 212.043046 
L 330.896286 222.768088 
L 331.595409 232.208398 
L 332.294532 238.544369 
L 332.527573 239.176674 
L 332.760614 237.983385 
L 333.226695 231.941516 
L 352.569091 231.97486 
L 352.802132 235.295971 
L 353.035173 234.341123 
L 353.501255 225.747762 
L 354.200377 207.134928 
L 354.666459 189.343619 
L 355.132541 163.625378 
L 355.831664 106.434187 
L 356.530786 42.888693 
L 375.640141 42.888693 
L 375.873182 45.464877 
L 376.572305 113.619729 
L 377.271427 162.524255 
L 377.97055 194.878109 
L 378.669673 217.256319 
L 379.368795 233.18186 
L 379.601836 234.492697 
L 379.834877 233.814297 
L 399.177273 233.804071 
L 399.410314 235.89524 
L 399.643355 236.05095 
L 399.876395 234.782532 
L 400.342477 230.111318 
L 401.0416 220.904763 
L 401.507682 212.514609 
L 401.973764 200.399245 
L 402.439845 183.006571 
L 403.138968 151.351192 
L 422.248323 151.351192 
L 422.481364 153.049428 
L 422.947445 172.002267 
L 423.180486 175.121872 
L 423.413527 175.115709 
L 423.646568 173.102595 
L 424.345691 162.72302 
L 424.811773 154.348624 
L 425.277855 142.093165 
L 425.743936 121.255677 
L 426.443059 71.710597 
L 428.074345 71.69283 
L 445.552414 71.69283 
L 445.785455 73.01795 
L 446.950659 175.254465 
L 447.649782 218.41791 
L 448.348905 247.426173 
L 448.814986 259.374373 
L 449.281068 266.41649 
L 449.514109 267.111162 
L 449.74715 265.880433 
L 456.971418 265.884108 
L 468.856505 265.884108 
L 469.089545 266.215983 
L 469.322586 267.967502 
L 469.555627 266.648471 
L 470.021709 259.334003 
L 470.487791 246.85184 
L 470.953873 228.365247 
L 471.652995 188.797985 
L 472.352118 134.773991 
L 473.051241 69.965224 
L 473.517323 69.882097 
L 492.160595 69.882096 
L 492.393636 70.356202 
L 493.092759 132.071149 
L 493.558841 155.442201 
L 494.024923 167.793047 
L 494.724045 178.622997 
L 495.190127 183.786446 
L 495.423168 184.16963 
L 495.656209 181.417354 
L 495.88925 174.20886 
L 496.355332 145.441301 
L 500.783109 145.435136 
L 515.464686 145.435136 
L 515.697727 145.818103 
L 516.629891 196.383058 
L 517.095973 212.413203 
L 517.562055 222.917456 
L 518.261177 232.861712 
L 518.727259 237.451133 
L 518.9603 238.636315 
L 519.193341 238.301759 
L 519.426382 235.753562 
L 519.659423 231.384961 
L 519.892464 231.106054 
L 539.001818 231.120383 
L 539.234859 234.256303 
L 539.4679 235.405078 
L 539.700941 232.940897 
L 540.167023 222.972221 
L 540.866145 202.21707 
L 541.332227 181.910082 
L 541.798309 153.202482 
L 542.497432 91.583664 
L 542.963514 39.416509 
L 543.196555 38.478182 
L 562.305909 38.478182 
L 562.305909 38.478182 
" clip-path="url(#p4c69215145)" style="fill: none; stroke: #1f77b4; stroke-width: 2; stroke-linecap: square"/>
   </g>
   <g id="line2d_32">
    <path d="M 96.224091 270.441818 
L 96.457132 269.663908 
L 96.690173 267.329773 
L 97.156255 257.993023 
L 97.622336 242.427948 
L 98.321459 207.382578 
L 99.020582 158.245677 
L 99.952745 76.678098 
L 112.769995 76.680152 
L 119.0621 76.680152 
L 119.295141 77.579716 
L 119.994264 138.032787 
L 120.460345 160.32405 
L 120.926427 172.247193 
L 121.858591 186.734565 
L 122.091632 189.183423 
L 122.324673 189.739341 
L 122.557714 186.96875 
L 122.790755 179.519917 
L 123.256836 152.787751 
L 133.277595 152.785134 
L 142.366191 152.785134 
L 142.599232 153.369743 
L 143.298355 192.575302 
L 143.764436 210.133424 
L 144.230518 221.398912 
L 144.929641 231.339827 
L 145.861805 240.71909 
L 146.094845 241.263134 
L 146.327886 239.667761 
L 146.560927 236.210795 
L 148.658295 236.198419 
L 165.903323 236.11348 
L 166.136364 238.583776 
L 166.369405 238.089872 
L 166.835486 229.523997 
L 167.534609 210.999777 
L 168.000691 194.059814 
L 168.466773 170.004275 
L 169.165895 116.617419 
L 169.865018 43.332718 
L 170.3311 43.254007 
L 188.974373 43.254007 
L 189.207414 43.464347 
L 190.605659 157.745201 
L 191.304782 191.181594 
L 192.003905 213.953366 
L 192.703027 230.960175 
L 192.936068 233.805 
L 193.169109 233.27358 
L 194.101273 233.242258 
L 212.511505 233.243876 
L 212.744545 234.898953 
L 212.977586 235.478114 
L 213.210627 234.53482 
L 213.676709 230.365958 
L 214.608873 219.298238 
L 215.074955 211.29023 
L 215.541036 199.307674 
L 216.007118 181.788179 
L 216.4732 159.247329 
L 216.706241 158.036047 
L 235.815595 158.060151 
L 236.514718 179.053561 
L 236.747759 179.82942 
L 236.9808 178.10027 
L 237.446882 171.079122 
L 238.379045 152.649529 
L 238.845127 137.574502 
L 239.311209 112.924224 
L 239.777291 76.758737 
L 240.010332 74.83112 
L 259.119686 74.83112 
L 259.352727 87.080382 
L 260.284891 170.400314 
L 260.984014 216.079799 
L 261.683136 247.229175 
L 262.149218 259.983078 
L 262.6153 266.674696 
L 262.848341 267.577979 
L 263.081382 267.090324 
L 263.780505 267.041601 
L 282.423777 267.041601 
L 282.656818 268.285612 
L 282.889859 268.668096 
L 283.1229 266.604473 
L 283.588982 258.887096 
L 284.055064 245.333379 
L 284.521145 225.424011 
L 285.220268 183.417539 
L 285.919391 126.699013 
L 286.385473 80.999855 
L 286.618514 76.855979 
L 305.727868 76.855979 
L 305.960909 84.847848 
L 306.426991 128.470064 
L 306.893073 155.72174 
L 307.359155 170.263418 
L 308.058277 181.897552 
L 308.524359 187.852279 
L 308.7574 189.244366 
L 308.990441 188.000289 
L 309.223482 182.651913 
L 309.456523 172.103197 
L 309.689564 156.142182 
L 309.922605 151.999275 
L 329.031959 151.999275 
L 329.265 155.454068 
L 329.964123 195.072539 
L 330.430205 212.043046 
L 330.896286 222.768088 
L 331.595409 232.208398 
L 332.294532 238.544369 
L 332.527573 239.176674 
L 332.760614 237.983385 
L 333.226695 231.941516 
L 352.569091 231.97486 
L 352.802132 235.295971 
L 353.035173 234.341123 
L 353.501255 225.747762 
L 354.200377 207.134928 
L 354.666459 189.343619 
L 355.132541 163.625378 
L 355.831664 106.434187 
L 356.530786 42.888693 
L 375.640141 42.888693 
L 375.873182 45.464877 
L 376.572305 113.619729 
L 377.271427 162.524255 
L 377.97055 194.878109 
L 378.669673 217.256319 
L 379.368795 233.18186 
L 379.601836 234.492698 
L 379.834877 233.814297 
L 399.177273 233.804071 
L 399.410314 235.89524 
L 399.643355 236.05095 
L 399.876395 234.782532 
L 400.342477 230.111318 
L 401.0416 220.904764 
L 401.507682 212.51461 
L 401.973764 200.399245 
L 402.439845 183.006571 
L 403.138968 151.351192 
L 422.248323 151.351192 
L 422.481364 153.049428 
L 422.947445 172.002267 
L 423.180486 175.121872 
L 423.413527 175.115709 
L 423.646568 173.102595 
L 424.345691 162.72302 
L 424.811773 154.348624 
L 425.277855 142.093166 
L 425.743936 121.255677 
L 426.443059 71.710597 
L 428.074345 71.69283 
L 445.552414 71.69283 
L 445.785455 73.01795 
L 446.950659 175.254466 
L 447.649782 218.41791 
L 448.348905 247.426173 
L 448.814986 259.374373 
L 449.281068 266.41649 
L 449.514109 267.111163 
L 449.74715 265.880433 
L 456.971418 265.884108 
L 468.856505 265.884108 
L 469.089545 266.215983 
L 469.322586 267.967502 
L 469.555627 266.648471 
L 470.021709 259.334003 
L 470.487791 246.85184 
L 470.953873 228.365248 
L 471.652995 188.797985 
L 472.352118 134.773991 
L 473.051241 69.965224 
L 473.517323 69.882097 
L 492.160595 69.882097 
L 492.393636 70.356202 
L 493.092759 132.071149 
L 493.558841 155.442201 
L 494.024923 167.793047 
L 494.724045 178.622997 
L 495.190127 183.786446 
L 495.423168 184.16963 
L 495.656209 181.417354 
L 495.88925 174.20886 
L 496.355332 145.441302 
L 500.783109 145.435136 
L 515.464686 145.435136 
L 515.697727 145.818103 
L 516.629891 196.383058 
L 517.095973 212.413203 
L 517.562055 222.917456 
L 518.261177 232.861712 
L 518.727259 237.451133 
L 518.9603 238.636315 
L 519.193341 238.301759 
L 519.426382 235.753562 
L 519.659423 231.384961 
L 519.892464 231.106054 
L 539.001818 231.120383 
L 539.234859 234.256303 
L 539.4679 235.405078 
L 539.700941 232.940897 
L 540.167023 222.972226 
L 540.866145 202.21707 
L 541.332227 181.910083 
L 541.798309 153.202483 
L 542.497432 91.583665 
L 542.963514 39.41651 
L 543.196555 38.478182 
L 562.305909 38.478182 
L 562.305909 38.478182 
" clip-path="url(#p4c69215145)" style="fill: none; stroke: #ff7f0e; stroke-width: 2; stroke-linecap: square"/>
   </g>
   <g id="patch_3">
    <path d="M 72.92 282.04 
L 72.92 26.88 
" style="fill: none; stroke: #000000; stroke-width: 0.8; stroke-linejoin: miter; stroke-linecap: square"/>
   </g>
   <g id="patch_4">
    <path d="M 585.61 282.04 
L 585.61 26.88 
" style="fill: none; stroke: #000000; stroke-width: 0.8; stroke-linejoin: miter; stroke-linecap: square"/>
   </g>
   <g id="patch_5">
    <path d="M 72.92 282.04 
L 585.61 282.04 
" style="fill: none; stroke: #000000; stroke-width: 0.8; stroke-linejoin: miter; stroke-linecap: square"/>
   </g>
   <g id="patch_6">
    <path d="M 72.92 26.88 
L 585.61 26.88 
" style="fill: none; stroke: #000000; stroke-width: 0.8; stroke-linejoin: miter; stroke-linecap: square"/>
   </g>
   <g id="text_18">
    <!-- FodoCell-multibeam-fromfile -->
    <g transform="translate(243.883125 20.88) scale(0.12 -0.12)">
     <defs>
      <path id="DejaVuSans-46" d="M 628 4666 
L 3309 4666 
L 3309 4134 
L 1259 4134 
L 1259 2759 
L 3109 2759 
L 3109 2228 
L 1259 2228 
L 1259 0 
L 628 0 
L 628 4666 
z
" transform="scale(0.015625)"/>
      <path id="DejaVuSans-6f" d="M 1959 3097 
Q 1497 3097 1228 2736 
Q 959 2375 959 1747 
Q 959 1119 1226 758 
Q 1494 397 1959 397 
Q 2419 397 2687 759 
Q 2956 1122 2956 1747 
Q 2956 2369 2687 2733 
Q 2419 3097 1959 3097 
z
M 1959 3584 
Q 2709 3584 3137 3096 
Q 3566 2609 3566 1747 
Q 3566 888 3137 398 
Q 2709 -91 1959 -91 
Q 1206 -91 779 398 
Q 353 888 353 1747 
Q 353 2609 779 3096 
Q 1206 3584 1959 3584 
z
" transform="scale(0.015625)"/>
      <path id="DejaVuSans-64" d="M 2906 2969 
L 2906 4863 
L 3481 4863 
L 3481 0 
L 2906 0 
L 2906 525 
Q 2725 213 2448 61 
Q 2172 -91 1784 -91 
Q 1150 -91 751 415 
Q 353 922 353 1747 
Q 353 2572 751 3078 
Q 1150 3584 1784 3584 
Q 2172 3584 2448 3432 
Q 2725 3281 2906 2969 
z
M 947 1747 
Q 947 1113 1208 752 
Q 1469 391 1925 391 
Q 2381 391 2643 752 
Q 2906 1113 2906 1747 
Q 2906 2381 2643 2742 
Q 2381 3103 1925 3103 
Q 1469 3103 1208 2742 
Q 947 2381 947 1747 
z
" transform="scale(0.015625)"/>
      <path id="DejaVuSans-43" d="M 4122 4306 
L 4122 3641 
Q 3803 3938 3442 4084 
Q 3081 4231 2675 4231 
Q 1875 4231 1450 3742 
Q 1025 3253 1025 2328 
Q 1025 1406 1450 917 
Q 1875 428 2675 428 
Q 3081 428 3442 575 
Q 3803 722 4122 1019 
L 4122 359 
Q 3791 134 3420 21 
Q 3050 -91 2638 -91 
Q 1578 -91 968 557 
Q 359 1206 359 2328 
Q 359 3453 968 4101 
Q 1578 4750 2638 4750 
Q 3056 4750 3426 4639 
Q 3797 4528 4122 4306 
z
" transform="scale(0.015625)"/>
      <path id="DejaVuSans-6c" d="M 603 4863 
L 1178 4863 
L 1178 0 
L 603 0 
L 603 4863 
z
" transform="scale(0.015625)"/>
      <path id="DejaVuSans-2d" d="M 313 2009 
L 1997 2009 
L 1997 1497 
L 313 1497 
L 313 2009 
z
" transform="scale(0.015625)"/>
      <path id="DejaVuSans-75" d="M 544 1381 
L 544 3500 
L 1119 3500 
L 1119 1403 
Q 1119 906 1312 657 
Q 1506 409 1894 409 
Q 2359 409 2629 706 
Q 2900 1003 2900 1516 
L 2900 3500 
L 3475 3500 
L 3475 0 
L 2900 0 
L 2900 538 
Q 2691 219 2414 64 
Q 2138 -91 1772 -91 
Q 1169 -91 856 284 
Q 544 659 544 1381 
z
M 1991 3584 
L 1991 3584 
z
" transform="scale(0.015625)"/>
      <path id="DejaVuSans-62" d="M 3116 1747 
Q 3116 2381 2855 2742 
Q 2594 3103 2138 3103 
Q 1681 3103 1420 2742 
Q 1159 2381 1159 1747 
Q 1159 1113 1420 752 
Q 1681 391 2138 391 
Q 2594 391 2855 752 
Q 3116 1113 3116 1747 
z
M 1159 2969 
Q 1341 3281 1617 3432 
Q 1894 3584 2278 3584 
Q 2916 3584 3314 3078 
Q 3713 2572 3713 1747 
Q 3713 922 3314 415 
Q 2916 -91 2278 -91 
Q 1894 -91 1617 61 
Q 1341 213 1159 525 
L 1159 0 
L 581 0 
L 581 4863 
L 1159 4863 
L 1159 2969 
z
" transform="scale(0.015625)"/>
      <path id="DejaVuSans-61" d="M 2194 1759 
Q 1497 1759 1228 1600 
Q 959 1441 959 1056 
Q 959 750 1161 570 
Q 1363 391 1709 391 
Q 2188 391 2477 730 
Q 2766 1069 2766 1631 
L 2766 1759 
L 2194 1759 
z
M 3341 1997 
L 3341 0 
L 2766 0 
L 2766 531 
Q 2569 213 2275 61 
Q 1981 -91 1556 -91 
Q 1019 -91 701 211 
Q 384 513 384 1019 
Q 384 1609 779 1909 
Q 1175 2209 1959 2209 
L 2766 2209 
L 2766 2266 
Q 2766 2663 2505 2880 
Q 2244 3097 1772 3097 
Q 1472 3097 1187 3025 
Q 903 2953 641 2809 
L 641 3341 
Q 956 3463 1253 3523 
Q 1550 3584 1831 3584 
Q 2591 3584 2966 3190 
Q 3341 2797 3341 1997 
z
" transform="scale(0.015625)"/>
      <path id="DejaVuSans-66" d="M 2375 4863 
L 2375 4384 
L 1825 4384 
Q 1516 4384 1395 4259 
Q 1275 4134 1275 3809 
L 1275 3500 
L 2222 3500 
L 2222 3053 
L 1275 3053 
L 1275 0 
L 697 0 
L 697 3053 
L 147 3053 
L 147 3500 
L 697 3500 
L 697 3744 
Q 697 4328 969 4595 
Q 1241 4863 1831 4863 
L 2375 4863 
z
" transform="scale(0.015625)"/>
      <path id="DejaVuSans-72" d="M 2631 2963 
Q 2534 3019 2420 3045 
Q 2306 3072 2169 3072 
Q 1681 3072 1420 2755 
Q 1159 2438 1159 1844 
L 1159 0 
L 581 0 
L 581 3500 
L 1159 3500 
L 1159 2956 
Q 1341 3275 1631 3429 
Q 1922 3584 2338 3584 
Q 2397 3584 2469 3576 
Q 2541 3569 2628 3553 
L 2631 2963 
z
" transform="scale(0.015625)"/>
     </defs>
     <use xlink:href="#DejaVuSans-46"/>
     <use xlink:href="#DejaVuSans-6f" transform="translate(53.894531 0)"/>
     <use xlink:href="#DejaVuSans-64" transform="translate(115.076172 0)"/>
     <use xlink:href="#DejaVuSans-6f" transform="translate(178.552734 0)"/>
     <use xlink:href="#DejaVuSans-43" transform="translate(239.734375 0)"/>
     <use xlink:href="#DejaVuSans-65" transform="translate(309.558594 0)"/>
     <use xlink:href="#DejaVuSans-6c" transform="translate(371.082031 0)"/>
     <use xlink:href="#DejaVuSans-6c" transform="translate(398.865234 0)"/>
     <use xlink:href="#DejaVuSans-2d" transform="translate(426.648438 0)"/>
     <use xlink:href="#DejaVuSans-6d" transform="translate(462.732422 0)"/>
     <use xlink:href="#DejaVuSans-75" transform="translate(560.144531 0)"/>
     <use xlink:href="#DejaVuSans-6c" transform="translate(623.523438 0)"/>
     <use xlink:href="#DejaVuSans-74" transform="translate(651.306641 0)"/>
     <use xlink:href="#DejaVuSans-69" transform="translate(690.515625 0)"/>
     <use xlink:href="#DejaVuSans-62" transform="translate(718.298828 0)"/>
     <use xlink:href="#DejaVuSans-65" transform="translate(781.775391 0)"/>
     <use xlink:href="#DejaVuSans-61" transform="translate(843.298828 0)"/>
     <use xlink:href="#DejaVuSans-6d" transform="translate(904.578125 0)"/>
     <use xlink:href="#DejaVuSans-2d" transform="translate(1001.990234 0)"/>
     <use xlink:href="#DejaVuSans-66" transform="translate(1038.074219 0)"/>
     <use xlink:href="#DejaVuSans-72" transform="translate(1073.279297 0)"/>
     <use xlink:href="#DejaVuSans-6f" transform="translate(1112.142578 0)"/>
     <use xlink:href="#DejaVuSans-6d" transform="translate(1173.324219 0)"/>
     <use xlink:href="#DejaVuSans-66" transform="translate(1270.736328 0)"/>
     <use xlink:href="#DejaVuSans-69" transform="translate(1305.941406 0)"/>
     <use xlink:href="#DejaVuSans-6c" transform="translate(1333.724609 0)"/>
     <use xlink:href="#DejaVuSans-65" transform="translate(1361.507812 0)"/>
    </g>
   </g>
   <g id="legend_1">
    <g id="patch_7">
     <path d="M 79.92 277.04 
L 159.660625 277.04 
Q 161.660625 277.04 161.660625 275.04 
L 161.660625 246.68375 
Q 161.660625 244.68375 159.660625 244.68375 
L 79.92 244.68375 
Q 77.92 244.68375 77.92 246.68375 
L 77.92 275.04 
Q 77.92 277.04 79.92 277.04 
z
" style="fill: #ffffff; opacity: 0.8; stroke: #cccccc; stroke-linejoin: miter"/>
    </g>
    <g id="line2d_33">
     <path d="M 81.92 252.782188 
L 91.92 252.782188 
L 101.92 252.782188 
" style="fill: none; stroke: #1f77b4; stroke-width: 2; stroke-linecap: square"/>
    </g>
    <g id="text_19">
     <!-- current -->
     <g transform="translate(109.92 256.282188) scale(0.1 -0.1)">
      <defs>
       <path id="DejaVuSans-63" d="M 3122 3366 
L 3122 2828 
Q 2878 2963 2633 3030 
Q 2388 3097 2138 3097 
Q 1578 3097 1268 2742 
Q 959 2388 959 1747 
Q 959 1106 1268 751 
Q 1578 397 2138 397 
Q 2388 397 2633 464 
Q 2878 531 3122 666 
L 3122 134 
Q 2881 22 2623 -34 
Q 2366 -91 2075 -91 
Q 1284 -91 818 406 
Q 353 903 353 1747 
Q 353 2603 823 3093 
Q 1294 3584 2113 3584 
Q 2378 3584 2631 3529 
Q 2884 3475 3122 3366 
z
" transform="scale(0.015625)"/>
       <path id="DejaVuSans-6e" d="M 3513 2113 
L 3513 0 
L 2938 0 
L 2938 2094 
Q 2938 2591 2744 2837 
Q 2550 3084 2163 3084 
Q 1697 3084 1428 2787 
Q 1159 2491 1159 1978 
L 1159 0 
L 581 0 
L 581 3500 
L 1159 3500 
L 1159 2956 
Q 1366 3272 1645 3428 
Q 1925 3584 2291 3584 
Q 2894 3584 3203 3211 
Q 3513 2838 3513 2113 
z
" transform="scale(0.015625)"/>
      </defs>
      <use xlink:href="#DejaVuSans-63"/>
      <use xlink:href="#DejaVuSans-75" transform="translate(54.980469 0)"/>
      <use xlink:href="#DejaVuSans-72" transform="translate(118.359375 0)"/>
      <use xlink:href="#DejaVuSans-72" transform="translate(157.722656 0)"/>
      <use xlink:href="#DejaVuSans-65" transform="translate(196.585938 0)"/>
      <use xlink:href="#DejaVuSans-6e" transform="translate(258.109375 0)"/>
      <use xlink:href="#DejaVuSans-74" transform="translate(321.488281 0)"/>
     </g>
    </g>
    <g id="line2d_34">
     <path d="M 81.92 267.460312 
L 91.92 267.460312 
L 101.92 267.460312 
" style="fill: none; stroke: #ff7f0e; stroke-width: 2; stroke-linecap: square"/>
    </g>
    <g id="text_20">
     <!-- reference -->
     <g transform="translate(109.92 270.960312) scale(0.1 -0.1)">
      <use xlink:href="#DejaVuSans-72"/>
      <use xlink:href="#DejaVuSans-65" transform="translate(38.863281 0)"/>
      <use xlink:href="#DejaVuSans-66" transform="translate(100.386719 0)"/>
      <use xlink:href="#DejaVuSans-65" transform="translate(135.591797 0)"/>
      <use xlink:href="#DejaVuSans-72" transform="translate(197.115234 0)"/>
      <use xlink:href="#DejaVuSans-65" transform="translate(235.978516 0)"/>
      <use xlink:href="#DejaVuSans-6e" transform="translate(297.501953 0)"/>
      <use xlink:href="#DejaVuSans-63" transform="translate(360.880859 0)"/>
      <use xlink:href="#DejaVuSans-65" transform="translate(415.861328 0)"/>
     </g>
    </g>
   </g>
  </g>
  <g id="axes_2">
   <g id="matplotlib.axis_3">
    <g id="ytick_9">
     <g id="line2d_35">
      <defs>
       <path id="m15d2bacc6f" d="M 0 0 
L 3.5 0 
" style="stroke: #000000; stroke-width: 0.8"/>
      </defs>
      <g>
       <use xlink:href="#m15d2bacc6f" x="585.61" y="274.0071" style="stroke: #000000; stroke-width: 0.8"/>
      </g>
     </g>
     <g id="text_21">
      <!-- −1.00 -->
      <g transform="translate(592.61 277.806319) scale(0.1 -0.1)">
       <defs>
        <path id="DejaVuSans-2212" d="M 678 2272 
L 4684 2272 
L 4684 1741 
L 678 1741 
L 678 2272 
z
" transform="scale(0.015625)"/>
       </defs>
       <use xlink:href="#DejaVuSans-2212"/>
       <use xlink:href="#DejaVuSans-31" transform="translate(83.789062 0)"/>
       <use xlink:href="#DejaVuSans-2e" transform="translate(147.412109 0)"/>
       <use xlink:href="#DejaVuSans-30" transform="translate(179.199219 0)"/>
       <use xlink:href="#DejaVuSans-30" transform="translate(242.822266 0)"/>
      </g>
     </g>
    </g>
    <g id="ytick_10">
     <g id="line2d_36">
      <g>
       <use xlink:href="#m15d2bacc6f" x="585.61" y="239.941427" style="stroke: #000000; stroke-width: 0.8"/>
      </g>
     </g>
     <g id="text_22">
      <!-- −0.75 -->
      <g transform="translate(592.61 243.740646) scale(0.1 -0.1)">
       <defs>
        <path id="DejaVuSans-37" d="M 525 4666 
L 3525 4666 
L 3525 4397 
L 1831 0 
L 1172 0 
L 2766 4134 
L 525 4134 
L 525 4666 
z
" transform="scale(0.015625)"/>
       </defs>
       <use xlink:href="#DejaVuSans-2212"/>
       <use xlink:href="#DejaVuSans-30" transform="translate(83.789062 0)"/>
       <use xlink:href="#DejaVuSans-2e" transform="translate(147.412109 0)"/>
       <use xlink:href="#DejaVuSans-37" transform="translate(179.199219 0)"/>
       <use xlink:href="#DejaVuSans-35" transform="translate(242.822266 0)"/>
      </g>
     </g>
    </g>
    <g id="ytick_11">
     <g id="line2d_37">
      <g>
       <use xlink:href="#m15d2bacc6f" x="585.61" y="205.875755" style="stroke: #000000; stroke-width: 0.8"/>
      </g>
     </g>
     <g id="text_23">
      <!-- −0.50 -->
      <g transform="translate(592.61 209.674973) scale(0.1 -0.1)">
       <use xlink:href="#DejaVuSans-2212"/>
       <use xlink:href="#DejaVuSans-30" transform="translate(83.789062 0)"/>
       <use xlink:href="#DejaVuSans-2e" transform="translate(147.412109 0)"/>
       <use xlink:href="#DejaVuSans-35" transform="translate(179.199219 0)"/>
       <use xlink:href="#DejaVuSans-30" transform="translate(242.822266 0)"/>
      </g>
     </g>
    </g>
    <g id="ytick_12">
     <g id="line2d_38">
      <g>
       <use xlink:href="#m15d2bacc6f" x="585.61" y="171.810082" style="stroke: #000000; stroke-width: 0.8"/>
      </g>
     </g>
     <g id="text_24">
      <!-- −0.25 -->
      <g transform="translate(592.61 175.609301) scale(0.1 -0.1)">
       <use xlink:href="#DejaVuSans-2212"/>
       <use xlink:href="#DejaVuSans-30" transform="translate(83.789062 0)"/>
       <use xlink:href="#DejaVuSans-2e" transform="translate(147.412109 0)"/>
       <use xlink:href="#DejaVuSans-32" transform="translate(179.199219 0)"/>
       <use xlink:href="#DejaVuSans-35" transform="translate(242.822266 0)"/>
      </g>
     </g>
    </g>
    <g id="ytick_13">
     <g id="line2d_39">
      <g>
       <use xlink:href="#m15d2bacc6f" x="585.61" y="137.744409" style="stroke: #000000; stroke-width: 0.8"/>
      </g>
     </g>
     <g id="text_25">
      <!-- 0.00 -->
      <g transform="translate(592.61 141.543628) scale(0.1 -0.1)">
       <use xlink:href="#DejaVuSans-30"/>
       <use xlink:href="#DejaVuSans-2e" transform="translate(63.623047 0)"/>
       <use xlink:href="#DejaVuSans-30" transform="translate(95.410156 0)"/>
       <use xlink:href="#DejaVuSans-30" transform="translate(159.033203 0)"/>
      </g>
     </g>
    </g>
    <g id="ytick_14">
     <g id="line2d_40">
      <g>
       <use xlink:href="#m15d2bacc6f" x="585.61" y="103.678736" style="stroke: #000000; stroke-width: 0.8"/>
      </g>
     </g>
     <g id="text_26">
      <!-- 0.25 -->
      <g transform="translate(592.61 107.477955) scale(0.1 -0.1)">
       <use xlink:href="#DejaVuSans-30"/>
       <use xlink:href="#DejaVuSans-2e" transform="translate(63.623047 0)"/>
       <use xlink:href="#DejaVuSans-32" transform="translate(95.410156 0)"/>
       <use xlink:href="#DejaVuSans-35" transform="translate(159.033203 0)"/>
      </g>
     </g>
    </g>
    <g id="ytick_15">
     <g id="line2d_41">
      <g>
       <use xlink:href="#m15d2bacc6f" x="585.61" y="69.613064" style="stroke: #000000; stroke-width: 0.8"/>
      </g>
     </g>
     <g id="text_27">
      <!-- 0.50 -->
      <g transform="translate(592.61 73.412282) scale(0.1 -0.1)">
       <use xlink:href="#DejaVuSans-30"/>
       <use xlink:href="#DejaVuSans-2e" transform="translate(63.623047 0)"/>
       <use xlink:href="#DejaVuSans-35" transform="translate(95.410156 0)"/>
       <use xlink:href="#DejaVuSans-30" transform="translate(159.033203 0)"/>
      </g>
     </g>
    </g>
    <g id="ytick_16">
     <g id="line2d_42">
      <g>
       <use xlink:href="#m15d2bacc6f" x="585.61" y="35.547391" style="stroke: #000000; stroke-width: 0.8"/>
      </g>
     </g>
     <g id="text_28">
      <!-- 0.75 -->
      <g transform="translate(592.61 39.34661) scale(0.1 -0.1)">
       <use xlink:href="#DejaVuSans-30"/>
       <use xlink:href="#DejaVuSans-2e" transform="translate(63.623047 0)"/>
       <use xlink:href="#DejaVuSans-37" transform="translate(95.410156 0)"/>
       <use xlink:href="#DejaVuSans-35" transform="translate(159.033203 0)"/>
      </g>
     </g>
    </g>
    <g id="text_29">
     <!-- delta emit(s) [m] -->
     <g transform="translate(634.85375 196.876406) rotate(-90) scale(0.1 -0.1)">
      <use xlink:href="#DejaVuSans-64"/>
      <use xlink:href="#DejaVuSans-65" transform="translate(63.476562 0)"/>
      <use xlink:href="#DejaVuSans-6c" transform="translate(125 0)"/>
      <use xlink:href="#DejaVuSans-74" transform="translate(152.783203 0)"/>
      <use xlink:href="#DejaVuSans-61" transform="translate(191.992188 0)"/>
      <use xlink:href="#DejaVuSans-20" transform="translate(253.271484 0)"/>
      <use xlink:href="#DejaVuSans-65" transform="translate(285.058594 0)"/>
      <use xlink:href="#DejaVuSans-6d" transform="translate(346.582031 0)"/>
      <use xlink:href="#DejaVuSans-69" transform="translate(443.994141 0)"/>
      <use xlink:href="#DejaVuSans-74" transform="translate(471.777344 0)"/>
      <use xlink:href="#DejaVuSans-28" transform="translate(510.986328 0)"/>
      <use xlink:href="#DejaVuSans-73" transform="translate(550 0)"/>
      <use xlink:href="#DejaVuSans-29" transform="translate(602.099609 0)"/>
      <use xlink:href="#DejaVuSans-20" transform="translate(641.113281 0)"/>
      <use xlink:href="#DejaVuSans-5b" transform="translate(672.900391 0)"/>
      <use xlink:href="#DejaVuSans-6d" transform="translate(711.914062 0)"/>
      <use xlink:href="#DejaVuSans-5d" transform="translate(809.326172 0)"/>
     </g>
    </g>
    <g id="text_30">
     <!-- 1e−11 -->
     <g transform="translate(551.989688 23.88) scale(0.1 -0.1)">
      <use xlink:href="#DejaVuSans-31"/>
      <use xlink:href="#DejaVuSans-65" transform="translate(63.623047 0)"/>
      <use xlink:href="#DejaVuSans-2212" transform="translate(125.146484 0)"/>
      <use xlink:href="#DejaVuSans-31" transform="translate(208.935547 0)"/>
      <use xlink:href="#DejaVuSans-31" transform="translate(272.558594 0)"/>
     </g>
    </g>
   </g>
   <g id="line2d_43">
    <path d="M 96.224091 137.744677 
L 135.841045 137.265756 
L 143.764436 137.158406 
L 145.395723 137.381024 
L 148.425255 137.11113 
L 166.136364 136.974883 
L 167.068527 137.218982 
L 170.797182 137.03013 
L 189.906536 138.342788 
L 190.139577 71.190338 
L 190.372618 197.580633 
L 190.605659 137.627284 
L 193.169109 138.615902 
L 195.499518 138.588144 
L 212.511505 138.488846 
L 212.744545 138.338953 
L 213.210627 138.327443 
L 213.676709 138.181129 
L 213.90975 147.166645 
L 214.142791 120.962859 
L 214.375832 138.283092 
L 216.4732 138.565478 
L 217.405364 138.504966 
L 235.815595 138.114607 
L 236.048636 137.991406 
L 236.747759 137.991077 
L 236.9808 205.977426 
L 237.213841 137.944445 
L 239.777291 137.781059 
L 240.476414 137.792013 
L 259.585768 137.238308 
L 259.818809 270.441818 
L 260.05185 137.252275 
L 261.916177 137.310266 
L 262.848341 137.285782 
L 263.081382 137.130651 
L 263.547464 137.219271 
L 282.656818 137.35758 
L 282.889859 137.184552 
L 290.114127 136.982821 
L 306.19395 136.54798 
L 307.825236 137.082645 
L 308.291318 137.048796 
L 308.990441 136.67206 
L 309.689564 136.357776 
L 311.32085 136.312791 
L 329.265 136.037049 
L 330.430205 136.371264 
L 331.595409 136.918527 
L 332.061491 136.872037 
L 333.459736 136.162815 
L 352.569091 136.194264 
L 353.268214 136.792029 
L 353.734295 136.867551 
L 354.433418 136.55581 
L 355.365582 136.151501 
L 356.064705 136.043093 
L 356.530786 135.997682 
L 376.572305 135.864191 
L 377.504468 136.00769 
L 378.902714 136.300652 
L 380.534 135.93161 
L 399.410314 135.771431 
L 400.342477 136.214534 
L 400.575518 145.608467 
L 400.808559 135.983374 
L 401.507682 135.399961 
L 402.439845 134.690211 
L 402.905927 134.513597 
L 412.460605 134.990573 
L 422.248323 135.470203 
L 423.413527 136.293699 
L 424.11265 136.795649 
L 424.578732 136.920958 
L 425.510895 136.82854 
L 427.375223 136.607594 
L 445.552414 136.008383 
L 446.251536 135.550968 
L 447.1837 135.675164 
L 447.416741 38.478182 
L 447.649782 135.760857 
L 448.348905 136.02789 
L 449.281068 136.544136 
L 449.514109 136.274966 
L 450.679314 136.327059 
L 469.089545 136.550236 
L 469.322586 136.674345 
L 469.555627 137.03605 
L 470.021709 136.841991 
L 470.487791 136.626807 
L 471.419955 136.526325 
L 489.364105 136.049252 
L 492.393636 135.935482 
L 492.626677 135.699383 
L 493.092759 135.756193 
L 494.724045 136.353254 
L 495.190127 136.177098 
L 496.122291 135.780393 
L 498.918782 135.710439 
L 515.930768 135.22073 
L 516.163809 173.202129 
L 516.39685 135.248751 
L 517.095973 135.521341 
L 518.261177 136.278832 
L 518.727259 136.276028 
L 519.892464 135.767231 
L 531.77755 135.632628 
L 539.234859 135.496238 
L 539.933982 136.152846 
L 540.167023 95.765651 
L 540.400064 91.83345 
L 540.633105 135.401295 
L 541.798309 134.421695 
L 543.196555 133.949688 
L 549.022577 133.70971 
L 562.305909 133.173082 
L 562.305909 133.173082 
" clip-path="url(#p4c69215145)" style="fill: none; stroke-dasharray: 3.7,1.6; stroke-dashoffset: 0; stroke: #808080"/>
   </g>
   <g id="patch_8">
    <path d="M 72.92 282.04 
L 72.92 26.88 
" style="fill: none; stroke: #000000; stroke-width: 0.8; stroke-linejoin: miter; stroke-linecap: square"/>
   </g>
   <g id="patch_9">
    <path d="M 585.61 282.04 
L 585.61 26.88 
" style="fill: none; stroke: #000000; stroke-width: 0.8; stroke-linejoin: miter; stroke-linecap: square"/>
   </g>
   <g id="patch_10">
    <path d="M 72.92 282.04 
L 585.61 282.04 
" style="fill: none; stroke: #000000; stroke-width: 0.8; stroke-linejoin: miter; stroke-linecap: square"/>
   </g>
   <g id="patch_11">
    <path d="M 72.92 26.88 
L 585.61 26.88 
" style="fill: none; stroke: #000000; stroke-width: 0.8; stroke-linejoin: miter; stroke-linecap: square"/>
   </g>
   <g id="legend_2">
    <g id="patch_12">
     <path d="M 496.261563 277.04 
L 578.61 277.04 
Q 580.61 277.04 580.61 275.04 
L 580.61 261.361875 
Q 580.61 259.361875 578.61 259.361875 
L 496.261563 259.361875 
Q 494.261563 259.361875 494.261563 261.361875 
L 494.261563 275.04 
Q 494.261563 277.04 496.261563 277.04 
z
" style="fill: #ffffff; opacity: 0.8; stroke: #cccccc; stroke-linejoin: miter"/>
    </g>
    <g id="line2d_44">
     <path d="M 498.261563 267.460312 
L 508.261563 267.460312 
L 518.261563 267.460312 
" style="fill: none; stroke-dasharray: 3.7,1.6; stroke-dashoffset: 0; stroke: #808080"/>
    </g>
    <g id="text_31">
     <!-- difference -->
     <g transform="translate(526.261563 270.960312) scale(0.1 -0.1)">
      <use xlink:href="#DejaVuSans-64"/>
      <use xlink:href="#DejaVuSans-69" transform="translate(63.476562 0)"/>
      <use xlink:href="#DejaVuSans-66" transform="translate(91.259766 0)"/>
      <use xlink:href="#DejaVuSans-66" transform="translate(126.464844 0)"/>
      <use xlink:href="#DejaVuSans-65" transform="translate(161.669922 0)"/>
      <use xlink:href="#DejaVuSans-72" transform="translate(223.193359 0)"/>
      <use xlink:href="#DejaVuSans-65" transform="translate(262.056641 0)"/>
      <use xlink:href="#DejaVuSans-6e" transform="translate(323.580078 0)"/>
      <use xlink:href="#DejaVuSans-63" transform="translate(386.958984 0)"/>
      <use xlink:href="#DejaVuSans-65" transform="translate(441.939453 0)"/>
     </g>
    </g>
   </g>
  </g>
 </g>
 <defs>
  <clipPath id="p4c69215145">
   <rect x="72.92" y="26.88" width="512.69" height="255.16"/>
  </clipPath>
 </defs>
</svg>
