<?xml version="1.0" encoding="utf-8" standalone="no"?>
<!DOCTYPE svg PUBLIC "-//W3C//DTD SVG 1.1//EN"
  "http://www.w3.org/Graphics/SVG/1.1/DTD/svg11.dtd">
<svg xmlns:xlink="http://www.w3.org/1999/xlink" width="648pt" height="324pt" viewBox="0 0 648 324" xmlns="http://www.w3.org/2000/svg" version="1.1">
 <metadata>
  <rdf:RDF xmlns:dc="http://purl.org/dc/elements/1.1/" xmlns:cc="http://creativecommons.org/ns#" xmlns:rdf="http://www.w3.org/1999/02/22-rdf-syntax-ns#">
   <cc:Work>
    <dc:type rdf:resource="http://purl.org/dc/dcmitype/StillImage"/>
    <dc:date>2026-04-28T15:31:55.890782</dc:date>
    <dc:format>image/svg+xml</dc:format>
    <dc:creator>
     <cc:Agent>
      <dc:title>Matplotlib v3.10.8, https://matplotlib.org/</dc:title>
     </cc:Agent>
    </dc:creator>
   </cc:Work>
  </rdf:RDF>
 </metadata>
 <defs>
  <style type="text/css">*{stroke-linejoin: round; stroke-linecap: butt}</style>
 </defs>
 <g id="figure_1">
  <g id="patch_1">
   <path d="M 0 324 
L 648 324 
L 648 0 
L 0 0 
z
" style="fill: #ffffff"/>
  </g>
  <g id="axes_1">
   <g id="patch_2">
    <path d="M 79.22 282.04 
L 601.36 282.04 
L 601.36 26.88 
L 79.22 26.88 
z
" style="fill: #ffffff"/>
   </g>
   <g id="matplotlib.axis_1">
    <g id="xtick_1">
     <g id="line2d_1">
      <path d="M 102.7163 282.04 
L 102.7163 26.88 
" clip-path="url(#p8f3ca9edc1)" style="fill: none; stroke: #b0b0b0; stroke-width: 0.8; stroke-linecap: square"/>
     </g>
     <g id="line2d_2">
      <defs>
       <path id="m032e83b363" d="M 0 0 
L 0 3.5 
" style="stroke: #000000; stroke-width: 0.8"/>
      </defs>
      <g>
       <use xlink:href="#m032e83b363" x="102.7163" y="282.04" style="stroke: #000000; stroke-width: 0.8"/>
      </g>
     </g>
     <g id="text_1">
      <!-- 0 -->
      <g transform="translate(99.53505 296.638438) scale(0.1 -0.1)">
       <defs>
        <path id="DejaVuSans-30" d="M 2034 4250 
Q 1547 4250 1301 3770 
Q 1056 3291 1056 2328 
Q 1056 1369 1301 889 
Q 1547 409 2034 409 
Q 2525 409 2770 889 
Q 3016 1369 3016 2328 
Q 3016 3291 2770 3770 
Q 2525 4250 2034 4250 
z
M 2034 4750 
Q 2819 4750 3233 4129 
Q 3647 3509 3647 2328 
Q 3647 1150 3233 529 
Q 2819 -91 2034 -91 
Q 1250 -91 836 529 
Q 422 1150 422 2328 
Q 422 3509 836 4129 
Q 1250 4750 2034 4750 
z
" transform="scale(0.015625)"/>
       </defs>
       <use xlink:href="#DejaVuSans-30"/>
      </g>
     </g>
    </g>
    <g id="xtick_2">
     <g id="line2d_3">
      <path d="M 181.8832 282.04 
L 181.8832 26.88 
" clip-path="url(#p8f3ca9edc1)" style="fill: none; stroke: #b0b0b0; stroke-width: 0.8; stroke-linecap: square"/>
     </g>
     <g id="line2d_4">
      <g>
       <use xlink:href="#m032e83b363" x="181.8832" y="282.04" style="stroke: #000000; stroke-width: 0.8"/>
      </g>
     </g>
     <g id="text_2">
      <!-- 10 -->
      <g transform="translate(175.5207 296.638438) scale(0.1 -0.1)">
       <defs>
        <path id="DejaVuSans-31" d="M 794 531 
L 1825 531 
L 1825 4091 
L 703 3866 
L 703 4441 
L 1819 4666 
L 2450 4666 
L 2450 531 
L 3481 531 
L 3481 0 
L 794 0 
L 794 531 
z
" transform="scale(0.015625)"/>
       </defs>
       <use xlink:href="#DejaVuSans-31"/>
       <use xlink:href="#DejaVuSans-30" transform="translate(63.623047 0)"/>
      </g>
     </g>
    </g>
    <g id="xtick_3">
     <g id="line2d_5">
      <path d="M 261.050099 282.04 
L 261.050099 26.88 
" clip-path="url(#p8f3ca9edc1)" style="fill: none; stroke: #b0b0b0; stroke-width: 0.8; stroke-linecap: square"/>
     </g>
     <g id="line2d_6">
      <g>
       <use xlink:href="#m032e83b363" x="261.050099" y="282.04" style="stroke: #000000; stroke-width: 0.8"/>
      </g>
     </g>
     <g id="text_3">
      <!-- 20 -->
      <g transform="translate(254.687599 296.638438) scale(0.1 -0.1)">
       <defs>
        <path id="DejaVuSans-32" d="M 1228 531 
L 3431 531 
L 3431 0 
L 469 0 
L 469 531 
Q 828 903 1448 1529 
Q 2069 2156 2228 2338 
Q 2531 2678 2651 2914 
Q 2772 3150 2772 3378 
Q 2772 3750 2511 3984 
Q 2250 4219 1831 4219 
Q 1534 4219 1204 4116 
Q 875 4013 500 3803 
L 500 4441 
Q 881 4594 1212 4672 
Q 1544 4750 1819 4750 
Q 2544 4750 2975 4387 
Q 3406 4025 3406 3419 
Q 3406 3131 3298 2873 
Q 3191 2616 2906 2266 
Q 2828 2175 2409 1742 
Q 1991 1309 1228 531 
z
" transform="scale(0.015625)"/>
       </defs>
       <use xlink:href="#DejaVuSans-32"/>
       <use xlink:href="#DejaVuSans-30" transform="translate(63.623047 0)"/>
      </g>
     </g>
    </g>
    <g id="xtick_4">
     <g id="line2d_7">
      <path d="M 340.216999 282.04 
L 340.216999 26.88 
" clip-path="url(#p8f3ca9edc1)" style="fill: none; stroke: #b0b0b0; stroke-width: 0.8; stroke-linecap: square"/>
     </g>
     <g id="line2d_8">
      <g>
       <use xlink:href="#m032e83b363" x="340.216999" y="282.04" style="stroke: #000000; stroke-width: 0.8"/>
      </g>
     </g>
     <g id="text_4">
      <!-- 30 -->
      <g transform="translate(333.854499 296.638438) scale(0.1 -0.1)">
       <defs>
        <path id="DejaVuSans-33" d="M 2597 2516 
Q 3050 2419 3304 2112 
Q 3559 1806 3559 1356 
Q 3559 666 3084 287 
Q 2609 -91 1734 -91 
Q 1441 -91 1130 -33 
Q 819 25 488 141 
L 488 750 
Q 750 597 1062 519 
Q 1375 441 1716 441 
Q 2309 441 2620 675 
Q 2931 909 2931 1356 
Q 2931 1769 2642 2001 
Q 2353 2234 1838 2234 
L 1294 2234 
L 1294 2753 
L 1863 2753 
Q 2328 2753 2575 2939 
Q 2822 3125 2822 3475 
Q 2822 3834 2567 4026 
Q 2313 4219 1838 4219 
Q 1578 4219 1281 4162 
Q 984 4106 628 3988 
L 628 4550 
Q 988 4650 1302 4700 
Q 1616 4750 1894 4750 
Q 2613 4750 3031 4423 
Q 3450 4097 3450 3541 
Q 3450 3153 3228 2886 
Q 3006 2619 2597 2516 
z
" transform="scale(0.015625)"/>
       </defs>
       <use xlink:href="#DejaVuSans-33"/>
       <use xlink:href="#DejaVuSans-30" transform="translate(63.623047 0)"/>
      </g>
     </g>
    </g>
    <g id="xtick_5">
     <g id="line2d_9">
      <path d="M 419.383899 282.04 
L 419.383899 26.88 
" clip-path="url(#p8f3ca9edc1)" style="fill: none; stroke: #b0b0b0; stroke-width: 0.8; stroke-linecap: square"/>
     </g>
     <g id="line2d_10">
      <g>
       <use xlink:href="#m032e83b363" x="419.383899" y="282.04" style="stroke: #000000; stroke-width: 0.8"/>
      </g>
     </g>
     <g id="text_5">
      <!-- 40 -->
      <g transform="translate(413.021399 296.638438) scale(0.1 -0.1)">
       <defs>
        <path id="DejaVuSans-34" d="M 2419 4116 
L 825 1625 
L 2419 1625 
L 2419 4116 
z
M 2253 4666 
L 3047 4666 
L 3047 1625 
L 3713 1625 
L 3713 1100 
L 3047 1100 
L 3047 0 
L 2419 0 
L 2419 1100 
L 313 1100 
L 313 1709 
L 2253 4666 
z
" transform="scale(0.015625)"/>
       </defs>
       <use xlink:href="#DejaVuSans-34"/>
       <use xlink:href="#DejaVuSans-30" transform="translate(63.623047 0)"/>
      </g>
     </g>
    </g>
    <g id="xtick_6">
     <g id="line2d_11">
      <path d="M 498.550799 282.04 
L 498.550799 26.88 
" clip-path="url(#p8f3ca9edc1)" style="fill: none; stroke: #b0b0b0; stroke-width: 0.8; stroke-linecap: square"/>
     </g>
     <g id="line2d_12">
      <g>
       <use xlink:href="#m032e83b363" x="498.550799" y="282.04" style="stroke: #000000; stroke-width: 0.8"/>
      </g>
     </g>
     <g id="text_6">
      <!-- 50 -->
      <g transform="translate(492.188299 296.638438) scale(0.1 -0.1)">
       <defs>
        <path id="DejaVuSans-35" d="M 691 4666 
L 3169 4666 
L 3169 4134 
L 1269 4134 
L 1269 2991 
Q 1406 3038 1543 3061 
Q 1681 3084 1819 3084 
Q 2600 3084 3056 2656 
Q 3513 2228 3513 1497 
Q 3513 744 3044 326 
Q 2575 -91 1722 -91 
Q 1428 -91 1123 -41 
Q 819 9 494 109 
L 494 744 
Q 775 591 1075 516 
Q 1375 441 1709 441 
Q 2250 441 2565 725 
Q 2881 1009 2881 1497 
Q 2881 1984 2565 2268 
Q 2250 2553 1709 2553 
Q 1456 2553 1204 2497 
Q 953 2441 691 2322 
L 691 4666 
z
" transform="scale(0.015625)"/>
       </defs>
       <use xlink:href="#DejaVuSans-35"/>
       <use xlink:href="#DejaVuSans-30" transform="translate(63.623047 0)"/>
      </g>
     </g>
    </g>
    <g id="xtick_7">
     <g id="line2d_13">
      <path d="M 577.717698 282.04 
L 577.717698 26.88 
" clip-path="url(#p8f3ca9edc1)" style="fill: none; stroke: #b0b0b0; stroke-width: 0.8; stroke-linecap: square"/>
     </g>
     <g id="line2d_14">
      <g>
       <use xlink:href="#m032e83b363" x="577.717698" y="282.04" style="stroke: #000000; stroke-width: 0.8"/>
      </g>
     </g>
     <g id="text_7">
      <!-- 60 -->
      <g transform="translate(571.355198 296.638438) scale(0.1 -0.1)">
       <defs>
        <path id="DejaVuSans-36" d="M 2113 2584 
Q 1688 2584 1439 2293 
Q 1191 2003 1191 1497 
Q 1191 994 1439 701 
Q 1688 409 2113 409 
Q 2538 409 2786 701 
Q 3034 994 3034 1497 
Q 3034 2003 2786 2293 
Q 2538 2584 2113 2584 
z
M 3366 4563 
L 3366 3988 
Q 3128 4100 2886 4159 
Q 2644 4219 2406 4219 
Q 1781 4219 1451 3797 
Q 1122 3375 1075 2522 
Q 1259 2794 1537 2939 
Q 1816 3084 2150 3084 
Q 2853 3084 3261 2657 
Q 3669 2231 3669 1497 
Q 3669 778 3244 343 
Q 2819 -91 2113 -91 
Q 1303 -91 875 529 
Q 447 1150 447 2328 
Q 447 3434 972 4092 
Q 1497 4750 2381 4750 
Q 2619 4750 2861 4703 
Q 3103 4656 3366 4563 
z
" transform="scale(0.015625)"/>
       </defs>
       <use xlink:href="#DejaVuSans-36"/>
       <use xlink:href="#DejaVuSans-30" transform="translate(63.623047 0)"/>
      </g>
     </g>
    </g>
    <g id="text_8">
     <!-- s [m] -->
     <g transform="translate(327.324375 310.316563) scale(0.1 -0.1)">
      <defs>
       <path id="DejaVuSans-73" d="M 2834 3397 
L 2834 2853 
Q 2591 2978 2328 3040 
Q 2066 3103 1784 3103 
Q 1356 3103 1142 2972 
Q 928 2841 928 2578 
Q 928 2378 1081 2264 
Q 1234 2150 1697 2047 
L 1894 2003 
Q 2506 1872 2764 1633 
Q 3022 1394 3022 966 
Q 3022 478 2636 193 
Q 2250 -91 1575 -91 
Q 1294 -91 989 -36 
Q 684 19 347 128 
L 347 722 
Q 666 556 975 473 
Q 1284 391 1588 391 
Q 1994 391 2212 530 
Q 2431 669 2431 922 
Q 2431 1156 2273 1281 
Q 2116 1406 1581 1522 
L 1381 1569 
Q 847 1681 609 1914 
Q 372 2147 372 2553 
Q 372 3047 722 3315 
Q 1072 3584 1716 3584 
Q 2034 3584 2315 3537 
Q 2597 3491 2834 3397 
z
" transform="scale(0.015625)"/>
       <path id="DejaVuSans-20" transform="scale(0.015625)"/>
       <path id="DejaVuSans-5b" d="M 550 4863 
L 1875 4863 
L 1875 4416 
L 1125 4416 
L 1125 -397 
L 1875 -397 
L 1875 -844 
L 550 -844 
L 550 4863 
z
" transform="scale(0.015625)"/>
       <path id="DejaVuSans-6d" d="M 3328 2828 
Q 3544 3216 3844 3400 
Q 4144 3584 4550 3584 
Q 5097 3584 5394 3201 
Q 5691 2819 5691 2113 
L 5691 0 
L 5113 0 
L 5113 2094 
Q 5113 2597 4934 2840 
Q 4756 3084 4391 3084 
Q 3944 3084 3684 2787 
Q 3425 2491 3425 1978 
L 3425 0 
L 2847 0 
L 2847 2094 
Q 2847 2600 2669 2842 
Q 2491 3084 2119 3084 
Q 1678 3084 1418 2786 
Q 1159 2488 1159 1978 
L 1159 0 
L 581 0 
L 581 3500 
L 1159 3500 
L 1159 2956 
Q 1356 3278 1631 3431 
Q 1906 3584 2284 3584 
Q 2666 3584 2933 3390 
Q 3200 3197 3328 2828 
z
" transform="scale(0.015625)"/>
       <path id="DejaVuSans-5d" d="M 1947 4863 
L 1947 -844 
L 622 -844 
L 622 -397 
L 1369 -397 
L 1369 4416 
L 622 4416 
L 622 4863 
L 1947 4863 
z
" transform="scale(0.015625)"/>
      </defs>
      <use xlink:href="#DejaVuSans-73"/>
      <use xlink:href="#DejaVuSans-20" transform="translate(52.099609 0)"/>
      <use xlink:href="#DejaVuSans-5b" transform="translate(83.886719 0)"/>
      <use xlink:href="#DejaVuSans-6d" transform="translate(122.900391 0)"/>
      <use xlink:href="#DejaVuSans-5d" transform="translate(220.3125 0)"/>
     </g>
    </g>
   </g>
   <g id="matplotlib.axis_2">
    <g id="ytick_1">
     <g id="line2d_15">
      <path d="M 79.22 272.93322 
L 601.36 272.93322 
" clip-path="url(#p8f3ca9edc1)" style="fill: none; stroke: #b0b0b0; stroke-width: 0.8; stroke-linecap: square"/>
     </g>
     <g id="line2d_16">
      <defs>
       <path id="m1c90584612" d="M 0 0 
L -3.5 0 
" style="stroke: #000000; stroke-width: 0.8"/>
      </defs>
      <g>
       <use xlink:href="#m1c90584612" x="79.22" y="272.93322" style="stroke: #000000; stroke-width: 0.8"/>
      </g>
     </g>
     <g id="text_9">
      <!-- 0.000000 -->
      <g transform="translate(24.504375 276.732439) scale(0.1 -0.1)">
       <defs>
        <path id="DejaVuSans-2e" d="M 684 794 
L 1344 794 
L 1344 0 
L 684 0 
L 684 794 
z
" transform="scale(0.015625)"/>
       </defs>
       <use xlink:href="#DejaVuSans-30"/>
       <use xlink:href="#DejaVuSans-2e" transform="translate(63.623047 0)"/>
       <use xlink:href="#DejaVuSans-30" transform="translate(95.410156 0)"/>
       <use xlink:href="#DejaVuSans-30" transform="translate(159.033203 0)"/>
       <use xlink:href="#DejaVuSans-30" transform="translate(222.65625 0)"/>
       <use xlink:href="#DejaVuSans-30" transform="translate(286.279297 0)"/>
       <use xlink:href="#DejaVuSans-30" transform="translate(349.902344 0)"/>
       <use xlink:href="#DejaVuSans-30" transform="translate(413.525391 0)"/>
      </g>
     </g>
    </g>
    <g id="ytick_2">
     <g id="line2d_17">
      <path d="M 79.22 240.605136 
L 601.36 240.605136 
" clip-path="url(#p8f3ca9edc1)" style="fill: none; stroke: #b0b0b0; stroke-width: 0.8; stroke-linecap: square"/>
     </g>
     <g id="line2d_18">
      <g>
       <use xlink:href="#m1c90584612" x="79.22" y="240.605136" style="stroke: #000000; stroke-width: 0.8"/>
      </g>
     </g>
     <g id="text_10">
      <!-- 0.000025 -->
      <g transform="translate(24.504375 244.404355) scale(0.1 -0.1)">
       <use xlink:href="#DejaVuSans-30"/>
       <use xlink:href="#DejaVuSans-2e" transform="translate(63.623047 0)"/>
       <use xlink:href="#DejaVuSans-30" transform="translate(95.410156 0)"/>
       <use xlink:href="#DejaVuSans-30" transform="translate(159.033203 0)"/>
       <use xlink:href="#DejaVuSans-30" transform="translate(222.65625 0)"/>
       <use xlink:href="#DejaVuSans-30" transform="translate(286.279297 0)"/>
       <use xlink:href="#DejaVuSans-32" transform="translate(349.902344 0)"/>
       <use xlink:href="#DejaVuSans-35" transform="translate(413.525391 0)"/>
      </g>
     </g>
    </g>
    <g id="ytick_3">
     <g id="line2d_19">
      <path d="M 79.22 208.277052 
L 601.36 208.277052 
" clip-path="url(#p8f3ca9edc1)" style="fill: none; stroke: #b0b0b0; stroke-width: 0.8; stroke-linecap: square"/>
     </g>
     <g id="line2d_20">
      <g>
       <use xlink:href="#m1c90584612" x="79.22" y="208.277052" style="stroke: #000000; stroke-width: 0.8"/>
      </g>
     </g>
     <g id="text_11">
      <!-- 0.000050 -->
      <g transform="translate(24.504375 212.076271) scale(0.1 -0.1)">
       <use xlink:href="#DejaVuSans-30"/>
       <use xlink:href="#DejaVuSans-2e" transform="translate(63.623047 0)"/>
       <use xlink:href="#DejaVuSans-30" transform="translate(95.410156 0)"/>
       <use xlink:href="#DejaVuSans-30" transform="translate(159.033203 0)"/>
       <use xlink:href="#DejaVuSans-30" transform="translate(222.65625 0)"/>
       <use xlink:href="#DejaVuSans-30" transform="translate(286.279297 0)"/>
       <use xlink:href="#DejaVuSans-35" transform="translate(349.902344 0)"/>
       <use xlink:href="#DejaVuSans-30" transform="translate(413.525391 0)"/>
      </g>
     </g>
    </g>
    <g id="ytick_4">
     <g id="line2d_21">
      <path d="M 79.22 175.948968 
L 601.36 175.948968 
" clip-path="url(#p8f3ca9edc1)" style="fill: none; stroke: #b0b0b0; stroke-width: 0.8; stroke-linecap: square"/>
     </g>
     <g id="line2d_22">
      <g>
       <use xlink:href="#m1c90584612" x="79.22" y="175.948968" style="stroke: #000000; stroke-width: 0.8"/>
      </g>
     </g>
     <g id="text_12">
      <!-- 0.000075 -->
      <g transform="translate(24.504375 179.748187) scale(0.1 -0.1)">
       <defs>
        <path id="DejaVuSans-37" d="M 525 4666 
L 3525 4666 
L 3525 4397 
L 1831 0 
L 1172 0 
L 2766 4134 
L 525 4134 
L 525 4666 
z
" transform="scale(0.015625)"/>
       </defs>
       <use xlink:href="#DejaVuSans-30"/>
       <use xlink:href="#DejaVuSans-2e" transform="translate(63.623047 0)"/>
       <use xlink:href="#DejaVuSans-30" transform="translate(95.410156 0)"/>
       <use xlink:href="#DejaVuSans-30" transform="translate(159.033203 0)"/>
       <use xlink:href="#DejaVuSans-30" transform="translate(222.65625 0)"/>
       <use xlink:href="#DejaVuSans-30" transform="translate(286.279297 0)"/>
       <use xlink:href="#DejaVuSans-37" transform="translate(349.902344 0)"/>
       <use xlink:href="#DejaVuSans-35" transform="translate(413.525391 0)"/>
      </g>
     </g>
    </g>
    <g id="ytick_5">
     <g id="line2d_23">
      <path d="M 79.22 143.620884 
L 601.36 143.620884 
" clip-path="url(#p8f3ca9edc1)" style="fill: none; stroke: #b0b0b0; stroke-width: 0.8; stroke-linecap: square"/>
     </g>
     <g id="line2d_24">
      <g>
       <use xlink:href="#m1c90584612" x="79.22" y="143.620884" style="stroke: #000000; stroke-width: 0.8"/>
      </g>
     </g>
     <g id="text_13">
      <!-- 0.000100 -->
      <g transform="translate(24.504375 147.420103) scale(0.1 -0.1)">
       <use xlink:href="#DejaVuSans-30"/>
       <use xlink:href="#DejaVuSans-2e" transform="translate(63.623047 0)"/>
       <use xlink:href="#DejaVuSans-30" transform="translate(95.410156 0)"/>
       <use xlink:href="#DejaVuSans-30" transform="translate(159.033203 0)"/>
       <use xlink:href="#DejaVuSans-30" transform="translate(222.65625 0)"/>
       <use xlink:href="#DejaVuSans-31" transform="translate(286.279297 0)"/>
       <use xlink:href="#DejaVuSans-30" transform="translate(349.902344 0)"/>
       <use xlink:href="#DejaVuSans-30" transform="translate(413.525391 0)"/>
      </g>
     </g>
    </g>
    <g id="ytick_6">
     <g id="line2d_25">
      <path d="M 79.22 111.2928 
L 601.36 111.2928 
" clip-path="url(#p8f3ca9edc1)" style="fill: none; stroke: #b0b0b0; stroke-width: 0.8; stroke-linecap: square"/>
     </g>
     <g id="line2d_26">
      <g>
       <use xlink:href="#m1c90584612" x="79.22" y="111.2928" style="stroke: #000000; stroke-width: 0.8"/>
      </g>
     </g>
     <g id="text_14">
      <!-- 0.000125 -->
      <g transform="translate(24.504375 115.092019) scale(0.1 -0.1)">
       <use xlink:href="#DejaVuSans-30"/>
       <use xlink:href="#DejaVuSans-2e" transform="translate(63.623047 0)"/>
       <use xlink:href="#DejaVuSans-30" transform="translate(95.410156 0)"/>
       <use xlink:href="#DejaVuSans-30" transform="translate(159.033203 0)"/>
       <use xlink:href="#DejaVuSans-30" transform="translate(222.65625 0)"/>
       <use xlink:href="#DejaVuSans-31" transform="translate(286.279297 0)"/>
       <use xlink:href="#DejaVuSans-32" transform="translate(349.902344 0)"/>
       <use xlink:href="#DejaVuSans-35" transform="translate(413.525391 0)"/>
      </g>
     </g>
    </g>
    <g id="ytick_7">
     <g id="line2d_27">
      <path d="M 79.22 78.964716 
L 601.36 78.964716 
" clip-path="url(#p8f3ca9edc1)" style="fill: none; stroke: #b0b0b0; stroke-width: 0.8; stroke-linecap: square"/>
     </g>
     <g id="line2d_28">
      <g>
       <use xlink:href="#m1c90584612" x="79.22" y="78.964716" style="stroke: #000000; stroke-width: 0.8"/>
      </g>
     </g>
     <g id="text_15">
      <!-- 0.000150 -->
      <g transform="translate(24.504375 82.763934) scale(0.1 -0.1)">
       <use xlink:href="#DejaVuSans-30"/>
       <use xlink:href="#DejaVuSans-2e" transform="translate(63.623047 0)"/>
       <use xlink:href="#DejaVuSans-30" transform="translate(95.410156 0)"/>
       <use xlink:href="#DejaVuSans-30" transform="translate(159.033203 0)"/>
       <use xlink:href="#DejaVuSans-30" transform="translate(222.65625 0)"/>
       <use xlink:href="#DejaVuSans-31" transform="translate(286.279297 0)"/>
       <use xlink:href="#DejaVuSans-35" transform="translate(349.902344 0)"/>
       <use xlink:href="#DejaVuSans-30" transform="translate(413.525391 0)"/>
      </g>
     </g>
    </g>
    <g id="ytick_8">
     <g id="line2d_29">
      <path d="M 79.22 46.636632 
L 601.36 46.636632 
" clip-path="url(#p8f3ca9edc1)" style="fill: none; stroke: #b0b0b0; stroke-width: 0.8; stroke-linecap: square"/>
     </g>
     <g id="line2d_30">
      <g>
       <use xlink:href="#m1c90584612" x="79.22" y="46.636632" style="stroke: #000000; stroke-width: 0.8"/>
      </g>
     </g>
     <g id="text_16">
      <!-- 0.000175 -->
      <g transform="translate(24.504375 50.43585) scale(0.1 -0.1)">
       <use xlink:href="#DejaVuSans-30"/>
       <use xlink:href="#DejaVuSans-2e" transform="translate(63.623047 0)"/>
       <use xlink:href="#DejaVuSans-30" transform="translate(95.410156 0)"/>
       <use xlink:href="#DejaVuSans-30" transform="translate(159.033203 0)"/>
       <use xlink:href="#DejaVuSans-30" transform="translate(222.65625 0)"/>
       <use xlink:href="#DejaVuSans-31" transform="translate(286.279297 0)"/>
       <use xlink:href="#DejaVuSans-37" transform="translate(349.902344 0)"/>
       <use xlink:href="#DejaVuSans-35" transform="translate(413.525391 0)"/>
      </g>
     </g>
    </g>
    <g id="text_17">
     <!-- emit(s) [m] -->
     <g transform="translate(18.424688 182.623281) rotate(-90) scale(0.1 -0.1)">
      <defs>
       <path id="DejaVuSans-65" d="M 3597 1894 
L 3597 1613 
L 953 1613 
Q 991 1019 1311 708 
Q 1631 397 2203 397 
Q 2534 397 2845 478 
Q 3156 559 3463 722 
L 3463 178 
Q 3153 47 2828 -22 
Q 2503 -91 2169 -91 
Q 1331 -91 842 396 
Q 353 884 353 1716 
Q 353 2575 817 3079 
Q 1281 3584 2069 3584 
Q 2775 3584 3186 3129 
Q 3597 2675 3597 1894 
z
M 3022 2063 
Q 3016 2534 2758 2815 
Q 2500 3097 2075 3097 
Q 1594 3097 1305 2825 
Q 1016 2553 972 2059 
L 3022 2063 
z
" transform="scale(0.015625)"/>
       <path id="DejaVuSans-69" d="M 603 3500 
L 1178 3500 
L 1178 0 
L 603 0 
L 603 3500 
z
M 603 4863 
L 1178 4863 
L 1178 4134 
L 603 4134 
L 603 4863 
z
" transform="scale(0.015625)"/>
       <path id="DejaVuSans-74" d="M 1172 4494 
L 1172 3500 
L 2356 3500 
L 2356 3053 
L 1172 3053 
L 1172 1153 
Q 1172 725 1289 603 
Q 1406 481 1766 481 
L 2356 481 
L 2356 0 
L 1766 0 
Q 1100 0 847 248 
Q 594 497 594 1153 
L 594 3053 
L 172 3053 
L 172 3500 
L 594 3500 
L 594 4494 
L 1172 4494 
z
" transform="scale(0.015625)"/>
       <path id="DejaVuSans-28" d="M 1984 4856 
Q 1566 4138 1362 3434 
Q 1159 2731 1159 2009 
Q 1159 1288 1364 580 
Q 1569 -128 1984 -844 
L 1484 -844 
Q 1016 -109 783 600 
Q 550 1309 550 2009 
Q 550 2706 781 3412 
Q 1013 4119 1484 4856 
L 1984 4856 
z
" transform="scale(0.015625)"/>
       <path id="DejaVuSans-29" d="M 513 4856 
L 1013 4856 
Q 1481 4119 1714 3412 
Q 1947 2706 1947 2009 
Q 1947 1309 1714 600 
Q 1481 -109 1013 -844 
L 513 -844 
Q 928 -128 1133 580 
Q 1338 1288 1338 2009 
Q 1338 2731 1133 3434 
Q 928 4138 513 4856 
z
" transform="scale(0.015625)"/>
      </defs>
      <use xlink:href="#DejaVuSans-65"/>
      <use xlink:href="#DejaVuSans-6d" transform="translate(61.523438 0)"/>
      <use xlink:href="#DejaVuSans-69" transform="translate(158.935547 0)"/>
      <use xlink:href="#DejaVuSans-74" transform="translate(186.71875 0)"/>
      <use xlink:href="#DejaVuSans-28" transform="translate(225.927734 0)"/>
      <use xlink:href="#DejaVuSans-73" transform="translate(264.941406 0)"/>
      <use xlink:href="#DejaVuSans-29" transform="translate(317.041016 0)"/>
      <use xlink:href="#DejaVuSans-20" transform="translate(356.054688 0)"/>
      <use xlink:href="#DejaVuSans-5b" transform="translate(387.841797 0)"/>
      <use xlink:href="#DejaVuSans-6d" transform="translate(426.855469 0)"/>
      <use xlink:href="#DejaVuSans-5d" transform="translate(524.267578 0)"/>
     </g>
    </g>
   </g>
   <g id="line2d_31">
    <path d="M 102.953636 270.441818 
L 103.428309 263.035888 
L 103.902982 250.725134 
L 104.614991 222.993349 
L 105.327 184.11945 
L 106.039009 134.070301 
L 106.751018 78.232933 
L 113.871109 78.236696 
L 126.2126 78.236696 
L 126.449936 79.629886 
L 127.161945 130.223452 
L 127.636618 148.172008 
L 128.111291 157.198454 
L 128.8233 164.393207 
L 129.297973 168.197911 
L 129.535309 169.252805 
L 129.772645 168.891059 
L 130.009982 166.221407 
L 130.484655 152.960994 
L 132.383345 152.945793 
L 149.946236 152.945793 
L 150.183573 153.712762 
L 150.895582 187.66364 
L 151.607591 211.278097 
L 152.556936 232.840886 
L 153.268945 244.920005 
L 153.506282 246.540693 
L 153.743618 245.402803 
L 154.218291 235.159485 
L 155.642309 235.139852 
L 173.679873 235.139852 
L 173.917209 235.277798 
L 174.154545 242.071999 
L 174.391882 245.560859 
L 174.629218 243.766955 
L 175.103891 232.185229 
L 175.8159 207.92899 
L 176.290573 185.747118 
L 176.765245 155.784032 
L 177.477255 93.204536 
L 177.951927 41.503635 
L 180.087955 41.491095 
L 197.413509 41.491095 
L 197.650845 41.796328 
L 199.074864 177.2753 
L 199.549536 202.741513 
L 200.261545 227.283769 
L 200.736218 239.260539 
L 200.973555 243.329052 
L 201.210891 243.828745 
L 201.448227 238.774268 
L 201.685564 228.809701 
L 202.634909 228.780328 
L 221.384482 228.813823 
L 221.859155 241.762298 
L 222.096491 245.017948 
L 222.333827 245.223283 
L 222.571164 243.288652 
L 223.283173 232.789014 
L 223.995182 218.888423 
L 224.469855 205.242505 
L 224.944527 185.804442 
L 225.4192 160.068295 
L 225.656536 159.250386 
L 245.118118 159.250994 
L 245.830127 180.315678 
L 246.067464 182.026796 
L 246.3048 181.565226 
L 246.779473 177.931947 
L 247.491482 170.39091 
L 247.728818 166.149784 
L 248.203491 150.594297 
L 248.678164 120.961655 
L 249.152836 75.711806 
L 249.390173 74.24928 
L 268.851755 74.24928 
L 269.089091 85.785855 
L 270.038436 163.928112 
L 270.750445 208.092828 
L 271.462455 240.12861 
L 271.937127 254.867909 
L 272.4118 264.549039 
L 272.886473 269.864823 
L 273.123809 270.289461 
L 292.585391 270.289461 
L 292.822727 269.397756 
L 293.2974 263.394377 
L 293.772073 253.135853 
L 294.246745 237.902089 
L 294.958755 205.299709 
L 295.670764 160.858267 
L 296.857445 79.709616 
L 316.319027 79.709616 
L 316.556364 86.816657 
L 317.031036 123.046904 
L 317.505709 145.284082 
L 317.980382 156.884913 
L 318.455055 162.939709 
L 319.167064 169.290271 
L 319.4044 170.698633 
L 319.641736 170.974316 
L 319.879073 169.269339 
L 320.116409 164.631705 
L 320.353745 156.282171 
L 320.591082 155.002464 
L 340.052664 155.002464 
L 340.29 157.89482 
L 341.002009 191.814523 
L 341.714018 214.141317 
L 342.426027 229.61264 
L 343.138036 241.265889 
L 343.375373 243.229226 
L 343.612709 242.962543 
L 343.850045 239.724233 
L 344.087382 233.445283 
L 344.324718 231.094487 
L 363.7863 231.094487 
L 364.023636 232.804275 
L 364.260973 240.077242 
L 364.498309 241.827129 
L 364.735645 239.010275 
L 365.210318 227.085187 
L 365.922327 202.631103 
L 366.397 179.578133 
L 366.871673 147.995881 
L 367.583682 81.75151 
L 367.821018 54.539243 
L 368.058355 42.663498 
L 387.519936 42.663498 
L 387.757273 45.249807 
L 388.469282 126.464154 
L 389.181291 182.286355 
L 389.655964 206.546627 
L 390.367973 230.357902 
L 390.842645 241.876831 
L 391.079982 244.893451 
L 391.317318 243.349412 
L 391.791991 230.172754 
L 411.253573 230.172754 
L 411.490909 230.498912 
L 411.965582 243.879469 
L 412.202918 245.840395 
L 412.440255 245.052698 
L 412.914927 239.073165 
L 413.626936 226.214084 
L 414.101609 214.579761 
L 414.576282 198.299534 
L 415.050955 175.792148 
L 415.525627 152.603004 
L 434.987209 152.603004 
L 435.224545 153.070479 
L 435.699218 173.140692 
L 435.936555 176.953841 
L 436.173891 177.952951 
L 436.411227 177.268661 
L 437.123236 172.221351 
L 437.597909 167.139083 
L 437.835245 162.634005 
L 438.072582 155.693759 
L 438.547255 131.419347 
L 439.259264 70.925068 
L 444.955336 70.929718 
L 458.720845 70.929718 
L 458.958182 72.023497 
L 460.144864 168.138179 
L 460.856873 210.075308 
L 461.568882 240.14453 
L 462.043555 253.902644 
L 462.518227 263.226971 
L 462.9929 268.937344 
L 482.691818 268.927083 
L 483.166491 263.477161 
L 483.641164 254.105014 
L 484.115836 240.053691 
L 484.827845 209.415977 
L 485.539855 167.05205 
L 486.251864 112.878365 
L 486.726536 73.837761 
L 487.675882 73.808982 
L 506.188118 73.808982 
L 506.425455 74.50278 
L 507.137464 126.164559 
L 507.612136 145.168683 
L 508.086809 154.701385 
L 508.561482 159.78531 
L 509.273491 165.14991 
L 509.510827 165.916972 
L 509.748164 165.248001 
L 509.9855 162.276526 
L 510.460173 147.386625 
L 530.159091 147.507258 
L 531.108436 192.81724 
L 531.820445 215.20042 
L 532.532455 231.051306 
L 533.007127 239.233767 
L 533.244464 242.005872 
L 533.4818 243.004844 
L 533.719136 241.394954 
L 534.193809 230.557335 
L 534.905818 230.516255 
L 553.892727 230.567909 
L 554.3674 241.426688 
L 554.604736 240.694757 
L 555.079409 230.245504 
L 555.791418 206.551242 
L 556.266091 184.717679 
L 556.740764 154.994171 
L 557.452773 92.209899 
L 557.927445 39.164155 
L 558.164782 38.478182 
L 577.626364 38.478182 
L 577.626364 38.478182 
" clip-path="url(#p8f3ca9edc1)" style="fill: none; stroke: #1f77b4; stroke-width: 2; stroke-linecap: square"/>
   </g>
   <g id="line2d_32">
    <path d="M 102.953636 270.441818 
L 103.428309 263.035888 
L 103.902982 250.725134 
L 104.614991 222.993349 
L 105.327 184.11945 
L 106.039009 134.070301 
L 106.751018 78.232933 
L 113.871109 78.236696 
L 126.2126 78.236696 
L 126.449936 79.629886 
L 127.161945 130.223452 
L 127.636618 148.172008 
L 128.111291 157.198454 
L 128.8233 164.393207 
L 129.297973 168.197911 
L 129.535309 169.252805 
L 129.772645 168.891059 
L 130.009982 166.221407 
L 130.484655 152.960994 
L 132.383345 152.945793 
L 149.946236 152.945793 
L 150.183573 153.712762 
L 150.895582 187.66364 
L 151.607591 211.278097 
L 152.556936 232.840886 
L 153.268945 244.920005 
L 153.506282 246.540693 
L 153.743618 245.402803 
L 154.218291 235.159485 
L 155.642309 235.139852 
L 173.679873 235.139852 
L 173.917209 235.277797 
L 174.154545 242.071999 
L 174.391882 245.560859 
L 174.629218 243.766955 
L 175.103891 232.185229 
L 175.8159 207.92899 
L 176.290573 185.747118 
L 176.765245 155.784032 
L 177.477255 93.204536 
L 177.951927 41.503635 
L 180.087955 41.491095 
L 197.413509 41.491095 
L 197.650845 41.796328 
L 199.074864 177.2753 
L 199.549536 202.741513 
L 200.261545 227.283769 
L 200.736218 239.260539 
L 200.973555 243.329052 
L 201.210891 243.828745 
L 201.448227 238.774268 
L 201.685564 228.8097 
L 202.634909 228.780328 
L 221.384482 228.813823 
L 221.859155 241.762298 
L 222.096491 245.017947 
L 222.333827 245.223283 
L 222.571164 243.288651 
L 223.283173 232.789014 
L 223.995182 218.888422 
L 224.469855 205.242504 
L 224.944527 185.804442 
L 225.4192 160.068295 
L 225.656536 159.250385 
L 245.118118 159.250994 
L 245.830127 180.315678 
L 246.067464 182.026796 
L 246.3048 181.565225 
L 246.779473 177.931947 
L 247.491482 170.39091 
L 247.728818 166.149784 
L 248.203491 150.594297 
L 248.678164 120.961655 
L 249.152836 75.711806 
L 249.390173 74.24928 
L 268.851755 74.24928 
L 269.089091 85.785855 
L 270.038436 163.928112 
L 270.750445 208.092827 
L 271.462455 240.128609 
L 271.937127 254.867909 
L 272.4118 264.549039 
L 272.886473 269.864826 
L 273.123809 270.289462 
L 292.585391 270.289462 
L 292.822727 269.397758 
L 293.2974 263.394379 
L 293.772073 253.135859 
L 294.246745 237.902098 
L 294.958755 205.299697 
L 295.670764 160.85823 
L 296.857445 79.709624 
L 316.319027 79.709624 
L 316.556364 86.816666 
L 317.031036 123.046902 
L 317.505709 145.28408 
L 317.980382 156.884916 
L 318.455055 162.939708 
L 319.167064 169.29027 
L 319.4044 170.698631 
L 319.641736 170.974314 
L 319.879073 169.269337 
L 320.116409 164.631702 
L 320.353745 156.282168 
L 320.591082 155.002461 
L 340.052664 155.002461 
L 340.29 157.894818 
L 341.002009 191.814521 
L 341.714018 214.141318 
L 342.426027 229.612641 
L 343.138036 241.265891 
L 343.375373 243.229224 
L 343.612709 242.962545 
L 343.850045 239.724232 
L 344.087382 233.445285 
L 344.324718 231.094489 
L 363.7863 231.094489 
L 364.023636 232.804277 
L 364.260973 240.077244 
L 364.498309 241.827127 
L 364.735645 239.010273 
L 365.210318 227.085189 
L 365.922327 202.631101 
L 366.397 179.578131 
L 366.871673 147.995878 
L 367.583682 81.751506 
L 367.821018 54.539239 
L 368.058355 42.663494 
L 387.519936 42.663494 
L 387.757273 45.249803 
L 388.469282 126.464156 
L 389.181291 182.286353 
L 389.655964 206.546627 
L 390.367973 230.357902 
L 390.842645 241.87683 
L 391.079982 244.893451 
L 391.317318 243.349412 
L 391.791991 230.172753 
L 411.253573 230.172753 
L 411.490909 230.498911 
L 411.965582 243.879469 
L 412.202918 245.840395 
L 412.440255 245.052697 
L 412.914927 239.073165 
L 413.626936 226.214085 
L 414.101609 214.579759 
L 414.576282 198.299532 
L 415.050955 175.792145 
L 415.525627 152.603 
L 434.987209 152.603 
L 435.224545 153.070474 
L 435.699218 173.140689 
L 435.936555 176.953844 
L 436.173891 177.952949 
L 436.411227 177.26866 
L 437.123236 172.221352 
L 437.597909 167.139083 
L 437.835245 162.634006 
L 438.072582 155.693759 
L 438.547255 131.419348 
L 439.259264 70.925067 
L 444.955336 70.929716 
L 458.720845 70.929716 
L 458.958182 72.023495 
L 460.144864 168.13818 
L 460.856873 210.075305 
L 461.568882 240.144532 
L 462.043555 253.902645 
L 462.518227 263.226972 
L 462.9929 268.937344 
L 482.691818 268.927084 
L 483.166491 263.477162 
L 483.641164 254.10502 
L 484.115836 240.05369 
L 484.827845 209.415974 
L 485.539855 167.052046 
L 486.251864 112.87836 
L 486.726536 73.837755 
L 487.675882 73.808976 
L 506.188118 73.808976 
L 506.425455 74.502774 
L 507.137464 126.164555 
L 507.612136 145.168681 
L 508.086809 154.701383 
L 508.561482 159.785311 
L 509.273491 165.14991 
L 509.510827 165.916973 
L 509.748164 165.248 
L 509.9855 162.276524 
L 510.460173 147.38663 
L 530.159091 147.507263 
L 531.108436 192.81724 
L 531.820445 215.200421 
L 532.532455 231.051304 
L 533.007127 239.233764 
L 533.244464 242.005869 
L 533.4818 243.004846 
L 533.719136 241.39495 
L 534.193809 230.557331 
L 534.905818 230.516252 
L 553.892727 230.567906 
L 554.3674 241.42669 
L 554.604736 240.69476 
L 555.079409 230.245506 
L 555.791418 206.551244 
L 556.266091 184.717682 
L 556.740764 154.994175 
L 557.452773 92.209893 
L 557.927445 39.164159 
L 558.164782 38.478186 
L 577.626364 38.478186 
L 577.626364 38.478186 
" clip-path="url(#p8f3ca9edc1)" style="fill: none; stroke: #ff7f0e; stroke-width: 2; stroke-linecap: square"/>
   </g>
   <g id="patch_3">
    <path d="M 79.22 282.04 
L 79.22 26.88 
" style="fill: none; stroke: #000000; stroke-width: 0.8; stroke-linejoin: miter; stroke-linecap: square"/>
   </g>
   <g id="patch_4">
    <path d="M 601.36 282.04 
L 601.36 26.88 
" style="fill: none; stroke: #000000; stroke-width: 0.8; stroke-linejoin: miter; stroke-linecap: square"/>
   </g>
   <g id="patch_5">
    <path d="M 79.22 282.04 
L 601.36 282.04 
" style="fill: none; stroke: #000000; stroke-width: 0.8; stroke-linejoin: miter; stroke-linecap: square"/>
   </g>
   <g id="patch_6">
    <path d="M 79.22 26.88 
L 601.36 26.88 
" style="fill: none; stroke: #000000; stroke-width: 0.8; stroke-linejoin: miter; stroke-linecap: square"/>
   </g>
   <g id="text_18">
    <!-- FodoCell-multibeam-fromfile -->
    <g transform="translate(254.908125 20.88) scale(0.12 -0.12)">
     <defs>
      <path id="DejaVuSans-46" d="M 628 4666 
L 3309 4666 
L 3309 4134 
L 1259 4134 
L 1259 2759 
L 3109 2759 
L 3109 2228 
L 1259 2228 
L 1259 0 
L 628 0 
L 628 4666 
z
" transform="scale(0.015625)"/>
      <path id="DejaVuSans-6f" d="M 1959 3097 
Q 1497 3097 1228 2736 
Q 959 2375 959 1747 
Q 959 1119 1226 758 
Q 1494 397 1959 397 
Q 2419 397 2687 759 
Q 2956 1122 2956 1747 
Q 2956 2369 2687 2733 
Q 2419 3097 1959 3097 
z
M 1959 3584 
Q 2709 3584 3137 3096 
Q 3566 2609 3566 1747 
Q 3566 888 3137 398 
Q 2709 -91 1959 -91 
Q 1206 -91 779 398 
Q 353 888 353 1747 
Q 353 2609 779 3096 
Q 1206 3584 1959 3584 
z
" transform="scale(0.015625)"/>
      <path id="DejaVuSans-64" d="M 2906 2969 
L 2906 4863 
L 3481 4863 
L 3481 0 
L 2906 0 
L 2906 525 
Q 2725 213 2448 61 
Q 2172 -91 1784 -91 
Q 1150 -91 751 415 
Q 353 922 353 1747 
Q 353 2572 751 3078 
Q 1150 3584 1784 3584 
Q 2172 3584 2448 3432 
Q 2725 3281 2906 2969 
z
M 947 1747 
Q 947 1113 1208 752 
Q 1469 391 1925 391 
Q 2381 391 2643 752 
Q 2906 1113 2906 1747 
Q 2906 2381 2643 2742 
Q 2381 3103 1925 3103 
Q 1469 3103 1208 2742 
Q 947 2381 947 1747 
z
" transform="scale(0.015625)"/>
      <path id="DejaVuSans-43" d="M 4122 4306 
L 4122 3641 
Q 3803 3938 3442 4084 
Q 3081 4231 2675 4231 
Q 1875 4231 1450 3742 
Q 1025 3253 1025 2328 
Q 1025 1406 1450 917 
Q 1875 428 2675 428 
Q 3081 428 3442 575 
Q 3803 722 4122 1019 
L 4122 359 
Q 3791 134 3420 21 
Q 3050 -91 2638 -91 
Q 1578 -91 968 557 
Q 359 1206 359 2328 
Q 359 3453 968 4101 
Q 1578 4750 2638 4750 
Q 3056 4750 3426 4639 
Q 3797 4528 4122 4306 
z
" transform="scale(0.015625)"/>
      <path id="DejaVuSans-6c" d="M 603 4863 
L 1178 4863 
L 1178 0 
L 603 0 
L 603 4863 
z
" transform="scale(0.015625)"/>
      <path id="DejaVuSans-2d" d="M 313 2009 
L 1997 2009 
L 1997 1497 
L 313 1497 
L 313 2009 
z
" transform="scale(0.015625)"/>
      <path id="DejaVuSans-75" d="M 544 1381 
L 544 3500 
L 1119 3500 
L 1119 1403 
Q 1119 906 1312 657 
Q 1506 409 1894 409 
Q 2359 409 2629 706 
Q 2900 1003 2900 1516 
L 2900 3500 
L 3475 3500 
L 3475 0 
L 2900 0 
L 2900 538 
Q 2691 219 2414 64 
Q 2138 -91 1772 -91 
Q 1169 -91 856 284 
Q 544 659 544 1381 
z
M 1991 3584 
L 1991 3584 
z
" transform="scale(0.015625)"/>
      <path id="DejaVuSans-62" d="M 3116 1747 
Q 3116 2381 2855 2742 
Q 2594 3103 2138 3103 
Q 1681 3103 1420 2742 
Q 1159 2381 1159 1747 
Q 1159 1113 1420 752 
Q 1681 391 2138 391 
Q 2594 391 2855 752 
Q 3116 1113 3116 1747 
z
M 1159 2969 
Q 1341 3281 1617 3432 
Q 1894 3584 2278 3584 
Q 2916 3584 3314 3078 
Q 3713 2572 3713 1747 
Q 3713 922 3314 415 
Q 2916 -91 2278 -91 
Q 1894 -91 1617 61 
Q 1341 213 1159 525 
L 1159 0 
L 581 0 
L 581 4863 
L 1159 4863 
L 1159 2969 
z
" transform="scale(0.015625)"/>
      <path id="DejaVuSans-61" d="M 2194 1759 
Q 1497 1759 1228 1600 
Q 959 1441 959 1056 
Q 959 750 1161 570 
Q 1363 391 1709 391 
Q 2188 391 2477 730 
Q 2766 1069 2766 1631 
L 2766 1759 
L 2194 1759 
z
M 3341 1997 
L 3341 0 
L 2766 0 
L 2766 531 
Q 2569 213 2275 61 
Q 1981 -91 1556 -91 
Q 1019 -91 701 211 
Q 384 513 384 1019 
Q 384 1609 779 1909 
Q 1175 2209 1959 2209 
L 2766 2209 
L 2766 2266 
Q 2766 2663 2505 2880 
Q 2244 3097 1772 3097 
Q 1472 3097 1187 3025 
Q 903 2953 641 2809 
L 641 3341 
Q 956 3463 1253 3523 
Q 1550 3584 1831 3584 
Q 2591 3584 2966 3190 
Q 3341 2797 3341 1997 
z
" transform="scale(0.015625)"/>
      <path id="DejaVuSans-66" d="M 2375 4863 
L 2375 4384 
L 1825 4384 
Q 1516 4384 1395 4259 
Q 1275 4134 1275 3809 
L 1275 3500 
L 2222 3500 
L 2222 3053 
L 1275 3053 
L 1275 0 
L 697 0 
L 697 3053 
L 147 3053 
L 147 3500 
L 697 3500 
L 697 3744 
Q 697 4328 969 4595 
Q 1241 4863 1831 4863 
L 2375 4863 
z
" transform="scale(0.015625)"/>
      <path id="DejaVuSans-72" d="M 2631 2963 
Q 2534 3019 2420 3045 
Q 2306 3072 2169 3072 
Q 1681 3072 1420 2755 
Q 1159 2438 1159 1844 
L 1159 0 
L 581 0 
L 581 3500 
L 1159 3500 
L 1159 2956 
Q 1341 3275 1631 3429 
Q 1922 3584 2338 3584 
Q 2397 3584 2469 3576 
Q 2541 3569 2628 3553 
L 2631 2963 
z
" transform="scale(0.015625)"/>
     </defs>
     <use xlink:href="#DejaVuSans-46"/>
     <use xlink:href="#DejaVuSans-6f" transform="translate(53.894531 0)"/>
     <use xlink:href="#DejaVuSans-64" transform="translate(115.076172 0)"/>
     <use xlink:href="#DejaVuSans-6f" transform="translate(178.552734 0)"/>
     <use xlink:href="#DejaVuSans-43" transform="translate(239.734375 0)"/>
     <use xlink:href="#DejaVuSans-65" transform="translate(309.558594 0)"/>
     <use xlink:href="#DejaVuSans-6c" transform="translate(371.082031 0)"/>
     <use xlink:href="#DejaVuSans-6c" transform="translate(398.865234 0)"/>
     <use xlink:href="#DejaVuSans-2d" transform="translate(426.648438 0)"/>
     <use xlink:href="#DejaVuSans-6d" transform="translate(462.732422 0)"/>
     <use xlink:href="#DejaVuSans-75" transform="translate(560.144531 0)"/>
     <use xlink:href="#DejaVuSans-6c" transform="translate(623.523438 0)"/>
     <use xlink:href="#DejaVuSans-74" transform="translate(651.306641 0)"/>
     <use xlink:href="#DejaVuSans-69" transform="translate(690.515625 0)"/>
     <use xlink:href="#DejaVuSans-62" transform="translate(718.298828 0)"/>
     <use xlink:href="#DejaVuSans-65" transform="translate(781.775391 0)"/>
     <use xlink:href="#DejaVuSans-61" transform="translate(843.298828 0)"/>
     <use xlink:href="#DejaVuSans-6d" transform="translate(904.578125 0)"/>
     <use xlink:href="#DejaVuSans-2d" transform="translate(1001.990234 0)"/>
     <use xlink:href="#DejaVuSans-66" transform="translate(1038.074219 0)"/>
     <use xlink:href="#DejaVuSans-72" transform="translate(1073.279297 0)"/>
     <use xlink:href="#DejaVuSans-6f" transform="translate(1112.142578 0)"/>
     <use xlink:href="#DejaVuSans-6d" transform="translate(1173.324219 0)"/>
     <use xlink:href="#DejaVuSans-66" transform="translate(1270.736328 0)"/>
     <use xlink:href="#DejaVuSans-69" transform="translate(1305.941406 0)"/>
     <use xlink:href="#DejaVuSans-6c" transform="translate(1333.724609 0)"/>
     <use xlink:href="#DejaVuSans-65" transform="translate(1361.507812 0)"/>
    </g>
   </g>
   <g id="legend_1">
    <g id="patch_7">
     <path d="M 86.22 277.04 
L 165.960625 277.04 
Q 167.960625 277.04 167.960625 275.04 
L 167.960625 246.68375 
Q 167.960625 244.68375 165.960625 244.68375 
L 86.22 244.68375 
Q 84.22 244.68375 84.22 246.68375 
L 84.22 275.04 
Q 84.22 277.04 86.22 277.04 
z
" style="fill: #ffffff; opacity: 0.8; stroke: #cccccc; stroke-linejoin: miter"/>
    </g>
    <g id="line2d_33">
     <path d="M 88.22 252.782188 
L 98.22 252.782188 
L 108.22 252.782188 
" style="fill: none; stroke: #1f77b4; stroke-width: 2; stroke-linecap: square"/>
    </g>
    <g id="text_19">
     <!-- current -->
     <g transform="translate(116.22 256.282188) scale(0.1 -0.1)">
      <defs>
       <path id="DejaVuSans-63" d="M 3122 3366 
L 3122 2828 
Q 2878 2963 2633 3030 
Q 2388 3097 2138 3097 
Q 1578 3097 1268 2742 
Q 959 2388 959 1747 
Q 959 1106 1268 751 
Q 1578 397 2138 397 
Q 2388 397 2633 464 
Q 2878 531 3122 666 
L 3122 134 
Q 2881 22 2623 -34 
Q 2366 -91 2075 -91 
Q 1284 -91 818 406 
Q 353 903 353 1747 
Q 353 2603 823 3093 
Q 1294 3584 2113 3584 
Q 2378 3584 2631 3529 
Q 2884 3475 3122 3366 
z
" transform="scale(0.015625)"/>
       <path id="DejaVuSans-6e" d="M 3513 2113 
L 3513 0 
L 2938 0 
L 2938 2094 
Q 2938 2591 2744 2837 
Q 2550 3084 2163 3084 
Q 1697 3084 1428 2787 
Q 1159 2491 1159 1978 
L 1159 0 
L 581 0 
L 581 3500 
L 1159 3500 
L 1159 2956 
Q 1366 3272 1645 3428 
Q 1925 3584 2291 3584 
Q 2894 3584 3203 3211 
Q 3513 2838 3513 2113 
z
" transform="scale(0.015625)"/>
      </defs>
      <use xlink:href="#DejaVuSans-63"/>
      <use xlink:href="#DejaVuSans-75" transform="translate(54.980469 0)"/>
      <use xlink:href="#DejaVuSans-72" transform="translate(118.359375 0)"/>
      <use xlink:href="#DejaVuSans-72" transform="translate(157.722656 0)"/>
      <use xlink:href="#DejaVuSans-65" transform="translate(196.585938 0)"/>
      <use xlink:href="#DejaVuSans-6e" transform="translate(258.109375 0)"/>
      <use xlink:href="#DejaVuSans-74" transform="translate(321.488281 0)"/>
     </g>
    </g>
    <g id="line2d_34">
     <path d="M 88.22 267.460312 
L 98.22 267.460312 
L 108.22 267.460312 
" style="fill: none; stroke: #ff7f0e; stroke-width: 2; stroke-linecap: square"/>
    </g>
    <g id="text_20">
     <!-- reference -->
     <g transform="translate(116.22 270.960312) scale(0.1 -0.1)">
      <use xlink:href="#DejaVuSans-72"/>
      <use xlink:href="#DejaVuSans-65" transform="translate(38.863281 0)"/>
      <use xlink:href="#DejaVuSans-66" transform="translate(100.386719 0)"/>
      <use xlink:href="#DejaVuSans-65" transform="translate(135.591797 0)"/>
      <use xlink:href="#DejaVuSans-72" transform="translate(197.115234 0)"/>
      <use xlink:href="#DejaVuSans-65" transform="translate(235.978516 0)"/>
      <use xlink:href="#DejaVuSans-6e" transform="translate(297.501953 0)"/>
      <use xlink:href="#DejaVuSans-63" transform="translate(360.880859 0)"/>
      <use xlink:href="#DejaVuSans-65" transform="translate(415.861328 0)"/>
     </g>
    </g>
   </g>
  </g>
  <g id="axes_2">
   <g id="matplotlib.axis_3">
    <g id="ytick_9">
     <g id="line2d_35">
      <defs>
       <path id="mdfcc01fd25" d="M 0 0 
L 3.5 0 
" style="stroke: #000000; stroke-width: 0.8"/>
      </defs>
      <g>
       <use xlink:href="#mdfcc01fd25" x="601.36" y="275.672663" style="stroke: #000000; stroke-width: 0.8"/>
      </g>
     </g>
     <g id="text_21">
      <!-- −3 -->
      <g transform="translate(608.36 279.471882) scale(0.1 -0.1)">
       <defs>
        <path id="DejaVuSans-2212" d="M 678 2272 
L 4684 2272 
L 4684 1741 
L 678 1741 
L 678 2272 
z
" transform="scale(0.015625)"/>
       </defs>
       <use xlink:href="#DejaVuSans-2212"/>
       <use xlink:href="#DejaVuSans-33" transform="translate(83.789062 0)"/>
      </g>
     </g>
    </g>
    <g id="ytick_10">
     <g id="line2d_36">
      <g>
       <use xlink:href="#mdfcc01fd25" x="601.36" y="237.874362" style="stroke: #000000; stroke-width: 0.8"/>
      </g>
     </g>
     <g id="text_22">
      <!-- −2 -->
      <g transform="translate(608.36 241.673581) scale(0.1 -0.1)">
       <use xlink:href="#DejaVuSans-2212"/>
       <use xlink:href="#DejaVuSans-32" transform="translate(83.789062 0)"/>
      </g>
     </g>
    </g>
    <g id="ytick_11">
     <g id="line2d_37">
      <g>
       <use xlink:href="#mdfcc01fd25" x="601.36" y="200.076061" style="stroke: #000000; stroke-width: 0.8"/>
      </g>
     </g>
     <g id="text_23">
      <!-- −1 -->
      <g transform="translate(608.36 203.87528) scale(0.1 -0.1)">
       <use xlink:href="#DejaVuSans-2212"/>
       <use xlink:href="#DejaVuSans-31" transform="translate(83.789062 0)"/>
      </g>
     </g>
    </g>
    <g id="ytick_12">
     <g id="line2d_38">
      <g>
       <use xlink:href="#mdfcc01fd25" x="601.36" y="162.27776" style="stroke: #000000; stroke-width: 0.8"/>
      </g>
     </g>
     <g id="text_24">
      <!-- 0 -->
      <g transform="translate(608.36 166.076978) scale(0.1 -0.1)">
       <use xlink:href="#DejaVuSans-30"/>
      </g>
     </g>
    </g>
    <g id="ytick_13">
     <g id="line2d_39">
      <g>
       <use xlink:href="#mdfcc01fd25" x="601.36" y="124.479458" style="stroke: #000000; stroke-width: 0.8"/>
      </g>
     </g>
     <g id="text_25">
      <!-- 1 -->
      <g transform="translate(608.36 128.278677) scale(0.1 -0.1)">
       <use xlink:href="#DejaVuSans-31"/>
      </g>
     </g>
    </g>
    <g id="ytick_14">
     <g id="line2d_40">
      <g>
       <use xlink:href="#mdfcc01fd25" x="601.36" y="86.681157" style="stroke: #000000; stroke-width: 0.8"/>
      </g>
     </g>
     <g id="text_26">
      <!-- 2 -->
      <g transform="translate(608.36 90.480376) scale(0.1 -0.1)">
       <use xlink:href="#DejaVuSans-32"/>
      </g>
     </g>
    </g>
    <g id="ytick_15">
     <g id="line2d_41">
      <g>
       <use xlink:href="#mdfcc01fd25" x="601.36" y="48.882856" style="stroke: #000000; stroke-width: 0.8"/>
      </g>
     </g>
     <g id="text_27">
      <!-- 3 -->
      <g transform="translate(608.36 52.682075) scale(0.1 -0.1)">
       <use xlink:href="#DejaVuSans-33"/>
      </g>
     </g>
    </g>
    <g id="text_28">
     <!-- delta emit(s) [m] -->
     <g transform="translate(634.700625 196.876406) rotate(-90) scale(0.1 -0.1)">
      <use xlink:href="#DejaVuSans-64"/>
      <use xlink:href="#DejaVuSans-65" transform="translate(63.476562 0)"/>
      <use xlink:href="#DejaVuSans-6c" transform="translate(125 0)"/>
      <use xlink:href="#DejaVuSans-74" transform="translate(152.783203 0)"/>
      <use xlink:href="#DejaVuSans-61" transform="translate(191.992188 0)"/>
      <use xlink:href="#DejaVuSans-20" transform="translate(253.271484 0)"/>
      <use xlink:href="#DejaVuSans-65" transform="translate(285.058594 0)"/>
      <use xlink:href="#DejaVuSans-6d" transform="translate(346.582031 0)"/>
      <use xlink:href="#DejaVuSans-69" transform="translate(443.994141 0)"/>
      <use xlink:href="#DejaVuSans-74" transform="translate(471.777344 0)"/>
      <use xlink:href="#DejaVuSans-28" transform="translate(510.986328 0)"/>
      <use xlink:href="#DejaVuSans-73" transform="translate(550 0)"/>
      <use xlink:href="#DejaVuSans-29" transform="translate(602.099609 0)"/>
      <use xlink:href="#DejaVuSans-20" transform="translate(641.113281 0)"/>
      <use xlink:href="#DejaVuSans-5b" transform="translate(672.900391 0)"/>
      <use xlink:href="#DejaVuSans-6d" transform="translate(711.914062 0)"/>
      <use xlink:href="#DejaVuSans-5d" transform="translate(809.326172 0)"/>
     </g>
    </g>
    <g id="text_29">
     <!-- 1e−11 -->
     <g transform="translate(567.739688 23.88) scale(0.1 -0.1)">
      <use xlink:href="#DejaVuSans-31"/>
      <use xlink:href="#DejaVuSans-65" transform="translate(63.623047 0)"/>
      <use xlink:href="#DejaVuSans-2212" transform="translate(125.146484 0)"/>
      <use xlink:href="#DejaVuSans-31" transform="translate(208.935547 0)"/>
      <use xlink:href="#DejaVuSans-31" transform="translate(272.558594 0)"/>
     </g>
    </g>
   </g>
   <g id="line2d_42">
    <path d="M 102.953636 162.277777 
L 117.905827 162.146061 
L 133.095355 162.103792 
L 154.455627 162.492855 
L 177.477255 162.472645 
L 177.714591 127.092507 
L 177.951927 162.469838 
L 186.2587 162.672361 
L 199.074864 162.944298 
L 199.3122 173.15339 
L 199.549536 162.879795 
L 200.498882 162.75817 
L 202.160236 162.858712 
L 221.384482 162.751435 
L 221.621818 161.12938 
L 221.859155 162.815079 
L 222.8085 162.726118 
L 223.757845 162.776406 
L 225.4192 162.879221 
L 229.216582 162.871791 
L 246.3048 162.705223 
L 247.254145 162.68227 
L 249.627509 162.789305 
L 272.4118 162.910236 
L 272.649136 162.850294 
L 272.886473 154.288811 
L 273.123809 158.678241 
L 292.585391 158.644668 
L 292.822727 156.101614 
L 293.060064 174.965231 
L 293.2974 153.85106 
L 293.534736 197.223054 
L 293.772073 143.087557 
L 294.009409 216.591459 
L 294.246745 134.824972 
L 294.484082 234.193803 
L 294.721418 80.280684 
L 294.958755 197.524501 
L 295.196091 200.830082 
L 295.433427 57.532295 
L 295.670764 270.441818 
L 295.9081 208.424831 
L 296.145436 38.478182 
L 296.382773 212.682659 
L 296.620109 135.637991 
L 296.857445 137.673798 
L 316.556364 137.365349 
L 316.7937 145.109905 
L 317.031036 168.584444 
L 317.505709 167.245985 
L 317.743045 152.049099 
L 318.217718 154.821141 
L 318.455055 164.646512 
L 318.692391 164.710132 
L 318.929727 153.814179 
L 319.167064 165.677164 
L 319.641736 167.881952 
L 320.353745 172.470896 
L 320.591082 171.025116 
L 337.441964 170.798594 
L 340.052664 170.762231 
L 340.29 169.951371 
L 340.527336 168.062626 
L 341.239345 166.158552 
L 341.476682 158.169519 
L 341.951355 159.137391 
L 342.188691 164.606909 
L 342.426027 159.29811 
L 342.663364 164.842672 
L 342.9007 165.274659 
L 343.138036 157.618209 
L 343.375373 166.45287 
L 343.612709 156.065685 
L 343.850045 166.729444 
L 344.087382 156.846485 
L 344.324718 156.335487 
L 363.7863 156.30414 
L 364.023636 156.099961 
L 364.260973 156.783108 
L 364.498309 166.347631 
L 364.972982 165.56148 
L 365.210318 157.763974 
L 365.447655 165.997884 
L 365.684991 156.344487 
L 365.922327 167.445188 
L 366.871673 171.163479 
L 367.109009 149.165683 
L 367.346345 172.807509 
L 367.821018 174.336626 
L 368.058355 174.130004 
L 383.010545 174.373779 
L 387.519936 174.448472 
L 387.757273 174.572398 
L 387.994609 172.977658 
L 388.231945 154.633852 
L 388.469282 155.384853 
L 388.706618 170.301918 
L 388.943955 157.139563 
L 389.181291 168.1135 
L 389.418627 159.228311 
L 389.655964 160.345472 
L 389.8933 164.277719 
L 390.130636 162.440902 
L 390.367973 162.103665 
L 390.605309 163.966059 
L 390.842645 164.372215 
L 391.079982 164.340194 
L 391.317318 161.813436 
L 391.791991 163.68599 
L 403.658809 163.932161 
L 411.728245 164.000575 
L 411.965582 163.469912 
L 412.202918 163.452798 
L 412.440255 163.952961 
L 412.677591 162.200302 
L 412.914927 162.425352 
L 413.152264 162.962903 
L 413.864273 157.990263 
L 414.101609 167.387326 
L 414.338945 154.14253 
L 414.576282 170.018739 
L 414.813618 150.440827 
L 415.050955 172.350702 
L 415.525627 174.177536 
L 434.987209 174.107183 
L 435.224545 174.57133 
L 435.699218 170.593847 
L 435.936555 152.266554 
L 436.173891 166.637436 
L 436.648564 163.679098 
L 437.123236 161.862964 
L 437.360573 165.782261 
L 437.597909 160.778612 
L 438.072582 160.124584 
L 438.309918 169.286599 
L 438.547255 159.727182 
L 439.021927 159.439998 
L 439.259264 167.25276 
L 443.293982 167.374056 
L 458.720845 167.802667 
L 458.958182 169.091853 
L 459.195518 162.403211 
L 459.432855 161.959296 
L 459.670191 169.430711 
L 459.907527 161.214684 
L 460.144864 160.878483 
L 460.3822 172.024567 
L 460.856873 173.255243 
L 461.331545 173.86962 
L 461.568882 157.876678 
L 461.806218 173.551303 
L 462.043555 158.201532 
L 462.280891 171.740826 
L 462.518227 159.226229 
L 462.755564 159.71076 
L 462.9929 160.838698 
L 463.704909 160.7868 
L 482.454482 160.785153 
L 482.691818 160.563633 
L 482.929155 157.679399 
L 483.166491 159.104217 
L 483.403827 220.843747 
L 483.641164 147.074448 
L 483.8785 163.233309 
L 485.539855 174.283824 
L 486.4892 179.668462 
L 486.726536 180.523838 
L 488.150555 180.499345 
L 506.188118 180.440684 
L 506.425455 180.711255 
L 506.662791 173.925833 
L 507.137464 171.830835 
L 508.324145 165.273119 
L 508.561482 160.553663 
L 508.798818 164.0877 
L 509.036155 164.024079 
L 509.273491 160.994192 
L 509.510827 159.511807 
L 509.748164 165.731441 
L 510.222836 168.191044 
L 510.460173 148.961708 
L 510.934845 149.074015 
L 529.921755 148.782859 
L 530.159091 148.117734 
L 530.396427 161.140131 
L 530.8711 161.433304 
L 531.345773 161.442193 
L 531.583109 165.835175 
L 531.820445 161.107639 
L 532.295118 160.237906 
L 532.532455 168.224361 
L 533.244464 172.417149 
L 533.4818 156.548829 
L 533.719136 173.794984 
L 533.956473 157.285238 
L 534.193809 172.129997 
L 552.706045 172.073918 
L 553.655391 172.070864 
L 553.892727 171.929044 
L 554.130064 174.261545 
L 554.3674 154.277543 
L 555.079409 156.186771 
L 555.316745 156.145365 
L 555.554082 155.742116 
L 556.266091 153.49309 
L 556.503427 176.24937 
L 556.740764 151.918604 
L 556.9781 151.221006 
L 557.215436 178.964983 
L 557.452773 179.689965 
L 557.690109 149.895044 
L 557.927445 149.935691 
L 558.164782 150.608724 
L 577.626364 150.393823 
L 577.626364 150.393823 
" clip-path="url(#p8f3ca9edc1)" style="fill: none; stroke-dasharray: 3.7,1.6; stroke-dashoffset: 0; stroke: #808080"/>
   </g>
   <g id="patch_8">
    <path d="M 79.22 282.04 
L 79.22 26.88 
" style="fill: none; stroke: #000000; stroke-width: 0.8; stroke-linejoin: miter; stroke-linecap: square"/>
   </g>
   <g id="patch_9">
    <path d="M 601.36 282.04 
L 601.36 26.88 
" style="fill: none; stroke: #000000; stroke-width: 0.8; stroke-linejoin: miter; stroke-linecap: square"/>
   </g>
   <g id="patch_10">
    <path d="M 79.22 282.04 
L 601.36 282.04 
" style="fill: none; stroke: #000000; stroke-width: 0.8; stroke-linejoin: miter; stroke-linecap: square"/>
   </g>
   <g id="patch_11">
    <path d="M 79.22 26.88 
L 601.36 26.88 
" style="fill: none; stroke: #000000; stroke-width: 0.8; stroke-linejoin: miter; stroke-linecap: square"/>
   </g>
   <g id="legend_2">
    <g id="patch_12">
     <path d="M 512.011563 277.04 
L 594.36 277.04 
Q 596.36 277.04 596.36 275.04 
L 596.36 261.361875 
Q 596.36 259.361875 594.36 259.361875 
L 512.011563 259.361875 
Q 510.011563 259.361875 510.011563 261.361875 
L 510.011563 275.04 
Q 510.011563 277.04 512.011563 277.04 
z
" style="fill: #ffffff; opacity: 0.8; stroke: #cccccc; stroke-linejoin: miter"/>
    </g>
    <g id="line2d_43">
     <path d="M 514.011563 267.460312 
L 524.011563 267.460312 
L 534.011563 267.460312 
" style="fill: none; stroke-dasharray: 3.7,1.6; stroke-dashoffset: 0; stroke: #808080"/>
    </g>
    <g id="text_30">
     <!-- difference -->
     <g transform="translate(542.011563 270.960312) scale(0.1 -0.1)">
      <use xlink:href="#DejaVuSans-64"/>
      <use xlink:href="#DejaVuSans-69" transform="translate(63.476562 0)"/>
      <use xlink:href="#DejaVuSans-66" transform="translate(91.259766 0)"/>
      <use xlink:href="#DejaVuSans-66" transform="translate(126.464844 0)"/>
      <use xlink:href="#DejaVuSans-65" transform="translate(161.669922 0)"/>
      <use xlink:href="#DejaVuSans-72" transform="translate(223.193359 0)"/>
      <use xlink:href="#DejaVuSans-65" transform="translate(262.056641 0)"/>
      <use xlink:href="#DejaVuSans-6e" transform="translate(323.580078 0)"/>
      <use xlink:href="#DejaVuSans-63" transform="translate(386.958984 0)"/>
      <use xlink:href="#DejaVuSans-65" transform="translate(441.939453 0)"/>
     </g>
    </g>
   </g>
  </g>
 </g>
 <defs>
  <clipPath id="p8f3ca9edc1">
   <rect x="79.22" y="26.88" width="522.14" height="255.16"/>
  </clipPath>
 </defs>
</svg>
