<?xml version="1.0" encoding="utf-8" standalone="no"?>
<!DOCTYPE svg PUBLIC "-//W3C//DTD SVG 1.1//EN"
  "http://www.w3.org/Graphics/SVG/1.1/DTD/svg11.dtd">
<svg xmlns:xlink="http://www.w3.org/1999/xlink" width="870.4pt" height="121.492812pt" viewBox="0 0 870.4 121.492812" xmlns="http://www.w3.org/2000/svg" version="1.1">
 <metadata>
  <rdf:RDF xmlns:dc="http://purl.org/dc/elements/1.1/" xmlns:cc="http://creativecommons.org/ns#" xmlns:rdf="http://www.w3.org/1999/02/22-rdf-syntax-ns#">
   <cc:Work>
    <dc:type rdf:resource="http://purl.org/dc/dcmitype/StillImage"/>
    <dc:date>2026-04-26T09:11:29.837625</dc:date>
    <dc:format>image/svg+xml</dc:format>
    <dc:creator>
     <cc:Agent>
      <dc:title>Matplotlib v3.10.8, https://matplotlib.org/</dc:title>
     </cc:Agent>
    </dc:creator>
   </cc:Work>
  </rdf:RDF>
 </metadata>
 <defs>
  <style type="text/css">*{stroke-linejoin: round; stroke-linecap: butt}</style>
 </defs>
 <g id="figure_1">
  <g id="patch_1">
   <path d="M 0 121.492812 
L 870.4 121.492812 
L 870.4 0 
L 0 0 
z
" style="fill: #ffffff"/>
  </g>
  <g id="axes_1">
   <g id="patch_2">
    <path d="M 7.2 87.34 
L 863.2 87.34 
L 863.2 7.2 
L 7.2 7.2 
z
" style="fill: #ffffff"/>
   </g>
   <g id="line2d_1">
    <path d="M 7.2 73.113964 
L 863.2 73.113964 
" clip-path="url(#p6d67aba8aa)" style="fill: none; stroke: #2c3e50; stroke-width: 1.5; stroke-linecap: square"/>
   </g>
   <g id="patch_3">
    <path d="M 31.755128 67.42355 
L 63.580769 67.42355 
L 63.580769 47.507101 
L 31.755128 47.507101 
z
" clip-path="url(#p6d67aba8aa)" style="fill: #bdc3c7; opacity: 0.55; stroke: #98a2ac; stroke-width: 0.5; stroke-linejoin: miter"/>
   </g>
   <g id="patch_4">
    <path d="M 72.908974 67.42355 
L 104.734615 67.42355 
L 104.734615 47.507101 
L 72.908974 47.507101 
z
" clip-path="url(#p6d67aba8aa)" style="fill: #bdc3c7; opacity: 0.55; stroke: #98a2ac; stroke-width: 0.5; stroke-linejoin: miter"/>
   </g>
   <g id="patch_5">
    <path d="M 114.062821 67.42355 
L 145.888462 67.42355 
L 145.888462 47.507101 
L 114.062821 47.507101 
z
" clip-path="url(#p6d67aba8aa)" style="fill: #bdc3c7; opacity: 0.55; stroke: #98a2ac; stroke-width: 0.5; stroke-linejoin: miter"/>
   </g>
   <g id="patch_6">
    <path d="M 155.216667 67.42355 
L 187.042308 67.42355 
L 187.042308 47.507101 
L 155.216667 47.507101 
z
" clip-path="url(#p6d67aba8aa)" style="fill: #bdc3c7; opacity: 0.55; stroke: #98a2ac; stroke-width: 0.5; stroke-linejoin: miter"/>
   </g>
   <g id="patch_7">
    <path d="M 196.370513 67.42355 
L 228.196154 67.42355 
L 228.196154 47.507101 
L 196.370513 47.507101 
z
" clip-path="url(#p6d67aba8aa)" style="fill: #bdc3c7; opacity: 0.55; stroke: #98a2ac; stroke-width: 0.5; stroke-linejoin: miter"/>
   </g>
   <g id="patch_8">
    <path d="M 237.524359 67.42355 
L 269.35 67.42355 
L 269.35 47.507101 
L 237.524359 47.507101 
z
" clip-path="url(#p6d67aba8aa)" style="fill: #bdc3c7; opacity: 0.55; stroke: #98a2ac; stroke-width: 0.5; stroke-linejoin: miter"/>
   </g>
   <g id="patch_9">
    <path d="M 278.678205 67.42355 
L 310.503846 67.42355 
L 310.503846 47.507101 
L 278.678205 47.507101 
z
" clip-path="url(#p6d67aba8aa)" style="fill: #bdc3c7; opacity: 0.55; stroke: #98a2ac; stroke-width: 0.5; stroke-linejoin: miter"/>
   </g>
   <g id="patch_10">
    <path d="M 319.832051 67.42355 
L 351.657692 67.42355 
L 351.657692 47.507101 
L 319.832051 47.507101 
z
" clip-path="url(#p6d67aba8aa)" style="fill: #bdc3c7; opacity: 0.55; stroke: #98a2ac; stroke-width: 0.5; stroke-linejoin: miter"/>
   </g>
   <g id="patch_11">
    <path d="M 360.985897 67.42355 
L 392.811538 67.42355 
L 392.811538 47.507101 
L 360.985897 47.507101 
z
" clip-path="url(#p6d67aba8aa)" style="fill: #bdc3c7; opacity: 0.55; stroke: #98a2ac; stroke-width: 0.5; stroke-linejoin: miter"/>
   </g>
   <g id="patch_12">
    <path d="M 402.139744 67.42355 
L 433.965385 67.42355 
L 433.965385 47.507101 
L 402.139744 47.507101 
z
" clip-path="url(#p6d67aba8aa)" style="fill: #bdc3c7; opacity: 0.55; stroke: #98a2ac; stroke-width: 0.5; stroke-linejoin: miter"/>
   </g>
   <g id="patch_13">
    <path d="M 443.29359 67.42355 
L 475.119231 67.42355 
L 475.119231 47.507101 
L 443.29359 47.507101 
z
" clip-path="url(#p6d67aba8aa)" style="fill: #bdc3c7; opacity: 0.55; stroke: #98a2ac; stroke-width: 0.5; stroke-linejoin: miter"/>
   </g>
   <g id="patch_14">
    <path d="M 484.447436 67.42355 
L 516.273077 67.42355 
L 516.273077 47.507101 
L 484.447436 47.507101 
z
" clip-path="url(#p6d67aba8aa)" style="fill: #bdc3c7; opacity: 0.55; stroke: #98a2ac; stroke-width: 0.5; stroke-linejoin: miter"/>
   </g>
   <g id="patch_15">
    <path d="M 525.601282 67.42355 
L 557.426923 67.42355 
L 557.426923 47.507101 
L 525.601282 47.507101 
z
" clip-path="url(#p6d67aba8aa)" style="fill: #bdc3c7; opacity: 0.55; stroke: #98a2ac; stroke-width: 0.5; stroke-linejoin: miter"/>
   </g>
   <g id="patch_16">
    <path d="M 566.755128 67.42355 
L 598.580769 67.42355 
L 598.580769 47.507101 
L 566.755128 47.507101 
z
" clip-path="url(#p6d67aba8aa)" style="fill: #bdc3c7; opacity: 0.55; stroke: #98a2ac; stroke-width: 0.5; stroke-linejoin: miter"/>
   </g>
   <g id="patch_17">
    <path d="M 607.908974 67.42355 
L 639.734615 67.42355 
L 639.734615 47.507101 
L 607.908974 47.507101 
z
" clip-path="url(#p6d67aba8aa)" style="fill: #bdc3c7; opacity: 0.55; stroke: #98a2ac; stroke-width: 0.5; stroke-linejoin: miter"/>
   </g>
   <g id="patch_18">
    <path d="M 649.062821 67.42355 
L 680.888462 67.42355 
L 680.888462 47.507101 
L 649.062821 47.507101 
z
" clip-path="url(#p6d67aba8aa)" style="fill: #bdc3c7; opacity: 0.55; stroke: #98a2ac; stroke-width: 0.5; stroke-linejoin: miter"/>
   </g>
   <g id="patch_19">
    <path d="M 690.216667 67.42355 
L 722.042308 67.42355 
L 722.042308 47.507101 
L 690.216667 47.507101 
z
" clip-path="url(#p6d67aba8aa)" style="fill: #bdc3c7; opacity: 0.55; stroke: #98a2ac; stroke-width: 0.5; stroke-linejoin: miter"/>
   </g>
   <g id="patch_20">
    <path d="M 731.370513 67.42355 
L 763.196154 67.42355 
L 763.196154 47.507101 
L 731.370513 47.507101 
z
" clip-path="url(#p6d67aba8aa)" style="fill: #bdc3c7; opacity: 0.55; stroke: #98a2ac; stroke-width: 0.5; stroke-linejoin: miter"/>
   </g>
   <g id="patch_21">
    <path d="M 772.524359 67.42355 
L 804.35 67.42355 
L 804.35 47.507101 
L 772.524359 47.507101 
z
" clip-path="url(#p6d67aba8aa)" style="fill: #bdc3c7; opacity: 0.55; stroke: #98a2ac; stroke-width: 0.5; stroke-linejoin: miter"/>
   </g>
   <g id="patch_22">
    <path d="M 813.678205 67.42355 
L 845.503846 67.42355 
L 845.503846 47.507101 
L 813.678205 47.507101 
z
" clip-path="url(#p6d67aba8aa)" style="fill: #bdc3c7; opacity: 0.55; stroke: #98a2ac; stroke-width: 0.5; stroke-linejoin: miter"/>
   </g>
   <g id="line2d_2">
    <path d="M 27.091026 73.113964 
L 27.091026 67.42355 
" clip-path="url(#p6d67aba8aa)" style="fill: none; stroke: #c0392b; stroke-opacity: 0.5; stroke-width: 0.8; stroke-linecap: square"/>
   </g>
   <g id="line2d_3">
    <path d="M 68.244872 73.113964 
L 68.244872 67.42355 
" clip-path="url(#p6d67aba8aa)" style="fill: none; stroke: #c0392b; stroke-opacity: 0.5; stroke-width: 0.8; stroke-linecap: square"/>
   </g>
   <g id="line2d_4">
    <path d="M 109.398718 73.113964 
L 109.398718 67.42355 
" clip-path="url(#p6d67aba8aa)" style="fill: none; stroke: #c0392b; stroke-opacity: 0.5; stroke-width: 0.8; stroke-linecap: square"/>
   </g>
   <g id="line2d_5">
    <path d="M 150.552564 73.113964 
L 150.552564 67.42355 
" clip-path="url(#p6d67aba8aa)" style="fill: none; stroke: #c0392b; stroke-opacity: 0.5; stroke-width: 0.8; stroke-linecap: square"/>
   </g>
   <g id="line2d_6">
    <path d="M 191.70641 73.113964 
L 191.70641 67.42355 
" clip-path="url(#p6d67aba8aa)" style="fill: none; stroke: #c0392b; stroke-opacity: 0.5; stroke-width: 0.8; stroke-linecap: square"/>
   </g>
   <g id="line2d_7">
    <path d="M 232.860256 73.113964 
L 232.860256 67.42355 
" clip-path="url(#p6d67aba8aa)" style="fill: none; stroke: #c0392b; stroke-opacity: 0.5; stroke-width: 0.8; stroke-linecap: square"/>
   </g>
   <g id="line2d_8">
    <path d="M 274.014103 73.113964 
L 274.014103 67.42355 
" clip-path="url(#p6d67aba8aa)" style="fill: none; stroke: #c0392b; stroke-opacity: 0.5; stroke-width: 0.8; stroke-linecap: square"/>
   </g>
   <g id="line2d_9">
    <path d="M 315.167949 73.113964 
L 315.167949 67.42355 
" clip-path="url(#p6d67aba8aa)" style="fill: none; stroke: #c0392b; stroke-opacity: 0.5; stroke-width: 0.8; stroke-linecap: square"/>
   </g>
   <g id="line2d_10">
    <path d="M 356.321795 73.113964 
L 356.321795 67.42355 
" clip-path="url(#p6d67aba8aa)" style="fill: none; stroke: #c0392b; stroke-opacity: 0.5; stroke-width: 0.8; stroke-linecap: square"/>
   </g>
   <g id="line2d_11">
    <path d="M 397.475641 73.113964 
L 397.475641 67.42355 
" clip-path="url(#p6d67aba8aa)" style="fill: none; stroke: #c0392b; stroke-opacity: 0.5; stroke-width: 0.8; stroke-linecap: square"/>
   </g>
   <g id="line2d_12">
    <path d="M 438.629487 73.113964 
L 438.629487 67.42355 
" clip-path="url(#p6d67aba8aa)" style="fill: none; stroke: #c0392b; stroke-opacity: 0.5; stroke-width: 0.8; stroke-linecap: square"/>
   </g>
   <g id="line2d_13">
    <path d="M 479.783333 73.113964 
L 479.783333 67.42355 
" clip-path="url(#p6d67aba8aa)" style="fill: none; stroke: #c0392b; stroke-opacity: 0.5; stroke-width: 0.8; stroke-linecap: square"/>
   </g>
   <g id="line2d_14">
    <path d="M 520.937179 73.113964 
L 520.937179 67.42355 
" clip-path="url(#p6d67aba8aa)" style="fill: none; stroke: #c0392b; stroke-opacity: 0.5; stroke-width: 0.8; stroke-linecap: square"/>
   </g>
   <g id="line2d_15">
    <path d="M 562.091026 73.113964 
L 562.091026 67.42355 
" clip-path="url(#p6d67aba8aa)" style="fill: none; stroke: #c0392b; stroke-opacity: 0.5; stroke-width: 0.8; stroke-linecap: square"/>
   </g>
   <g id="line2d_16">
    <path d="M 603.244872 73.113964 
L 603.244872 67.42355 
" clip-path="url(#p6d67aba8aa)" style="fill: none; stroke: #c0392b; stroke-opacity: 0.5; stroke-width: 0.8; stroke-linecap: square"/>
   </g>
   <g id="line2d_17">
    <path d="M 644.398718 73.113964 
L 644.398718 67.42355 
" clip-path="url(#p6d67aba8aa)" style="fill: none; stroke: #c0392b; stroke-opacity: 0.5; stroke-width: 0.8; stroke-linecap: square"/>
   </g>
   <g id="line2d_18">
    <path d="M 685.552564 73.113964 
L 685.552564 67.42355 
" clip-path="url(#p6d67aba8aa)" style="fill: none; stroke: #c0392b; stroke-opacity: 0.5; stroke-width: 0.8; stroke-linecap: square"/>
   </g>
   <g id="line2d_19">
    <path d="M 726.70641 73.113964 
L 726.70641 67.42355 
" clip-path="url(#p6d67aba8aa)" style="fill: none; stroke: #c0392b; stroke-opacity: 0.5; stroke-width: 0.8; stroke-linecap: square"/>
   </g>
   <g id="line2d_20">
    <path d="M 767.860256 73.113964 
L 767.860256 67.42355 
" clip-path="url(#p6d67aba8aa)" style="fill: none; stroke: #c0392b; stroke-opacity: 0.5; stroke-width: 0.8; stroke-linecap: square"/>
   </g>
   <g id="line2d_21">
    <path d="M 809.014103 73.113964 
L 809.014103 67.42355 
" clip-path="url(#p6d67aba8aa)" style="fill: none; stroke: #c0392b; stroke-opacity: 0.5; stroke-width: 0.8; stroke-linecap: square"/>
   </g>
   <g id="matplotlib.axis_1">
    <g id="xtick_1">
     <g id="line2d_22">
      <defs>
       <path id="m5452e23444" d="M 0 0 
L 0 3 
" style="stroke: #666666; stroke-width: 0.8"/>
      </defs>
      <g>
       <use xlink:href="#m5452e23444" x="23.661538" y="87.34" style="fill: #666666; stroke: #666666; stroke-width: 0.8"/>
      </g>
     </g>
     <g id="text_1">
      <!-- 0 -->
      <g style="fill: #666666" transform="translate(21.116538 99.91875) scale(0.08 -0.08)">
       <defs>
        <path id="DejaVuSans-30" d="M 2034 4250 
Q 1547 4250 1301 3770 
Q 1056 3291 1056 2328 
Q 1056 1369 1301 889 
Q 1547 409 2034 409 
Q 2525 409 2770 889 
Q 3016 1369 3016 2328 
Q 3016 3291 2770 3770 
Q 2525 4250 2034 4250 
z
M 2034 4750 
Q 2819 4750 3233 4129 
Q 3647 3509 3647 2328 
Q 3647 1150 3233 529 
Q 2819 -91 2034 -91 
Q 1250 -91 836 529 
Q 422 1150 422 2328 
Q 422 3509 836 4129 
Q 1250 4750 2034 4750 
z
" transform="scale(0.015625)"/>
       </defs>
       <use xlink:href="#DejaVuSans-30"/>
      </g>
     </g>
    </g>
    <g id="xtick_2">
     <g id="line2d_23">
      <g>
       <use xlink:href="#m5452e23444" x="160.841026" y="87.34" style="fill: #666666; stroke: #666666; stroke-width: 0.8"/>
      </g>
     </g>
     <g id="text_2">
      <!-- 10 -->
      <g style="fill: #666666" transform="translate(155.751026 99.91875) scale(0.08 -0.08)">
       <defs>
        <path id="DejaVuSans-31" d="M 794 531 
L 1825 531 
L 1825 4091 
L 703 3866 
L 703 4441 
L 1819 4666 
L 2450 4666 
L 2450 531 
L 3481 531 
L 3481 0 
L 794 0 
L 794 531 
z
" transform="scale(0.015625)"/>
       </defs>
       <use xlink:href="#DejaVuSans-31"/>
       <use xlink:href="#DejaVuSans-30" transform="translate(63.623047 0)"/>
      </g>
     </g>
    </g>
    <g id="xtick_3">
     <g id="line2d_24">
      <g>
       <use xlink:href="#m5452e23444" x="298.020513" y="87.34" style="fill: #666666; stroke: #666666; stroke-width: 0.8"/>
      </g>
     </g>
     <g id="text_3">
      <!-- 20 -->
      <g style="fill: #666666" transform="translate(292.930513 99.91875) scale(0.08 -0.08)">
       <defs>
        <path id="DejaVuSans-32" d="M 1228 531 
L 3431 531 
L 3431 0 
L 469 0 
L 469 531 
Q 828 903 1448 1529 
Q 2069 2156 2228 2338 
Q 2531 2678 2651 2914 
Q 2772 3150 2772 3378 
Q 2772 3750 2511 3984 
Q 2250 4219 1831 4219 
Q 1534 4219 1204 4116 
Q 875 4013 500 3803 
L 500 4441 
Q 881 4594 1212 4672 
Q 1544 4750 1819 4750 
Q 2544 4750 2975 4387 
Q 3406 4025 3406 3419 
Q 3406 3131 3298 2873 
Q 3191 2616 2906 2266 
Q 2828 2175 2409 1742 
Q 1991 1309 1228 531 
z
" transform="scale(0.015625)"/>
       </defs>
       <use xlink:href="#DejaVuSans-32"/>
       <use xlink:href="#DejaVuSans-30" transform="translate(63.623047 0)"/>
      </g>
     </g>
    </g>
    <g id="xtick_4">
     <g id="line2d_25">
      <g>
       <use xlink:href="#m5452e23444" x="435.2" y="87.34" style="fill: #666666; stroke: #666666; stroke-width: 0.8"/>
      </g>
     </g>
     <g id="text_4">
      <!-- 30 -->
      <g style="fill: #666666" transform="translate(430.11 99.91875) scale(0.08 -0.08)">
       <defs>
        <path id="DejaVuSans-33" d="M 2597 2516 
Q 3050 2419 3304 2112 
Q 3559 1806 3559 1356 
Q 3559 666 3084 287 
Q 2609 -91 1734 -91 
Q 1441 -91 1130 -33 
Q 819 25 488 141 
L 488 750 
Q 750 597 1062 519 
Q 1375 441 1716 441 
Q 2309 441 2620 675 
Q 2931 909 2931 1356 
Q 2931 1769 2642 2001 
Q 2353 2234 1838 2234 
L 1294 2234 
L 1294 2753 
L 1863 2753 
Q 2328 2753 2575 2939 
Q 2822 3125 2822 3475 
Q 2822 3834 2567 4026 
Q 2313 4219 1838 4219 
Q 1578 4219 1281 4162 
Q 984 4106 628 3988 
L 628 4550 
Q 988 4650 1302 4700 
Q 1616 4750 1894 4750 
Q 2613 4750 3031 4423 
Q 3450 4097 3450 3541 
Q 3450 3153 3228 2886 
Q 3006 2619 2597 2516 
z
" transform="scale(0.015625)"/>
       </defs>
       <use xlink:href="#DejaVuSans-33"/>
       <use xlink:href="#DejaVuSans-30" transform="translate(63.623047 0)"/>
      </g>
     </g>
    </g>
    <g id="xtick_5">
     <g id="line2d_26">
      <g>
       <use xlink:href="#m5452e23444" x="572.379487" y="87.34" style="fill: #666666; stroke: #666666; stroke-width: 0.8"/>
      </g>
     </g>
     <g id="text_5">
      <!-- 40 -->
      <g style="fill: #666666" transform="translate(567.289487 99.91875) scale(0.08 -0.08)">
       <defs>
        <path id="DejaVuSans-34" d="M 2419 4116 
L 825 1625 
L 2419 1625 
L 2419 4116 
z
M 2253 4666 
L 3047 4666 
L 3047 1625 
L 3713 1625 
L 3713 1100 
L 3047 1100 
L 3047 0 
L 2419 0 
L 2419 1100 
L 313 1100 
L 313 1709 
L 2253 4666 
z
" transform="scale(0.015625)"/>
       </defs>
       <use xlink:href="#DejaVuSans-34"/>
       <use xlink:href="#DejaVuSans-30" transform="translate(63.623047 0)"/>
      </g>
     </g>
    </g>
    <g id="xtick_6">
     <g id="line2d_27">
      <g>
       <use xlink:href="#m5452e23444" x="709.558974" y="87.34" style="fill: #666666; stroke: #666666; stroke-width: 0.8"/>
      </g>
     </g>
     <g id="text_6">
      <!-- 50 -->
      <g style="fill: #666666" transform="translate(704.468974 99.91875) scale(0.08 -0.08)">
       <defs>
        <path id="DejaVuSans-35" d="M 691 4666 
L 3169 4666 
L 3169 4134 
L 1269 4134 
L 1269 2991 
Q 1406 3038 1543 3061 
Q 1681 3084 1819 3084 
Q 2600 3084 3056 2656 
Q 3513 2228 3513 1497 
Q 3513 744 3044 326 
Q 2575 -91 1722 -91 
Q 1428 -91 1123 -41 
Q 819 9 494 109 
L 494 744 
Q 775 591 1075 516 
Q 1375 441 1709 441 
Q 2250 441 2565 725 
Q 2881 1009 2881 1497 
Q 2881 1984 2565 2268 
Q 2250 2553 1709 2553 
Q 1456 2553 1204 2497 
Q 953 2441 691 2322 
L 691 4666 
z
" transform="scale(0.015625)"/>
       </defs>
       <use xlink:href="#DejaVuSans-35"/>
       <use xlink:href="#DejaVuSans-30" transform="translate(63.623047 0)"/>
      </g>
     </g>
    </g>
    <g id="xtick_7">
     <g id="line2d_28">
      <g>
       <use xlink:href="#m5452e23444" x="846.738462" y="87.34" style="fill: #666666; stroke: #666666; stroke-width: 0.8"/>
      </g>
     </g>
     <g id="text_7">
      <!-- 60 -->
      <g style="fill: #666666" transform="translate(841.648462 99.91875) scale(0.08 -0.08)">
       <defs>
        <path id="DejaVuSans-36" d="M 2113 2584 
Q 1688 2584 1439 2293 
Q 1191 2003 1191 1497 
Q 1191 994 1439 701 
Q 1688 409 2113 409 
Q 2538 409 2786 701 
Q 3034 994 3034 1497 
Q 3034 2003 2786 2293 
Q 2538 2584 2113 2584 
z
M 3366 4563 
L 3366 3988 
Q 3128 4100 2886 4159 
Q 2644 4219 2406 4219 
Q 1781 4219 1451 3797 
Q 1122 3375 1075 2522 
Q 1259 2794 1537 2939 
Q 1816 3084 2150 3084 
Q 2853 3084 3261 2657 
Q 3669 2231 3669 1497 
Q 3669 778 3244 343 
Q 2819 -91 2113 -91 
Q 1303 -91 875 529 
Q 447 1150 447 2328 
Q 447 3434 972 4092 
Q 1497 4750 2381 4750 
Q 2619 4750 2861 4703 
Q 3103 4656 3366 4563 
z
" transform="scale(0.015625)"/>
       </defs>
       <use xlink:href="#DejaVuSans-36"/>
       <use xlink:href="#DejaVuSans-30" transform="translate(63.623047 0)"/>
      </g>
     </g>
    </g>
    <g id="text_8">
     <!-- s  (m) -->
     <g style="fill: #444444" transform="translate(422.100781 112.421094) scale(0.09 -0.09)">
      <defs>
       <path id="DejaVuSans-73" d="M 2834 3397 
L 2834 2853 
Q 2591 2978 2328 3040 
Q 2066 3103 1784 3103 
Q 1356 3103 1142 2972 
Q 928 2841 928 2578 
Q 928 2378 1081 2264 
Q 1234 2150 1697 2047 
L 1894 2003 
Q 2506 1872 2764 1633 
Q 3022 1394 3022 966 
Q 3022 478 2636 193 
Q 2250 -91 1575 -91 
Q 1294 -91 989 -36 
Q 684 19 347 128 
L 347 722 
Q 666 556 975 473 
Q 1284 391 1588 391 
Q 1994 391 2212 530 
Q 2431 669 2431 922 
Q 2431 1156 2273 1281 
Q 2116 1406 1581 1522 
L 1381 1569 
Q 847 1681 609 1914 
Q 372 2147 372 2553 
Q 372 3047 722 3315 
Q 1072 3584 1716 3584 
Q 2034 3584 2315 3537 
Q 2597 3491 2834 3397 
z
" transform="scale(0.015625)"/>
       <path id="DejaVuSans-20" transform="scale(0.015625)"/>
       <path id="DejaVuSans-28" d="M 1984 4856 
Q 1566 4138 1362 3434 
Q 1159 2731 1159 2009 
Q 1159 1288 1364 580 
Q 1569 -128 1984 -844 
L 1484 -844 
Q 1016 -109 783 600 
Q 550 1309 550 2009 
Q 550 2706 781 3412 
Q 1013 4119 1484 4856 
L 1984 4856 
z
" transform="scale(0.015625)"/>
       <path id="DejaVuSans-6d" d="M 3328 2828 
Q 3544 3216 3844 3400 
Q 4144 3584 4550 3584 
Q 5097 3584 5394 3201 
Q 5691 2819 5691 2113 
L 5691 0 
L 5113 0 
L 5113 2094 
Q 5113 2597 4934 2840 
Q 4756 3084 4391 3084 
Q 3944 3084 3684 2787 
Q 3425 2491 3425 1978 
L 3425 0 
L 2847 0 
L 2847 2094 
Q 2847 2600 2669 2842 
Q 2491 3084 2119 3084 
Q 1678 3084 1418 2786 
Q 1159 2488 1159 1978 
L 1159 0 
L 581 0 
L 581 3500 
L 1159 3500 
L 1159 2956 
Q 1356 3278 1631 3431 
Q 1906 3584 2284 3584 
Q 2666 3584 2933 3390 
Q 3200 3197 3328 2828 
z
" transform="scale(0.015625)"/>
       <path id="DejaVuSans-29" d="M 513 4856 
L 1013 4856 
Q 1481 4119 1714 3412 
Q 1947 2706 1947 2009 
Q 1947 1309 1714 600 
Q 1481 -109 1013 -844 
L 513 -844 
Q 928 -128 1133 580 
Q 1338 1288 1338 2009 
Q 1338 2731 1133 3434 
Q 928 4138 513 4856 
z
" transform="scale(0.015625)"/>
      </defs>
      <use xlink:href="#DejaVuSans-73"/>
      <use xlink:href="#DejaVuSans-20" transform="translate(52.099609 0)"/>
      <use xlink:href="#DejaVuSans-20" transform="translate(83.886719 0)"/>
      <use xlink:href="#DejaVuSans-28" transform="translate(115.673828 0)"/>
      <use xlink:href="#DejaVuSans-6d" transform="translate(154.6875 0)"/>
      <use xlink:href="#DejaVuSans-29" transform="translate(252.099609 0)"/>
     </g>
    </g>
   </g>
   <g id="matplotlib.axis_2"/>
   <g id="patch_23">
    <path d="M 23.661538 68.609053 
L 30.520513 68.609053 
Q 30.863462 68.609053 30.863462 67.42355 
L 30.863462 47.507101 
Q 30.863462 46.321598 30.520513 46.321598 
L 23.661538 46.321598 
Q 23.31859 46.321598 23.31859 47.507101 
L 23.31859 67.42355 
Q 23.31859 68.609053 23.661538 68.609053 
z
" clip-path="url(#p6d67aba8aa)" style="fill: #c0392b; opacity: 0.92; stroke: #ffffff; stroke-width: 1.5; stroke-linejoin: miter"/>
   </g>
   <g id="patch_24">
    <path d="M 64.815385 68.609053 
L 71.674359 68.609053 
Q 72.017308 68.609053 72.017308 67.42355 
L 72.017308 47.507101 
Q 72.017308 46.321598 71.674359 46.321598 
L 64.815385 46.321598 
Q 64.472436 46.321598 64.472436 47.507101 
L 64.472436 67.42355 
Q 64.472436 68.609053 64.815385 68.609053 
z
" clip-path="url(#p6d67aba8aa)" style="fill: #c0392b; opacity: 0.92; stroke: #ffffff; stroke-width: 1.5; stroke-linejoin: miter"/>
   </g>
   <g id="patch_25">
    <path d="M 105.969231 68.609053 
L 112.828205 68.609053 
Q 113.171154 68.609053 113.171154 67.42355 
L 113.171154 47.507101 
Q 113.171154 46.321598 112.828205 46.321598 
L 105.969231 46.321598 
Q 105.626282 46.321598 105.626282 47.507101 
L 105.626282 67.42355 
Q 105.626282 68.609053 105.969231 68.609053 
z
" clip-path="url(#p6d67aba8aa)" style="fill: #c0392b; opacity: 0.92; stroke: #ffffff; stroke-width: 1.5; stroke-linejoin: miter"/>
   </g>
   <g id="patch_26">
    <path d="M 147.123077 68.609053 
L 153.982051 68.609053 
Q 154.325 68.609053 154.325 67.42355 
L 154.325 47.507101 
Q 154.325 46.321598 153.982051 46.321598 
L 147.123077 46.321598 
Q 146.780128 46.321598 146.780128 47.507101 
L 146.780128 67.42355 
Q 146.780128 68.609053 147.123077 68.609053 
z
" clip-path="url(#p6d67aba8aa)" style="fill: #c0392b; opacity: 0.92; stroke: #ffffff; stroke-width: 1.5; stroke-linejoin: miter"/>
   </g>
   <g id="patch_27">
    <path d="M 188.276923 68.609053 
L 195.135897 68.609053 
Q 195.478846 68.609053 195.478846 67.42355 
L 195.478846 47.507101 
Q 195.478846 46.321598 195.135897 46.321598 
L 188.276923 46.321598 
Q 187.933974 46.321598 187.933974 47.507101 
L 187.933974 67.42355 
Q 187.933974 68.609053 188.276923 68.609053 
z
" clip-path="url(#p6d67aba8aa)" style="fill: #c0392b; opacity: 0.92; stroke: #ffffff; stroke-width: 1.5; stroke-linejoin: miter"/>
   </g>
   <g id="patch_28">
    <path d="M 229.430769 68.609053 
L 236.289744 68.609053 
Q 236.632692 68.609053 236.632692 67.42355 
L 236.632692 47.507101 
Q 236.632692 46.321598 236.289744 46.321598 
L 229.430769 46.321598 
Q 229.087821 46.321598 229.087821 47.507101 
L 229.087821 67.42355 
Q 229.087821 68.609053 229.430769 68.609053 
z
" clip-path="url(#p6d67aba8aa)" style="fill: #c0392b; opacity: 0.92; stroke: #ffffff; stroke-width: 1.5; stroke-linejoin: miter"/>
   </g>
   <g id="patch_29">
    <path d="M 270.584615 68.609053 
L 277.44359 68.609053 
Q 277.786538 68.609053 277.786538 67.42355 
L 277.786538 47.507101 
Q 277.786538 46.321598 277.44359 46.321598 
L 270.584615 46.321598 
Q 270.241667 46.321598 270.241667 47.507101 
L 270.241667 67.42355 
Q 270.241667 68.609053 270.584615 68.609053 
z
" clip-path="url(#p6d67aba8aa)" style="fill: #c0392b; opacity: 0.92; stroke: #ffffff; stroke-width: 1.5; stroke-linejoin: miter"/>
   </g>
   <g id="patch_30">
    <path d="M 311.738462 68.609053 
L 318.597436 68.609053 
Q 318.940385 68.609053 318.940385 67.42355 
L 318.940385 47.507101 
Q 318.940385 46.321598 318.597436 46.321598 
L 311.738462 46.321598 
Q 311.395513 46.321598 311.395513 47.507101 
L 311.395513 67.42355 
Q 311.395513 68.609053 311.738462 68.609053 
z
" clip-path="url(#p6d67aba8aa)" style="fill: #c0392b; opacity: 0.92; stroke: #ffffff; stroke-width: 1.5; stroke-linejoin: miter"/>
   </g>
   <g id="patch_31">
    <path d="M 352.892308 68.609053 
L 359.751282 68.609053 
Q 360.094231 68.609053 360.094231 67.42355 
L 360.094231 47.507101 
Q 360.094231 46.321598 359.751282 46.321598 
L 352.892308 46.321598 
Q 352.549359 46.321598 352.549359 47.507101 
L 352.549359 67.42355 
Q 352.549359 68.609053 352.892308 68.609053 
z
" clip-path="url(#p6d67aba8aa)" style="fill: #c0392b; opacity: 0.92; stroke: #ffffff; stroke-width: 1.5; stroke-linejoin: miter"/>
   </g>
   <g id="patch_32">
    <path d="M 394.046154 68.609053 
L 400.905128 68.609053 
Q 401.248077 68.609053 401.248077 67.42355 
L 401.248077 47.507101 
Q 401.248077 46.321598 400.905128 46.321598 
L 394.046154 46.321598 
Q 393.703205 46.321598 393.703205 47.507101 
L 393.703205 67.42355 
Q 393.703205 68.609053 394.046154 68.609053 
z
" clip-path="url(#p6d67aba8aa)" style="fill: #c0392b; opacity: 0.92; stroke: #ffffff; stroke-width: 1.5; stroke-linejoin: miter"/>
   </g>
   <g id="patch_33">
    <path d="M 435.2 68.609053 
L 442.058974 68.609053 
Q 442.401923 68.609053 442.401923 67.42355 
L 442.401923 47.507101 
Q 442.401923 46.321598 442.058974 46.321598 
L 435.2 46.321598 
Q 434.857051 46.321598 434.857051 47.507101 
L 434.857051 67.42355 
Q 434.857051 68.609053 435.2 68.609053 
z
" clip-path="url(#p6d67aba8aa)" style="fill: #c0392b; opacity: 0.92; stroke: #ffffff; stroke-width: 1.5; stroke-linejoin: miter"/>
   </g>
   <g id="patch_34">
    <path d="M 476.353846 68.609053 
L 483.212821 68.609053 
Q 483.555769 68.609053 483.555769 67.42355 
L 483.555769 47.507101 
Q 483.555769 46.321598 483.212821 46.321598 
L 476.353846 46.321598 
Q 476.010897 46.321598 476.010897 47.507101 
L 476.010897 67.42355 
Q 476.010897 68.609053 476.353846 68.609053 
z
" clip-path="url(#p6d67aba8aa)" style="fill: #c0392b; opacity: 0.92; stroke: #ffffff; stroke-width: 1.5; stroke-linejoin: miter"/>
   </g>
   <g id="patch_35">
    <path d="M 517.507692 68.609053 
L 524.366667 68.609053 
Q 524.709615 68.609053 524.709615 67.42355 
L 524.709615 47.507101 
Q 524.709615 46.321598 524.366667 46.321598 
L 517.507692 46.321598 
Q 517.164744 46.321598 517.164744 47.507101 
L 517.164744 67.42355 
Q 517.164744 68.609053 517.507692 68.609053 
z
" clip-path="url(#p6d67aba8aa)" style="fill: #c0392b; opacity: 0.92; stroke: #ffffff; stroke-width: 1.5; stroke-linejoin: miter"/>
   </g>
   <g id="patch_36">
    <path d="M 558.661538 68.609053 
L 565.520513 68.609053 
Q 565.863462 68.609053 565.863462 67.42355 
L 565.863462 47.507101 
Q 565.863462 46.321598 565.520513 46.321598 
L 558.661538 46.321598 
Q 558.31859 46.321598 558.31859 47.507101 
L 558.31859 67.42355 
Q 558.31859 68.609053 558.661538 68.609053 
z
" clip-path="url(#p6d67aba8aa)" style="fill: #c0392b; opacity: 0.92; stroke: #ffffff; stroke-width: 1.5; stroke-linejoin: miter"/>
   </g>
   <g id="patch_37">
    <path d="M 599.815385 68.609053 
L 606.674359 68.609053 
Q 607.017308 68.609053 607.017308 67.42355 
L 607.017308 47.507101 
Q 607.017308 46.321598 606.674359 46.321598 
L 599.815385 46.321598 
Q 599.472436 46.321598 599.472436 47.507101 
L 599.472436 67.42355 
Q 599.472436 68.609053 599.815385 68.609053 
z
" clip-path="url(#p6d67aba8aa)" style="fill: #c0392b; opacity: 0.92; stroke: #ffffff; stroke-width: 1.5; stroke-linejoin: miter"/>
   </g>
   <g id="patch_38">
    <path d="M 640.969231 68.609053 
L 647.828205 68.609053 
Q 648.171154 68.609053 648.171154 67.42355 
L 648.171154 47.507101 
Q 648.171154 46.321598 647.828205 46.321598 
L 640.969231 46.321598 
Q 640.626282 46.321598 640.626282 47.507101 
L 640.626282 67.42355 
Q 640.626282 68.609053 640.969231 68.609053 
z
" clip-path="url(#p6d67aba8aa)" style="fill: #c0392b; opacity: 0.92; stroke: #ffffff; stroke-width: 1.5; stroke-linejoin: miter"/>
   </g>
   <g id="patch_39">
    <path d="M 682.123077 68.609053 
L 688.982051 68.609053 
Q 689.325 68.609053 689.325 67.42355 
L 689.325 47.507101 
Q 689.325 46.321598 688.982051 46.321598 
L 682.123077 46.321598 
Q 681.780128 46.321598 681.780128 47.507101 
L 681.780128 67.42355 
Q 681.780128 68.609053 682.123077 68.609053 
z
" clip-path="url(#p6d67aba8aa)" style="fill: #c0392b; opacity: 0.92; stroke: #ffffff; stroke-width: 1.5; stroke-linejoin: miter"/>
   </g>
   <g id="patch_40">
    <path d="M 723.276923 68.609053 
L 730.135897 68.609053 
Q 730.478846 68.609053 730.478846 67.42355 
L 730.478846 47.507101 
Q 730.478846 46.321598 730.135897 46.321598 
L 723.276923 46.321598 
Q 722.933974 46.321598 722.933974 47.507101 
L 722.933974 67.42355 
Q 722.933974 68.609053 723.276923 68.609053 
z
" clip-path="url(#p6d67aba8aa)" style="fill: #c0392b; opacity: 0.92; stroke: #ffffff; stroke-width: 1.5; stroke-linejoin: miter"/>
   </g>
   <g id="patch_41">
    <path d="M 764.430769 68.609053 
L 771.289744 68.609053 
Q 771.632692 68.609053 771.632692 67.42355 
L 771.632692 47.507101 
Q 771.632692 46.321598 771.289744 46.321598 
L 764.430769 46.321598 
Q 764.087821 46.321598 764.087821 47.507101 
L 764.087821 67.42355 
Q 764.087821 68.609053 764.430769 68.609053 
z
" clip-path="url(#p6d67aba8aa)" style="fill: #c0392b; opacity: 0.92; stroke: #ffffff; stroke-width: 1.5; stroke-linejoin: miter"/>
   </g>
   <g id="patch_42">
    <path d="M 805.584615 68.609053 
L 812.44359 68.609053 
Q 812.786538 68.609053 812.786538 67.42355 
L 812.786538 47.507101 
Q 812.786538 46.321598 812.44359 46.321598 
L 805.584615 46.321598 
Q 805.241667 46.321598 805.241667 47.507101 
L 805.241667 67.42355 
Q 805.241667 68.609053 805.584615 68.609053 
z
" clip-path="url(#p6d67aba8aa)" style="fill: #c0392b; opacity: 0.92; stroke: #ffffff; stroke-width: 1.5; stroke-linejoin: miter"/>
   </g>
   <g id="patch_43">
    <path d="M 7.2 87.34 
L 863.2 87.34 
" style="fill: none; stroke: #bbbbbb; stroke-width: 0.8; stroke-linejoin: miter; stroke-linecap: square"/>
   </g>
   <g id="legend_1">
    <g id="patch_44">
     <path d="M 808.011562 25.875781 
L 858.3 25.875781 
Q 859.7 25.875781 859.7 24.475781 
L 859.7 12.1 
Q 859.7 10.7 858.3 10.7 
L 808.011562 10.7 
Q 806.611562 10.7 806.611562 12.1 
L 806.611562 24.475781 
Q 806.611562 25.875781 808.011562 25.875781 
z
" style="fill: #ffffff; opacity: 0.9; stroke: #dddddd; stroke-linejoin: miter"/>
    </g>
    <g id="patch_45">
     <path d="M 810.811563 20.71 
L 817.811563 20.71 
L 817.811563 14.9 
L 810.811563 14.9 
z
" style="fill: #c0392b; opacity: 0.92"/>
    </g>
    <g id="text_9">
     <!-- Multipole -->
     <g transform="translate(823.411563 20.22) scale(0.07 -0.07)">
      <defs>
       <path id="DejaVuSans-4d" d="M 628 4666 
L 1569 4666 
L 2759 1491 
L 3956 4666 
L 4897 4666 
L 4897 0 
L 4281 0 
L 4281 4097 
L 3078 897 
L 2444 897 
L 1241 4097 
L 1241 0 
L 628 0 
L 628 4666 
z
" transform="scale(0.015625)"/>
       <path id="DejaVuSans-75" d="M 544 1381 
L 544 3500 
L 1119 3500 
L 1119 1403 
Q 1119 906 1312 657 
Q 1506 409 1894 409 
Q 2359 409 2629 706 
Q 2900 1003 2900 1516 
L 2900 3500 
L 3475 3500 
L 3475 0 
L 2900 0 
L 2900 538 
Q 2691 219 2414 64 
Q 2138 -91 1772 -91 
Q 1169 -91 856 284 
Q 544 659 544 1381 
z
M 1991 3584 
L 1991 3584 
z
" transform="scale(0.015625)"/>
       <path id="DejaVuSans-6c" d="M 603 4863 
L 1178 4863 
L 1178 0 
L 603 0 
L 603 4863 
z
" transform="scale(0.015625)"/>
       <path id="DejaVuSans-74" d="M 1172 4494 
L 1172 3500 
L 2356 3500 
L 2356 3053 
L 1172 3053 
L 1172 1153 
Q 1172 725 1289 603 
Q 1406 481 1766 481 
L 2356 481 
L 2356 0 
L 1766 0 
Q 1100 0 847 248 
Q 594 497 594 1153 
L 594 3053 
L 172 3053 
L 172 3500 
L 594 3500 
L 594 4494 
L 1172 4494 
z
" transform="scale(0.015625)"/>
       <path id="DejaVuSans-69" d="M 603 3500 
L 1178 3500 
L 1178 0 
L 603 0 
L 603 3500 
z
M 603 4863 
L 1178 4863 
L 1178 4134 
L 603 4134 
L 603 4863 
z
" transform="scale(0.015625)"/>
       <path id="DejaVuSans-70" d="M 1159 525 
L 1159 -1331 
L 581 -1331 
L 581 3500 
L 1159 3500 
L 1159 2969 
Q 1341 3281 1617 3432 
Q 1894 3584 2278 3584 
Q 2916 3584 3314 3078 
Q 3713 2572 3713 1747 
Q 3713 922 3314 415 
Q 2916 -91 2278 -91 
Q 1894 -91 1617 61 
Q 1341 213 1159 525 
z
M 3116 1747 
Q 3116 2381 2855 2742 
Q 2594 3103 2138 3103 
Q 1681 3103 1420 2742 
Q 1159 2381 1159 1747 
Q 1159 1113 1420 752 
Q 1681 391 2138 391 
Q 2594 391 2855 752 
Q 3116 1113 3116 1747 
z
" transform="scale(0.015625)"/>
       <path id="DejaVuSans-6f" d="M 1959 3097 
Q 1497 3097 1228 2736 
Q 959 2375 959 1747 
Q 959 1119 1226 758 
Q 1494 397 1959 397 
Q 2419 397 2687 759 
Q 2956 1122 2956 1747 
Q 2956 2369 2687 2733 
Q 2419 3097 1959 3097 
z
M 1959 3584 
Q 2709 3584 3137 3096 
Q 3566 2609 3566 1747 
Q 3566 888 3137 398 
Q 2709 -91 1959 -91 
Q 1206 -91 779 398 
Q 353 888 353 1747 
Q 353 2609 779 3096 
Q 1206 3584 1959 3584 
z
" transform="scale(0.015625)"/>
       <path id="DejaVuSans-65" d="M 3597 1894 
L 3597 1613 
L 953 1613 
Q 991 1019 1311 708 
Q 1631 397 2203 397 
Q 2534 397 2845 478 
Q 3156 559 3463 722 
L 3463 178 
Q 3153 47 2828 -22 
Q 2503 -91 2169 -91 
Q 1331 -91 842 396 
Q 353 884 353 1716 
Q 353 2575 817 3079 
Q 1281 3584 2069 3584 
Q 2775 3584 3186 3129 
Q 3597 2675 3597 1894 
z
M 3022 2063 
Q 3016 2534 2758 2815 
Q 2500 3097 2075 3097 
Q 1594 3097 1305 2825 
Q 1016 2553 972 2059 
L 3022 2063 
z
" transform="scale(0.015625)"/>
      </defs>
      <use xlink:href="#DejaVuSans-4d"/>
      <use xlink:href="#DejaVuSans-75" transform="translate(86.279297 0)"/>
      <use xlink:href="#DejaVuSans-6c" transform="translate(149.658203 0)"/>
      <use xlink:href="#DejaVuSans-74" transform="translate(177.441406 0)"/>
      <use xlink:href="#DejaVuSans-69" transform="translate(216.650391 0)"/>
      <use xlink:href="#DejaVuSans-70" transform="translate(244.433594 0)"/>
      <use xlink:href="#DejaVuSans-6f" transform="translate(307.910156 0)"/>
      <use xlink:href="#DejaVuSans-6c" transform="translate(369.091797 0)"/>
      <use xlink:href="#DejaVuSans-65" transform="translate(396.875 0)"/>
     </g>
    </g>
   </g>
  </g>
 </g>
 <defs>
  <clipPath id="p6d67aba8aa">
   <rect x="7.2" y="7.2" width="856" height="80.14"/>
  </clipPath>
 </defs>
</svg>
