<?xml version="1.0" encoding="utf-8" standalone="no"?>
<!DOCTYPE svg PUBLIC "-//W3C//DTD SVG 1.1//EN"
  "http://www.w3.org/Graphics/SVG/1.1/DTD/svg11.dtd">
<svg xmlns:xlink="http://www.w3.org/1999/xlink" width="648pt" height="324pt" viewBox="0 0 648 324" xmlns="http://www.w3.org/2000/svg" version="1.1">
 <metadata>
  <rdf:RDF xmlns:dc="http://purl.org/dc/elements/1.1/" xmlns:cc="http://creativecommons.org/ns#" xmlns:rdf="http://www.w3.org/1999/02/22-rdf-syntax-ns#">
   <cc:Work>
    <dc:type rdf:resource="http://purl.org/dc/dcmitype/StillImage"/>
    <dc:date>2026-04-26T09:11:29.358508</dc:date>
    <dc:format>image/svg+xml</dc:format>
    <dc:creator>
     <cc:Agent>
      <dc:title>Matplotlib v3.10.8, https://matplotlib.org/</dc:title>
     </cc:Agent>
    </dc:creator>
   </cc:Work>
  </rdf:RDF>
 </metadata>
 <defs>
  <style type="text/css">*{stroke-linejoin: round; stroke-linecap: butt}</style>
 </defs>
 <g id="figure_1">
  <g id="patch_1">
   <path d="M 0 324 
L 648 324 
L 648 0 
L 0 0 
z
" style="fill: #ffffff"/>
  </g>
  <g id="axes_1">
   <g id="patch_2">
    <path d="M 66.62 282.04 
L 592 282.04 
L 592 26.88 
L 66.62 26.88 
z
" style="fill: #ffffff"/>
   </g>
   <g id="matplotlib.axis_1">
    <g id="xtick_1">
     <g id="line2d_1">
      <path d="M 90.2621 282.04 
L 90.2621 26.88 
" clip-path="url(#p2a532fb83b)" style="fill: none; stroke: #b0b0b0; stroke-width: 0.8; stroke-linecap: square"/>
     </g>
     <g id="line2d_2">
      <defs>
       <path id="m9ed489e972" d="M 0 0 
L 0 3.5 
" style="stroke: #000000; stroke-width: 0.8"/>
      </defs>
      <g>
       <use xlink:href="#m9ed489e972" x="90.2621" y="282.04" style="stroke: #000000; stroke-width: 0.8"/>
      </g>
     </g>
     <g id="text_1">
      <!-- 0 -->
      <g transform="translate(87.08085 296.638438) scale(0.1 -0.1)">
       <defs>
        <path id="DejaVuSans-30" d="M 2034 4250 
Q 1547 4250 1301 3770 
Q 1056 3291 1056 2328 
Q 1056 1369 1301 889 
Q 1547 409 2034 409 
Q 2525 409 2770 889 
Q 3016 1369 3016 2328 
Q 3016 3291 2770 3770 
Q 2525 4250 2034 4250 
z
M 2034 4750 
Q 2819 4750 3233 4129 
Q 3647 3509 3647 2328 
Q 3647 1150 3233 529 
Q 2819 -91 2034 -91 
Q 1250 -91 836 529 
Q 422 1150 422 2328 
Q 422 3509 836 4129 
Q 1250 4750 2034 4750 
z
" transform="scale(0.015625)"/>
       </defs>
       <use xlink:href="#DejaVuSans-30"/>
      </g>
     </g>
    </g>
    <g id="xtick_2">
     <g id="line2d_3">
      <path d="M 169.920249 282.04 
L 169.920249 26.88 
" clip-path="url(#p2a532fb83b)" style="fill: none; stroke: #b0b0b0; stroke-width: 0.8; stroke-linecap: square"/>
     </g>
     <g id="line2d_4">
      <g>
       <use xlink:href="#m9ed489e972" x="169.920249" y="282.04" style="stroke: #000000; stroke-width: 0.8"/>
      </g>
     </g>
     <g id="text_2">
      <!-- 10 -->
      <g transform="translate(163.557749 296.638438) scale(0.1 -0.1)">
       <defs>
        <path id="DejaVuSans-31" d="M 794 531 
L 1825 531 
L 1825 4091 
L 703 3866 
L 703 4441 
L 1819 4666 
L 2450 4666 
L 2450 531 
L 3481 531 
L 3481 0 
L 794 0 
L 794 531 
z
" transform="scale(0.015625)"/>
       </defs>
       <use xlink:href="#DejaVuSans-31"/>
       <use xlink:href="#DejaVuSans-30" transform="translate(63.623047 0)"/>
      </g>
     </g>
    </g>
    <g id="xtick_3">
     <g id="line2d_5">
      <path d="M 249.578397 282.04 
L 249.578397 26.88 
" clip-path="url(#p2a532fb83b)" style="fill: none; stroke: #b0b0b0; stroke-width: 0.8; stroke-linecap: square"/>
     </g>
     <g id="line2d_6">
      <g>
       <use xlink:href="#m9ed489e972" x="249.578397" y="282.04" style="stroke: #000000; stroke-width: 0.8"/>
      </g>
     </g>
     <g id="text_3">
      <!-- 20 -->
      <g transform="translate(243.215897 296.638438) scale(0.1 -0.1)">
       <defs>
        <path id="DejaVuSans-32" d="M 1228 531 
L 3431 531 
L 3431 0 
L 469 0 
L 469 531 
Q 828 903 1448 1529 
Q 2069 2156 2228 2338 
Q 2531 2678 2651 2914 
Q 2772 3150 2772 3378 
Q 2772 3750 2511 3984 
Q 2250 4219 1831 4219 
Q 1534 4219 1204 4116 
Q 875 4013 500 3803 
L 500 4441 
Q 881 4594 1212 4672 
Q 1544 4750 1819 4750 
Q 2544 4750 2975 4387 
Q 3406 4025 3406 3419 
Q 3406 3131 3298 2873 
Q 3191 2616 2906 2266 
Q 2828 2175 2409 1742 
Q 1991 1309 1228 531 
z
" transform="scale(0.015625)"/>
       </defs>
       <use xlink:href="#DejaVuSans-32"/>
       <use xlink:href="#DejaVuSans-30" transform="translate(63.623047 0)"/>
      </g>
     </g>
    </g>
    <g id="xtick_4">
     <g id="line2d_7">
      <path d="M 329.236546 282.04 
L 329.236546 26.88 
" clip-path="url(#p2a532fb83b)" style="fill: none; stroke: #b0b0b0; stroke-width: 0.8; stroke-linecap: square"/>
     </g>
     <g id="line2d_8">
      <g>
       <use xlink:href="#m9ed489e972" x="329.236546" y="282.04" style="stroke: #000000; stroke-width: 0.8"/>
      </g>
     </g>
     <g id="text_4">
      <!-- 30 -->
      <g transform="translate(322.874046 296.638438) scale(0.1 -0.1)">
       <defs>
        <path id="DejaVuSans-33" d="M 2597 2516 
Q 3050 2419 3304 2112 
Q 3559 1806 3559 1356 
Q 3559 666 3084 287 
Q 2609 -91 1734 -91 
Q 1441 -91 1130 -33 
Q 819 25 488 141 
L 488 750 
Q 750 597 1062 519 
Q 1375 441 1716 441 
Q 2309 441 2620 675 
Q 2931 909 2931 1356 
Q 2931 1769 2642 2001 
Q 2353 2234 1838 2234 
L 1294 2234 
L 1294 2753 
L 1863 2753 
Q 2328 2753 2575 2939 
Q 2822 3125 2822 3475 
Q 2822 3834 2567 4026 
Q 2313 4219 1838 4219 
Q 1578 4219 1281 4162 
Q 984 4106 628 3988 
L 628 4550 
Q 988 4650 1302 4700 
Q 1616 4750 1894 4750 
Q 2613 4750 3031 4423 
Q 3450 4097 3450 3541 
Q 3450 3153 3228 2886 
Q 3006 2619 2597 2516 
z
" transform="scale(0.015625)"/>
       </defs>
       <use xlink:href="#DejaVuSans-33"/>
       <use xlink:href="#DejaVuSans-30" transform="translate(63.623047 0)"/>
      </g>
     </g>
    </g>
    <g id="xtick_5">
     <g id="line2d_9">
      <path d="M 408.894695 282.04 
L 408.894695 26.88 
" clip-path="url(#p2a532fb83b)" style="fill: none; stroke: #b0b0b0; stroke-width: 0.8; stroke-linecap: square"/>
     </g>
     <g id="line2d_10">
      <g>
       <use xlink:href="#m9ed489e972" x="408.894695" y="282.04" style="stroke: #000000; stroke-width: 0.8"/>
      </g>
     </g>
     <g id="text_5">
      <!-- 40 -->
      <g transform="translate(402.532195 296.638438) scale(0.1 -0.1)">
       <defs>
        <path id="DejaVuSans-34" d="M 2419 4116 
L 825 1625 
L 2419 1625 
L 2419 4116 
z
M 2253 4666 
L 3047 4666 
L 3047 1625 
L 3713 1625 
L 3713 1100 
L 3047 1100 
L 3047 0 
L 2419 0 
L 2419 1100 
L 313 1100 
L 313 1709 
L 2253 4666 
z
" transform="scale(0.015625)"/>
       </defs>
       <use xlink:href="#DejaVuSans-34"/>
       <use xlink:href="#DejaVuSans-30" transform="translate(63.623047 0)"/>
      </g>
     </g>
    </g>
    <g id="xtick_6">
     <g id="line2d_11">
      <path d="M 488.552844 282.04 
L 488.552844 26.88 
" clip-path="url(#p2a532fb83b)" style="fill: none; stroke: #b0b0b0; stroke-width: 0.8; stroke-linecap: square"/>
     </g>
     <g id="line2d_12">
      <g>
       <use xlink:href="#m9ed489e972" x="488.552844" y="282.04" style="stroke: #000000; stroke-width: 0.8"/>
      </g>
     </g>
     <g id="text_6">
      <!-- 50 -->
      <g transform="translate(482.190344 296.638438) scale(0.1 -0.1)">
       <defs>
        <path id="DejaVuSans-35" d="M 691 4666 
L 3169 4666 
L 3169 4134 
L 1269 4134 
L 1269 2991 
Q 1406 3038 1543 3061 
Q 1681 3084 1819 3084 
Q 2600 3084 3056 2656 
Q 3513 2228 3513 1497 
Q 3513 744 3044 326 
Q 2575 -91 1722 -91 
Q 1428 -91 1123 -41 
Q 819 9 494 109 
L 494 744 
Q 775 591 1075 516 
Q 1375 441 1709 441 
Q 2250 441 2565 725 
Q 2881 1009 2881 1497 
Q 2881 1984 2565 2268 
Q 2250 2553 1709 2553 
Q 1456 2553 1204 2497 
Q 953 2441 691 2322 
L 691 4666 
z
" transform="scale(0.015625)"/>
       </defs>
       <use xlink:href="#DejaVuSans-35"/>
       <use xlink:href="#DejaVuSans-30" transform="translate(63.623047 0)"/>
      </g>
     </g>
    </g>
    <g id="xtick_7">
     <g id="line2d_13">
      <path d="M 568.210992 282.04 
L 568.210992 26.88 
" clip-path="url(#p2a532fb83b)" style="fill: none; stroke: #b0b0b0; stroke-width: 0.8; stroke-linecap: square"/>
     </g>
     <g id="line2d_14">
      <g>
       <use xlink:href="#m9ed489e972" x="568.210992" y="282.04" style="stroke: #000000; stroke-width: 0.8"/>
      </g>
     </g>
     <g id="text_7">
      <!-- 60 -->
      <g transform="translate(561.848492 296.638438) scale(0.1 -0.1)">
       <defs>
        <path id="DejaVuSans-36" d="M 2113 2584 
Q 1688 2584 1439 2293 
Q 1191 2003 1191 1497 
Q 1191 994 1439 701 
Q 1688 409 2113 409 
Q 2538 409 2786 701 
Q 3034 994 3034 1497 
Q 3034 2003 2786 2293 
Q 2538 2584 2113 2584 
z
M 3366 4563 
L 3366 3988 
Q 3128 4100 2886 4159 
Q 2644 4219 2406 4219 
Q 1781 4219 1451 3797 
Q 1122 3375 1075 2522 
Q 1259 2794 1537 2939 
Q 1816 3084 2150 3084 
Q 2853 3084 3261 2657 
Q 3669 2231 3669 1497 
Q 3669 778 3244 343 
Q 2819 -91 2113 -91 
Q 1303 -91 875 529 
Q 447 1150 447 2328 
Q 447 3434 972 4092 
Q 1497 4750 2381 4750 
Q 2619 4750 2861 4703 
Q 3103 4656 3366 4563 
z
" transform="scale(0.015625)"/>
       </defs>
       <use xlink:href="#DejaVuSans-36"/>
       <use xlink:href="#DejaVuSans-30" transform="translate(63.623047 0)"/>
      </g>
     </g>
    </g>
    <g id="text_8">
     <!-- s [m] -->
     <g transform="translate(316.344375 310.316563) scale(0.1 -0.1)">
      <defs>
       <path id="DejaVuSans-73" d="M 2834 3397 
L 2834 2853 
Q 2591 2978 2328 3040 
Q 2066 3103 1784 3103 
Q 1356 3103 1142 2972 
Q 928 2841 928 2578 
Q 928 2378 1081 2264 
Q 1234 2150 1697 2047 
L 1894 2003 
Q 2506 1872 2764 1633 
Q 3022 1394 3022 966 
Q 3022 478 2636 193 
Q 2250 -91 1575 -91 
Q 1294 -91 989 -36 
Q 684 19 347 128 
L 347 722 
Q 666 556 975 473 
Q 1284 391 1588 391 
Q 1994 391 2212 530 
Q 2431 669 2431 922 
Q 2431 1156 2273 1281 
Q 2116 1406 1581 1522 
L 1381 1569 
Q 847 1681 609 1914 
Q 372 2147 372 2553 
Q 372 3047 722 3315 
Q 1072 3584 1716 3584 
Q 2034 3584 2315 3537 
Q 2597 3491 2834 3397 
z
" transform="scale(0.015625)"/>
       <path id="DejaVuSans-20" transform="scale(0.015625)"/>
       <path id="DejaVuSans-5b" d="M 550 4863 
L 1875 4863 
L 1875 4416 
L 1125 4416 
L 1125 -397 
L 1875 -397 
L 1875 -844 
L 550 -844 
L 550 4863 
z
" transform="scale(0.015625)"/>
       <path id="DejaVuSans-6d" d="M 3328 2828 
Q 3544 3216 3844 3400 
Q 4144 3584 4550 3584 
Q 5097 3584 5394 3201 
Q 5691 2819 5691 2113 
L 5691 0 
L 5113 0 
L 5113 2094 
Q 5113 2597 4934 2840 
Q 4756 3084 4391 3084 
Q 3944 3084 3684 2787 
Q 3425 2491 3425 1978 
L 3425 0 
L 2847 0 
L 2847 2094 
Q 2847 2600 2669 2842 
Q 2491 3084 2119 3084 
Q 1678 3084 1418 2786 
Q 1159 2488 1159 1978 
L 1159 0 
L 581 0 
L 581 3500 
L 1159 3500 
L 1159 2956 
Q 1356 3278 1631 3431 
Q 1906 3584 2284 3584 
Q 2666 3584 2933 3390 
Q 3200 3197 3328 2828 
z
" transform="scale(0.015625)"/>
       <path id="DejaVuSans-5d" d="M 1947 4863 
L 1947 -844 
L 622 -844 
L 622 -397 
L 1369 -397 
L 1369 4416 
L 622 4416 
L 622 4863 
L 1947 4863 
z
" transform="scale(0.015625)"/>
      </defs>
      <use xlink:href="#DejaVuSans-73"/>
      <use xlink:href="#DejaVuSans-20" transform="translate(52.099609 0)"/>
      <use xlink:href="#DejaVuSans-5b" transform="translate(83.886719 0)"/>
      <use xlink:href="#DejaVuSans-6d" transform="translate(122.900391 0)"/>
      <use xlink:href="#DejaVuSans-5d" transform="translate(220.3125 0)"/>
     </g>
    </g>
   </g>
   <g id="matplotlib.axis_2">
    <g id="ytick_1">
     <g id="line2d_15">
      <path d="M 66.62 249.707998 
L 592 249.707998 
" clip-path="url(#p2a532fb83b)" style="fill: none; stroke: #b0b0b0; stroke-width: 0.8; stroke-linecap: square"/>
     </g>
     <g id="line2d_16">
      <defs>
       <path id="mec53cabedf" d="M 0 0 
L -3.5 0 
" style="stroke: #000000; stroke-width: 0.8"/>
      </defs>
      <g>
       <use xlink:href="#mec53cabedf" x="66.62" y="249.707998" style="stroke: #000000; stroke-width: 0.8"/>
      </g>
     </g>
     <g id="text_9">
      <!-- 0.0025 -->
      <g transform="translate(24.629375 253.507217) scale(0.1 -0.1)">
       <defs>
        <path id="DejaVuSans-2e" d="M 684 794 
L 1344 794 
L 1344 0 
L 684 0 
L 684 794 
z
" transform="scale(0.015625)"/>
       </defs>
       <use xlink:href="#DejaVuSans-30"/>
       <use xlink:href="#DejaVuSans-2e" transform="translate(63.623047 0)"/>
       <use xlink:href="#DejaVuSans-30" transform="translate(95.410156 0)"/>
       <use xlink:href="#DejaVuSans-30" transform="translate(159.033203 0)"/>
       <use xlink:href="#DejaVuSans-32" transform="translate(222.65625 0)"/>
       <use xlink:href="#DejaVuSans-35" transform="translate(286.279297 0)"/>
      </g>
     </g>
    </g>
    <g id="ytick_2">
     <g id="line2d_17">
      <path d="M 66.62 215.085274 
L 592 215.085274 
" clip-path="url(#p2a532fb83b)" style="fill: none; stroke: #b0b0b0; stroke-width: 0.8; stroke-linecap: square"/>
     </g>
     <g id="line2d_18">
      <g>
       <use xlink:href="#mec53cabedf" x="66.62" y="215.085274" style="stroke: #000000; stroke-width: 0.8"/>
      </g>
     </g>
     <g id="text_10">
      <!-- 0.0050 -->
      <g transform="translate(24.629375 218.884493) scale(0.1 -0.1)">
       <use xlink:href="#DejaVuSans-30"/>
       <use xlink:href="#DejaVuSans-2e" transform="translate(63.623047 0)"/>
       <use xlink:href="#DejaVuSans-30" transform="translate(95.410156 0)"/>
       <use xlink:href="#DejaVuSans-30" transform="translate(159.033203 0)"/>
       <use xlink:href="#DejaVuSans-35" transform="translate(222.65625 0)"/>
       <use xlink:href="#DejaVuSans-30" transform="translate(286.279297 0)"/>
      </g>
     </g>
    </g>
    <g id="ytick_3">
     <g id="line2d_19">
      <path d="M 66.62 180.46255 
L 592 180.46255 
" clip-path="url(#p2a532fb83b)" style="fill: none; stroke: #b0b0b0; stroke-width: 0.8; stroke-linecap: square"/>
     </g>
     <g id="line2d_20">
      <g>
       <use xlink:href="#mec53cabedf" x="66.62" y="180.46255" style="stroke: #000000; stroke-width: 0.8"/>
      </g>
     </g>
     <g id="text_11">
      <!-- 0.0075 -->
      <g transform="translate(24.629375 184.261769) scale(0.1 -0.1)">
       <defs>
        <path id="DejaVuSans-37" d="M 525 4666 
L 3525 4666 
L 3525 4397 
L 1831 0 
L 1172 0 
L 2766 4134 
L 525 4134 
L 525 4666 
z
" transform="scale(0.015625)"/>
       </defs>
       <use xlink:href="#DejaVuSans-30"/>
       <use xlink:href="#DejaVuSans-2e" transform="translate(63.623047 0)"/>
       <use xlink:href="#DejaVuSans-30" transform="translate(95.410156 0)"/>
       <use xlink:href="#DejaVuSans-30" transform="translate(159.033203 0)"/>
       <use xlink:href="#DejaVuSans-37" transform="translate(222.65625 0)"/>
       <use xlink:href="#DejaVuSans-35" transform="translate(286.279297 0)"/>
      </g>
     </g>
    </g>
    <g id="ytick_4">
     <g id="line2d_21">
      <path d="M 66.62 145.839826 
L 592 145.839826 
" clip-path="url(#p2a532fb83b)" style="fill: none; stroke: #b0b0b0; stroke-width: 0.8; stroke-linecap: square"/>
     </g>
     <g id="line2d_22">
      <g>
       <use xlink:href="#mec53cabedf" x="66.62" y="145.839826" style="stroke: #000000; stroke-width: 0.8"/>
      </g>
     </g>
     <g id="text_12">
      <!-- 0.0100 -->
      <g transform="translate(24.629375 149.639045) scale(0.1 -0.1)">
       <use xlink:href="#DejaVuSans-30"/>
       <use xlink:href="#DejaVuSans-2e" transform="translate(63.623047 0)"/>
       <use xlink:href="#DejaVuSans-30" transform="translate(95.410156 0)"/>
       <use xlink:href="#DejaVuSans-31" transform="translate(159.033203 0)"/>
       <use xlink:href="#DejaVuSans-30" transform="translate(222.65625 0)"/>
       <use xlink:href="#DejaVuSans-30" transform="translate(286.279297 0)"/>
      </g>
     </g>
    </g>
    <g id="ytick_5">
     <g id="line2d_23">
      <path d="M 66.62 111.217103 
L 592 111.217103 
" clip-path="url(#p2a532fb83b)" style="fill: none; stroke: #b0b0b0; stroke-width: 0.8; stroke-linecap: square"/>
     </g>
     <g id="line2d_24">
      <g>
       <use xlink:href="#mec53cabedf" x="66.62" y="111.217103" style="stroke: #000000; stroke-width: 0.8"/>
      </g>
     </g>
     <g id="text_13">
      <!-- 0.0125 -->
      <g transform="translate(24.629375 115.016321) scale(0.1 -0.1)">
       <use xlink:href="#DejaVuSans-30"/>
       <use xlink:href="#DejaVuSans-2e" transform="translate(63.623047 0)"/>
       <use xlink:href="#DejaVuSans-30" transform="translate(95.410156 0)"/>
       <use xlink:href="#DejaVuSans-31" transform="translate(159.033203 0)"/>
       <use xlink:href="#DejaVuSans-32" transform="translate(222.65625 0)"/>
       <use xlink:href="#DejaVuSans-35" transform="translate(286.279297 0)"/>
      </g>
     </g>
    </g>
    <g id="ytick_6">
     <g id="line2d_25">
      <path d="M 66.62 76.594379 
L 592 76.594379 
" clip-path="url(#p2a532fb83b)" style="fill: none; stroke: #b0b0b0; stroke-width: 0.8; stroke-linecap: square"/>
     </g>
     <g id="line2d_26">
      <g>
       <use xlink:href="#mec53cabedf" x="66.62" y="76.594379" style="stroke: #000000; stroke-width: 0.8"/>
      </g>
     </g>
     <g id="text_14">
      <!-- 0.0150 -->
      <g transform="translate(24.629375 80.393597) scale(0.1 -0.1)">
       <use xlink:href="#DejaVuSans-30"/>
       <use xlink:href="#DejaVuSans-2e" transform="translate(63.623047 0)"/>
       <use xlink:href="#DejaVuSans-30" transform="translate(95.410156 0)"/>
       <use xlink:href="#DejaVuSans-31" transform="translate(159.033203 0)"/>
       <use xlink:href="#DejaVuSans-35" transform="translate(222.65625 0)"/>
       <use xlink:href="#DejaVuSans-30" transform="translate(286.279297 0)"/>
      </g>
     </g>
    </g>
    <g id="ytick_7">
     <g id="line2d_27">
      <path d="M 66.62 41.971655 
L 592 41.971655 
" clip-path="url(#p2a532fb83b)" style="fill: none; stroke: #b0b0b0; stroke-width: 0.8; stroke-linecap: square"/>
     </g>
     <g id="line2d_28">
      <g>
       <use xlink:href="#mec53cabedf" x="66.62" y="41.971655" style="stroke: #000000; stroke-width: 0.8"/>
      </g>
     </g>
     <g id="text_15">
      <!-- 0.0175 -->
      <g transform="translate(24.629375 45.770874) scale(0.1 -0.1)">
       <use xlink:href="#DejaVuSans-30"/>
       <use xlink:href="#DejaVuSans-2e" transform="translate(63.623047 0)"/>
       <use xlink:href="#DejaVuSans-30" transform="translate(95.410156 0)"/>
       <use xlink:href="#DejaVuSans-31" transform="translate(159.033203 0)"/>
       <use xlink:href="#DejaVuSans-37" transform="translate(222.65625 0)"/>
       <use xlink:href="#DejaVuSans-35" transform="translate(286.279297 0)"/>
      </g>
     </g>
    </g>
    <g id="text_16">
     <!-- rms(y) [m] -->
     <g transform="translate(18.549688 181.124844) rotate(-90) scale(0.1 -0.1)">
      <defs>
       <path id="DejaVuSans-72" d="M 2631 2963 
Q 2534 3019 2420 3045 
Q 2306 3072 2169 3072 
Q 1681 3072 1420 2755 
Q 1159 2438 1159 1844 
L 1159 0 
L 581 0 
L 581 3500 
L 1159 3500 
L 1159 2956 
Q 1341 3275 1631 3429 
Q 1922 3584 2338 3584 
Q 2397 3584 2469 3576 
Q 2541 3569 2628 3553 
L 2631 2963 
z
" transform="scale(0.015625)"/>
       <path id="DejaVuSans-28" d="M 1984 4856 
Q 1566 4138 1362 3434 
Q 1159 2731 1159 2009 
Q 1159 1288 1364 580 
Q 1569 -128 1984 -844 
L 1484 -844 
Q 1016 -109 783 600 
Q 550 1309 550 2009 
Q 550 2706 781 3412 
Q 1013 4119 1484 4856 
L 1984 4856 
z
" transform="scale(0.015625)"/>
       <path id="DejaVuSans-79" d="M 2059 -325 
Q 1816 -950 1584 -1140 
Q 1353 -1331 966 -1331 
L 506 -1331 
L 506 -850 
L 844 -850 
Q 1081 -850 1212 -737 
Q 1344 -625 1503 -206 
L 1606 56 
L 191 3500 
L 800 3500 
L 1894 763 
L 2988 3500 
L 3597 3500 
L 2059 -325 
z
" transform="scale(0.015625)"/>
       <path id="DejaVuSans-29" d="M 513 4856 
L 1013 4856 
Q 1481 4119 1714 3412 
Q 1947 2706 1947 2009 
Q 1947 1309 1714 600 
Q 1481 -109 1013 -844 
L 513 -844 
Q 928 -128 1133 580 
Q 1338 1288 1338 2009 
Q 1338 2731 1133 3434 
Q 928 4138 513 4856 
z
" transform="scale(0.015625)"/>
      </defs>
      <use xlink:href="#DejaVuSans-72"/>
      <use xlink:href="#DejaVuSans-6d" transform="translate(39.363281 0)"/>
      <use xlink:href="#DejaVuSans-73" transform="translate(136.775391 0)"/>
      <use xlink:href="#DejaVuSans-28" transform="translate(188.875 0)"/>
      <use xlink:href="#DejaVuSans-79" transform="translate(227.888672 0)"/>
      <use xlink:href="#DejaVuSans-29" transform="translate(287.068359 0)"/>
      <use xlink:href="#DejaVuSans-20" transform="translate(326.082031 0)"/>
      <use xlink:href="#DejaVuSans-5b" transform="translate(357.869141 0)"/>
      <use xlink:href="#DejaVuSans-6d" transform="translate(396.882812 0)"/>
      <use xlink:href="#DejaVuSans-5d" transform="translate(494.294922 0)"/>
     </g>
    </g>
   </g>
   <g id="line2d_29">
    <path d="M 90.500909 144.433118 
L 90.978527 144.29719 
L 91.456145 143.889002 
L 91.933764 143.207764 
L 92.650191 141.670898 
L 93.366618 139.509843 
L 94.083045 136.715146 
L 98.859227 114.918669 
L 114.859436 42.321739 
L 115.337055 41.068509 
L 115.814673 40.288076 
L 116.292291 39.98196 
L 116.5311 40.006993 
L 117.008718 40.413179 
L 117.486336 41.293437 
L 117.963955 42.646057 
L 120.113236 50.594983 
L 138.740345 119.511242 
L 139.456773 121.109208 
L 139.934391 121.777385 
L 140.412009 122.129458 
L 140.889627 122.166112 
L 141.367245 121.887418 
L 141.844864 121.292834 
L 143.516527 118.213675 
L 162.382445 83.212383 
L 162.860064 82.875671 
L 163.337682 82.930464 
L 163.8153 83.376655 
L 164.292918 84.213375 
L 164.770536 85.438997 
L 165.486964 88.001199 
L 166.681009 93.71875 
L 186.740973 192.277607 
L 187.935018 196.739379 
L 188.890255 199.536611 
L 189.845491 201.672822 
L 199.397855 219.629024 
L 206.323318 232.228522 
L 211.0995 240.874824 
L 212.293545 243.736881 
L 213.7264 247.757234 
L 217.308536 258.205961 
L 219.457818 263.813693 
L 220.890673 266.969508 
L 221.845909 268.64344 
L 222.562336 269.586418 
L 223.278764 270.200444 
L 223.756382 270.404577 
L 224.234 270.435244 
L 224.711618 270.291308 
L 225.428045 269.761054 
L 226.144473 268.890129 
L 227.099709 267.291943 
L 228.293755 264.770006 
L 229.965418 260.602651 
L 232.353509 253.928276 
L 234.7416 246.625478 
L 236.174455 241.406861 
L 237.607309 235.382749 
L 248.353718 186.474213 
L 258.3837 140.946778 
L 259.100127 138.707763 
L 259.816555 137.105036 
L 260.294173 136.393629 
L 260.771791 135.969583 
L 261.249409 135.833723 
L 261.965836 136.031462 
L 281.309373 142.468339 
L 281.786991 142.545144 
L 282.264609 142.365751 
L 282.742227 141.910202 
L 283.219845 141.177614 
L 283.936273 139.556026 
L 284.6527 137.300691 
L 285.607936 133.323053 
L 305.906709 41.266055 
L 306.623136 39.356948 
L 307.100755 38.678866 
L 307.578373 38.478182 
L 307.817182 38.557023 
L 308.2948 39.07288 
L 308.772418 40.065368 
L 309.488845 42.397824 
L 329.787618 117.022845 
L 330.504045 118.749876 
L 330.981664 119.498218 
L 331.459282 119.925934 
L 331.9369 120.033857 
L 332.414518 119.822194 
L 332.892136 119.290536 
L 333.847373 117.556167 
L 353.668527 79.977498 
L 354.146145 79.690364 
L 354.623764 79.800887 
L 355.101382 80.30885 
L 355.579 81.213265 
L 356.295427 83.309174 
L 357.011855 86.283772 
L 363.220891 116.931794 
L 378.027055 189.510331 
L 379.2211 193.842031 
L 380.176336 196.508826 
L 381.131573 198.49776 
L 389.967509 214.149753 
L 396.415355 225.145256 
L 402.385582 235.223691 
L 403.579627 238.088224 
L 405.012482 242.199964 
L 408.594618 252.897751 
L 410.982709 259.354116 
L 412.654373 263.229484 
L 413.848418 265.456927 
L 414.803655 266.778214 
L 415.520082 267.434842 
L 416.236509 267.765606 
L 416.714127 267.794629 
L 417.191745 267.66891 
L 417.908173 267.198791 
L 418.6246 266.415862 
L 419.579836 264.952961 
L 420.773882 262.592 
L 422.206736 259.202672 
L 424.117209 254.080198 
L 425.788873 249.113705 
L 427.221727 244.087044 
L 428.654582 238.257315 
L 434.386 212.572855 
L 449.908591 142.734516 
L 450.625018 140.789041 
L 451.341445 139.470553 
L 451.819064 138.942859 
L 452.296682 138.697483 
L 452.7743 138.727029 
L 466.625227 142.88567 
L 472.834264 144.637168 
L 473.311882 144.507838 
L 473.7895 144.10639 
L 474.267118 143.432047 
L 474.983545 141.905848 
L 475.699973 139.755913 
L 476.4164 136.97286 
L 480.476155 118.386553 
L 497.192791 42.12552 
L 497.670409 40.843933 
L 498.148027 40.035523 
L 498.625645 39.701862 
L 498.864455 39.713302 
L 499.342073 40.092693 
L 499.819691 40.946723 
L 500.297309 42.27373 
L 502.207782 49.315822 
L 520.834891 118.242898 
L 521.551318 120.094091 
L 522.267745 121.226097 
L 522.745364 121.583785 
L 523.222982 121.624786 
L 523.7006 121.349181 
L 524.178218 120.756434 
L 525.611073 118.098779 
L 544.954609 81.901493 
L 545.432227 81.725721 
L 545.909845 81.943592 
L 546.387464 82.554681 
L 546.865082 83.557798 
L 547.581509 85.793047 
L 548.297936 88.89307 
L 568.119091 186.263706 
L 568.119091 186.263706 
" clip-path="url(#p2a532fb83b)" style="fill: none; stroke: #1f77b4; stroke-width: 2; stroke-linecap: square"/>
   </g>
   <g id="line2d_30">
    <path d="M 90.500909 144.433122 
L 90.978527 144.29719 
L 91.456145 143.889002 
L 91.933764 143.207764 
L 92.650191 141.670898 
L 93.366618 139.509843 
L 94.083045 136.715146 
L 98.859227 114.918669 
L 114.859436 42.321739 
L 115.337055 41.068509 
L 115.814673 40.288076 
L 116.292291 39.98196 
L 116.5311 40.006992 
L 117.008718 40.413178 
L 117.486336 41.293437 
L 117.963955 42.646057 
L 120.113236 50.594983 
L 138.740345 119.511243 
L 139.456773 121.109208 
L 139.934391 121.777385 
L 140.412009 122.129458 
L 140.889627 122.166112 
L 141.367245 121.887418 
L 141.844864 121.292834 
L 143.516527 118.213675 
L 162.382445 83.212382 
L 162.860064 82.87567 
L 163.337682 82.930463 
L 163.8153 83.376654 
L 164.292918 84.213375 
L 164.770536 85.438997 
L 165.486964 88.001198 
L 166.681009 93.71875 
L 186.740973 192.277607 
L 187.935018 196.73938 
L 188.890255 199.536611 
L 189.845491 201.672822 
L 199.397855 219.629024 
L 206.323318 232.228522 
L 211.0995 240.874824 
L 212.293545 243.736881 
L 213.7264 247.757234 
L 217.308536 258.205961 
L 219.457818 263.813693 
L 220.890673 266.969508 
L 221.845909 268.64344 
L 222.562336 269.586418 
L 223.278764 270.200444 
L 223.756382 270.404577 
L 224.234 270.435244 
L 224.711618 270.291308 
L 225.428045 269.761054 
L 226.144473 268.890129 
L 227.099709 267.291943 
L 228.293755 264.770006 
L 229.965418 260.602651 
L 232.353509 253.928276 
L 234.7416 246.625478 
L 236.174455 241.406861 
L 237.607309 235.382749 
L 248.353718 186.474213 
L 258.3837 140.946779 
L 259.100127 138.707763 
L 259.816555 137.105036 
L 260.294173 136.393629 
L 260.771791 135.969583 
L 261.249409 135.833723 
L 261.965836 136.031462 
L 281.309373 142.468339 
L 281.786991 142.545144 
L 282.264609 142.365751 
L 282.742227 141.910202 
L 283.219845 141.177614 
L 283.936273 139.556026 
L 284.6527 137.300691 
L 285.607936 133.323053 
L 305.906709 41.266055 
L 306.623136 39.356948 
L 307.100755 38.678865 
L 307.578373 38.478182 
L 307.817182 38.557023 
L 308.2948 39.072879 
L 308.772418 40.065368 
L 309.488845 42.397824 
L 329.787618 117.022845 
L 330.504045 118.749877 
L 330.981664 119.498218 
L 331.459282 119.925935 
L 331.9369 120.033857 
L 332.414518 119.822194 
L 332.892136 119.290536 
L 333.847373 117.556167 
L 353.668527 79.977497 
L 354.146145 79.690364 
L 354.623764 79.800886 
L 355.101382 80.308849 
L 355.579 81.213264 
L 356.295427 83.309174 
L 357.011855 86.283772 
L 363.220891 116.931794 
L 378.027055 189.510331 
L 379.2211 193.842032 
L 380.176336 196.508827 
L 381.131573 198.497761 
L 389.967509 214.149753 
L 396.415355 225.145256 
L 402.385582 235.223691 
L 403.579627 238.088224 
L 405.012482 242.199964 
L 408.594618 252.897751 
L 410.982709 259.354116 
L 412.654373 263.229484 
L 413.848418 265.456927 
L 414.803655 266.778214 
L 415.520082 267.434842 
L 416.236509 267.765606 
L 416.714127 267.794629 
L 417.191745 267.66891 
L 417.908173 267.198791 
L 418.6246 266.415862 
L 419.579836 264.952961 
L 420.773882 262.592 
L 422.206736 259.202672 
L 424.117209 254.080198 
L 425.788873 249.113705 
L 427.221727 244.087044 
L 428.654582 238.257315 
L 434.386 212.572855 
L 449.908591 142.734516 
L 450.625018 140.789041 
L 451.341445 139.470554 
L 451.819064 138.942859 
L 452.296682 138.697483 
L 452.7743 138.727029 
L 466.625227 142.88567 
L 472.834264 144.637168 
L 473.311882 144.507838 
L 473.7895 144.10639 
L 474.267118 143.432047 
L 474.983545 141.905848 
L 475.699973 139.755913 
L 476.4164 136.97286 
L 480.476155 118.386553 
L 497.192791 42.125519 
L 497.670409 40.843933 
L 498.148027 40.035523 
L 498.625645 39.701862 
L 498.864455 39.713301 
L 499.342073 40.092693 
L 499.819691 40.946723 
L 500.297309 42.273729 
L 502.207782 49.315822 
L 520.834891 118.242898 
L 521.551318 120.094092 
L 522.267745 121.226097 
L 522.745364 121.583785 
L 523.222982 121.624787 
L 523.7006 121.349181 
L 524.178218 120.756434 
L 525.611073 118.098779 
L 544.954609 81.901492 
L 545.432227 81.725721 
L 545.909845 81.943591 
L 546.387464 82.55468 
L 546.865082 83.557798 
L 547.581509 85.793046 
L 548.297936 88.89307 
L 568.119091 186.263706 
L 568.119091 186.263706 
" clip-path="url(#p2a532fb83b)" style="fill: none; stroke: #ff7f0e; stroke-width: 2; stroke-linecap: square"/>
   </g>
   <g id="patch_3">
    <path d="M 66.62 282.04 
L 66.62 26.88 
" style="fill: none; stroke: #000000; stroke-width: 0.8; stroke-linejoin: miter; stroke-linecap: square"/>
   </g>
   <g id="patch_4">
    <path d="M 592 282.04 
L 592 26.88 
" style="fill: none; stroke: #000000; stroke-width: 0.8; stroke-linejoin: miter; stroke-linecap: square"/>
   </g>
   <g id="patch_5">
    <path d="M 66.62 282.04 
L 592 282.04 
" style="fill: none; stroke: #000000; stroke-width: 0.8; stroke-linejoin: miter; stroke-linecap: square"/>
   </g>
   <g id="patch_6">
    <path d="M 66.62 26.88 
L 592 26.88 
" style="fill: none; stroke: #000000; stroke-width: 0.8; stroke-linejoin: miter; stroke-linecap: square"/>
   </g>
   <g id="text_17">
    <!-- FodoCell-multibeam-fromfile -->
    <g transform="translate(243.928125 20.88) scale(0.12 -0.12)">
     <defs>
      <path id="DejaVuSans-46" d="M 628 4666 
L 3309 4666 
L 3309 4134 
L 1259 4134 
L 1259 2759 
L 3109 2759 
L 3109 2228 
L 1259 2228 
L 1259 0 
L 628 0 
L 628 4666 
z
" transform="scale(0.015625)"/>
      <path id="DejaVuSans-6f" d="M 1959 3097 
Q 1497 3097 1228 2736 
Q 959 2375 959 1747 
Q 959 1119 1226 758 
Q 1494 397 1959 397 
Q 2419 397 2687 759 
Q 2956 1122 2956 1747 
Q 2956 2369 2687 2733 
Q 2419 3097 1959 3097 
z
M 1959 3584 
Q 2709 3584 3137 3096 
Q 3566 2609 3566 1747 
Q 3566 888 3137 398 
Q 2709 -91 1959 -91 
Q 1206 -91 779 398 
Q 353 888 353 1747 
Q 353 2609 779 3096 
Q 1206 3584 1959 3584 
z
" transform="scale(0.015625)"/>
      <path id="DejaVuSans-64" d="M 2906 2969 
L 2906 4863 
L 3481 4863 
L 3481 0 
L 2906 0 
L 2906 525 
Q 2725 213 2448 61 
Q 2172 -91 1784 -91 
Q 1150 -91 751 415 
Q 353 922 353 1747 
Q 353 2572 751 3078 
Q 1150 3584 1784 3584 
Q 2172 3584 2448 3432 
Q 2725 3281 2906 2969 
z
M 947 1747 
Q 947 1113 1208 752 
Q 1469 391 1925 391 
Q 2381 391 2643 752 
Q 2906 1113 2906 1747 
Q 2906 2381 2643 2742 
Q 2381 3103 1925 3103 
Q 1469 3103 1208 2742 
Q 947 2381 947 1747 
z
" transform="scale(0.015625)"/>
      <path id="DejaVuSans-43" d="M 4122 4306 
L 4122 3641 
Q 3803 3938 3442 4084 
Q 3081 4231 2675 4231 
Q 1875 4231 1450 3742 
Q 1025 3253 1025 2328 
Q 1025 1406 1450 917 
Q 1875 428 2675 428 
Q 3081 428 3442 575 
Q 3803 722 4122 1019 
L 4122 359 
Q 3791 134 3420 21 
Q 3050 -91 2638 -91 
Q 1578 -91 968 557 
Q 359 1206 359 2328 
Q 359 3453 968 4101 
Q 1578 4750 2638 4750 
Q 3056 4750 3426 4639 
Q 3797 4528 4122 4306 
z
" transform="scale(0.015625)"/>
      <path id="DejaVuSans-65" d="M 3597 1894 
L 3597 1613 
L 953 1613 
Q 991 1019 1311 708 
Q 1631 397 2203 397 
Q 2534 397 2845 478 
Q 3156 559 3463 722 
L 3463 178 
Q 3153 47 2828 -22 
Q 2503 -91 2169 -91 
Q 1331 -91 842 396 
Q 353 884 353 1716 
Q 353 2575 817 3079 
Q 1281 3584 2069 3584 
Q 2775 3584 3186 3129 
Q 3597 2675 3597 1894 
z
M 3022 2063 
Q 3016 2534 2758 2815 
Q 2500 3097 2075 3097 
Q 1594 3097 1305 2825 
Q 1016 2553 972 2059 
L 3022 2063 
z
" transform="scale(0.015625)"/>
      <path id="DejaVuSans-6c" d="M 603 4863 
L 1178 4863 
L 1178 0 
L 603 0 
L 603 4863 
z
" transform="scale(0.015625)"/>
      <path id="DejaVuSans-2d" d="M 313 2009 
L 1997 2009 
L 1997 1497 
L 313 1497 
L 313 2009 
z
" transform="scale(0.015625)"/>
      <path id="DejaVuSans-75" d="M 544 1381 
L 544 3500 
L 1119 3500 
L 1119 1403 
Q 1119 906 1312 657 
Q 1506 409 1894 409 
Q 2359 409 2629 706 
Q 2900 1003 2900 1516 
L 2900 3500 
L 3475 3500 
L 3475 0 
L 2900 0 
L 2900 538 
Q 2691 219 2414 64 
Q 2138 -91 1772 -91 
Q 1169 -91 856 284 
Q 544 659 544 1381 
z
M 1991 3584 
L 1991 3584 
z
" transform="scale(0.015625)"/>
      <path id="DejaVuSans-74" d="M 1172 4494 
L 1172 3500 
L 2356 3500 
L 2356 3053 
L 1172 3053 
L 1172 1153 
Q 1172 725 1289 603 
Q 1406 481 1766 481 
L 2356 481 
L 2356 0 
L 1766 0 
Q 1100 0 847 248 
Q 594 497 594 1153 
L 594 3053 
L 172 3053 
L 172 3500 
L 594 3500 
L 594 4494 
L 1172 4494 
z
" transform="scale(0.015625)"/>
      <path id="DejaVuSans-69" d="M 603 3500 
L 1178 3500 
L 1178 0 
L 603 0 
L 603 3500 
z
M 603 4863 
L 1178 4863 
L 1178 4134 
L 603 4134 
L 603 4863 
z
" transform="scale(0.015625)"/>
      <path id="DejaVuSans-62" d="M 3116 1747 
Q 3116 2381 2855 2742 
Q 2594 3103 2138 3103 
Q 1681 3103 1420 2742 
Q 1159 2381 1159 1747 
Q 1159 1113 1420 752 
Q 1681 391 2138 391 
Q 2594 391 2855 752 
Q 3116 1113 3116 1747 
z
M 1159 2969 
Q 1341 3281 1617 3432 
Q 1894 3584 2278 3584 
Q 2916 3584 3314 3078 
Q 3713 2572 3713 1747 
Q 3713 922 3314 415 
Q 2916 -91 2278 -91 
Q 1894 -91 1617 61 
Q 1341 213 1159 525 
L 1159 0 
L 581 0 
L 581 4863 
L 1159 4863 
L 1159 2969 
z
" transform="scale(0.015625)"/>
      <path id="DejaVuSans-61" d="M 2194 1759 
Q 1497 1759 1228 1600 
Q 959 1441 959 1056 
Q 959 750 1161 570 
Q 1363 391 1709 391 
Q 2188 391 2477 730 
Q 2766 1069 2766 1631 
L 2766 1759 
L 2194 1759 
z
M 3341 1997 
L 3341 0 
L 2766 0 
L 2766 531 
Q 2569 213 2275 61 
Q 1981 -91 1556 -91 
Q 1019 -91 701 211 
Q 384 513 384 1019 
Q 384 1609 779 1909 
Q 1175 2209 1959 2209 
L 2766 2209 
L 2766 2266 
Q 2766 2663 2505 2880 
Q 2244 3097 1772 3097 
Q 1472 3097 1187 3025 
Q 903 2953 641 2809 
L 641 3341 
Q 956 3463 1253 3523 
Q 1550 3584 1831 3584 
Q 2591 3584 2966 3190 
Q 3341 2797 3341 1997 
z
" transform="scale(0.015625)"/>
      <path id="DejaVuSans-66" d="M 2375 4863 
L 2375 4384 
L 1825 4384 
Q 1516 4384 1395 4259 
Q 1275 4134 1275 3809 
L 1275 3500 
L 2222 3500 
L 2222 3053 
L 1275 3053 
L 1275 0 
L 697 0 
L 697 3053 
L 147 3053 
L 147 3500 
L 697 3500 
L 697 3744 
Q 697 4328 969 4595 
Q 1241 4863 1831 4863 
L 2375 4863 
z
" transform="scale(0.015625)"/>
     </defs>
     <use xlink:href="#DejaVuSans-46"/>
     <use xlink:href="#DejaVuSans-6f" transform="translate(53.894531 0)"/>
     <use xlink:href="#DejaVuSans-64" transform="translate(115.076172 0)"/>
     <use xlink:href="#DejaVuSans-6f" transform="translate(178.552734 0)"/>
     <use xlink:href="#DejaVuSans-43" transform="translate(239.734375 0)"/>
     <use xlink:href="#DejaVuSans-65" transform="translate(309.558594 0)"/>
     <use xlink:href="#DejaVuSans-6c" transform="translate(371.082031 0)"/>
     <use xlink:href="#DejaVuSans-6c" transform="translate(398.865234 0)"/>
     <use xlink:href="#DejaVuSans-2d" transform="translate(426.648438 0)"/>
     <use xlink:href="#DejaVuSans-6d" transform="translate(462.732422 0)"/>
     <use xlink:href="#DejaVuSans-75" transform="translate(560.144531 0)"/>
     <use xlink:href="#DejaVuSans-6c" transform="translate(623.523438 0)"/>
     <use xlink:href="#DejaVuSans-74" transform="translate(651.306641 0)"/>
     <use xlink:href="#DejaVuSans-69" transform="translate(690.515625 0)"/>
     <use xlink:href="#DejaVuSans-62" transform="translate(718.298828 0)"/>
     <use xlink:href="#DejaVuSans-65" transform="translate(781.775391 0)"/>
     <use xlink:href="#DejaVuSans-61" transform="translate(843.298828 0)"/>
     <use xlink:href="#DejaVuSans-6d" transform="translate(904.578125 0)"/>
     <use xlink:href="#DejaVuSans-2d" transform="translate(1001.990234 0)"/>
     <use xlink:href="#DejaVuSans-66" transform="translate(1038.074219 0)"/>
     <use xlink:href="#DejaVuSans-72" transform="translate(1073.279297 0)"/>
     <use xlink:href="#DejaVuSans-6f" transform="translate(1112.142578 0)"/>
     <use xlink:href="#DejaVuSans-6d" transform="translate(1173.324219 0)"/>
     <use xlink:href="#DejaVuSans-66" transform="translate(1270.736328 0)"/>
     <use xlink:href="#DejaVuSans-69" transform="translate(1305.941406 0)"/>
     <use xlink:href="#DejaVuSans-6c" transform="translate(1333.724609 0)"/>
     <use xlink:href="#DejaVuSans-65" transform="translate(1361.507812 0)"/>
    </g>
   </g>
   <g id="legend_1">
    <g id="patch_7">
     <path d="M 73.62 277.04 
L 153.360625 277.04 
Q 155.360625 277.04 155.360625 275.04 
L 155.360625 246.68375 
Q 155.360625 244.68375 153.360625 244.68375 
L 73.62 244.68375 
Q 71.62 244.68375 71.62 246.68375 
L 71.62 275.04 
Q 71.62 277.04 73.62 277.04 
z
" style="fill: #ffffff; opacity: 0.8; stroke: #cccccc; stroke-linejoin: miter"/>
    </g>
    <g id="line2d_31">
     <path d="M 75.62 252.782188 
L 85.62 252.782188 
L 95.62 252.782188 
" style="fill: none; stroke: #1f77b4; stroke-width: 2; stroke-linecap: square"/>
    </g>
    <g id="text_18">
     <!-- current -->
     <g transform="translate(103.62 256.282188) scale(0.1 -0.1)">
      <defs>
       <path id="DejaVuSans-63" d="M 3122 3366 
L 3122 2828 
Q 2878 2963 2633 3030 
Q 2388 3097 2138 3097 
Q 1578 3097 1268 2742 
Q 959 2388 959 1747 
Q 959 1106 1268 751 
Q 1578 397 2138 397 
Q 2388 397 2633 464 
Q 2878 531 3122 666 
L 3122 134 
Q 2881 22 2623 -34 
Q 2366 -91 2075 -91 
Q 1284 -91 818 406 
Q 353 903 353 1747 
Q 353 2603 823 3093 
Q 1294 3584 2113 3584 
Q 2378 3584 2631 3529 
Q 2884 3475 3122 3366 
z
" transform="scale(0.015625)"/>
       <path id="DejaVuSans-6e" d="M 3513 2113 
L 3513 0 
L 2938 0 
L 2938 2094 
Q 2938 2591 2744 2837 
Q 2550 3084 2163 3084 
Q 1697 3084 1428 2787 
Q 1159 2491 1159 1978 
L 1159 0 
L 581 0 
L 581 3500 
L 1159 3500 
L 1159 2956 
Q 1366 3272 1645 3428 
Q 1925 3584 2291 3584 
Q 2894 3584 3203 3211 
Q 3513 2838 3513 2113 
z
" transform="scale(0.015625)"/>
      </defs>
      <use xlink:href="#DejaVuSans-63"/>
      <use xlink:href="#DejaVuSans-75" transform="translate(54.980469 0)"/>
      <use xlink:href="#DejaVuSans-72" transform="translate(118.359375 0)"/>
      <use xlink:href="#DejaVuSans-72" transform="translate(157.722656 0)"/>
      <use xlink:href="#DejaVuSans-65" transform="translate(196.585938 0)"/>
      <use xlink:href="#DejaVuSans-6e" transform="translate(258.109375 0)"/>
      <use xlink:href="#DejaVuSans-74" transform="translate(321.488281 0)"/>
     </g>
    </g>
    <g id="line2d_32">
     <path d="M 75.62 267.460312 
L 85.62 267.460312 
L 95.62 267.460312 
" style="fill: none; stroke: #ff7f0e; stroke-width: 2; stroke-linecap: square"/>
    </g>
    <g id="text_19">
     <!-- reference -->
     <g transform="translate(103.62 270.960312) scale(0.1 -0.1)">
      <use xlink:href="#DejaVuSans-72"/>
      <use xlink:href="#DejaVuSans-65" transform="translate(38.863281 0)"/>
      <use xlink:href="#DejaVuSans-66" transform="translate(100.386719 0)"/>
      <use xlink:href="#DejaVuSans-65" transform="translate(135.591797 0)"/>
      <use xlink:href="#DejaVuSans-72" transform="translate(197.115234 0)"/>
      <use xlink:href="#DejaVuSans-65" transform="translate(235.978516 0)"/>
      <use xlink:href="#DejaVuSans-6e" transform="translate(297.501953 0)"/>
      <use xlink:href="#DejaVuSans-63" transform="translate(360.880859 0)"/>
      <use xlink:href="#DejaVuSans-65" transform="translate(415.861328 0)"/>
     </g>
    </g>
   </g>
  </g>
  <g id="axes_2">
   <g id="matplotlib.axis_3">
    <g id="ytick_8">
     <g id="line2d_33">
      <defs>
       <path id="m571470841b" d="M 0 0 
L 3.5 0 
" style="stroke: #000000; stroke-width: 0.8"/>
      </defs>
      <g>
       <use xlink:href="#m571470841b" x="592" y="281.055154" style="stroke: #000000; stroke-width: 0.8"/>
      </g>
     </g>
     <g id="text_20">
      <!-- −0.5 -->
      <g transform="translate(599 284.854373) scale(0.1 -0.1)">
       <defs>
        <path id="DejaVuSans-2212" d="M 678 2272 
L 4684 2272 
L 4684 1741 
L 678 1741 
L 678 2272 
z
" transform="scale(0.015625)"/>
       </defs>
       <use xlink:href="#DejaVuSans-2212"/>
       <use xlink:href="#DejaVuSans-30" transform="translate(83.789062 0)"/>
       <use xlink:href="#DejaVuSans-2e" transform="translate(147.412109 0)"/>
       <use xlink:href="#DejaVuSans-35" transform="translate(179.199219 0)"/>
      </g>
     </g>
    </g>
    <g id="ytick_9">
     <g id="line2d_34">
      <g>
       <use xlink:href="#m571470841b" x="592" y="244.803503" style="stroke: #000000; stroke-width: 0.8"/>
      </g>
     </g>
     <g id="text_21">
      <!-- 0.0 -->
      <g transform="translate(599 248.602722) scale(0.1 -0.1)">
       <use xlink:href="#DejaVuSans-30"/>
       <use xlink:href="#DejaVuSans-2e" transform="translate(63.623047 0)"/>
       <use xlink:href="#DejaVuSans-30" transform="translate(95.410156 0)"/>
      </g>
     </g>
    </g>
    <g id="ytick_10">
     <g id="line2d_35">
      <g>
       <use xlink:href="#m571470841b" x="592" y="208.551852" style="stroke: #000000; stroke-width: 0.8"/>
      </g>
     </g>
     <g id="text_22">
      <!-- 0.5 -->
      <g transform="translate(599 212.351071) scale(0.1 -0.1)">
       <use xlink:href="#DejaVuSans-30"/>
       <use xlink:href="#DejaVuSans-2e" transform="translate(63.623047 0)"/>
       <use xlink:href="#DejaVuSans-35" transform="translate(95.410156 0)"/>
      </g>
     </g>
    </g>
    <g id="ytick_11">
     <g id="line2d_36">
      <g>
       <use xlink:href="#m571470841b" x="592" y="172.300201" style="stroke: #000000; stroke-width: 0.8"/>
      </g>
     </g>
     <g id="text_23">
      <!-- 1.0 -->
      <g transform="translate(599 176.09942) scale(0.1 -0.1)">
       <use xlink:href="#DejaVuSans-31"/>
       <use xlink:href="#DejaVuSans-2e" transform="translate(63.623047 0)"/>
       <use xlink:href="#DejaVuSans-30" transform="translate(95.410156 0)"/>
      </g>
     </g>
    </g>
    <g id="ytick_12">
     <g id="line2d_37">
      <g>
       <use xlink:href="#m571470841b" x="592" y="136.04855" style="stroke: #000000; stroke-width: 0.8"/>
      </g>
     </g>
     <g id="text_24">
      <!-- 1.5 -->
      <g transform="translate(599 139.847769) scale(0.1 -0.1)">
       <use xlink:href="#DejaVuSans-31"/>
       <use xlink:href="#DejaVuSans-2e" transform="translate(63.623047 0)"/>
       <use xlink:href="#DejaVuSans-35" transform="translate(95.410156 0)"/>
      </g>
     </g>
    </g>
    <g id="ytick_13">
     <g id="line2d_38">
      <g>
       <use xlink:href="#m571470841b" x="592" y="99.796899" style="stroke: #000000; stroke-width: 0.8"/>
      </g>
     </g>
     <g id="text_25">
      <!-- 2.0 -->
      <g transform="translate(599 103.596118) scale(0.1 -0.1)">
       <use xlink:href="#DejaVuSans-32"/>
       <use xlink:href="#DejaVuSans-2e" transform="translate(63.623047 0)"/>
       <use xlink:href="#DejaVuSans-30" transform="translate(95.410156 0)"/>
      </g>
     </g>
    </g>
    <g id="ytick_14">
     <g id="line2d_39">
      <g>
       <use xlink:href="#m571470841b" x="592" y="63.545248" style="stroke: #000000; stroke-width: 0.8"/>
      </g>
     </g>
     <g id="text_26">
      <!-- 2.5 -->
      <g transform="translate(599 67.344467) scale(0.1 -0.1)">
       <use xlink:href="#DejaVuSans-32"/>
       <use xlink:href="#DejaVuSans-2e" transform="translate(63.623047 0)"/>
       <use xlink:href="#DejaVuSans-35" transform="translate(95.410156 0)"/>
      </g>
     </g>
    </g>
    <g id="ytick_15">
     <g id="line2d_40">
      <g>
       <use xlink:href="#m571470841b" x="592" y="27.293597" style="stroke: #000000; stroke-width: 0.8"/>
      </g>
     </g>
     <g id="text_27">
      <!-- 3.0 -->
      <g transform="translate(599 31.092816) scale(0.1 -0.1)">
       <use xlink:href="#DejaVuSans-33"/>
       <use xlink:href="#DejaVuSans-2e" transform="translate(63.623047 0)"/>
       <use xlink:href="#DejaVuSans-30" transform="translate(95.410156 0)"/>
      </g>
     </g>
    </g>
    <g id="text_28">
     <!-- delta rms(y) [m] -->
     <g transform="translate(634.88125 195.377969) rotate(-90) scale(0.1 -0.1)">
      <use xlink:href="#DejaVuSans-64"/>
      <use xlink:href="#DejaVuSans-65" transform="translate(63.476562 0)"/>
      <use xlink:href="#DejaVuSans-6c" transform="translate(125 0)"/>
      <use xlink:href="#DejaVuSans-74" transform="translate(152.783203 0)"/>
      <use xlink:href="#DejaVuSans-61" transform="translate(191.992188 0)"/>
      <use xlink:href="#DejaVuSans-20" transform="translate(253.271484 0)"/>
      <use xlink:href="#DejaVuSans-72" transform="translate(285.058594 0)"/>
      <use xlink:href="#DejaVuSans-6d" transform="translate(324.421875 0)"/>
      <use xlink:href="#DejaVuSans-73" transform="translate(421.833984 0)"/>
      <use xlink:href="#DejaVuSans-28" transform="translate(473.933594 0)"/>
      <use xlink:href="#DejaVuSans-79" transform="translate(512.947266 0)"/>
      <use xlink:href="#DejaVuSans-29" transform="translate(572.126953 0)"/>
      <use xlink:href="#DejaVuSans-20" transform="translate(611.140625 0)"/>
      <use xlink:href="#DejaVuSans-5b" transform="translate(642.927734 0)"/>
      <use xlink:href="#DejaVuSans-6d" transform="translate(681.941406 0)"/>
      <use xlink:href="#DejaVuSans-5d" transform="translate(779.353516 0)"/>
     </g>
    </g>
    <g id="text_29">
     <!-- 1e−10 -->
     <g transform="translate(558.379688 23.88) scale(0.1 -0.1)">
      <use xlink:href="#DejaVuSans-31"/>
      <use xlink:href="#DejaVuSans-65" transform="translate(63.623047 0)"/>
      <use xlink:href="#DejaVuSans-2212" transform="translate(125.146484 0)"/>
      <use xlink:href="#DejaVuSans-31" transform="translate(208.935547 0)"/>
      <use xlink:href="#DejaVuSans-30" transform="translate(272.558594 0)"/>
     </g>
    </g>
   </g>
   <g id="line2d_41">
    <path d="M 90.500909 38.478182 
L 90.739718 244.803503 
L 91.933764 244.803503 
L 92.172573 240.58769 
L 92.411382 244.803503 
L 92.889 244.803511 
L 93.127809 240.584057 
L 93.366618 244.803511 
L 93.605427 244.803503 
L 93.844236 240.561945 
L 94.083045 244.803503 
L 114.143009 244.803503 
L 114.381818 253.455974 
L 114.620627 255.344176 
L 114.859436 256.177351 
L 115.098245 255.320355 
L 115.337055 256.146579 
L 115.575864 255.286821 
L 115.814673 256.105476 
L 117.008718 255.955097 
L 117.247527 256.684793 
L 117.486336 255.874889 
L 117.725145 256.593461 
L 117.963955 255.783862 
L 118.202764 256.490883 
L 118.441573 244.803503 
L 138.023918 244.803503 
L 138.262727 232.707538 
L 138.979155 232.774227 
L 139.217964 232.478348 
L 139.456773 232.799153 
L 139.695582 232.184131 
L 139.934391 232.793201 
L 140.1732 232.162234 
L 140.412009 232.444084 
L 140.650818 232.414219 
L 140.889627 232.070119 
L 141.128436 232.331354 
L 141.367245 231.970317 
L 142.083673 231.763965 
L 142.322482 244.80351 
L 161.904827 244.803561 
L 162.143636 266.895144 
L 162.382445 266.630658 
L 162.621255 266.972171 
L 162.860064 266.650974 
L 163.098873 266.980009 
L 164.054109 266.920462 
L 164.292918 267.212657 
L 164.531727 266.853606 
L 164.770536 267.132367 
L 165.009345 266.761963 
L 165.248155 267.02678 
L 165.486964 266.645138 
L 165.725773 266.895281 
L 165.964582 266.504017 
L 166.203391 244.803561 
L 185.785736 244.803605 
L 186.024545 230.759351 
L 186.263355 231.068046 
L 186.502164 230.981279 
L 186.979782 231.163481 
L 187.218591 231.425323 
L 187.4574 231.311721 
L 187.696209 231.375134 
L 187.935018 231.612593 
L 188.173827 231.478409 
L 188.412636 231.518466 
L 188.651445 231.731096 
L 188.890255 231.575845 
L 189.129064 231.592985 
L 189.367873 231.782107 
L 189.606682 231.784754 
L 189.845491 231.602947 
L 190.0843 244.801233 
L 209.666645 244.803139 
L 209.905455 249.110155 
L 211.338309 247.365347 
L 213.7264 243.669312 
L 213.965209 244.803672 
L 233.547555 244.800412 
L 233.786364 264.484794 
L 234.025173 263.637122 
L 234.263982 263.926667 
L 234.502791 263.088831 
L 235.458027 262.20444 
L 235.696836 261.478649 
L 235.935645 261.864223 
L 236.174455 261.717263 
L 236.413264 261.053226 
L 237.3685 260.695095 
L 237.607309 260.639474 
L 237.846118 244.801625 
L 257.428464 244.801655 
L 257.667273 234.344504 
L 257.906082 235.301757 
L 258.861318 235.187579 
L 259.100127 236.452979 
L 259.338936 235.142554 
L 259.577745 236.418141 
L 259.816555 235.106528 
L 260.055364 236.391133 
L 261.488218 236.365242 
L 261.727027 244.801198 
L 281.786991 244.801611 
L 282.0258 241.481004 
L 282.264609 244.802438 
L 282.503418 244.802437 
L 282.742227 241.069003 
L 282.981036 244.802075 
L 283.219845 241.03639 
L 283.458655 244.802068 
L 283.697464 240.946024 
L 283.936273 240.89232 
L 284.175082 244.802024 
L 284.413891 240.80288 
L 284.6527 244.802003 
L 284.891509 240.753201 
L 285.130318 240.717013 
L 285.369127 244.801974 
L 305.429091 244.802127 
L 305.6679 255.385802 
L 305.906709 257.801274 
L 306.623136 257.766716 
L 306.861945 258.533837 
L 307.100755 258.510433 
L 307.339564 257.701053 
L 307.578373 258.454547 
L 308.2948 258.34404 
L 308.533609 259.030696 
L 308.772418 258.251459 
L 309.011227 258.201142 
L 309.250036 258.87058 
L 309.488845 244.802055 
L 329.31 244.802575 
L 329.548809 230.106721 
L 329.787618 230.251706 
L 330.026427 230.623314 
L 330.265236 230.317727 
L 330.981664 230.349092 
L 331.220473 230.016715 
L 331.459282 230.325217 
L 331.698091 229.974578 
L 332.653327 229.783661 
L 332.892136 229.390194 
L 333.130945 229.636016 
L 333.369755 244.803091 
L 353.190909 244.803627 
L 353.429718 269.928615 
L 354.146145 269.985169 
L 354.384955 270.324289 
L 354.623764 269.980332 
L 354.862573 270.304887 
L 356.295427 270.074407 
L 356.773045 269.939419 
L 357.011855 270.187736 
L 357.250664 244.803438 
L 377.071818 244.8036 
L 377.310627 228.278662 
L 378.027055 228.884616 
L 378.265864 228.782926 
L 378.982291 229.018337 
L 379.2211 229.271777 
L 379.459909 229.130538 
L 379.937527 229.207692 
L 380.176336 229.424278 
L 380.415145 229.250731 
L 380.653955 229.259215 
L 380.892764 229.449937 
L 381.131573 229.443646 
L 381.370382 244.804037 
L 400.952727 244.80496 
L 401.191536 251.767793 
L 402.8632 249.719358 
L 405.012482 246.335264 
L 405.251291 244.804836 
L 424.833636 244.812972 
L 425.072445 270.441818 
L 425.311255 269.347206 
L 425.550064 269.697326 
L 425.788873 268.735522 
L 426.266491 268.202593 
L 426.5053 267.312051 
L 426.744109 267.746636 
L 426.982918 266.905207 
L 427.221727 267.364513 
L 427.460536 266.569931 
L 427.938155 266.305571 
L 428.176964 265.560795 
L 428.415773 266.109583 
L 428.654582 265.403901 
L 428.893391 265.34696 
L 429.1322 244.809082 
L 448.714545 244.808079 
L 448.953355 230.408732 
L 449.669782 230.309826 
L 449.908591 231.549298 
L 450.1474 230.263481 
L 450.386209 231.510806 
L 451.102636 231.467376 
L 451.341445 230.182517 
L 451.580255 231.445386 
L 451.819064 231.438186 
L 452.057873 232.844556 
L 452.296682 231.430044 
L 452.535491 231.426897 
L 452.7743 232.837218 
L 453.013109 244.809761 
L 472.834264 244.809543 
L 473.073073 245.80832 
L 473.311882 245.558937 
L 473.550691 244.80272 
L 473.7895 245.058266 
L 474.028309 244.84103 
L 474.267118 244.803236 
L 474.744736 244.26811 
L 474.983545 244.80338 
L 475.222355 243.942991 
L 475.461164 243.800674 
L 475.699973 244.803503 
L 475.938782 243.004385 
L 476.177591 244.803584 
L 476.4164 242.645486 
L 476.655209 243.109492 
L 476.894018 244.803692 
L 496.476364 244.804105 
L 496.715173 256.376835 
L 496.953982 256.820338 
L 497.192791 256.052405 
L 497.4316 256.821999 
L 498.625645 256.725395 
L 498.864455 257.415228 
L 499.103264 256.657402 
L 499.342073 257.334997 
L 499.580882 256.573848 
L 499.819691 257.911114 
L 500.0585 256.473013 
L 500.297309 257.790228 
L 500.536118 257.058875 
L 500.774927 244.804593 
L 520.357273 244.80454 
L 520.596082 231.627123 
L 520.834891 232.014531 
L 521.0737 232.054378 
L 521.312509 231.811622 
L 521.551318 231.834752 
L 521.790127 231.582012 
L 522.028936 231.854812 
L 522.267745 231.58505 
L 522.506555 231.840718 
L 522.745364 231.553881 
L 522.984173 231.525379 
L 523.222982 231.22486 
L 523.461791 231.442356 
L 523.7006 231.389146 
L 523.939409 231.061047 
L 524.178218 230.988919 
L 524.417027 231.179705 
L 524.655836 244.804359 
L 544.238182 244.804715 
L 544.476991 266.897501 
L 544.7158 266.885595 
L 544.954609 267.183156 
L 545.193418 267.185607 
L 545.432227 266.892526 
L 545.671036 266.881724 
L 545.909845 267.149195 
L 546.387464 267.095259 
L 546.626273 267.342402 
L 546.865082 267.016078 
L 547.103891 267.249518 
L 547.3427 266.911616 
L 547.581509 267.130888 
L 547.820318 266.781509 
L 548.059127 266.986005 
L 548.297936 266.630114 
L 548.536745 244.801279 
L 568.119091 244.801173 
L 568.119091 244.801173 
" clip-path="url(#p2a532fb83b)" style="fill: none; stroke-dasharray: 3.7,1.6; stroke-dashoffset: 0; stroke: #808080"/>
   </g>
   <g id="patch_8">
    <path d="M 66.62 282.04 
L 66.62 26.88 
" style="fill: none; stroke: #000000; stroke-width: 0.8; stroke-linejoin: miter; stroke-linecap: square"/>
   </g>
   <g id="patch_9">
    <path d="M 592 282.04 
L 592 26.88 
" style="fill: none; stroke: #000000; stroke-width: 0.8; stroke-linejoin: miter; stroke-linecap: square"/>
   </g>
   <g id="patch_10">
    <path d="M 66.62 282.04 
L 592 282.04 
" style="fill: none; stroke: #000000; stroke-width: 0.8; stroke-linejoin: miter; stroke-linecap: square"/>
   </g>
   <g id="patch_11">
    <path d="M 66.62 26.88 
L 592 26.88 
" style="fill: none; stroke: #000000; stroke-width: 0.8; stroke-linejoin: miter; stroke-linecap: square"/>
   </g>
   <g id="legend_2">
    <g id="patch_12">
     <path d="M 502.651563 277.04 
L 585 277.04 
Q 587 277.04 587 275.04 
L 587 261.361875 
Q 587 259.361875 585 259.361875 
L 502.651563 259.361875 
Q 500.651563 259.361875 500.651563 261.361875 
L 500.651563 275.04 
Q 500.651563 277.04 502.651563 277.04 
z
" style="fill: #ffffff; opacity: 0.8; stroke: #cccccc; stroke-linejoin: miter"/>
    </g>
    <g id="line2d_42">
     <path d="M 504.651563 267.460312 
L 514.651562 267.460312 
L 524.651562 267.460312 
" style="fill: none; stroke-dasharray: 3.7,1.6; stroke-dashoffset: 0; stroke: #808080"/>
    </g>
    <g id="text_30">
     <!-- difference -->
     <g transform="translate(532.651562 270.960312) scale(0.1 -0.1)">
      <use xlink:href="#DejaVuSans-64"/>
      <use xlink:href="#DejaVuSans-69" transform="translate(63.476562 0)"/>
      <use xlink:href="#DejaVuSans-66" transform="translate(91.259766 0)"/>
      <use xlink:href="#DejaVuSans-66" transform="translate(126.464844 0)"/>
      <use xlink:href="#DejaVuSans-65" transform="translate(161.669922 0)"/>
      <use xlink:href="#DejaVuSans-72" transform="translate(223.193359 0)"/>
      <use xlink:href="#DejaVuSans-65" transform="translate(262.056641 0)"/>
      <use xlink:href="#DejaVuSans-6e" transform="translate(323.580078 0)"/>
      <use xlink:href="#DejaVuSans-63" transform="translate(386.958984 0)"/>
      <use xlink:href="#DejaVuSans-65" transform="translate(441.939453 0)"/>
     </g>
    </g>
   </g>
  </g>
 </g>
 <defs>
  <clipPath id="p2a532fb83b">
   <rect x="66.62" y="26.88" width="525.38" height="255.16"/>
  </clipPath>
 </defs>
</svg>
