<?xml version="1.0" encoding="utf-8" standalone="no"?>
<!DOCTYPE svg PUBLIC "-//W3C//DTD SVG 1.1//EN"
  "http://www.w3.org/Graphics/SVG/1.1/DTD/svg11.dtd">
<svg xmlns:xlink="http://www.w3.org/1999/xlink" width="648pt" height="324pt" viewBox="0 0 648 324" xmlns="http://www.w3.org/2000/svg" version="1.1">
 <metadata>
  <rdf:RDF xmlns:dc="http://purl.org/dc/elements/1.1/" xmlns:cc="http://creativecommons.org/ns#" xmlns:rdf="http://www.w3.org/1999/02/22-rdf-syntax-ns#">
   <cc:Work>
    <dc:type rdf:resource="http://purl.org/dc/dcmitype/StillImage"/>
    <dc:date>2026-04-26T09:11:29.686378</dc:date>
    <dc:format>image/svg+xml</dc:format>
    <dc:creator>
     <cc:Agent>
      <dc:title>Matplotlib v3.10.8, https://matplotlib.org/</dc:title>
     </cc:Agent>
    </dc:creator>
   </cc:Work>
  </rdf:RDF>
 </metadata>
 <defs>
  <style type="text/css">*{stroke-linejoin: round; stroke-linecap: butt}</style>
 </defs>
 <g id="figure_1">
  <g id="patch_1">
   <path d="M 0 324 
L 648 324 
L 648 0 
L 0 0 
z
" style="fill: #ffffff"/>
  </g>
  <g id="axes_1">
   <g id="patch_2">
    <path d="M 72.92 282.04 
L 601.36 282.04 
L 601.36 26.88 
L 72.92 26.88 
z
" style="fill: #ffffff"/>
   </g>
   <g id="matplotlib.axis_1">
    <g id="xtick_1">
     <g id="line2d_1">
      <path d="M 96.6998 282.04 
L 96.6998 26.88 
" clip-path="url(#pe1017d351a)" style="fill: none; stroke: #b0b0b0; stroke-width: 0.8; stroke-linecap: square"/>
     </g>
     <g id="line2d_2">
      <defs>
       <path id="m3aeb3157c7" d="M 0 0 
L 0 3.5 
" style="stroke: #000000; stroke-width: 0.8"/>
      </defs>
      <g>
       <use xlink:href="#m3aeb3157c7" x="96.6998" y="282.04" style="stroke: #000000; stroke-width: 0.8"/>
      </g>
     </g>
     <g id="text_1">
      <!-- 0 -->
      <g transform="translate(93.51855 296.638438) scale(0.1 -0.1)">
       <defs>
        <path id="DejaVuSans-30" d="M 2034 4250 
Q 1547 4250 1301 3770 
Q 1056 3291 1056 2328 
Q 1056 1369 1301 889 
Q 1547 409 2034 409 
Q 2525 409 2770 889 
Q 3016 1369 3016 2328 
Q 3016 3291 2770 3770 
Q 2525 4250 2034 4250 
z
M 2034 4750 
Q 2819 4750 3233 4129 
Q 3647 3509 3647 2328 
Q 3647 1150 3233 529 
Q 2819 -91 2034 -91 
Q 1250 -91 836 529 
Q 422 1150 422 2328 
Q 422 3509 836 4129 
Q 1250 4750 2034 4750 
z
" transform="scale(0.015625)"/>
       </defs>
       <use xlink:href="#DejaVuSans-30"/>
      </g>
     </g>
    </g>
    <g id="xtick_2">
     <g id="line2d_3">
      <path d="M 176.821906 282.04 
L 176.821906 26.88 
" clip-path="url(#pe1017d351a)" style="fill: none; stroke: #b0b0b0; stroke-width: 0.8; stroke-linecap: square"/>
     </g>
     <g id="line2d_4">
      <g>
       <use xlink:href="#m3aeb3157c7" x="176.821906" y="282.04" style="stroke: #000000; stroke-width: 0.8"/>
      </g>
     </g>
     <g id="text_2">
      <!-- 10 -->
      <g transform="translate(170.459406 296.638438) scale(0.1 -0.1)">
       <defs>
        <path id="DejaVuSans-31" d="M 794 531 
L 1825 531 
L 1825 4091 
L 703 3866 
L 703 4441 
L 1819 4666 
L 2450 4666 
L 2450 531 
L 3481 531 
L 3481 0 
L 794 0 
L 794 531 
z
" transform="scale(0.015625)"/>
       </defs>
       <use xlink:href="#DejaVuSans-31"/>
       <use xlink:href="#DejaVuSans-30" transform="translate(63.623047 0)"/>
      </g>
     </g>
    </g>
    <g id="xtick_3">
     <g id="line2d_5">
      <path d="M 256.944012 282.04 
L 256.944012 26.88 
" clip-path="url(#pe1017d351a)" style="fill: none; stroke: #b0b0b0; stroke-width: 0.8; stroke-linecap: square"/>
     </g>
     <g id="line2d_6">
      <g>
       <use xlink:href="#m3aeb3157c7" x="256.944012" y="282.04" style="stroke: #000000; stroke-width: 0.8"/>
      </g>
     </g>
     <g id="text_3">
      <!-- 20 -->
      <g transform="translate(250.581512 296.638438) scale(0.1 -0.1)">
       <defs>
        <path id="DejaVuSans-32" d="M 1228 531 
L 3431 531 
L 3431 0 
L 469 0 
L 469 531 
Q 828 903 1448 1529 
Q 2069 2156 2228 2338 
Q 2531 2678 2651 2914 
Q 2772 3150 2772 3378 
Q 2772 3750 2511 3984 
Q 2250 4219 1831 4219 
Q 1534 4219 1204 4116 
Q 875 4013 500 3803 
L 500 4441 
Q 881 4594 1212 4672 
Q 1544 4750 1819 4750 
Q 2544 4750 2975 4387 
Q 3406 4025 3406 3419 
Q 3406 3131 3298 2873 
Q 3191 2616 2906 2266 
Q 2828 2175 2409 1742 
Q 1991 1309 1228 531 
z
" transform="scale(0.015625)"/>
       </defs>
       <use xlink:href="#DejaVuSans-32"/>
       <use xlink:href="#DejaVuSans-30" transform="translate(63.623047 0)"/>
      </g>
     </g>
    </g>
    <g id="xtick_4">
     <g id="line2d_7">
      <path d="M 337.066118 282.04 
L 337.066118 26.88 
" clip-path="url(#pe1017d351a)" style="fill: none; stroke: #b0b0b0; stroke-width: 0.8; stroke-linecap: square"/>
     </g>
     <g id="line2d_8">
      <g>
       <use xlink:href="#m3aeb3157c7" x="337.066118" y="282.04" style="stroke: #000000; stroke-width: 0.8"/>
      </g>
     </g>
     <g id="text_4">
      <!-- 30 -->
      <g transform="translate(330.703618 296.638438) scale(0.1 -0.1)">
       <defs>
        <path id="DejaVuSans-33" d="M 2597 2516 
Q 3050 2419 3304 2112 
Q 3559 1806 3559 1356 
Q 3559 666 3084 287 
Q 2609 -91 1734 -91 
Q 1441 -91 1130 -33 
Q 819 25 488 141 
L 488 750 
Q 750 597 1062 519 
Q 1375 441 1716 441 
Q 2309 441 2620 675 
Q 2931 909 2931 1356 
Q 2931 1769 2642 2001 
Q 2353 2234 1838 2234 
L 1294 2234 
L 1294 2753 
L 1863 2753 
Q 2328 2753 2575 2939 
Q 2822 3125 2822 3475 
Q 2822 3834 2567 4026 
Q 2313 4219 1838 4219 
Q 1578 4219 1281 4162 
Q 984 4106 628 3988 
L 628 4550 
Q 988 4650 1302 4700 
Q 1616 4750 1894 4750 
Q 2613 4750 3031 4423 
Q 3450 4097 3450 3541 
Q 3450 3153 3228 2886 
Q 3006 2619 2597 2516 
z
" transform="scale(0.015625)"/>
       </defs>
       <use xlink:href="#DejaVuSans-33"/>
       <use xlink:href="#DejaVuSans-30" transform="translate(63.623047 0)"/>
      </g>
     </g>
    </g>
    <g id="xtick_5">
     <g id="line2d_9">
      <path d="M 417.188224 282.04 
L 417.188224 26.88 
" clip-path="url(#pe1017d351a)" style="fill: none; stroke: #b0b0b0; stroke-width: 0.8; stroke-linecap: square"/>
     </g>
     <g id="line2d_10">
      <g>
       <use xlink:href="#m3aeb3157c7" x="417.188224" y="282.04" style="stroke: #000000; stroke-width: 0.8"/>
      </g>
     </g>
     <g id="text_5">
      <!-- 40 -->
      <g transform="translate(410.825724 296.638438) scale(0.1 -0.1)">
       <defs>
        <path id="DejaVuSans-34" d="M 2419 4116 
L 825 1625 
L 2419 1625 
L 2419 4116 
z
M 2253 4666 
L 3047 4666 
L 3047 1625 
L 3713 1625 
L 3713 1100 
L 3047 1100 
L 3047 0 
L 2419 0 
L 2419 1100 
L 313 1100 
L 313 1709 
L 2253 4666 
z
" transform="scale(0.015625)"/>
       </defs>
       <use xlink:href="#DejaVuSans-34"/>
       <use xlink:href="#DejaVuSans-30" transform="translate(63.623047 0)"/>
      </g>
     </g>
    </g>
    <g id="xtick_6">
     <g id="line2d_11">
      <path d="M 497.310331 282.04 
L 497.310331 26.88 
" clip-path="url(#pe1017d351a)" style="fill: none; stroke: #b0b0b0; stroke-width: 0.8; stroke-linecap: square"/>
     </g>
     <g id="line2d_12">
      <g>
       <use xlink:href="#m3aeb3157c7" x="497.310331" y="282.04" style="stroke: #000000; stroke-width: 0.8"/>
      </g>
     </g>
     <g id="text_6">
      <!-- 50 -->
      <g transform="translate(490.947831 296.638438) scale(0.1 -0.1)">
       <defs>
        <path id="DejaVuSans-35" d="M 691 4666 
L 3169 4666 
L 3169 4134 
L 1269 4134 
L 1269 2991 
Q 1406 3038 1543 3061 
Q 1681 3084 1819 3084 
Q 2600 3084 3056 2656 
Q 3513 2228 3513 1497 
Q 3513 744 3044 326 
Q 2575 -91 1722 -91 
Q 1428 -91 1123 -41 
Q 819 9 494 109 
L 494 744 
Q 775 591 1075 516 
Q 1375 441 1709 441 
Q 2250 441 2565 725 
Q 2881 1009 2881 1497 
Q 2881 1984 2565 2268 
Q 2250 2553 1709 2553 
Q 1456 2553 1204 2497 
Q 953 2441 691 2322 
L 691 4666 
z
" transform="scale(0.015625)"/>
       </defs>
       <use xlink:href="#DejaVuSans-35"/>
       <use xlink:href="#DejaVuSans-30" transform="translate(63.623047 0)"/>
      </g>
     </g>
    </g>
    <g id="xtick_7">
     <g id="line2d_13">
      <path d="M 577.432437 282.04 
L 577.432437 26.88 
" clip-path="url(#pe1017d351a)" style="fill: none; stroke: #b0b0b0; stroke-width: 0.8; stroke-linecap: square"/>
     </g>
     <g id="line2d_14">
      <g>
       <use xlink:href="#m3aeb3157c7" x="577.432437" y="282.04" style="stroke: #000000; stroke-width: 0.8"/>
      </g>
     </g>
     <g id="text_7">
      <!-- 60 -->
      <g transform="translate(571.069937 296.638438) scale(0.1 -0.1)">
       <defs>
        <path id="DejaVuSans-36" d="M 2113 2584 
Q 1688 2584 1439 2293 
Q 1191 2003 1191 1497 
Q 1191 994 1439 701 
Q 1688 409 2113 409 
Q 2538 409 2786 701 
Q 3034 994 3034 1497 
Q 3034 2003 2786 2293 
Q 2538 2584 2113 2584 
z
M 3366 4563 
L 3366 3988 
Q 3128 4100 2886 4159 
Q 2644 4219 2406 4219 
Q 1781 4219 1451 3797 
Q 1122 3375 1075 2522 
Q 1259 2794 1537 2939 
Q 1816 3084 2150 3084 
Q 2853 3084 3261 2657 
Q 3669 2231 3669 1497 
Q 3669 778 3244 343 
Q 2819 -91 2113 -91 
Q 1303 -91 875 529 
Q 447 1150 447 2328 
Q 447 3434 972 4092 
Q 1497 4750 2381 4750 
Q 2619 4750 2861 4703 
Q 3103 4656 3366 4563 
z
" transform="scale(0.015625)"/>
       </defs>
       <use xlink:href="#DejaVuSans-36"/>
       <use xlink:href="#DejaVuSans-30" transform="translate(63.623047 0)"/>
      </g>
     </g>
    </g>
    <g id="text_8">
     <!-- s [m] -->
     <g transform="translate(324.174375 310.316563) scale(0.1 -0.1)">
      <defs>
       <path id="DejaVuSans-73" d="M 2834 3397 
L 2834 2853 
Q 2591 2978 2328 3040 
Q 2066 3103 1784 3103 
Q 1356 3103 1142 2972 
Q 928 2841 928 2578 
Q 928 2378 1081 2264 
Q 1234 2150 1697 2047 
L 1894 2003 
Q 2506 1872 2764 1633 
Q 3022 1394 3022 966 
Q 3022 478 2636 193 
Q 2250 -91 1575 -91 
Q 1294 -91 989 -36 
Q 684 19 347 128 
L 347 722 
Q 666 556 975 473 
Q 1284 391 1588 391 
Q 1994 391 2212 530 
Q 2431 669 2431 922 
Q 2431 1156 2273 1281 
Q 2116 1406 1581 1522 
L 1381 1569 
Q 847 1681 609 1914 
Q 372 2147 372 2553 
Q 372 3047 722 3315 
Q 1072 3584 1716 3584 
Q 2034 3584 2315 3537 
Q 2597 3491 2834 3397 
z
" transform="scale(0.015625)"/>
       <path id="DejaVuSans-20" transform="scale(0.015625)"/>
       <path id="DejaVuSans-5b" d="M 550 4863 
L 1875 4863 
L 1875 4416 
L 1125 4416 
L 1125 -397 
L 1875 -397 
L 1875 -844 
L 550 -844 
L 550 4863 
z
" transform="scale(0.015625)"/>
       <path id="DejaVuSans-6d" d="M 3328 2828 
Q 3544 3216 3844 3400 
Q 4144 3584 4550 3584 
Q 5097 3584 5394 3201 
Q 5691 2819 5691 2113 
L 5691 0 
L 5113 0 
L 5113 2094 
Q 5113 2597 4934 2840 
Q 4756 3084 4391 3084 
Q 3944 3084 3684 2787 
Q 3425 2491 3425 1978 
L 3425 0 
L 2847 0 
L 2847 2094 
Q 2847 2600 2669 2842 
Q 2491 3084 2119 3084 
Q 1678 3084 1418 2786 
Q 1159 2488 1159 1978 
L 1159 0 
L 581 0 
L 581 3500 
L 1159 3500 
L 1159 2956 
Q 1356 3278 1631 3431 
Q 1906 3584 2284 3584 
Q 2666 3584 2933 3390 
Q 3200 3197 3328 2828 
z
" transform="scale(0.015625)"/>
       <path id="DejaVuSans-5d" d="M 1947 4863 
L 1947 -844 
L 622 -844 
L 622 -397 
L 1369 -397 
L 1369 4416 
L 622 4416 
L 622 4863 
L 1947 4863 
z
" transform="scale(0.015625)"/>
      </defs>
      <use xlink:href="#DejaVuSans-73"/>
      <use xlink:href="#DejaVuSans-20" transform="translate(52.099609 0)"/>
      <use xlink:href="#DejaVuSans-5b" transform="translate(83.886719 0)"/>
      <use xlink:href="#DejaVuSans-6d" transform="translate(122.900391 0)"/>
      <use xlink:href="#DejaVuSans-5d" transform="translate(220.3125 0)"/>
     </g>
    </g>
   </g>
   <g id="matplotlib.axis_2">
    <g id="ytick_1">
     <g id="line2d_15">
      <path d="M 72.92 270.442263 
L 601.36 270.442263 
" clip-path="url(#pe1017d351a)" style="fill: none; stroke: #b0b0b0; stroke-width: 0.8; stroke-linecap: square"/>
     </g>
     <g id="line2d_16">
      <defs>
       <path id="m13782625a0" d="M 0 0 
L -3.5 0 
" style="stroke: #000000; stroke-width: 0.8"/>
      </defs>
      <g>
       <use xlink:href="#m13782625a0" x="72.92" y="270.442263" style="stroke: #000000; stroke-width: 0.8"/>
      </g>
     </g>
     <g id="text_9">
      <!-- 0.00000 -->
      <g transform="translate(24.566875 274.241482) scale(0.1 -0.1)">
       <defs>
        <path id="DejaVuSans-2e" d="M 684 794 
L 1344 794 
L 1344 0 
L 684 0 
L 684 794 
z
" transform="scale(0.015625)"/>
       </defs>
       <use xlink:href="#DejaVuSans-30"/>
       <use xlink:href="#DejaVuSans-2e" transform="translate(63.623047 0)"/>
       <use xlink:href="#DejaVuSans-30" transform="translate(95.410156 0)"/>
       <use xlink:href="#DejaVuSans-30" transform="translate(159.033203 0)"/>
       <use xlink:href="#DejaVuSans-30" transform="translate(222.65625 0)"/>
       <use xlink:href="#DejaVuSans-30" transform="translate(286.279297 0)"/>
       <use xlink:href="#DejaVuSans-30" transform="translate(349.902344 0)"/>
      </g>
     </g>
    </g>
    <g id="ytick_2">
     <g id="line2d_17">
      <path d="M 72.92 238.034412 
L 601.36 238.034412 
" clip-path="url(#pe1017d351a)" style="fill: none; stroke: #b0b0b0; stroke-width: 0.8; stroke-linecap: square"/>
     </g>
     <g id="line2d_18">
      <g>
       <use xlink:href="#m13782625a0" x="72.92" y="238.034412" style="stroke: #000000; stroke-width: 0.8"/>
      </g>
     </g>
     <g id="text_10">
      <!-- 0.00002 -->
      <g transform="translate(24.566875 241.833631) scale(0.1 -0.1)">
       <use xlink:href="#DejaVuSans-30"/>
       <use xlink:href="#DejaVuSans-2e" transform="translate(63.623047 0)"/>
       <use xlink:href="#DejaVuSans-30" transform="translate(95.410156 0)"/>
       <use xlink:href="#DejaVuSans-30" transform="translate(159.033203 0)"/>
       <use xlink:href="#DejaVuSans-30" transform="translate(222.65625 0)"/>
       <use xlink:href="#DejaVuSans-30" transform="translate(286.279297 0)"/>
       <use xlink:href="#DejaVuSans-32" transform="translate(349.902344 0)"/>
      </g>
     </g>
    </g>
    <g id="ytick_3">
     <g id="line2d_19">
      <path d="M 72.92 205.62656 
L 601.36 205.62656 
" clip-path="url(#pe1017d351a)" style="fill: none; stroke: #b0b0b0; stroke-width: 0.8; stroke-linecap: square"/>
     </g>
     <g id="line2d_20">
      <g>
       <use xlink:href="#m13782625a0" x="72.92" y="205.62656" style="stroke: #000000; stroke-width: 0.8"/>
      </g>
     </g>
     <g id="text_11">
      <!-- 0.00004 -->
      <g transform="translate(24.566875 209.425779) scale(0.1 -0.1)">
       <use xlink:href="#DejaVuSans-30"/>
       <use xlink:href="#DejaVuSans-2e" transform="translate(63.623047 0)"/>
       <use xlink:href="#DejaVuSans-30" transform="translate(95.410156 0)"/>
       <use xlink:href="#DejaVuSans-30" transform="translate(159.033203 0)"/>
       <use xlink:href="#DejaVuSans-30" transform="translate(222.65625 0)"/>
       <use xlink:href="#DejaVuSans-30" transform="translate(286.279297 0)"/>
       <use xlink:href="#DejaVuSans-34" transform="translate(349.902344 0)"/>
      </g>
     </g>
    </g>
    <g id="ytick_4">
     <g id="line2d_21">
      <path d="M 72.92 173.218709 
L 601.36 173.218709 
" clip-path="url(#pe1017d351a)" style="fill: none; stroke: #b0b0b0; stroke-width: 0.8; stroke-linecap: square"/>
     </g>
     <g id="line2d_22">
      <g>
       <use xlink:href="#m13782625a0" x="72.92" y="173.218709" style="stroke: #000000; stroke-width: 0.8"/>
      </g>
     </g>
     <g id="text_12">
      <!-- 0.00006 -->
      <g transform="translate(24.566875 177.017927) scale(0.1 -0.1)">
       <use xlink:href="#DejaVuSans-30"/>
       <use xlink:href="#DejaVuSans-2e" transform="translate(63.623047 0)"/>
       <use xlink:href="#DejaVuSans-30" transform="translate(95.410156 0)"/>
       <use xlink:href="#DejaVuSans-30" transform="translate(159.033203 0)"/>
       <use xlink:href="#DejaVuSans-30" transform="translate(222.65625 0)"/>
       <use xlink:href="#DejaVuSans-30" transform="translate(286.279297 0)"/>
       <use xlink:href="#DejaVuSans-36" transform="translate(349.902344 0)"/>
      </g>
     </g>
    </g>
    <g id="ytick_5">
     <g id="line2d_23">
      <path d="M 72.92 140.810857 
L 601.36 140.810857 
" clip-path="url(#pe1017d351a)" style="fill: none; stroke: #b0b0b0; stroke-width: 0.8; stroke-linecap: square"/>
     </g>
     <g id="line2d_24">
      <g>
       <use xlink:href="#m13782625a0" x="72.92" y="140.810857" style="stroke: #000000; stroke-width: 0.8"/>
      </g>
     </g>
     <g id="text_13">
      <!-- 0.00008 -->
      <g transform="translate(24.566875 144.610076) scale(0.1 -0.1)">
       <defs>
        <path id="DejaVuSans-38" d="M 2034 2216 
Q 1584 2216 1326 1975 
Q 1069 1734 1069 1313 
Q 1069 891 1326 650 
Q 1584 409 2034 409 
Q 2484 409 2743 651 
Q 3003 894 3003 1313 
Q 3003 1734 2745 1975 
Q 2488 2216 2034 2216 
z
M 1403 2484 
Q 997 2584 770 2862 
Q 544 3141 544 3541 
Q 544 4100 942 4425 
Q 1341 4750 2034 4750 
Q 2731 4750 3128 4425 
Q 3525 4100 3525 3541 
Q 3525 3141 3298 2862 
Q 3072 2584 2669 2484 
Q 3125 2378 3379 2068 
Q 3634 1759 3634 1313 
Q 3634 634 3220 271 
Q 2806 -91 2034 -91 
Q 1263 -91 848 271 
Q 434 634 434 1313 
Q 434 1759 690 2068 
Q 947 2378 1403 2484 
z
M 1172 3481 
Q 1172 3119 1398 2916 
Q 1625 2713 2034 2713 
Q 2441 2713 2670 2916 
Q 2900 3119 2900 3481 
Q 2900 3844 2670 4047 
Q 2441 4250 2034 4250 
Q 1625 4250 1398 4047 
Q 1172 3844 1172 3481 
z
" transform="scale(0.015625)"/>
       </defs>
       <use xlink:href="#DejaVuSans-30"/>
       <use xlink:href="#DejaVuSans-2e" transform="translate(63.623047 0)"/>
       <use xlink:href="#DejaVuSans-30" transform="translate(95.410156 0)"/>
       <use xlink:href="#DejaVuSans-30" transform="translate(159.033203 0)"/>
       <use xlink:href="#DejaVuSans-30" transform="translate(222.65625 0)"/>
       <use xlink:href="#DejaVuSans-30" transform="translate(286.279297 0)"/>
       <use xlink:href="#DejaVuSans-38" transform="translate(349.902344 0)"/>
      </g>
     </g>
    </g>
    <g id="ytick_6">
     <g id="line2d_25">
      <path d="M 72.92 108.403006 
L 601.36 108.403006 
" clip-path="url(#pe1017d351a)" style="fill: none; stroke: #b0b0b0; stroke-width: 0.8; stroke-linecap: square"/>
     </g>
     <g id="line2d_26">
      <g>
       <use xlink:href="#m13782625a0" x="72.92" y="108.403006" style="stroke: #000000; stroke-width: 0.8"/>
      </g>
     </g>
     <g id="text_14">
      <!-- 0.00010 -->
      <g transform="translate(24.566875 112.202224) scale(0.1 -0.1)">
       <use xlink:href="#DejaVuSans-30"/>
       <use xlink:href="#DejaVuSans-2e" transform="translate(63.623047 0)"/>
       <use xlink:href="#DejaVuSans-30" transform="translate(95.410156 0)"/>
       <use xlink:href="#DejaVuSans-30" transform="translate(159.033203 0)"/>
       <use xlink:href="#DejaVuSans-30" transform="translate(222.65625 0)"/>
       <use xlink:href="#DejaVuSans-31" transform="translate(286.279297 0)"/>
       <use xlink:href="#DejaVuSans-30" transform="translate(349.902344 0)"/>
      </g>
     </g>
    </g>
    <g id="ytick_7">
     <g id="line2d_27">
      <path d="M 72.92 75.995154 
L 601.36 75.995154 
" clip-path="url(#pe1017d351a)" style="fill: none; stroke: #b0b0b0; stroke-width: 0.8; stroke-linecap: square"/>
     </g>
     <g id="line2d_28">
      <g>
       <use xlink:href="#m13782625a0" x="72.92" y="75.995154" style="stroke: #000000; stroke-width: 0.8"/>
      </g>
     </g>
     <g id="text_15">
      <!-- 0.00012 -->
      <g transform="translate(24.566875 79.794373) scale(0.1 -0.1)">
       <use xlink:href="#DejaVuSans-30"/>
       <use xlink:href="#DejaVuSans-2e" transform="translate(63.623047 0)"/>
       <use xlink:href="#DejaVuSans-30" transform="translate(95.410156 0)"/>
       <use xlink:href="#DejaVuSans-30" transform="translate(159.033203 0)"/>
       <use xlink:href="#DejaVuSans-30" transform="translate(222.65625 0)"/>
       <use xlink:href="#DejaVuSans-31" transform="translate(286.279297 0)"/>
       <use xlink:href="#DejaVuSans-32" transform="translate(349.902344 0)"/>
      </g>
     </g>
    </g>
    <g id="ytick_8">
     <g id="line2d_29">
      <path d="M 72.92 43.587302 
L 601.36 43.587302 
" clip-path="url(#pe1017d351a)" style="fill: none; stroke: #b0b0b0; stroke-width: 0.8; stroke-linecap: square"/>
     </g>
     <g id="line2d_30">
      <g>
       <use xlink:href="#m13782625a0" x="72.92" y="43.587302" style="stroke: #000000; stroke-width: 0.8"/>
      </g>
     </g>
     <g id="text_16">
      <!-- 0.00014 -->
      <g transform="translate(24.566875 47.386521) scale(0.1 -0.1)">
       <use xlink:href="#DejaVuSans-30"/>
       <use xlink:href="#DejaVuSans-2e" transform="translate(63.623047 0)"/>
       <use xlink:href="#DejaVuSans-30" transform="translate(95.410156 0)"/>
       <use xlink:href="#DejaVuSans-30" transform="translate(159.033203 0)"/>
       <use xlink:href="#DejaVuSans-30" transform="translate(222.65625 0)"/>
       <use xlink:href="#DejaVuSans-31" transform="translate(286.279297 0)"/>
       <use xlink:href="#DejaVuSans-34" transform="translate(349.902344 0)"/>
      </g>
     </g>
    </g>
    <g id="text_17">
     <!-- emit(s) [m] -->
     <g transform="translate(18.487187 182.623281) rotate(-90) scale(0.1 -0.1)">
      <defs>
       <path id="DejaVuSans-65" d="M 3597 1894 
L 3597 1613 
L 953 1613 
Q 991 1019 1311 708 
Q 1631 397 2203 397 
Q 2534 397 2845 478 
Q 3156 559 3463 722 
L 3463 178 
Q 3153 47 2828 -22 
Q 2503 -91 2169 -91 
Q 1331 -91 842 396 
Q 353 884 353 1716 
Q 353 2575 817 3079 
Q 1281 3584 2069 3584 
Q 2775 3584 3186 3129 
Q 3597 2675 3597 1894 
z
M 3022 2063 
Q 3016 2534 2758 2815 
Q 2500 3097 2075 3097 
Q 1594 3097 1305 2825 
Q 1016 2553 972 2059 
L 3022 2063 
z
" transform="scale(0.015625)"/>
       <path id="DejaVuSans-69" d="M 603 3500 
L 1178 3500 
L 1178 0 
L 603 0 
L 603 3500 
z
M 603 4863 
L 1178 4863 
L 1178 4134 
L 603 4134 
L 603 4863 
z
" transform="scale(0.015625)"/>
       <path id="DejaVuSans-74" d="M 1172 4494 
L 1172 3500 
L 2356 3500 
L 2356 3053 
L 1172 3053 
L 1172 1153 
Q 1172 725 1289 603 
Q 1406 481 1766 481 
L 2356 481 
L 2356 0 
L 1766 0 
Q 1100 0 847 248 
Q 594 497 594 1153 
L 594 3053 
L 172 3053 
L 172 3500 
L 594 3500 
L 594 4494 
L 1172 4494 
z
" transform="scale(0.015625)"/>
       <path id="DejaVuSans-28" d="M 1984 4856 
Q 1566 4138 1362 3434 
Q 1159 2731 1159 2009 
Q 1159 1288 1364 580 
Q 1569 -128 1984 -844 
L 1484 -844 
Q 1016 -109 783 600 
Q 550 1309 550 2009 
Q 550 2706 781 3412 
Q 1013 4119 1484 4856 
L 1984 4856 
z
" transform="scale(0.015625)"/>
       <path id="DejaVuSans-29" d="M 513 4856 
L 1013 4856 
Q 1481 4119 1714 3412 
Q 1947 2706 1947 2009 
Q 1947 1309 1714 600 
Q 1481 -109 1013 -844 
L 513 -844 
Q 928 -128 1133 580 
Q 1338 1288 1338 2009 
Q 1338 2731 1133 3434 
Q 928 4138 513 4856 
z
" transform="scale(0.015625)"/>
      </defs>
      <use xlink:href="#DejaVuSans-65"/>
      <use xlink:href="#DejaVuSans-6d" transform="translate(61.523438 0)"/>
      <use xlink:href="#DejaVuSans-69" transform="translate(158.935547 0)"/>
      <use xlink:href="#DejaVuSans-74" transform="translate(186.71875 0)"/>
      <use xlink:href="#DejaVuSans-28" transform="translate(225.927734 0)"/>
      <use xlink:href="#DejaVuSans-73" transform="translate(264.941406 0)"/>
      <use xlink:href="#DejaVuSans-29" transform="translate(317.041016 0)"/>
      <use xlink:href="#DejaVuSans-20" transform="translate(356.054688 0)"/>
      <use xlink:href="#DejaVuSans-5b" transform="translate(387.841797 0)"/>
      <use xlink:href="#DejaVuSans-6d" transform="translate(426.855469 0)"/>
      <use xlink:href="#DejaVuSans-5d" transform="translate(524.267578 0)"/>
     </g>
    </g>
   </g>
   <g id="line2d_31">
    <path d="M 96.94 270.441818 
L 97.1802 269.663908 
L 97.4204 267.329772 
L 97.9008 257.993023 
L 98.3812 242.427948 
L 98.8616 220.626314 
L 99.5822 176.196017 
L 100.3028 117.605232 
L 100.7832 76.678098 
L 113.9942 76.680152 
L 120.4796 76.680152 
L 120.7198 77.579716 
L 121.4404 138.032681 
L 121.9208 160.323976 
L 122.4012 172.247152 
L 123.362 186.734622 
L 123.6022 189.183523 
L 123.8424 189.739504 
L 124.0826 186.968959 
L 124.3228 179.520196 
L 124.8032 152.788048 
L 134.171 152.785133 
L 144.4996 152.785133 
L 144.7398 153.369743 
L 145.4604 192.574988 
L 145.9408 210.133191 
L 146.4212 221.398769 
L 147.1418 231.339796 
L 148.1026 240.719138 
L 148.3428 241.263203 
L 148.583 239.667854 
L 148.8232 236.210881 
L 150.985 236.198419 
L 168.7598 236.11348 
L 169 238.583619 
L 169.2402 238.089798 
L 169.7206 229.524027 
L 170.4412 210.999942 
L 170.9216 194.060114 
L 171.402 170.004739 
L 171.8824 136.850579 
L 172.603 68.831142 
L 172.8432 43.333666 
L 173.3236 43.254007 
L 192.5396 43.254007 
L 192.7798 43.464347 
L 194.221 157.744749 
L 194.9416 191.181359 
L 195.6622 213.953341 
L 196.3828 230.960303 
L 196.623 233.80515 
L 196.8632 233.273708 
L 197.824 233.242257 
L 216.7998 233.243876 
L 217.04 234.898934 
L 217.2802 235.478075 
L 217.5204 234.534782 
L 218.0008 230.365976 
L 218.9616 219.298505 
L 219.442 211.290653 
L 219.9224 199.308236 
L 220.4028 181.78884 
L 220.8832 159.248004 
L 221.1234 158.036047 
L 240.8198 158.060151 
L 241.5404 179.053228 
L 241.7806 179.829122 
L 242.0208 178.100007 
L 242.5012 171.078936 
L 243.2218 158.017425 
L 243.7022 146.033185 
L 244.1826 126.697443 
L 244.663 95.924485 
L 244.9032 76.758742 
L 245.1434 74.831119 
L 264.8398 74.831119 
L 265.08 87.08051 
L 266.0408 170.400432 
L 266.7614 216.079912 
L 267.482 247.229259 
L 267.9624 259.983138 
L 268.4428 266.674723 
L 268.683 267.578029 
L 268.9232 267.090384 
L 269.6438 267.041601 
L 288.8598 267.041601 
L 289.1 268.285612 
L 289.3402 268.668096 
L 289.5804 266.604493 
L 290.0608 258.887096 
L 290.5412 245.333379 
L 291.0216 225.424011 
L 291.7422 183.417539 
L 292.4628 126.699033 
L 292.9432 80.999855 
L 293.1834 76.855979 
L 312.8798 76.855979 
L 313.12 84.847848 
L 313.6004 128.469973 
L 314.0808 155.721649 
L 314.5612 170.26333 
L 315.2818 181.897499 
L 315.7622 187.852273 
L 316.0024 189.244396 
L 316.2426 188.000364 
L 316.4828 182.652027 
L 316.723 172.103348 
L 316.9632 156.142391 
L 317.2034 151.999275 
L 336.8998 151.999275 
L 337.14 155.454067 
L 337.8606 195.072392 
L 338.341 212.042945 
L 338.8214 222.768028 
L 339.542 232.208355 
L 340.2626 238.544289 
L 340.5028 239.176582 
L 340.743 237.983285 
L 341.2234 231.941516 
L 361.16 231.97486 
L 361.4002 235.29603 
L 361.6404 234.341212 
L 362.1208 225.747882 
L 362.8414 207.13513 
L 363.3218 189.343915 
L 363.8022 163.625782 
L 364.2826 128.086053 
L 365.2434 42.888693 
L 384.9398 42.888693 
L 385.18 45.464877 
L 385.9006 113.619145 
L 386.6212 162.523815 
L 387.3418 194.87788 
L 388.0624 217.256282 
L 388.5428 229.093645 
L 388.783 233.181817 
L 389.0232 234.49256 
L 389.2634 233.814009 
L 409.2 233.804071 
L 409.4402 235.895401 
L 409.6804 236.051042 
L 409.9206 234.782581 
L 410.401 230.111365 
L 411.1216 220.904967 
L 411.602 212.514974 
L 412.0824 200.399768 
L 412.5628 183.007229 
L 413.2834 151.351939 
L 432.9798 151.351192 
L 433.22 153.049428 
L 433.7004 172.001841 
L 433.9406 175.121511 
L 434.1808 175.115434 
L 434.421 173.102389 
L 435.1416 162.722952 
L 435.622 154.348597 
L 436.1024 142.093151 
L 436.5828 121.255658 
L 437.3034 71.710524 
L 438.9848 71.69283 
L 456.9998 71.69283 
L 457.24 73.01795 
L 458.441 175.254596 
L 459.1616 218.418024 
L 459.8822 247.426266 
L 460.3626 259.374425 
L 460.843 266.416522 
L 461.0832 267.111229 
L 461.3234 265.880504 
L 468.7696 265.884107 
L 481.0198 265.884107 
L 481.26 266.215982 
L 481.5002 267.967502 
L 481.7404 266.648481 
L 482.2208 259.334003 
L 482.7012 246.851843 
L 483.1816 228.365235 
L 483.9022 188.797948 
L 484.6228 134.773905 
L 485.3434 69.965142 
L 485.8238 69.882097 
L 505.0398 69.882096 
L 505.28 70.356202 
L 506.0006 132.071096 
L 506.481 155.44217 
L 506.9614 167.793039 
L 507.682 178.623026 
L 508.1624 183.786509 
L 508.4026 184.169709 
L 508.6428 181.417466 
L 508.883 174.20898 
L 509.3634 145.441486 
L 513.687 145.435136 
L 529.0598 145.435136 
L 529.3 145.818103 
L 530.2608 196.382865 
L 530.7412 212.413017 
L 531.2216 222.917268 
L 531.9422 232.861494 
L 532.4226 237.450896 
L 532.6628 238.636084 
L 532.903 238.301551 
L 533.1432 235.753406 
L 533.3834 231.384846 
L 533.6236 231.106054 
L 553.32 231.120383 
L 553.5602 234.256329 
L 553.8004 235.40525 
L 554.0406 232.94117 
L 554.521 222.972593 
L 555.2416 202.217562 
L 555.722 181.910688 
L 556.2024 153.203205 
L 556.923 91.584556 
L 557.4034 39.417557 
L 557.6436 38.478182 
L 577.34 38.478182 
L 577.34 38.478182 
" clip-path="url(#pe1017d351a)" style="fill: none; stroke: #1f77b4; stroke-width: 2; stroke-linecap: square"/>
   </g>
   <g id="line2d_32">
    <path d="M 96.94 270.441818 
L 97.1802 269.663908 
L 97.4204 267.329772 
L 97.9008 257.993023 
L 98.3812 242.427948 
L 98.8616 220.626314 
L 99.5822 176.195981 
L 100.3028 117.605184 
L 100.7832 76.678098 
L 113.9942 76.680152 
L 120.4796 76.680152 
L 120.7198 77.579716 
L 121.4404 138.032787 
L 121.9208 160.32405 
L 122.4012 172.247193 
L 123.362 186.734564 
L 123.6022 189.183423 
L 123.8424 189.739341 
L 124.0826 186.96875 
L 124.3228 179.519917 
L 124.8032 152.787751 
L 135.1318 152.785133 
L 144.4996 152.785133 
L 144.7398 153.369743 
L 145.4604 192.575302 
L 145.9408 210.133424 
L 146.4212 221.398912 
L 147.1418 231.339827 
L 148.1026 240.71909 
L 148.3428 241.263134 
L 148.583 239.667761 
L 148.8232 236.210795 
L 150.985 236.198419 
L 168.7598 236.11348 
L 169 238.583776 
L 169.2402 238.089872 
L 169.7206 229.523997 
L 170.4412 210.999777 
L 170.9216 194.059814 
L 171.402 170.004275 
L 171.8824 136.849947 
L 172.603 68.830258 
L 172.8432 43.332718 
L 173.3236 43.254007 
L 192.5396 43.254007 
L 192.7798 43.464347 
L 194.221 157.745201 
L 194.9416 191.181594 
L 195.6622 213.953366 
L 196.3828 230.960175 
L 196.623 233.805 
L 196.8632 233.273579 
L 197.824 233.242257 
L 216.7998 233.243876 
L 217.04 234.898953 
L 217.2802 235.478113 
L 217.5204 234.53482 
L 218.0008 230.365958 
L 218.9616 219.298238 
L 219.442 211.29023 
L 219.9224 199.307674 
L 220.4028 181.788179 
L 220.8832 159.247329 
L 221.1234 158.036046 
L 240.8198 158.060151 
L 241.5404 179.053561 
L 241.7806 179.82942 
L 242.0208 178.100269 
L 242.5012 171.079122 
L 243.2218 158.017505 
L 243.7022 146.033204 
L 244.1826 126.697416 
L 244.663 95.92443 
L 244.9032 76.758737 
L 245.1434 74.831119 
L 264.8398 74.831119 
L 265.08 87.080382 
L 266.0408 170.400314 
L 266.7614 216.079799 
L 267.482 247.229175 
L 267.9624 259.983078 
L 268.4428 266.674696 
L 268.683 267.577979 
L 268.9232 267.090324 
L 269.6438 267.041601 
L 288.8598 267.041601 
L 289.1 268.285612 
L 289.3402 268.668096 
L 289.5804 266.604472 
L 290.0608 258.887096 
L 290.5412 245.333379 
L 291.0216 225.424011 
L 291.7422 183.417539 
L 292.4628 126.699013 
L 292.9432 80.999855 
L 293.1834 76.855979 
L 312.8798 76.855979 
L 313.12 84.847848 
L 313.6004 128.470064 
L 314.0808 155.72174 
L 314.5612 170.263418 
L 315.2818 181.897552 
L 315.7622 187.852279 
L 316.0024 189.244366 
L 316.2426 188.000289 
L 316.4828 182.651913 
L 316.723 172.103197 
L 316.9632 156.142182 
L 317.2034 151.999275 
L 336.8998 151.999275 
L 337.14 155.454068 
L 337.8606 195.072539 
L 338.341 212.043046 
L 338.8214 222.768088 
L 339.542 232.208398 
L 340.2626 238.544369 
L 340.5028 239.176674 
L 340.743 237.983385 
L 341.2234 231.941516 
L 361.16 231.97486 
L 361.4002 235.295971 
L 361.6404 234.341123 
L 362.1208 225.747762 
L 362.8414 207.134928 
L 363.3218 189.343619 
L 363.8022 163.625378 
L 364.2826 128.085542 
L 365.2434 42.888693 
L 384.9398 42.888693 
L 385.18 45.464877 
L 385.9006 113.619729 
L 386.6212 162.524255 
L 387.3418 194.878109 
L 388.0624 217.256319 
L 388.5428 229.093644 
L 388.783 233.18186 
L 389.0232 234.492697 
L 389.2634 233.814297 
L 409.2 233.804071 
L 409.4402 235.89524 
L 409.6804 236.05095 
L 409.9206 234.782532 
L 410.401 230.111318 
L 411.1216 220.904763 
L 411.602 212.514609 
L 412.0824 200.399245 
L 412.5628 183.006571 
L 413.2834 151.351192 
L 432.9798 151.351192 
L 433.22 153.049428 
L 433.7004 172.002267 
L 433.9406 175.121872 
L 434.1808 175.115709 
L 434.421 173.102595 
L 435.1416 162.72302 
L 435.622 154.348624 
L 436.1024 142.093166 
L 436.5828 121.255677 
L 437.3034 71.710597 
L 438.9848 71.69283 
L 456.9998 71.69283 
L 457.24 73.01795 
L 458.441 175.254465 
L 459.1616 218.41791 
L 459.8822 247.426173 
L 460.3626 259.374373 
L 460.843 266.41649 
L 461.0832 267.111162 
L 461.3234 265.880433 
L 468.7696 265.884108 
L 481.0198 265.884108 
L 481.26 266.215983 
L 481.5002 267.967502 
L 481.7404 266.648471 
L 482.2208 259.334003 
L 482.7012 246.851839 
L 483.1816 228.365247 
L 483.9022 188.797985 
L 484.6228 134.773991 
L 485.3434 69.965224 
L 485.8238 69.882097 
L 505.0398 69.882097 
L 505.28 70.356202 
L 506.0006 132.071149 
L 506.481 155.442201 
L 506.9614 167.793047 
L 507.682 178.622997 
L 508.1624 183.786446 
L 508.4026 184.16963 
L 508.6428 181.417354 
L 508.883 174.20886 
L 509.3634 145.441302 
L 513.9272 145.435136 
L 529.0598 145.435136 
L 529.3 145.818103 
L 530.2608 196.383058 
L 530.7412 212.413203 
L 531.2216 222.917456 
L 531.9422 232.861712 
L 532.4226 237.451133 
L 532.6628 238.636315 
L 532.903 238.301759 
L 533.1432 235.753562 
L 533.3834 231.384961 
L 533.6236 231.106054 
L 553.32 231.120383 
L 553.5602 234.256303 
L 553.8004 235.405078 
L 554.0406 232.940897 
L 554.521 222.972226 
L 555.2416 202.21707 
L 555.722 181.910083 
L 556.2024 153.202483 
L 556.923 91.583665 
L 557.4034 39.41651 
L 557.6436 38.478182 
L 577.34 38.478182 
L 577.34 38.478182 
" clip-path="url(#pe1017d351a)" style="fill: none; stroke: #ff7f0e; stroke-width: 2; stroke-linecap: square"/>
   </g>
   <g id="patch_3">
    <path d="M 72.92 282.04 
L 72.92 26.88 
" style="fill: none; stroke: #000000; stroke-width: 0.8; stroke-linejoin: miter; stroke-linecap: square"/>
   </g>
   <g id="patch_4">
    <path d="M 601.36 282.04 
L 601.36 26.88 
" style="fill: none; stroke: #000000; stroke-width: 0.8; stroke-linejoin: miter; stroke-linecap: square"/>
   </g>
   <g id="patch_5">
    <path d="M 72.92 282.04 
L 601.36 282.04 
" style="fill: none; stroke: #000000; stroke-width: 0.8; stroke-linejoin: miter; stroke-linecap: square"/>
   </g>
   <g id="patch_6">
    <path d="M 72.92 26.88 
L 601.36 26.88 
" style="fill: none; stroke: #000000; stroke-width: 0.8; stroke-linejoin: miter; stroke-linecap: square"/>
   </g>
   <g id="text_18">
    <!-- FodoCell-multibeam-fromfile -->
    <g transform="translate(251.758125 20.88) scale(0.12 -0.12)">
     <defs>
      <path id="DejaVuSans-46" d="M 628 4666 
L 3309 4666 
L 3309 4134 
L 1259 4134 
L 1259 2759 
L 3109 2759 
L 3109 2228 
L 1259 2228 
L 1259 0 
L 628 0 
L 628 4666 
z
" transform="scale(0.015625)"/>
      <path id="DejaVuSans-6f" d="M 1959 3097 
Q 1497 3097 1228 2736 
Q 959 2375 959 1747 
Q 959 1119 1226 758 
Q 1494 397 1959 397 
Q 2419 397 2687 759 
Q 2956 1122 2956 1747 
Q 2956 2369 2687 2733 
Q 2419 3097 1959 3097 
z
M 1959 3584 
Q 2709 3584 3137 3096 
Q 3566 2609 3566 1747 
Q 3566 888 3137 398 
Q 2709 -91 1959 -91 
Q 1206 -91 779 398 
Q 353 888 353 1747 
Q 353 2609 779 3096 
Q 1206 3584 1959 3584 
z
" transform="scale(0.015625)"/>
      <path id="DejaVuSans-64" d="M 2906 2969 
L 2906 4863 
L 3481 4863 
L 3481 0 
L 2906 0 
L 2906 525 
Q 2725 213 2448 61 
Q 2172 -91 1784 -91 
Q 1150 -91 751 415 
Q 353 922 353 1747 
Q 353 2572 751 3078 
Q 1150 3584 1784 3584 
Q 2172 3584 2448 3432 
Q 2725 3281 2906 2969 
z
M 947 1747 
Q 947 1113 1208 752 
Q 1469 391 1925 391 
Q 2381 391 2643 752 
Q 2906 1113 2906 1747 
Q 2906 2381 2643 2742 
Q 2381 3103 1925 3103 
Q 1469 3103 1208 2742 
Q 947 2381 947 1747 
z
" transform="scale(0.015625)"/>
      <path id="DejaVuSans-43" d="M 4122 4306 
L 4122 3641 
Q 3803 3938 3442 4084 
Q 3081 4231 2675 4231 
Q 1875 4231 1450 3742 
Q 1025 3253 1025 2328 
Q 1025 1406 1450 917 
Q 1875 428 2675 428 
Q 3081 428 3442 575 
Q 3803 722 4122 1019 
L 4122 359 
Q 3791 134 3420 21 
Q 3050 -91 2638 -91 
Q 1578 -91 968 557 
Q 359 1206 359 2328 
Q 359 3453 968 4101 
Q 1578 4750 2638 4750 
Q 3056 4750 3426 4639 
Q 3797 4528 4122 4306 
z
" transform="scale(0.015625)"/>
      <path id="DejaVuSans-6c" d="M 603 4863 
L 1178 4863 
L 1178 0 
L 603 0 
L 603 4863 
z
" transform="scale(0.015625)"/>
      <path id="DejaVuSans-2d" d="M 313 2009 
L 1997 2009 
L 1997 1497 
L 313 1497 
L 313 2009 
z
" transform="scale(0.015625)"/>
      <path id="DejaVuSans-75" d="M 544 1381 
L 544 3500 
L 1119 3500 
L 1119 1403 
Q 1119 906 1312 657 
Q 1506 409 1894 409 
Q 2359 409 2629 706 
Q 2900 1003 2900 1516 
L 2900 3500 
L 3475 3500 
L 3475 0 
L 2900 0 
L 2900 538 
Q 2691 219 2414 64 
Q 2138 -91 1772 -91 
Q 1169 -91 856 284 
Q 544 659 544 1381 
z
M 1991 3584 
L 1991 3584 
z
" transform="scale(0.015625)"/>
      <path id="DejaVuSans-62" d="M 3116 1747 
Q 3116 2381 2855 2742 
Q 2594 3103 2138 3103 
Q 1681 3103 1420 2742 
Q 1159 2381 1159 1747 
Q 1159 1113 1420 752 
Q 1681 391 2138 391 
Q 2594 391 2855 752 
Q 3116 1113 3116 1747 
z
M 1159 2969 
Q 1341 3281 1617 3432 
Q 1894 3584 2278 3584 
Q 2916 3584 3314 3078 
Q 3713 2572 3713 1747 
Q 3713 922 3314 415 
Q 2916 -91 2278 -91 
Q 1894 -91 1617 61 
Q 1341 213 1159 525 
L 1159 0 
L 581 0 
L 581 4863 
L 1159 4863 
L 1159 2969 
z
" transform="scale(0.015625)"/>
      <path id="DejaVuSans-61" d="M 2194 1759 
Q 1497 1759 1228 1600 
Q 959 1441 959 1056 
Q 959 750 1161 570 
Q 1363 391 1709 391 
Q 2188 391 2477 730 
Q 2766 1069 2766 1631 
L 2766 1759 
L 2194 1759 
z
M 3341 1997 
L 3341 0 
L 2766 0 
L 2766 531 
Q 2569 213 2275 61 
Q 1981 -91 1556 -91 
Q 1019 -91 701 211 
Q 384 513 384 1019 
Q 384 1609 779 1909 
Q 1175 2209 1959 2209 
L 2766 2209 
L 2766 2266 
Q 2766 2663 2505 2880 
Q 2244 3097 1772 3097 
Q 1472 3097 1187 3025 
Q 903 2953 641 2809 
L 641 3341 
Q 956 3463 1253 3523 
Q 1550 3584 1831 3584 
Q 2591 3584 2966 3190 
Q 3341 2797 3341 1997 
z
" transform="scale(0.015625)"/>
      <path id="DejaVuSans-66" d="M 2375 4863 
L 2375 4384 
L 1825 4384 
Q 1516 4384 1395 4259 
Q 1275 4134 1275 3809 
L 1275 3500 
L 2222 3500 
L 2222 3053 
L 1275 3053 
L 1275 0 
L 697 0 
L 697 3053 
L 147 3053 
L 147 3500 
L 697 3500 
L 697 3744 
Q 697 4328 969 4595 
Q 1241 4863 1831 4863 
L 2375 4863 
z
" transform="scale(0.015625)"/>
      <path id="DejaVuSans-72" d="M 2631 2963 
Q 2534 3019 2420 3045 
Q 2306 3072 2169 3072 
Q 1681 3072 1420 2755 
Q 1159 2438 1159 1844 
L 1159 0 
L 581 0 
L 581 3500 
L 1159 3500 
L 1159 2956 
Q 1341 3275 1631 3429 
Q 1922 3584 2338 3584 
Q 2397 3584 2469 3576 
Q 2541 3569 2628 3553 
L 2631 2963 
z
" transform="scale(0.015625)"/>
     </defs>
     <use xlink:href="#DejaVuSans-46"/>
     <use xlink:href="#DejaVuSans-6f" transform="translate(53.894531 0)"/>
     <use xlink:href="#DejaVuSans-64" transform="translate(115.076172 0)"/>
     <use xlink:href="#DejaVuSans-6f" transform="translate(178.552734 0)"/>
     <use xlink:href="#DejaVuSans-43" transform="translate(239.734375 0)"/>
     <use xlink:href="#DejaVuSans-65" transform="translate(309.558594 0)"/>
     <use xlink:href="#DejaVuSans-6c" transform="translate(371.082031 0)"/>
     <use xlink:href="#DejaVuSans-6c" transform="translate(398.865234 0)"/>
     <use xlink:href="#DejaVuSans-2d" transform="translate(426.648438 0)"/>
     <use xlink:href="#DejaVuSans-6d" transform="translate(462.732422 0)"/>
     <use xlink:href="#DejaVuSans-75" transform="translate(560.144531 0)"/>
     <use xlink:href="#DejaVuSans-6c" transform="translate(623.523438 0)"/>
     <use xlink:href="#DejaVuSans-74" transform="translate(651.306641 0)"/>
     <use xlink:href="#DejaVuSans-69" transform="translate(690.515625 0)"/>
     <use xlink:href="#DejaVuSans-62" transform="translate(718.298828 0)"/>
     <use xlink:href="#DejaVuSans-65" transform="translate(781.775391 0)"/>
     <use xlink:href="#DejaVuSans-61" transform="translate(843.298828 0)"/>
     <use xlink:href="#DejaVuSans-6d" transform="translate(904.578125 0)"/>
     <use xlink:href="#DejaVuSans-2d" transform="translate(1001.990234 0)"/>
     <use xlink:href="#DejaVuSans-66" transform="translate(1038.074219 0)"/>
     <use xlink:href="#DejaVuSans-72" transform="translate(1073.279297 0)"/>
     <use xlink:href="#DejaVuSans-6f" transform="translate(1112.142578 0)"/>
     <use xlink:href="#DejaVuSans-6d" transform="translate(1173.324219 0)"/>
     <use xlink:href="#DejaVuSans-66" transform="translate(1270.736328 0)"/>
     <use xlink:href="#DejaVuSans-69" transform="translate(1305.941406 0)"/>
     <use xlink:href="#DejaVuSans-6c" transform="translate(1333.724609 0)"/>
     <use xlink:href="#DejaVuSans-65" transform="translate(1361.507812 0)"/>
    </g>
   </g>
   <g id="legend_1">
    <g id="patch_7">
     <path d="M 79.92 277.04 
L 159.660625 277.04 
Q 161.660625 277.04 161.660625 275.04 
L 161.660625 246.68375 
Q 161.660625 244.68375 159.660625 244.68375 
L 79.92 244.68375 
Q 77.92 244.68375 77.92 246.68375 
L 77.92 275.04 
Q 77.92 277.04 79.92 277.04 
z
" style="fill: #ffffff; opacity: 0.8; stroke: #cccccc; stroke-linejoin: miter"/>
    </g>
    <g id="line2d_33">
     <path d="M 81.92 252.782188 
L 91.92 252.782188 
L 101.92 252.782188 
" style="fill: none; stroke: #1f77b4; stroke-width: 2; stroke-linecap: square"/>
    </g>
    <g id="text_19">
     <!-- current -->
     <g transform="translate(109.92 256.282188) scale(0.1 -0.1)">
      <defs>
       <path id="DejaVuSans-63" d="M 3122 3366 
L 3122 2828 
Q 2878 2963 2633 3030 
Q 2388 3097 2138 3097 
Q 1578 3097 1268 2742 
Q 959 2388 959 1747 
Q 959 1106 1268 751 
Q 1578 397 2138 397 
Q 2388 397 2633 464 
Q 2878 531 3122 666 
L 3122 134 
Q 2881 22 2623 -34 
Q 2366 -91 2075 -91 
Q 1284 -91 818 406 
Q 353 903 353 1747 
Q 353 2603 823 3093 
Q 1294 3584 2113 3584 
Q 2378 3584 2631 3529 
Q 2884 3475 3122 3366 
z
" transform="scale(0.015625)"/>
       <path id="DejaVuSans-6e" d="M 3513 2113 
L 3513 0 
L 2938 0 
L 2938 2094 
Q 2938 2591 2744 2837 
Q 2550 3084 2163 3084 
Q 1697 3084 1428 2787 
Q 1159 2491 1159 1978 
L 1159 0 
L 581 0 
L 581 3500 
L 1159 3500 
L 1159 2956 
Q 1366 3272 1645 3428 
Q 1925 3584 2291 3584 
Q 2894 3584 3203 3211 
Q 3513 2838 3513 2113 
z
" transform="scale(0.015625)"/>
      </defs>
      <use xlink:href="#DejaVuSans-63"/>
      <use xlink:href="#DejaVuSans-75" transform="translate(54.980469 0)"/>
      <use xlink:href="#DejaVuSans-72" transform="translate(118.359375 0)"/>
      <use xlink:href="#DejaVuSans-72" transform="translate(157.722656 0)"/>
      <use xlink:href="#DejaVuSans-65" transform="translate(196.585938 0)"/>
      <use xlink:href="#DejaVuSans-6e" transform="translate(258.109375 0)"/>
      <use xlink:href="#DejaVuSans-74" transform="translate(321.488281 0)"/>
     </g>
    </g>
    <g id="line2d_34">
     <path d="M 81.92 267.460312 
L 91.92 267.460312 
L 101.92 267.460312 
" style="fill: none; stroke: #ff7f0e; stroke-width: 2; stroke-linecap: square"/>
    </g>
    <g id="text_20">
     <!-- reference -->
     <g transform="translate(109.92 270.960312) scale(0.1 -0.1)">
      <use xlink:href="#DejaVuSans-72"/>
      <use xlink:href="#DejaVuSans-65" transform="translate(38.863281 0)"/>
      <use xlink:href="#DejaVuSans-66" transform="translate(100.386719 0)"/>
      <use xlink:href="#DejaVuSans-65" transform="translate(135.591797 0)"/>
      <use xlink:href="#DejaVuSans-72" transform="translate(197.115234 0)"/>
      <use xlink:href="#DejaVuSans-65" transform="translate(235.978516 0)"/>
      <use xlink:href="#DejaVuSans-6e" transform="translate(297.501953 0)"/>
      <use xlink:href="#DejaVuSans-63" transform="translate(360.880859 0)"/>
      <use xlink:href="#DejaVuSans-65" transform="translate(415.861328 0)"/>
     </g>
    </g>
   </g>
  </g>
  <g id="axes_2">
   <g id="matplotlib.axis_3">
    <g id="ytick_9">
     <g id="line2d_35">
      <defs>
       <path id="mb6565efb80" d="M 0 0 
L 3.5 0 
" style="stroke: #000000; stroke-width: 0.8"/>
      </defs>
      <g>
       <use xlink:href="#mb6565efb80" x="601.36" y="260.712153" style="stroke: #000000; stroke-width: 0.8"/>
      </g>
     </g>
     <g id="text_21">
      <!-- −6 -->
      <g transform="translate(608.36 264.511371) scale(0.1 -0.1)">
       <defs>
        <path id="DejaVuSans-2212" d="M 678 2272 
L 4684 2272 
L 4684 1741 
L 678 1741 
L 678 2272 
z
" transform="scale(0.015625)"/>
       </defs>
       <use xlink:href="#DejaVuSans-2212"/>
       <use xlink:href="#DejaVuSans-36" transform="translate(83.789062 0)"/>
      </g>
     </g>
    </g>
    <g id="ytick_10">
     <g id="line2d_36">
      <g>
       <use xlink:href="#mb6565efb80" x="601.36" y="218.884239" style="stroke: #000000; stroke-width: 0.8"/>
      </g>
     </g>
     <g id="text_22">
      <!-- −4 -->
      <g transform="translate(608.36 222.683458) scale(0.1 -0.1)">
       <use xlink:href="#DejaVuSans-2212"/>
       <use xlink:href="#DejaVuSans-34" transform="translate(83.789062 0)"/>
      </g>
     </g>
    </g>
    <g id="ytick_11">
     <g id="line2d_37">
      <g>
       <use xlink:href="#mb6565efb80" x="601.36" y="177.056326" style="stroke: #000000; stroke-width: 0.8"/>
      </g>
     </g>
     <g id="text_23">
      <!-- −2 -->
      <g transform="translate(608.36 180.855544) scale(0.1 -0.1)">
       <use xlink:href="#DejaVuSans-2212"/>
       <use xlink:href="#DejaVuSans-32" transform="translate(83.789062 0)"/>
      </g>
     </g>
    </g>
    <g id="ytick_12">
     <g id="line2d_38">
      <g>
       <use xlink:href="#mb6565efb80" x="601.36" y="135.228412" style="stroke: #000000; stroke-width: 0.8"/>
      </g>
     </g>
     <g id="text_24">
      <!-- 0 -->
      <g transform="translate(608.36 139.027631) scale(0.1 -0.1)">
       <use xlink:href="#DejaVuSans-30"/>
      </g>
     </g>
    </g>
    <g id="ytick_13">
     <g id="line2d_39">
      <g>
       <use xlink:href="#mb6565efb80" x="601.36" y="93.400499" style="stroke: #000000; stroke-width: 0.8"/>
      </g>
     </g>
     <g id="text_25">
      <!-- 2 -->
      <g transform="translate(608.36 97.199717) scale(0.1 -0.1)">
       <use xlink:href="#DejaVuSans-32"/>
      </g>
     </g>
    </g>
    <g id="ytick_14">
     <g id="line2d_40">
      <g>
       <use xlink:href="#mb6565efb80" x="601.36" y="51.572585" style="stroke: #000000; stroke-width: 0.8"/>
      </g>
     </g>
     <g id="text_26">
      <!-- 4 -->
      <g transform="translate(608.36 55.371804) scale(0.1 -0.1)">
       <use xlink:href="#DejaVuSans-34"/>
      </g>
     </g>
    </g>
    <g id="text_27">
     <!-- delta emit(s) [m] -->
     <g transform="translate(634.700625 196.876406) rotate(-90) scale(0.1 -0.1)">
      <use xlink:href="#DejaVuSans-64"/>
      <use xlink:href="#DejaVuSans-65" transform="translate(63.476562 0)"/>
      <use xlink:href="#DejaVuSans-6c" transform="translate(125 0)"/>
      <use xlink:href="#DejaVuSans-74" transform="translate(152.783203 0)"/>
      <use xlink:href="#DejaVuSans-61" transform="translate(191.992188 0)"/>
      <use xlink:href="#DejaVuSans-20" transform="translate(253.271484 0)"/>
      <use xlink:href="#DejaVuSans-65" transform="translate(285.058594 0)"/>
      <use xlink:href="#DejaVuSans-6d" transform="translate(346.582031 0)"/>
      <use xlink:href="#DejaVuSans-69" transform="translate(443.994141 0)"/>
      <use xlink:href="#DejaVuSans-74" transform="translate(471.777344 0)"/>
      <use xlink:href="#DejaVuSans-28" transform="translate(510.986328 0)"/>
      <use xlink:href="#DejaVuSans-73" transform="translate(550 0)"/>
      <use xlink:href="#DejaVuSans-29" transform="translate(602.099609 0)"/>
      <use xlink:href="#DejaVuSans-20" transform="translate(641.113281 0)"/>
      <use xlink:href="#DejaVuSans-5b" transform="translate(672.900391 0)"/>
      <use xlink:href="#DejaVuSans-6d" transform="translate(711.914062 0)"/>
      <use xlink:href="#DejaVuSans-5d" transform="translate(809.326172 0)"/>
     </g>
    </g>
    <g id="text_28">
     <!-- 1e−10 -->
     <g transform="translate(567.739688 23.88) scale(0.1 -0.1)">
      <use xlink:href="#DejaVuSans-31"/>
      <use xlink:href="#DejaVuSans-65" transform="translate(63.623047 0)"/>
      <use xlink:href="#DejaVuSans-2212" transform="translate(125.146484 0)"/>
      <use xlink:href="#DejaVuSans-31" transform="translate(208.935547 0)"/>
      <use xlink:href="#DejaVuSans-30" transform="translate(272.558594 0)"/>
     </g>
    </g>
   </g>
   <g id="line2d_41">
    <path d="M 96.94 135.251566 
L 98.141 135.229948 
L 98.3812 135.229754 
L 98.6214 138.19634 
L 98.8616 135.228771 
L 99.342 135.228814 
L 99.5822 139.910286 
L 99.8224 135.230477 
L 100.0626 135.230127 
L 100.3028 141.364859 
L 100.543 135.231062 
L 113.0334 135.226201 
L 120.7198 135.22545 
L 120.96 121.805197 
L 121.2002 120.787563 
L 121.4404 121.565602 
L 121.6806 124.458716 
L 121.9208 125.68664 
L 122.4012 129.993471 
L 122.8816 135.025101 
L 123.362 142.648187 
L 123.8424 156.265554 
L 124.0826 162.181822 
L 124.3228 171.189826 
L 124.563 174.088265 
L 124.8032 173.506612 
L 125.0434 135.225676 
L 144.7398 135.218547 
L 144.98 85.093253 
L 145.9408 105.189664 
L 146.6614 123.06005 
L 147.382 134.314125 
L 148.583 147.194775 
L 148.8232 146.416754 
L 149.0634 135.218395 
L 168.7598 135.21585 
L 169 114.982398 
L 169.4804 133.494439 
L 170.4412 156.430745 
L 170.9216 174.005083 
L 172.8432 257.58773 
L 173.0834 135.216341 
L 192.7798 135.237506 
L 193.02 38.478182 
L 194.7014 94.742214 
L 195.6622 131.968258 
L 196.3828 151.754454 
L 196.623 154.687716 
L 196.8632 151.769417 
L 197.1034 135.240957 
L 216.7998 135.239541 
L 217.2802 130.235191 
L 217.5204 130.333968 
L 217.7606 132.871171 
L 218.241 143.753329 
L 218.9616 169.699109 
L 219.6822 199.31448 
L 220.1626 214.794458 
L 220.4028 220.487461 
L 220.643 223.369852 
L 220.8832 222.37219 
L 221.1234 135.240927 
L 240.8198 135.234246 
L 241.06 92.097558 
L 241.3002 92.344739 
L 241.5404 92.307092 
L 243.9424 136.007082 
L 244.4228 140.797992 
L 244.663 142.301673 
L 244.9032 135.836033 
L 245.1434 135.228935 
L 264.8398 135.217987 
L 265.08 151.77969 
L 265.3202 150.449425 
L 266.0408 150.41514 
L 266.281 150.300347 
L 266.5212 148.110723 
L 266.7614 149.796905 
L 267.0016 147.453073 
L 267.2418 148.678403 
L 267.482 146.031298 
L 267.9624 142.973689 
L 268.4428 138.729139 
L 268.683 141.711956 
L 268.9232 143.069001 
L 269.1634 135.222729 
L 273.487 135.217716 
L 282.3744 135.219736 
L 289.3402 135.219717 
L 289.5804 137.853144 
L 289.8206 135.220905 
L 290.0608 135.220169 
L 290.301 139.379975 
L 290.5412 135.218295 
L 290.7814 139.073181 
L 291.0216 135.218961 
L 291.2618 138.678071 
L 291.502 138.506997 
L 291.7422 135.219281 
L 291.9824 138.17565 
L 292.2226 135.220007 
L 292.4628 137.790131 
L 292.703 137.666943 
L 292.9432 135.218354 
L 313.12 135.209041 
L 313.3602 124.888935 
L 313.6004 123.505645 
L 313.8406 123.385358 
L 314.0808 123.47257 
L 314.321 123.835214 
L 314.5612 123.862778 
L 314.8014 124.9403 
L 315.522 131.046608 
L 316.0024 139.076931 
L 316.9632 162.264831 
L 317.2034 135.205475 
L 337.14 135.202193 
L 337.3802 109.366407 
L 338.8214 127.483331 
L 339.3018 129.833504 
L 339.542 129.584468 
L 339.7822 128.626543 
L 340.743 122.353754 
L 340.9832 124.108079 
L 341.2234 135.204368 
L 361.16 135.204848 
L 361.4002 142.842516 
L 361.8806 148.96051 
L 362.361 153.265894 
L 362.6012 156.381321 
L 363.0816 166.933762 
L 364.763 214.281361 
L 365.0032 221.764982 
L 365.2434 135.201769 
L 385.18 135.199231 
L 385.4202 51.865423 
L 385.9006 59.836298 
L 386.8614 86.687046 
L 388.0624 130.503624 
L 388.3026 134.954425 
L 388.5428 135.294836 
L 388.783 129.652007 
L 389.0232 117.430538 
L 389.2634 98.061505 
L 389.5036 135.200654 
L 409.2 135.197111 
L 409.4402 156.050806 
L 409.9206 141.605561 
L 410.1608 139.792845 
L 410.401 141.3045 
L 410.8814 152.71682 
L 411.602 182.32762 
L 412.5628 220.12781 
L 413.0432 232.856346 
L 413.2834 231.648253 
L 413.5236 135.179553 
L 433.22 135.195926 
L 433.4602 70.574525 
L 434.6612 116.130536 
L 435.1416 126.44596 
L 435.622 131.693646 
L 435.8622 132.938589 
L 436.1024 133.354715 
L 436.3426 133.200964 
L 436.5828 132.719219 
L 437.0632 131.071341 
L 437.3034 125.849537 
L 437.5436 135.211376 
L 457.24 135.199361 
L 457.4802 155.29985 
L 457.9606 154.639714 
L 458.2008 154.199881 
L 458.441 152.064076 
L 458.6812 153.052843 
L 458.9214 150.825134 
L 459.4018 149.018414 
L 459.642 147.778309 
L 459.8822 147.28961 
L 460.6028 139.292685 
L 460.843 139.392933 
L 461.0832 143.763814 
L 461.3234 144.448304 
L 461.5636 135.204864 
L 472.1324 135.20808 
L 481.5002 135.2118 
L 481.7404 136.589256 
L 481.9806 137.044864 
L 482.2208 135.214908 
L 482.461 136.518388 
L 483.1816 133.660717 
L 483.4218 132.563997 
L 483.662 135.209489 
L 483.9022 130.408975 
L 484.1424 129.360144 
L 484.3826 135.210282 
L 484.6228 124.150682 
L 484.863 135.210684 
L 485.1032 121.655013 
L 485.3434 124.618489 
L 485.5836 135.210248 
L 505.28 135.200569 
L 505.5202 128.056362 
L 505.7604 126.599722 
L 506.2408 129.512884 
L 507.9222 140.682572 
L 509.1232 154.763272 
L 509.3634 159.073415 
L 509.6036 135.198148 
L 529.3 135.190905 
L 529.5402 105.613749 
L 530.0206 109.570805 
L 530.501 111.241427 
L 530.7412 111.296756 
L 530.9814 111.859251 
L 531.2216 110.96005 
L 531.4618 110.558149 
L 532.1824 104.958122 
L 532.4226 104.638791 
L 532.6628 105.378417 
L 532.903 108.368141 
L 533.3834 120.408736 
L 533.6236 135.198469 
L 553.32 135.194972 
L 553.5602 138.688458 
L 554.0406 170.515023 
L 554.521 182.642338 
L 555.0014 192.895593 
L 555.4818 205.23385 
L 557.4034 270.441818 
L 557.6436 135.170082 
L 577.34 135.158351 
L 577.34 135.158351 
" clip-path="url(#pe1017d351a)" style="fill: none; stroke-dasharray: 3.7,1.6; stroke-dashoffset: 0; stroke: #808080"/>
   </g>
   <g id="patch_8">
    <path d="M 72.92 282.04 
L 72.92 26.88 
" style="fill: none; stroke: #000000; stroke-width: 0.8; stroke-linejoin: miter; stroke-linecap: square"/>
   </g>
   <g id="patch_9">
    <path d="M 601.36 282.04 
L 601.36 26.88 
" style="fill: none; stroke: #000000; stroke-width: 0.8; stroke-linejoin: miter; stroke-linecap: square"/>
   </g>
   <g id="patch_10">
    <path d="M 72.92 282.04 
L 601.36 282.04 
" style="fill: none; stroke: #000000; stroke-width: 0.8; stroke-linejoin: miter; stroke-linecap: square"/>
   </g>
   <g id="patch_11">
    <path d="M 72.92 26.88 
L 601.36 26.88 
" style="fill: none; stroke: #000000; stroke-width: 0.8; stroke-linejoin: miter; stroke-linecap: square"/>
   </g>
   <g id="legend_2">
    <g id="patch_12">
     <path d="M 512.011563 277.04 
L 594.36 277.04 
Q 596.36 277.04 596.36 275.04 
L 596.36 261.361875 
Q 596.36 259.361875 594.36 259.361875 
L 512.011563 259.361875 
Q 510.011563 259.361875 510.011563 261.361875 
L 510.011563 275.04 
Q 510.011563 277.04 512.011563 277.04 
z
" style="fill: #ffffff; opacity: 0.8; stroke: #cccccc; stroke-linejoin: miter"/>
    </g>
    <g id="line2d_42">
     <path d="M 514.011563 267.460312 
L 524.011563 267.460312 
L 534.011563 267.460312 
" style="fill: none; stroke-dasharray: 3.7,1.6; stroke-dashoffset: 0; stroke: #808080"/>
    </g>
    <g id="text_29">
     <!-- difference -->
     <g transform="translate(542.011563 270.960312) scale(0.1 -0.1)">
      <use xlink:href="#DejaVuSans-64"/>
      <use xlink:href="#DejaVuSans-69" transform="translate(63.476562 0)"/>
      <use xlink:href="#DejaVuSans-66" transform="translate(91.259766 0)"/>
      <use xlink:href="#DejaVuSans-66" transform="translate(126.464844 0)"/>
      <use xlink:href="#DejaVuSans-65" transform="translate(161.669922 0)"/>
      <use xlink:href="#DejaVuSans-72" transform="translate(223.193359 0)"/>
      <use xlink:href="#DejaVuSans-65" transform="translate(262.056641 0)"/>
      <use xlink:href="#DejaVuSans-6e" transform="translate(323.580078 0)"/>
      <use xlink:href="#DejaVuSans-63" transform="translate(386.958984 0)"/>
      <use xlink:href="#DejaVuSans-65" transform="translate(441.939453 0)"/>
     </g>
    </g>
   </g>
  </g>
 </g>
 <defs>
  <clipPath id="pe1017d351a">
   <rect x="72.92" y="26.88" width="528.44" height="255.16"/>
  </clipPath>
 </defs>
</svg>
