<?xml version="1.0" encoding="utf-8" standalone="no"?>
<!DOCTYPE svg PUBLIC "-//W3C//DTD SVG 1.1//EN"
  "http://www.w3.org/Graphics/SVG/1.1/DTD/svg11.dtd">
<svg xmlns:xlink="http://www.w3.org/1999/xlink" width="648pt" height="324pt" viewBox="0 0 648 324" xmlns="http://www.w3.org/2000/svg" version="1.1">
 <metadata>
  <rdf:RDF xmlns:dc="http://purl.org/dc/elements/1.1/" xmlns:cc="http://creativecommons.org/ns#" xmlns:rdf="http://www.w3.org/1999/02/22-rdf-syntax-ns#">
   <cc:Work>
    <dc:type rdf:resource="http://purl.org/dc/dcmitype/StillImage"/>
    <dc:date>2026-04-26T09:11:29.133049</dc:date>
    <dc:format>image/svg+xml</dc:format>
    <dc:creator>
     <cc:Agent>
      <dc:title>Matplotlib v3.10.8, https://matplotlib.org/</dc:title>
     </cc:Agent>
    </dc:creator>
   </cc:Work>
  </rdf:RDF>
 </metadata>
 <defs>
  <style type="text/css">*{stroke-linejoin: round; stroke-linecap: butt}</style>
 </defs>
 <g id="figure_1">
  <g id="patch_1">
   <path d="M 0 324 
L 648 324 
L 648 0 
L 0 0 
z
" style="fill: #ffffff"/>
  </g>
  <g id="axes_1">
   <g id="patch_2">
    <path d="M 62.3 282.04 
L 601.45 282.04 
L 601.45 26.88 
L 62.3 26.88 
z
" style="fill: #ffffff"/>
   </g>
   <g id="matplotlib.axis_1">
    <g id="xtick_1">
     <g id="line2d_1">
      <path d="M 86.56175 282.04 
L 86.56175 26.88 
" clip-path="url(#p7ee140af2f)" style="fill: none; stroke: #b0b0b0; stroke-width: 0.8; stroke-linecap: square"/>
     </g>
     <g id="line2d_2">
      <defs>
       <path id="m093c8cf1f9" d="M 0 0 
L 0 3.5 
" style="stroke: #000000; stroke-width: 0.8"/>
      </defs>
      <g>
       <use xlink:href="#m093c8cf1f9" x="86.56175" y="282.04" style="stroke: #000000; stroke-width: 0.8"/>
      </g>
     </g>
     <g id="text_1">
      <!-- 0 -->
      <g transform="translate(83.3805 296.638438) scale(0.1 -0.1)">
       <defs>
        <path id="DejaVuSans-30" d="M 2034 4250 
Q 1547 4250 1301 3770 
Q 1056 3291 1056 2328 
Q 1056 1369 1301 889 
Q 1547 409 2034 409 
Q 2525 409 2770 889 
Q 3016 1369 3016 2328 
Q 3016 3291 2770 3770 
Q 2525 4250 2034 4250 
z
M 2034 4750 
Q 2819 4750 3233 4129 
Q 3647 3509 3647 2328 
Q 3647 1150 3233 529 
Q 2819 -91 2034 -91 
Q 1250 -91 836 529 
Q 422 1150 422 2328 
Q 422 3509 836 4129 
Q 1250 4750 2034 4750 
z
" transform="scale(0.015625)"/>
       </defs>
       <use xlink:href="#DejaVuSans-30"/>
      </g>
     </g>
    </g>
    <g id="xtick_2">
     <g id="line2d_3">
      <path d="M 168.307707 282.04 
L 168.307707 26.88 
" clip-path="url(#p7ee140af2f)" style="fill: none; stroke: #b0b0b0; stroke-width: 0.8; stroke-linecap: square"/>
     </g>
     <g id="line2d_4">
      <g>
       <use xlink:href="#m093c8cf1f9" x="168.307707" y="282.04" style="stroke: #000000; stroke-width: 0.8"/>
      </g>
     </g>
     <g id="text_2">
      <!-- 10 -->
      <g transform="translate(161.945207 296.638438) scale(0.1 -0.1)">
       <defs>
        <path id="DejaVuSans-31" d="M 794 531 
L 1825 531 
L 1825 4091 
L 703 3866 
L 703 4441 
L 1819 4666 
L 2450 4666 
L 2450 531 
L 3481 531 
L 3481 0 
L 794 0 
L 794 531 
z
" transform="scale(0.015625)"/>
       </defs>
       <use xlink:href="#DejaVuSans-31"/>
       <use xlink:href="#DejaVuSans-30" transform="translate(63.623047 0)"/>
      </g>
     </g>
    </g>
    <g id="xtick_3">
     <g id="line2d_5">
      <path d="M 250.053664 282.04 
L 250.053664 26.88 
" clip-path="url(#p7ee140af2f)" style="fill: none; stroke: #b0b0b0; stroke-width: 0.8; stroke-linecap: square"/>
     </g>
     <g id="line2d_6">
      <g>
       <use xlink:href="#m093c8cf1f9" x="250.053664" y="282.04" style="stroke: #000000; stroke-width: 0.8"/>
      </g>
     </g>
     <g id="text_3">
      <!-- 20 -->
      <g transform="translate(243.691164 296.638438) scale(0.1 -0.1)">
       <defs>
        <path id="DejaVuSans-32" d="M 1228 531 
L 3431 531 
L 3431 0 
L 469 0 
L 469 531 
Q 828 903 1448 1529 
Q 2069 2156 2228 2338 
Q 2531 2678 2651 2914 
Q 2772 3150 2772 3378 
Q 2772 3750 2511 3984 
Q 2250 4219 1831 4219 
Q 1534 4219 1204 4116 
Q 875 4013 500 3803 
L 500 4441 
Q 881 4594 1212 4672 
Q 1544 4750 1819 4750 
Q 2544 4750 2975 4387 
Q 3406 4025 3406 3419 
Q 3406 3131 3298 2873 
Q 3191 2616 2906 2266 
Q 2828 2175 2409 1742 
Q 1991 1309 1228 531 
z
" transform="scale(0.015625)"/>
       </defs>
       <use xlink:href="#DejaVuSans-32"/>
       <use xlink:href="#DejaVuSans-30" transform="translate(63.623047 0)"/>
      </g>
     </g>
    </g>
    <g id="xtick_4">
     <g id="line2d_7">
      <path d="M 331.799621 282.04 
L 331.799621 26.88 
" clip-path="url(#p7ee140af2f)" style="fill: none; stroke: #b0b0b0; stroke-width: 0.8; stroke-linecap: square"/>
     </g>
     <g id="line2d_8">
      <g>
       <use xlink:href="#m093c8cf1f9" x="331.799621" y="282.04" style="stroke: #000000; stroke-width: 0.8"/>
      </g>
     </g>
     <g id="text_4">
      <!-- 30 -->
      <g transform="translate(325.437121 296.638438) scale(0.1 -0.1)">
       <defs>
        <path id="DejaVuSans-33" d="M 2597 2516 
Q 3050 2419 3304 2112 
Q 3559 1806 3559 1356 
Q 3559 666 3084 287 
Q 2609 -91 1734 -91 
Q 1441 -91 1130 -33 
Q 819 25 488 141 
L 488 750 
Q 750 597 1062 519 
Q 1375 441 1716 441 
Q 2309 441 2620 675 
Q 2931 909 2931 1356 
Q 2931 1769 2642 2001 
Q 2353 2234 1838 2234 
L 1294 2234 
L 1294 2753 
L 1863 2753 
Q 2328 2753 2575 2939 
Q 2822 3125 2822 3475 
Q 2822 3834 2567 4026 
Q 2313 4219 1838 4219 
Q 1578 4219 1281 4162 
Q 984 4106 628 3988 
L 628 4550 
Q 988 4650 1302 4700 
Q 1616 4750 1894 4750 
Q 2613 4750 3031 4423 
Q 3450 4097 3450 3541 
Q 3450 3153 3228 2886 
Q 3006 2619 2597 2516 
z
" transform="scale(0.015625)"/>
       </defs>
       <use xlink:href="#DejaVuSans-33"/>
       <use xlink:href="#DejaVuSans-30" transform="translate(63.623047 0)"/>
      </g>
     </g>
    </g>
    <g id="xtick_5">
     <g id="line2d_9">
      <path d="M 413.545578 282.04 
L 413.545578 26.88 
" clip-path="url(#p7ee140af2f)" style="fill: none; stroke: #b0b0b0; stroke-width: 0.8; stroke-linecap: square"/>
     </g>
     <g id="line2d_10">
      <g>
       <use xlink:href="#m093c8cf1f9" x="413.545578" y="282.04" style="stroke: #000000; stroke-width: 0.8"/>
      </g>
     </g>
     <g id="text_5">
      <!-- 40 -->
      <g transform="translate(407.183078 296.638438) scale(0.1 -0.1)">
       <defs>
        <path id="DejaVuSans-34" d="M 2419 4116 
L 825 1625 
L 2419 1625 
L 2419 4116 
z
M 2253 4666 
L 3047 4666 
L 3047 1625 
L 3713 1625 
L 3713 1100 
L 3047 1100 
L 3047 0 
L 2419 0 
L 2419 1100 
L 313 1100 
L 313 1709 
L 2253 4666 
z
" transform="scale(0.015625)"/>
       </defs>
       <use xlink:href="#DejaVuSans-34"/>
       <use xlink:href="#DejaVuSans-30" transform="translate(63.623047 0)"/>
      </g>
     </g>
    </g>
    <g id="xtick_6">
     <g id="line2d_11">
      <path d="M 495.291535 282.04 
L 495.291535 26.88 
" clip-path="url(#p7ee140af2f)" style="fill: none; stroke: #b0b0b0; stroke-width: 0.8; stroke-linecap: square"/>
     </g>
     <g id="line2d_12">
      <g>
       <use xlink:href="#m093c8cf1f9" x="495.291535" y="282.04" style="stroke: #000000; stroke-width: 0.8"/>
      </g>
     </g>
     <g id="text_6">
      <!-- 50 -->
      <g transform="translate(488.929035 296.638438) scale(0.1 -0.1)">
       <defs>
        <path id="DejaVuSans-35" d="M 691 4666 
L 3169 4666 
L 3169 4134 
L 1269 4134 
L 1269 2991 
Q 1406 3038 1543 3061 
Q 1681 3084 1819 3084 
Q 2600 3084 3056 2656 
Q 3513 2228 3513 1497 
Q 3513 744 3044 326 
Q 2575 -91 1722 -91 
Q 1428 -91 1123 -41 
Q 819 9 494 109 
L 494 744 
Q 775 591 1075 516 
Q 1375 441 1709 441 
Q 2250 441 2565 725 
Q 2881 1009 2881 1497 
Q 2881 1984 2565 2268 
Q 2250 2553 1709 2553 
Q 1456 2553 1204 2497 
Q 953 2441 691 2322 
L 691 4666 
z
" transform="scale(0.015625)"/>
       </defs>
       <use xlink:href="#DejaVuSans-35"/>
       <use xlink:href="#DejaVuSans-30" transform="translate(63.623047 0)"/>
      </g>
     </g>
    </g>
    <g id="xtick_7">
     <g id="line2d_13">
      <path d="M 577.037492 282.04 
L 577.037492 26.88 
" clip-path="url(#p7ee140af2f)" style="fill: none; stroke: #b0b0b0; stroke-width: 0.8; stroke-linecap: square"/>
     </g>
     <g id="line2d_14">
      <g>
       <use xlink:href="#m093c8cf1f9" x="577.037492" y="282.04" style="stroke: #000000; stroke-width: 0.8"/>
      </g>
     </g>
     <g id="text_7">
      <!-- 60 -->
      <g transform="translate(570.674992 296.638438) scale(0.1 -0.1)">
       <defs>
        <path id="DejaVuSans-36" d="M 2113 2584 
Q 1688 2584 1439 2293 
Q 1191 2003 1191 1497 
Q 1191 994 1439 701 
Q 1688 409 2113 409 
Q 2538 409 2786 701 
Q 3034 994 3034 1497 
Q 3034 2003 2786 2293 
Q 2538 2584 2113 2584 
z
M 3366 4563 
L 3366 3988 
Q 3128 4100 2886 4159 
Q 2644 4219 2406 4219 
Q 1781 4219 1451 3797 
Q 1122 3375 1075 2522 
Q 1259 2794 1537 2939 
Q 1816 3084 2150 3084 
Q 2853 3084 3261 2657 
Q 3669 2231 3669 1497 
Q 3669 778 3244 343 
Q 2819 -91 2113 -91 
Q 1303 -91 875 529 
Q 447 1150 447 2328 
Q 447 3434 972 4092 
Q 1497 4750 2381 4750 
Q 2619 4750 2861 4703 
Q 3103 4656 3366 4563 
z
" transform="scale(0.015625)"/>
       </defs>
       <use xlink:href="#DejaVuSans-36"/>
       <use xlink:href="#DejaVuSans-30" transform="translate(63.623047 0)"/>
      </g>
     </g>
    </g>
    <g id="text_8">
     <!-- s [m] -->
     <g transform="translate(318.909375 310.316563) scale(0.1 -0.1)">
      <defs>
       <path id="DejaVuSans-73" d="M 2834 3397 
L 2834 2853 
Q 2591 2978 2328 3040 
Q 2066 3103 1784 3103 
Q 1356 3103 1142 2972 
Q 928 2841 928 2578 
Q 928 2378 1081 2264 
Q 1234 2150 1697 2047 
L 1894 2003 
Q 2506 1872 2764 1633 
Q 3022 1394 3022 966 
Q 3022 478 2636 193 
Q 2250 -91 1575 -91 
Q 1294 -91 989 -36 
Q 684 19 347 128 
L 347 722 
Q 666 556 975 473 
Q 1284 391 1588 391 
Q 1994 391 2212 530 
Q 2431 669 2431 922 
Q 2431 1156 2273 1281 
Q 2116 1406 1581 1522 
L 1381 1569 
Q 847 1681 609 1914 
Q 372 2147 372 2553 
Q 372 3047 722 3315 
Q 1072 3584 1716 3584 
Q 2034 3584 2315 3537 
Q 2597 3491 2834 3397 
z
" transform="scale(0.015625)"/>
       <path id="DejaVuSans-20" transform="scale(0.015625)"/>
       <path id="DejaVuSans-5b" d="M 550 4863 
L 1875 4863 
L 1875 4416 
L 1125 4416 
L 1125 -397 
L 1875 -397 
L 1875 -844 
L 550 -844 
L 550 4863 
z
" transform="scale(0.015625)"/>
       <path id="DejaVuSans-6d" d="M 3328 2828 
Q 3544 3216 3844 3400 
Q 4144 3584 4550 3584 
Q 5097 3584 5394 3201 
Q 5691 2819 5691 2113 
L 5691 0 
L 5113 0 
L 5113 2094 
Q 5113 2597 4934 2840 
Q 4756 3084 4391 3084 
Q 3944 3084 3684 2787 
Q 3425 2491 3425 1978 
L 3425 0 
L 2847 0 
L 2847 2094 
Q 2847 2600 2669 2842 
Q 2491 3084 2119 3084 
Q 1678 3084 1418 2786 
Q 1159 2488 1159 1978 
L 1159 0 
L 581 0 
L 581 3500 
L 1159 3500 
L 1159 2956 
Q 1356 3278 1631 3431 
Q 1906 3584 2284 3584 
Q 2666 3584 2933 3390 
Q 3200 3197 3328 2828 
z
" transform="scale(0.015625)"/>
       <path id="DejaVuSans-5d" d="M 1947 4863 
L 1947 -844 
L 622 -844 
L 622 -397 
L 1369 -397 
L 1369 4416 
L 622 4416 
L 622 4863 
L 1947 4863 
z
" transform="scale(0.015625)"/>
      </defs>
      <use xlink:href="#DejaVuSans-73"/>
      <use xlink:href="#DejaVuSans-20" transform="translate(52.099609 0)"/>
      <use xlink:href="#DejaVuSans-5b" transform="translate(83.886719 0)"/>
      <use xlink:href="#DejaVuSans-6d" transform="translate(122.900391 0)"/>
      <use xlink:href="#DejaVuSans-5d" transform="translate(220.3125 0)"/>
     </g>
    </g>
   </g>
   <g id="matplotlib.axis_2">
    <g id="ytick_1">
     <g id="line2d_15">
      <path d="M 62.3 272.375 
L 601.45 272.375 
" clip-path="url(#p7ee140af2f)" style="fill: none; stroke: #b0b0b0; stroke-width: 0.8; stroke-linecap: square"/>
     </g>
     <g id="line2d_16">
      <defs>
       <path id="m472b7c06f8" d="M 0 0 
L -3.5 0 
" style="stroke: #000000; stroke-width: 0.8"/>
      </defs>
      <g>
       <use xlink:href="#m472b7c06f8" x="62.3" y="272.375" style="stroke: #000000; stroke-width: 0.8"/>
      </g>
     </g>
     <g id="text_9">
      <!-- −0.25 -->
      <g transform="translate(24.654688 276.174219) scale(0.1 -0.1)">
       <defs>
        <path id="DejaVuSans-2212" d="M 678 2272 
L 4684 2272 
L 4684 1741 
L 678 1741 
L 678 2272 
z
" transform="scale(0.015625)"/>
        <path id="DejaVuSans-2e" d="M 684 794 
L 1344 794 
L 1344 0 
L 684 0 
L 684 794 
z
" transform="scale(0.015625)"/>
       </defs>
       <use xlink:href="#DejaVuSans-2212"/>
       <use xlink:href="#DejaVuSans-30" transform="translate(83.789062 0)"/>
       <use xlink:href="#DejaVuSans-2e" transform="translate(147.412109 0)"/>
       <use xlink:href="#DejaVuSans-32" transform="translate(179.199219 0)"/>
       <use xlink:href="#DejaVuSans-35" transform="translate(242.822266 0)"/>
      </g>
     </g>
    </g>
    <g id="ytick_2">
     <g id="line2d_17">
      <path d="M 62.3 241.9375 
L 601.45 241.9375 
" clip-path="url(#p7ee140af2f)" style="fill: none; stroke: #b0b0b0; stroke-width: 0.8; stroke-linecap: square"/>
     </g>
     <g id="line2d_18">
      <g>
       <use xlink:href="#m472b7c06f8" x="62.3" y="241.9375" style="stroke: #000000; stroke-width: 0.8"/>
      </g>
     </g>
     <g id="text_10">
      <!-- 0.00 -->
      <g transform="translate(33.034375 245.736719) scale(0.1 -0.1)">
       <use xlink:href="#DejaVuSans-30"/>
       <use xlink:href="#DejaVuSans-2e" transform="translate(63.623047 0)"/>
       <use xlink:href="#DejaVuSans-30" transform="translate(95.410156 0)"/>
       <use xlink:href="#DejaVuSans-30" transform="translate(159.033203 0)"/>
      </g>
     </g>
    </g>
    <g id="ytick_3">
     <g id="line2d_19">
      <path d="M 62.3 211.5 
L 601.45 211.5 
" clip-path="url(#p7ee140af2f)" style="fill: none; stroke: #b0b0b0; stroke-width: 0.8; stroke-linecap: square"/>
     </g>
     <g id="line2d_20">
      <g>
       <use xlink:href="#m472b7c06f8" x="62.3" y="211.5" style="stroke: #000000; stroke-width: 0.8"/>
      </g>
     </g>
     <g id="text_11">
      <!-- 0.25 -->
      <g transform="translate(33.034375 215.299219) scale(0.1 -0.1)">
       <use xlink:href="#DejaVuSans-30"/>
       <use xlink:href="#DejaVuSans-2e" transform="translate(63.623047 0)"/>
       <use xlink:href="#DejaVuSans-32" transform="translate(95.410156 0)"/>
       <use xlink:href="#DejaVuSans-35" transform="translate(159.033203 0)"/>
      </g>
     </g>
    </g>
    <g id="ytick_4">
     <g id="line2d_21">
      <path d="M 62.3 181.0625 
L 601.45 181.0625 
" clip-path="url(#p7ee140af2f)" style="fill: none; stroke: #b0b0b0; stroke-width: 0.8; stroke-linecap: square"/>
     </g>
     <g id="line2d_22">
      <g>
       <use xlink:href="#m472b7c06f8" x="62.3" y="181.0625" style="stroke: #000000; stroke-width: 0.8"/>
      </g>
     </g>
     <g id="text_12">
      <!-- 0.50 -->
      <g transform="translate(33.034375 184.861719) scale(0.1 -0.1)">
       <use xlink:href="#DejaVuSans-30"/>
       <use xlink:href="#DejaVuSans-2e" transform="translate(63.623047 0)"/>
       <use xlink:href="#DejaVuSans-35" transform="translate(95.410156 0)"/>
       <use xlink:href="#DejaVuSans-30" transform="translate(159.033203 0)"/>
      </g>
     </g>
    </g>
    <g id="ytick_5">
     <g id="line2d_23">
      <path d="M 62.3 150.625 
L 601.45 150.625 
" clip-path="url(#p7ee140af2f)" style="fill: none; stroke: #b0b0b0; stroke-width: 0.8; stroke-linecap: square"/>
     </g>
     <g id="line2d_24">
      <g>
       <use xlink:href="#m472b7c06f8" x="62.3" y="150.625" style="stroke: #000000; stroke-width: 0.8"/>
      </g>
     </g>
     <g id="text_13">
      <!-- 0.75 -->
      <g transform="translate(33.034375 154.424219) scale(0.1 -0.1)">
       <defs>
        <path id="DejaVuSans-37" d="M 525 4666 
L 3525 4666 
L 3525 4397 
L 1831 0 
L 1172 0 
L 2766 4134 
L 525 4134 
L 525 4666 
z
" transform="scale(0.015625)"/>
       </defs>
       <use xlink:href="#DejaVuSans-30"/>
       <use xlink:href="#DejaVuSans-2e" transform="translate(63.623047 0)"/>
       <use xlink:href="#DejaVuSans-37" transform="translate(95.410156 0)"/>
       <use xlink:href="#DejaVuSans-35" transform="translate(159.033203 0)"/>
      </g>
     </g>
    </g>
    <g id="ytick_6">
     <g id="line2d_25">
      <path d="M 62.3 120.1875 
L 601.45 120.1875 
" clip-path="url(#p7ee140af2f)" style="fill: none; stroke: #b0b0b0; stroke-width: 0.8; stroke-linecap: square"/>
     </g>
     <g id="line2d_26">
      <g>
       <use xlink:href="#m472b7c06f8" x="62.3" y="120.1875" style="stroke: #000000; stroke-width: 0.8"/>
      </g>
     </g>
     <g id="text_14">
      <!-- 1.00 -->
      <g transform="translate(33.034375 123.986719) scale(0.1 -0.1)">
       <use xlink:href="#DejaVuSans-31"/>
       <use xlink:href="#DejaVuSans-2e" transform="translate(63.623047 0)"/>
       <use xlink:href="#DejaVuSans-30" transform="translate(95.410156 0)"/>
       <use xlink:href="#DejaVuSans-30" transform="translate(159.033203 0)"/>
      </g>
     </g>
    </g>
    <g id="ytick_7">
     <g id="line2d_27">
      <path d="M 62.3 89.75 
L 601.45 89.75 
" clip-path="url(#p7ee140af2f)" style="fill: none; stroke: #b0b0b0; stroke-width: 0.8; stroke-linecap: square"/>
     </g>
     <g id="line2d_28">
      <g>
       <use xlink:href="#m472b7c06f8" x="62.3" y="89.75" style="stroke: #000000; stroke-width: 0.8"/>
      </g>
     </g>
     <g id="text_15">
      <!-- 1.25 -->
      <g transform="translate(33.034375 93.549219) scale(0.1 -0.1)">
       <use xlink:href="#DejaVuSans-31"/>
       <use xlink:href="#DejaVuSans-2e" transform="translate(63.623047 0)"/>
       <use xlink:href="#DejaVuSans-32" transform="translate(95.410156 0)"/>
       <use xlink:href="#DejaVuSans-35" transform="translate(159.033203 0)"/>
      </g>
     </g>
    </g>
    <g id="ytick_8">
     <g id="line2d_29">
      <path d="M 62.3 59.3125 
L 601.45 59.3125 
" clip-path="url(#p7ee140af2f)" style="fill: none; stroke: #b0b0b0; stroke-width: 0.8; stroke-linecap: square"/>
     </g>
     <g id="line2d_30">
      <g>
       <use xlink:href="#m472b7c06f8" x="62.3" y="59.3125" style="stroke: #000000; stroke-width: 0.8"/>
      </g>
     </g>
     <g id="text_16">
      <!-- 1.50 -->
      <g transform="translate(33.034375 63.111719) scale(0.1 -0.1)">
       <use xlink:href="#DejaVuSans-31"/>
       <use xlink:href="#DejaVuSans-2e" transform="translate(63.623047 0)"/>
       <use xlink:href="#DejaVuSans-35" transform="translate(95.410156 0)"/>
       <use xlink:href="#DejaVuSans-30" transform="translate(159.033203 0)"/>
      </g>
     </g>
    </g>
    <g id="ytick_9">
     <g id="line2d_31">
      <path d="M 62.3 28.875 
L 601.45 28.875 
" clip-path="url(#p7ee140af2f)" style="fill: none; stroke: #b0b0b0; stroke-width: 0.8; stroke-linecap: square"/>
     </g>
     <g id="line2d_32">
      <g>
       <use xlink:href="#m472b7c06f8" x="62.3" y="28.875" style="stroke: #000000; stroke-width: 0.8"/>
      </g>
     </g>
     <g id="text_17">
      <!-- 1.75 -->
      <g transform="translate(33.034375 32.674219) scale(0.1 -0.1)">
       <use xlink:href="#DejaVuSans-31"/>
       <use xlink:href="#DejaVuSans-2e" transform="translate(63.623047 0)"/>
       <use xlink:href="#DejaVuSans-37" transform="translate(95.410156 0)"/>
       <use xlink:href="#DejaVuSans-35" transform="translate(159.033203 0)"/>
      </g>
     </g>
    </g>
    <g id="text_18">
     <!-- energy [MeV] -->
     <g transform="translate(18.575 188.185) rotate(-90) scale(0.1 -0.1)">
      <defs>
       <path id="DejaVuSans-65" d="M 3597 1894 
L 3597 1613 
L 953 1613 
Q 991 1019 1311 708 
Q 1631 397 2203 397 
Q 2534 397 2845 478 
Q 3156 559 3463 722 
L 3463 178 
Q 3153 47 2828 -22 
Q 2503 -91 2169 -91 
Q 1331 -91 842 396 
Q 353 884 353 1716 
Q 353 2575 817 3079 
Q 1281 3584 2069 3584 
Q 2775 3584 3186 3129 
Q 3597 2675 3597 1894 
z
M 3022 2063 
Q 3016 2534 2758 2815 
Q 2500 3097 2075 3097 
Q 1594 3097 1305 2825 
Q 1016 2553 972 2059 
L 3022 2063 
z
" transform="scale(0.015625)"/>
       <path id="DejaVuSans-6e" d="M 3513 2113 
L 3513 0 
L 2938 0 
L 2938 2094 
Q 2938 2591 2744 2837 
Q 2550 3084 2163 3084 
Q 1697 3084 1428 2787 
Q 1159 2491 1159 1978 
L 1159 0 
L 581 0 
L 581 3500 
L 1159 3500 
L 1159 2956 
Q 1366 3272 1645 3428 
Q 1925 3584 2291 3584 
Q 2894 3584 3203 3211 
Q 3513 2838 3513 2113 
z
" transform="scale(0.015625)"/>
       <path id="DejaVuSans-72" d="M 2631 2963 
Q 2534 3019 2420 3045 
Q 2306 3072 2169 3072 
Q 1681 3072 1420 2755 
Q 1159 2438 1159 1844 
L 1159 0 
L 581 0 
L 581 3500 
L 1159 3500 
L 1159 2956 
Q 1341 3275 1631 3429 
Q 1922 3584 2338 3584 
Q 2397 3584 2469 3576 
Q 2541 3569 2628 3553 
L 2631 2963 
z
" transform="scale(0.015625)"/>
       <path id="DejaVuSans-67" d="M 2906 1791 
Q 2906 2416 2648 2759 
Q 2391 3103 1925 3103 
Q 1463 3103 1205 2759 
Q 947 2416 947 1791 
Q 947 1169 1205 825 
Q 1463 481 1925 481 
Q 2391 481 2648 825 
Q 2906 1169 2906 1791 
z
M 3481 434 
Q 3481 -459 3084 -895 
Q 2688 -1331 1869 -1331 
Q 1566 -1331 1297 -1286 
Q 1028 -1241 775 -1147 
L 775 -588 
Q 1028 -725 1275 -790 
Q 1522 -856 1778 -856 
Q 2344 -856 2625 -561 
Q 2906 -266 2906 331 
L 2906 616 
Q 2728 306 2450 153 
Q 2172 0 1784 0 
Q 1141 0 747 490 
Q 353 981 353 1791 
Q 353 2603 747 3093 
Q 1141 3584 1784 3584 
Q 2172 3584 2450 3431 
Q 2728 3278 2906 2969 
L 2906 3500 
L 3481 3500 
L 3481 434 
z
" transform="scale(0.015625)"/>
       <path id="DejaVuSans-79" d="M 2059 -325 
Q 1816 -950 1584 -1140 
Q 1353 -1331 966 -1331 
L 506 -1331 
L 506 -850 
L 844 -850 
Q 1081 -850 1212 -737 
Q 1344 -625 1503 -206 
L 1606 56 
L 191 3500 
L 800 3500 
L 1894 763 
L 2988 3500 
L 3597 3500 
L 2059 -325 
z
" transform="scale(0.015625)"/>
       <path id="DejaVuSans-4d" d="M 628 4666 
L 1569 4666 
L 2759 1491 
L 3956 4666 
L 4897 4666 
L 4897 0 
L 4281 0 
L 4281 4097 
L 3078 897 
L 2444 897 
L 1241 4097 
L 1241 0 
L 628 0 
L 628 4666 
z
" transform="scale(0.015625)"/>
       <path id="DejaVuSans-56" d="M 1831 0 
L 50 4666 
L 709 4666 
L 2188 738 
L 3669 4666 
L 4325 4666 
L 2547 0 
L 1831 0 
z
" transform="scale(0.015625)"/>
      </defs>
      <use xlink:href="#DejaVuSans-65"/>
      <use xlink:href="#DejaVuSans-6e" transform="translate(61.523438 0)"/>
      <use xlink:href="#DejaVuSans-65" transform="translate(124.902344 0)"/>
      <use xlink:href="#DejaVuSans-72" transform="translate(186.425781 0)"/>
      <use xlink:href="#DejaVuSans-67" transform="translate(225.789062 0)"/>
      <use xlink:href="#DejaVuSans-79" transform="translate(289.265625 0)"/>
      <use xlink:href="#DejaVuSans-20" transform="translate(348.445312 0)"/>
      <use xlink:href="#DejaVuSans-5b" transform="translate(380.232422 0)"/>
      <use xlink:href="#DejaVuSans-4d" transform="translate(419.246094 0)"/>
      <use xlink:href="#DejaVuSans-65" transform="translate(505.525391 0)"/>
      <use xlink:href="#DejaVuSans-56" transform="translate(567.048828 0)"/>
      <use xlink:href="#DejaVuSans-5d" transform="translate(635.457031 0)"/>
     </g>
    </g>
    <g id="text_19">
     <!-- 1e−9+1e3 -->
     <g transform="translate(62.3 23.88) scale(0.1 -0.1)">
      <defs>
       <path id="DejaVuSans-39" d="M 703 97 
L 703 672 
Q 941 559 1184 500 
Q 1428 441 1663 441 
Q 2288 441 2617 861 
Q 2947 1281 2994 2138 
Q 2813 1869 2534 1725 
Q 2256 1581 1919 1581 
Q 1219 1581 811 2004 
Q 403 2428 403 3163 
Q 403 3881 828 4315 
Q 1253 4750 1959 4750 
Q 2769 4750 3195 4129 
Q 3622 3509 3622 2328 
Q 3622 1225 3098 567 
Q 2575 -91 1691 -91 
Q 1453 -91 1209 -44 
Q 966 3 703 97 
z
M 1959 2075 
Q 2384 2075 2632 2365 
Q 2881 2656 2881 3163 
Q 2881 3666 2632 3958 
Q 2384 4250 1959 4250 
Q 1534 4250 1286 3958 
Q 1038 3666 1038 3163 
Q 1038 2656 1286 2365 
Q 1534 2075 1959 2075 
z
" transform="scale(0.015625)"/>
       <path id="DejaVuSans-2b" d="M 2944 4013 
L 2944 2272 
L 4684 2272 
L 4684 1741 
L 2944 1741 
L 2944 0 
L 2419 0 
L 2419 1741 
L 678 1741 
L 678 2272 
L 2419 2272 
L 2419 4013 
L 2944 4013 
z
" transform="scale(0.015625)"/>
      </defs>
      <use xlink:href="#DejaVuSans-31"/>
      <use xlink:href="#DejaVuSans-65" transform="translate(63.623047 0)"/>
      <use xlink:href="#DejaVuSans-2212" transform="translate(125.146484 0)"/>
      <use xlink:href="#DejaVuSans-39" transform="translate(208.935547 0)"/>
      <use xlink:href="#DejaVuSans-2b" transform="translate(272.558594 0)"/>
      <use xlink:href="#DejaVuSans-31" transform="translate(356.347656 0)"/>
      <use xlink:href="#DejaVuSans-65" transform="translate(419.970703 0)"/>
      <use xlink:href="#DejaVuSans-33" transform="translate(481.494141 0)"/>
     </g>
    </g>
   </g>
   <g id="line2d_33">
    <path d="M 86.806818 157.078125 
L 89.502568 157.078125 
L 89.747636 157.203125 
L 92.443386 157.203125 
L 92.688455 157.328125 
L 103.716523 157.328125 
L 103.961591 157.453125 
L 123.812114 157.453125 
L 124.057182 157.328125 
L 125.772659 157.328125 
L 126.017727 157.203125 
L 128.223341 157.203125 
L 128.468409 157.078125 
L 133.124705 157.078125 
L 133.369773 156.953125 
L 165.228636 156.84375 
L 165.473705 156.71875 
L 165.963841 156.71875 
L 166.208909 156.59375 
L 166.699045 156.59375 
L 166.944114 156.46875 
L 168.659591 156.46875 
L 168.904659 156.34375 
L 171.110273 156.234375 
L 171.355341 156.109375 
L 172.090545 156.109375 
L 172.335614 155.984375 
L 173.070818 155.984375 
L 173.315886 155.859375 
L 174.541227 155.859375 
L 174.786295 155.734375 
L 176.011636 155.625 
L 176.256705 155.5 
L 177.236977 155.5 
L 177.482045 155.375 
L 177.972182 155.375 
L 178.21725 155.25 
L 179.197523 155.25 
L 179.442591 155.125 
L 180.667932 155.015625 
L 180.913 154.890625 
L 181.158068 154.890625 
L 181.403136 154.765625 
L 182.138341 154.765625 
L 182.383409 154.640625 
L 183.118614 154.640625 
L 183.363682 154.515625 
L 184.589023 154.40625 
L 184.834091 154.28125 
L 185.079159 154.40625 
L 185.324227 154.28125 
L 186.794636 154.28125 
L 187.039705 154.40625 
L 188.265045 154.40625 
L 188.510114 154.28125 
L 202.479 154.28125 
L 202.724068 154.40625 
L 204.929682 154.40625 
L 205.17475 154.28125 
L 209.095841 154.28125 
L 209.340909 154.40625 
L 213.752136 154.40625 
L 213.997205 154.28125 
L 214.487341 154.28125 
L 214.732409 154.15625 
L 215.467614 154.15625 
L 215.712682 154.03125 
L 216.447886 154.03125 
L 216.692955 153.90625 
L 218.163364 153.796875 
L 218.408432 153.671875 
L 218.898568 153.671875 
L 219.143636 153.546875 
L 220.123909 153.546875 
L 220.368977 153.421875 
L 221.34925 153.421875 
L 221.594318 153.296875 
L 223.064727 153.1875 
L 223.309795 153.0625 
L 224.045 153.0625 
L 224.290068 152.9375 
L 225.025273 152.9375 
L 225.270341 152.8125 
L 225.515409 152.8125 
L 225.760477 152.6875 
L 227.475955 152.578125 
L 227.721023 152.453125 
L 228.211159 152.453125 
L 228.456227 152.328125 
L 229.191432 152.328125 
L 229.4365 152.203125 
L 230.416773 152.203125 
L 230.661841 152.078125 
L 232.377318 151.96875 
L 232.622386 151.84375 
L 232.867455 151.84375 
L 233.112523 151.71875 
L 233.602659 151.71875 
L 233.847727 151.59375 
L 234.092795 151.59375 
L 234.337864 151.71875 
L 234.582932 151.71875 
L 234.828 151.59375 
L 235.073068 151.71875 
L 235.318136 151.71875 
L 235.563205 151.59375 
L 235.808273 151.71875 
L 236.053341 151.59375 
L 236.788545 151.59375 
L 237.033614 151.71875 
L 237.278682 151.59375 
L 238.994159 151.59375 
L 239.239227 151.71875 
L 241.689909 151.71875 
L 241.934977 151.84375 
L 244.140591 151.84375 
L 244.385659 151.96875 
L 248.30675 152.078125 
L 248.551818 152.203125 
L 248.796886 152.078125 
L 249.041955 152.203125 
L 251.247568 152.203125 
L 251.492636 152.328125 
L 254.433455 152.328125 
L 254.678523 152.453125 
L 255.903864 152.453125 
L 256.148932 152.578125 
L 259.334818 152.6875 
L 259.579886 152.8125 
L 259.824955 152.6875 
L 270.607955 152.578125 
L 270.853023 152.453125 
L 275.26425 152.453125 
L 275.509318 152.328125 
L 283.3515 152.328125 
L 283.596568 152.203125 
L 286.292318 152.203125 
L 286.537386 152.328125 
L 287.027523 152.328125 
L 287.272591 152.203125 
L 288.497932 152.203125 
L 288.743 152.078125 
L 290.213409 151.96875 
L 290.458477 151.84375 
L 291.193682 151.84375 
L 291.43875 151.71875 
L 293.154227 151.71875 
L 293.399295 151.59375 
L 296.095045 151.484375 
L 296.340114 151.359375 
L 297.810523 151.359375 
L 298.055591 151.234375 
L 299.035864 151.234375 
L 299.280932 151.109375 
L 300.016136 151.109375 
L 300.261205 150.984375 
L 302.466818 150.875 
L 302.711886 150.75 
L 303.202023 150.75 
L 303.447091 150.625 
L 304.427364 150.625 
L 304.672432 150.5 
L 305.407636 150.5 
L 305.652705 150.375 
L 308.348455 150.265625 
L 308.593523 150.140625 
L 308.838591 150.265625 
L 310.554068 150.265625 
L 310.799136 150.140625 
L 312.759682 150.140625 
L 313.00475 150.015625 
L 315.455432 150.015625 
L 315.7005 149.890625 
L 317.170909 149.890625 
L 317.415977 149.765625 
L 323.542682 149.65625 
L 323.78775 149.53125 
L 325.503227 149.53125 
L 325.748295 149.40625 
L 327.953909 149.40625 
L 328.198977 149.28125 
L 330.404591 149.28125 
L 330.649659 149.15625 
L 334.080614 149.15625 
L 334.325682 149.28125 
L 336.776364 149.28125 
L 337.021432 149.40625 
L 338.001705 149.40625 
L 338.246773 149.53125 
L 338.491841 149.53125 
L 338.736909 149.65625 
L 339.96225 149.765625 
L 340.207318 149.890625 
L 341.187591 149.890625 
L 341.432659 150.015625 
L 342.903068 150.015625 
L 343.148136 150.140625 
L 343.638273 150.140625 
L 343.883341 150.265625 
L 345.843886 150.375 
L 346.088955 150.5 
L 347.559364 150.5 
L 347.804432 150.625 
L 348.784705 150.625 
L 349.029773 150.75 
L 349.764977 150.75 
L 350.010045 150.875 
L 351.970591 150.984375 
L 352.215659 151.109375 
L 352.460727 151.109375 
L 352.705795 151.234375 
L 353.686068 151.234375 
L 353.931136 151.359375 
L 355.156477 151.359375 
L 355.401545 151.484375 
L 356.381818 151.59375 
L 356.626886 151.71875 
L 356.871955 151.71875 
L 357.117023 151.59375 
L 359.812773 151.484375 
L 360.057841 151.359375 
L 360.547977 151.359375 
L 360.793045 151.234375 
L 362.998659 151.234375 
L 363.243727 151.359375 
L 363.488795 151.359375 
L 363.733864 151.234375 
L 380.3985 151.234375 
L 380.643568 151.109375 
L 381.133705 151.109375 
L 381.378773 151.234375 
L 383.829455 151.234375 
L 384.074523 151.359375 
L 384.319591 151.234375 
L 384.564659 151.359375 
L 384.809727 151.234375 
L 385.054795 151.234375 
L 385.299864 151.359375 
L 385.544932 151.359375 
L 385.79 151.484375 
L 387.015341 151.59375 
L 387.505477 151.84375 
L 388.240682 151.84375 
L 388.48575 151.96875 
L 389.711091 152.078125 
L 389.956159 152.203125 
L 390.201227 152.203125 
L 390.446295 152.328125 
L 391.1815 152.328125 
L 391.426568 152.453125 
L 392.161773 152.453125 
L 392.406841 152.578125 
L 393.142045 152.6875 
L 393.387114 152.8125 
L 393.632182 152.8125 
L 393.87725 152.9375 
L 394.367386 152.9375 
L 394.612455 153.0625 
L 395.347659 153.0625 
L 395.592727 153.1875 
L 396.573 153.296875 
L 396.818068 153.421875 
L 397.308205 153.421875 
L 397.553273 153.546875 
L 398.043409 153.546875 
L 398.288477 153.671875 
L 399.023682 153.671875 
L 399.26875 153.796875 
L 400.003955 153.90625 
L 400.249023 154.03125 
L 400.739159 154.03125 
L 400.984227 154.15625 
L 401.474364 154.15625 
L 401.719432 154.28125 
L 402.209568 154.28125 
L 402.454636 154.40625 
L 403.925045 154.515625 
L 404.170114 154.640625 
L 404.905318 154.640625 
L 405.395455 154.890625 
L 407.601068 154.890625 
L 407.846136 155.015625 
L 408.091205 155.015625 
L 408.336273 154.890625 
L 408.581341 155.015625 
L 410.786955 155.015625 
L 411.032023 154.890625 
L 412.7475 154.890625 
L 412.992568 154.765625 
L 414.708045 154.765625 
L 414.953114 154.640625 
L 418.384068 154.640625 
L 418.629136 154.515625 
L 422.060091 154.40625 
L 422.305159 154.28125 
L 425.000909 154.28125 
L 425.245977 154.15625 
L 427.451591 154.15625 
L 427.696659 154.03125 
L 430.882545 154.03125 
L 431.127614 154.15625 
L 431.372682 154.03125 
L 433.823364 154.03125 
L 434.068432 153.90625 
L 435.783909 153.796875 
L 436.028977 153.671875 
L 437.00925 153.671875 
L 437.254318 153.546875 
L 439.459932 153.546875 
L 439.705 153.421875 
L 441.665545 153.421875 
L 441.910614 153.296875 
L 443.871159 153.1875 
L 444.116227 153.0625 
L 445.586636 153.0625 
L 445.831705 152.9375 
L 447.057045 152.9375 
L 447.302114 152.8125 
L 449.997864 152.8125 
L 450.242932 152.6875 
L 453.18375 152.578125 
L 453.428818 152.453125 
L 454.164023 152.453125 
L 454.409091 152.328125 
L 458.085114 152.328125 
L 458.330182 152.203125 
L 458.57525 152.328125 
L 459.555523 152.328125 
L 459.800591 152.453125 
L 460.535795 152.453125 
L 460.780864 152.578125 
L 462.496341 152.6875 
L 462.741409 152.8125 
L 463.721682 152.8125 
L 463.96675 152.9375 
L 464.701955 152.9375 
L 464.947023 153.0625 
L 465.682227 153.0625 
L 465.927295 153.1875 
L 467.887841 153.296875 
L 468.132909 153.421875 
L 468.377977 153.421875 
L 468.623045 153.546875 
L 469.35825 153.546875 
L 469.603318 153.671875 
L 470.093455 153.671875 
L 470.338523 153.796875 
L 471.563864 153.90625 
L 471.808932 154.03125 
L 473.034273 154.03125 
L 473.279341 154.15625 
L 474.504682 154.15625 
L 474.74975 154.28125 
L 475.730023 154.28125 
L 475.975091 154.40625 
L 477.200432 154.515625 
L 477.4455 154.640625 
L 478.425773 154.640625 
L 478.670841 154.765625 
L 478.915909 154.765625 
L 479.160977 154.890625 
L 479.406045 154.890625 
L 479.651114 154.765625 
L 481.856727 154.765625 
L 482.101795 154.640625 
L 482.346864 154.640625 
L 482.591932 154.765625 
L 483.082068 154.765625 
L 483.327136 154.890625 
L 484.552477 154.890625 
L 484.797545 155.015625 
L 487.493295 155.125 
L 487.738364 155.25 
L 488.2285 155.25 
L 488.473568 155.375 
L 489.698909 155.375 
L 489.943977 155.5 
L 491.659455 155.5 
L 491.904523 155.625 
L 494.110136 155.734375 
L 494.355205 155.859375 
L 495.580545 155.859375 
L 495.825614 155.984375 
L 496.805886 155.984375 
L 497.050955 156.109375 
L 498.276295 156.109375 
L 498.521364 156.234375 
L 501.217114 156.34375 
L 501.462182 156.46875 
L 502.932591 156.46875 
L 503.177659 156.59375 
L 506.608614 156.59375 
L 506.853682 156.71875 
L 507.588886 156.71875 
L 507.833955 156.59375 
L 508.814227 156.59375 
L 509.059295 156.46875 
L 510.284636 156.46875 
L 510.529705 156.34375 
L 512.735318 156.234375 
L 512.980386 156.109375 
L 513.960659 156.109375 
L 514.205727 155.984375 
L 515.431068 155.984375 
L 515.676136 155.859375 
L 516.901477 155.859375 
L 517.146545 155.734375 
L 520.332432 155.625 
L 520.5775 155.5 
L 522.292977 155.5 
L 522.538045 155.375 
L 523.27325 155.375 
L 523.518318 155.25 
L 524.498591 155.25 
L 524.743659 155.125 
L 528.174614 155.015625 
L 528.419682 154.890625 
L 528.66475 155.015625 
L 529.399955 155.015625 
L 529.645023 154.890625 
L 532.340773 154.890625 
L 532.585841 155.015625 
L 534.301318 155.125 
L 534.546386 155.25 
L 535.036523 155.25 
L 535.281591 155.375 
L 536.261864 155.375 
L 536.506932 155.5 
L 537.242136 155.5 
L 537.487205 155.625 
L 538.467477 155.734375 
L 538.712545 155.859375 
L 539.44775 155.859375 
L 539.692818 155.984375 
L 540.182955 155.984375 
L 540.428023 156.109375 
L 541.408295 156.109375 
L 541.653364 156.234375 
L 543.368841 156.34375 
L 543.613909 156.46875 
L 544.349114 156.46875 
L 544.594182 156.59375 
L 545.084318 156.59375 
L 545.329386 156.71875 
L 546.064591 156.71875 
L 546.309659 156.84375 
L 547.535 156.953125 
L 547.780068 157.078125 
L 548.025136 157.078125 
L 548.270205 157.203125 
L 548.760341 157.203125 
L 549.005409 157.328125 
L 549.250477 157.328125 
L 549.495545 157.453125 
L 550.965955 157.5625 
L 551.211023 157.6875 
L 551.946227 157.6875 
L 552.191295 157.8125 
L 552.436364 157.8125 
L 552.681432 157.9375 
L 554.641977 157.9375 
L 554.887045 157.8125 
L 557.092659 157.8125 
L 557.337727 157.9375 
L 559.053205 158.046875 
L 559.298273 158.171875 
L 560.278545 158.171875 
L 560.523614 158.296875 
L 562.239091 158.296875 
L 562.484159 158.421875 
L 562.729227 158.421875 
L 562.974295 158.546875 
L 565.670045 158.65625 
L 565.915114 158.78125 
L 567.140455 158.78125 
L 567.385523 158.90625 
L 568.365795 158.90625 
L 568.610864 159.03125 
L 569.836205 159.03125 
L 570.081273 159.15625 
L 571.551682 159.265625 
L 571.79675 159.390625 
L 573.267159 159.390625 
L 573.512227 159.515625 
L 574.4925 159.515625 
L 574.737568 159.640625 
L 575.472773 159.640625 
L 575.717841 159.765625 
L 576.943182 159.765625 
L 576.943182 159.765625 
" clip-path="url(#p7ee140af2f)" style="fill: none; stroke: #1f77b4; stroke-width: 2; stroke-linecap: square"/>
   </g>
   <g id="line2d_34">
    <path d="M 86.806818 157.078125 
L 90.727909 157.078125 
L 90.972977 157.203125 
L 93.423659 157.203125 
L 93.668727 157.328125 
L 95.874341 157.328125 
L 96.119409 157.453125 
L 102.001045 157.5625 
L 102.246114 157.6875 
L 103.961591 157.6875 
L 104.206659 157.8125 
L 105.922136 157.8125 
L 106.167205 157.9375 
L 149.299205 158.046875 
L 149.544273 158.171875 
L 166.944114 158.171875 
L 167.189182 158.046875 
L 173.070818 157.9375 
L 173.315886 157.8125 
L 174.296159 157.8125 
L 174.541227 157.6875 
L 176.746841 157.6875 
L 176.991909 157.5625 
L 182.383409 157.453125 
L 182.628477 157.328125 
L 184.098886 157.328125 
L 184.343955 157.203125 
L 190.470659 157.203125 
L 190.715727 157.328125 
L 195.617091 157.328125 
L 195.862159 157.453125 
L 208.605705 157.5625 
L 208.850773 157.6875 
L 220.614045 157.6875 
L 220.859114 157.5625 
L 237.033614 157.453125 
L 237.278682 157.328125 
L 237.768818 157.328125 
L 238.013886 157.453125 
L 245.120864 157.5625 
L 245.365932 157.6875 
L 250.022227 157.6875 
L 250.267295 157.8125 
L 251.982773 157.8125 
L 252.227841 157.9375 
L 258.354545 158.046875 
L 258.599614 158.171875 
L 266.686864 158.171875 
L 266.931932 158.296875 
L 272.813568 158.296875 
L 273.058636 158.421875 
L 277.469864 158.421875 
L 277.714932 158.546875 
L 289.478205 158.546875 
L 289.723273 158.421875 
L 294.624636 158.421875 
L 294.869705 158.296875 
L 297.565455 158.296875 
L 297.810523 158.171875 
L 301.241477 158.171875 
L 301.486545 158.046875 
L 319.376523 158.046875 
L 319.621591 158.171875 
L 323.052545 158.171875 
L 323.297614 158.296875 
L 329.669386 158.296875 
L 329.914455 158.421875 
L 331.384864 158.421875 
L 331.629932 158.546875 
L 337.756636 158.546875 
L 338.001705 158.421875 
L 348.784705 158.421875 
L 349.029773 158.296875 
L 356.871955 158.296875 
L 357.117023 158.171875 
L 359.812773 158.171875 
L 360.057841 158.296875 
L 362.263455 158.296875 
L 362.508523 158.171875 
L 373.781659 158.171875 
L 374.026727 158.046875 
L 396.082864 157.9375 
L 396.327932 157.8125 
L 410.541886 157.8125 
L 410.786955 157.6875 
L 412.992568 157.6875 
L 413.237636 157.5625 
L 419.609409 157.453125 
L 419.854477 157.328125 
L 423.040364 157.328125 
L 423.285432 157.203125 
L 426.716386 157.203125 
L 426.961455 157.078125 
L 434.803636 157.078125 
L 435.048705 156.953125 
L 441.175409 156.84375 
L 441.420477 156.71875 
L 444.361295 156.71875 
L 444.606364 156.59375 
L 447.547182 156.59375 
L 447.79225 156.46875 
L 451.468273 156.46875 
L 451.713341 156.34375 
L 460.290727 156.234375 
L 460.535795 156.109375 
L 462.986477 156.109375 
L 463.231545 155.984375 
L 465.682227 155.984375 
L 465.927295 155.859375 
L 468.132909 155.859375 
L 468.377977 155.734375 
L 472.299068 155.625 
L 472.544136 155.5 
L 474.504682 155.5 
L 474.74975 155.375 
L 476.955364 155.375 
L 477.200432 155.25 
L 478.670841 155.25 
L 478.915909 155.125 
L 508.324091 155.125 
L 508.569159 155.25 
L 514.205727 155.25 
L 514.450795 155.375 
L 519.107091 155.375 
L 519.352159 155.5 
L 525.233795 155.5 
L 525.478864 155.625 
L 538.222409 155.625 
L 538.467477 155.5 
L 545.819523 155.5 
L 546.064591 155.375 
L 553.661705 155.375 
L 553.906773 155.25 
L 554.641977 155.25 
L 554.887045 155.375 
L 556.357455 155.375 
L 556.602523 155.25 
L 557.092659 155.25 
L 557.337727 155.375 
L 560.768682 155.375 
L 561.01375 155.5 
L 566.160182 155.5 
L 566.40525 155.625 
L 576.453045 155.734375 
L 576.698114 155.859375 
L 576.943182 155.859375 
L 576.943182 155.859375 
" clip-path="url(#p7ee140af2f)" style="fill: none; stroke: #ff7f0e; stroke-width: 2; stroke-linecap: square"/>
   </g>
   <g id="patch_3">
    <path d="M 62.3 282.046875 
L 62.3 26.875 
" style="fill: none; stroke: #000000; stroke-width: 0.8; stroke-linejoin: miter; stroke-linecap: square"/>
   </g>
   <g id="patch_4">
    <path d="M 601.45 282.046875 
L 601.45 26.875 
" style="fill: none; stroke: #000000; stroke-width: 0.8; stroke-linejoin: miter; stroke-linecap: square"/>
   </g>
   <g id="patch_5">
    <path d="M 62.3 282.04 
L 601.45 282.04 
" style="fill: none; stroke: #000000; stroke-width: 0.8; stroke-linejoin: miter; stroke-linecap: square"/>
   </g>
   <g id="patch_6">
    <path d="M 62.3 26.88 
L 601.45 26.88 
" style="fill: none; stroke: #000000; stroke-width: 0.8; stroke-linejoin: miter; stroke-linecap: square"/>
   </g>
   <g id="text_20">
    <!-- FodoCell-multibeam-fromfile -->
    <g transform="translate(246.493125 20.88) scale(0.12 -0.12)">
     <defs>
      <path id="DejaVuSans-46" d="M 628 4666 
L 3309 4666 
L 3309 4134 
L 1259 4134 
L 1259 2759 
L 3109 2759 
L 3109 2228 
L 1259 2228 
L 1259 0 
L 628 0 
L 628 4666 
z
" transform="scale(0.015625)"/>
      <path id="DejaVuSans-6f" d="M 1959 3097 
Q 1497 3097 1228 2736 
Q 959 2375 959 1747 
Q 959 1119 1226 758 
Q 1494 397 1959 397 
Q 2419 397 2687 759 
Q 2956 1122 2956 1747 
Q 2956 2369 2687 2733 
Q 2419 3097 1959 3097 
z
M 1959 3584 
Q 2709 3584 3137 3096 
Q 3566 2609 3566 1747 
Q 3566 888 3137 398 
Q 2709 -91 1959 -91 
Q 1206 -91 779 398 
Q 353 888 353 1747 
Q 353 2609 779 3096 
Q 1206 3584 1959 3584 
z
" transform="scale(0.015625)"/>
      <path id="DejaVuSans-64" d="M 2906 2969 
L 2906 4863 
L 3481 4863 
L 3481 0 
L 2906 0 
L 2906 525 
Q 2725 213 2448 61 
Q 2172 -91 1784 -91 
Q 1150 -91 751 415 
Q 353 922 353 1747 
Q 353 2572 751 3078 
Q 1150 3584 1784 3584 
Q 2172 3584 2448 3432 
Q 2725 3281 2906 2969 
z
M 947 1747 
Q 947 1113 1208 752 
Q 1469 391 1925 391 
Q 2381 391 2643 752 
Q 2906 1113 2906 1747 
Q 2906 2381 2643 2742 
Q 2381 3103 1925 3103 
Q 1469 3103 1208 2742 
Q 947 2381 947 1747 
z
" transform="scale(0.015625)"/>
      <path id="DejaVuSans-43" d="M 4122 4306 
L 4122 3641 
Q 3803 3938 3442 4084 
Q 3081 4231 2675 4231 
Q 1875 4231 1450 3742 
Q 1025 3253 1025 2328 
Q 1025 1406 1450 917 
Q 1875 428 2675 428 
Q 3081 428 3442 575 
Q 3803 722 4122 1019 
L 4122 359 
Q 3791 134 3420 21 
Q 3050 -91 2638 -91 
Q 1578 -91 968 557 
Q 359 1206 359 2328 
Q 359 3453 968 4101 
Q 1578 4750 2638 4750 
Q 3056 4750 3426 4639 
Q 3797 4528 4122 4306 
z
" transform="scale(0.015625)"/>
      <path id="DejaVuSans-6c" d="M 603 4863 
L 1178 4863 
L 1178 0 
L 603 0 
L 603 4863 
z
" transform="scale(0.015625)"/>
      <path id="DejaVuSans-2d" d="M 313 2009 
L 1997 2009 
L 1997 1497 
L 313 1497 
L 313 2009 
z
" transform="scale(0.015625)"/>
      <path id="DejaVuSans-75" d="M 544 1381 
L 544 3500 
L 1119 3500 
L 1119 1403 
Q 1119 906 1312 657 
Q 1506 409 1894 409 
Q 2359 409 2629 706 
Q 2900 1003 2900 1516 
L 2900 3500 
L 3475 3500 
L 3475 0 
L 2900 0 
L 2900 538 
Q 2691 219 2414 64 
Q 2138 -91 1772 -91 
Q 1169 -91 856 284 
Q 544 659 544 1381 
z
M 1991 3584 
L 1991 3584 
z
" transform="scale(0.015625)"/>
      <path id="DejaVuSans-74" d="M 1172 4494 
L 1172 3500 
L 2356 3500 
L 2356 3053 
L 1172 3053 
L 1172 1153 
Q 1172 725 1289 603 
Q 1406 481 1766 481 
L 2356 481 
L 2356 0 
L 1766 0 
Q 1100 0 847 248 
Q 594 497 594 1153 
L 594 3053 
L 172 3053 
L 172 3500 
L 594 3500 
L 594 4494 
L 1172 4494 
z
" transform="scale(0.015625)"/>
      <path id="DejaVuSans-69" d="M 603 3500 
L 1178 3500 
L 1178 0 
L 603 0 
L 603 3500 
z
M 603 4863 
L 1178 4863 
L 1178 4134 
L 603 4134 
L 603 4863 
z
" transform="scale(0.015625)"/>
      <path id="DejaVuSans-62" d="M 3116 1747 
Q 3116 2381 2855 2742 
Q 2594 3103 2138 3103 
Q 1681 3103 1420 2742 
Q 1159 2381 1159 1747 
Q 1159 1113 1420 752 
Q 1681 391 2138 391 
Q 2594 391 2855 752 
Q 3116 1113 3116 1747 
z
M 1159 2969 
Q 1341 3281 1617 3432 
Q 1894 3584 2278 3584 
Q 2916 3584 3314 3078 
Q 3713 2572 3713 1747 
Q 3713 922 3314 415 
Q 2916 -91 2278 -91 
Q 1894 -91 1617 61 
Q 1341 213 1159 525 
L 1159 0 
L 581 0 
L 581 4863 
L 1159 4863 
L 1159 2969 
z
" transform="scale(0.015625)"/>
      <path id="DejaVuSans-61" d="M 2194 1759 
Q 1497 1759 1228 1600 
Q 959 1441 959 1056 
Q 959 750 1161 570 
Q 1363 391 1709 391 
Q 2188 391 2477 730 
Q 2766 1069 2766 1631 
L 2766 1759 
L 2194 1759 
z
M 3341 1997 
L 3341 0 
L 2766 0 
L 2766 531 
Q 2569 213 2275 61 
Q 1981 -91 1556 -91 
Q 1019 -91 701 211 
Q 384 513 384 1019 
Q 384 1609 779 1909 
Q 1175 2209 1959 2209 
L 2766 2209 
L 2766 2266 
Q 2766 2663 2505 2880 
Q 2244 3097 1772 3097 
Q 1472 3097 1187 3025 
Q 903 2953 641 2809 
L 641 3341 
Q 956 3463 1253 3523 
Q 1550 3584 1831 3584 
Q 2591 3584 2966 3190 
Q 3341 2797 3341 1997 
z
" transform="scale(0.015625)"/>
      <path id="DejaVuSans-66" d="M 2375 4863 
L 2375 4384 
L 1825 4384 
Q 1516 4384 1395 4259 
Q 1275 4134 1275 3809 
L 1275 3500 
L 2222 3500 
L 2222 3053 
L 1275 3053 
L 1275 0 
L 697 0 
L 697 3053 
L 147 3053 
L 147 3500 
L 697 3500 
L 697 3744 
Q 697 4328 969 4595 
Q 1241 4863 1831 4863 
L 2375 4863 
z
" transform="scale(0.015625)"/>
     </defs>
     <use xlink:href="#DejaVuSans-46"/>
     <use xlink:href="#DejaVuSans-6f" transform="translate(53.894531 0)"/>
     <use xlink:href="#DejaVuSans-64" transform="translate(115.076172 0)"/>
     <use xlink:href="#DejaVuSans-6f" transform="translate(178.552734 0)"/>
     <use xlink:href="#DejaVuSans-43" transform="translate(239.734375 0)"/>
     <use xlink:href="#DejaVuSans-65" transform="translate(309.558594 0)"/>
     <use xlink:href="#DejaVuSans-6c" transform="translate(371.082031 0)"/>
     <use xlink:href="#DejaVuSans-6c" transform="translate(398.865234 0)"/>
     <use xlink:href="#DejaVuSans-2d" transform="translate(426.648438 0)"/>
     <use xlink:href="#DejaVuSans-6d" transform="translate(462.732422 0)"/>
     <use xlink:href="#DejaVuSans-75" transform="translate(560.144531 0)"/>
     <use xlink:href="#DejaVuSans-6c" transform="translate(623.523438 0)"/>
     <use xlink:href="#DejaVuSans-74" transform="translate(651.306641 0)"/>
     <use xlink:href="#DejaVuSans-69" transform="translate(690.515625 0)"/>
     <use xlink:href="#DejaVuSans-62" transform="translate(718.298828 0)"/>
     <use xlink:href="#DejaVuSans-65" transform="translate(781.775391 0)"/>
     <use xlink:href="#DejaVuSans-61" transform="translate(843.298828 0)"/>
     <use xlink:href="#DejaVuSans-6d" transform="translate(904.578125 0)"/>
     <use xlink:href="#DejaVuSans-2d" transform="translate(1001.990234 0)"/>
     <use xlink:href="#DejaVuSans-66" transform="translate(1038.074219 0)"/>
     <use xlink:href="#DejaVuSans-72" transform="translate(1073.279297 0)"/>
     <use xlink:href="#DejaVuSans-6f" transform="translate(1112.142578 0)"/>
     <use xlink:href="#DejaVuSans-6d" transform="translate(1173.324219 0)"/>
     <use xlink:href="#DejaVuSans-66" transform="translate(1270.736328 0)"/>
     <use xlink:href="#DejaVuSans-69" transform="translate(1305.941406 0)"/>
     <use xlink:href="#DejaVuSans-6c" transform="translate(1333.724609 0)"/>
     <use xlink:href="#DejaVuSans-65" transform="translate(1361.507812 0)"/>
    </g>
   </g>
   <g id="legend_1">
    <g id="patch_7">
     <path d="M 69.3 277.04 
L 149.040625 277.04 
Q 151.040625 277.04 151.040625 275.04 
L 151.040625 246.68375 
Q 151.040625 244.68375 149.040625 244.68375 
L 69.3 244.68375 
Q 67.3 244.68375 67.3 246.68375 
L 67.3 275.04 
Q 67.3 277.04 69.3 277.04 
z
" style="fill: #ffffff; opacity: 0.8; stroke: #cccccc; stroke-linejoin: miter"/>
    </g>
    <g id="line2d_35">
     <path d="M 71.3 252.782188 
L 81.3 252.782188 
L 91.3 252.782188 
" style="fill: none; stroke: #1f77b4; stroke-width: 2; stroke-linecap: square"/>
    </g>
    <g id="text_21">
     <!-- current -->
     <g transform="translate(99.3 256.282188) scale(0.1 -0.1)">
      <defs>
       <path id="DejaVuSans-63" d="M 3122 3366 
L 3122 2828 
Q 2878 2963 2633 3030 
Q 2388 3097 2138 3097 
Q 1578 3097 1268 2742 
Q 959 2388 959 1747 
Q 959 1106 1268 751 
Q 1578 397 2138 397 
Q 2388 397 2633 464 
Q 2878 531 3122 666 
L 3122 134 
Q 2881 22 2623 -34 
Q 2366 -91 2075 -91 
Q 1284 -91 818 406 
Q 353 903 353 1747 
Q 353 2603 823 3093 
Q 1294 3584 2113 3584 
Q 2378 3584 2631 3529 
Q 2884 3475 3122 3366 
z
" transform="scale(0.015625)"/>
      </defs>
      <use xlink:href="#DejaVuSans-63"/>
      <use xlink:href="#DejaVuSans-75" transform="translate(54.980469 0)"/>
      <use xlink:href="#DejaVuSans-72" transform="translate(118.359375 0)"/>
      <use xlink:href="#DejaVuSans-72" transform="translate(157.722656 0)"/>
      <use xlink:href="#DejaVuSans-65" transform="translate(196.585938 0)"/>
      <use xlink:href="#DejaVuSans-6e" transform="translate(258.109375 0)"/>
      <use xlink:href="#DejaVuSans-74" transform="translate(321.488281 0)"/>
     </g>
    </g>
    <g id="line2d_36">
     <path d="M 71.3 267.460312 
L 81.3 267.460312 
L 91.3 267.460312 
" style="fill: none; stroke: #ff7f0e; stroke-width: 2; stroke-linecap: square"/>
    </g>
    <g id="text_22">
     <!-- reference -->
     <g transform="translate(99.3 270.960312) scale(0.1 -0.1)">
      <use xlink:href="#DejaVuSans-72"/>
      <use xlink:href="#DejaVuSans-65" transform="translate(38.863281 0)"/>
      <use xlink:href="#DejaVuSans-66" transform="translate(100.386719 0)"/>
      <use xlink:href="#DejaVuSans-65" transform="translate(135.591797 0)"/>
      <use xlink:href="#DejaVuSans-72" transform="translate(197.115234 0)"/>
      <use xlink:href="#DejaVuSans-65" transform="translate(235.978516 0)"/>
      <use xlink:href="#DejaVuSans-6e" transform="translate(297.501953 0)"/>
      <use xlink:href="#DejaVuSans-63" transform="translate(360.880859 0)"/>
      <use xlink:href="#DejaVuSans-65" transform="translate(415.861328 0)"/>
     </g>
    </g>
   </g>
  </g>
  <g id="axes_2">
   <g id="matplotlib.axis_3">
    <g id="ytick_10">
     <g id="line2d_37">
      <defs>
       <path id="md323e7ce36" d="M 0 0 
L 3.5 0 
" style="stroke: #000000; stroke-width: 0.8"/>
      </defs>
      <g>
       <use xlink:href="#md323e7ce36" x="601.45" y="242.893889" style="stroke: #000000; stroke-width: 0.8"/>
      </g>
     </g>
     <g id="text_23">
      <!-- −2 -->
      <g transform="translate(608.45 246.693107) scale(0.1 -0.1)">
       <use xlink:href="#DejaVuSans-2212"/>
       <use xlink:href="#DejaVuSans-32" transform="translate(83.789062 0)"/>
      </g>
     </g>
    </g>
    <g id="ytick_11">
     <g id="line2d_38">
      <g>
       <use xlink:href="#md323e7ce36" x="601.45" y="200.780912" style="stroke: #000000; stroke-width: 0.8"/>
      </g>
     </g>
     <g id="text_24">
      <!-- 0 -->
      <g transform="translate(608.45 204.580131) scale(0.1 -0.1)">
       <use xlink:href="#DejaVuSans-30"/>
      </g>
     </g>
    </g>
    <g id="ytick_12">
     <g id="line2d_39">
      <g>
       <use xlink:href="#md323e7ce36" x="601.45" y="158.667935" style="stroke: #000000; stroke-width: 0.8"/>
      </g>
     </g>
     <g id="text_25">
      <!-- 2 -->
      <g transform="translate(608.45 162.467154) scale(0.1 -0.1)">
       <use xlink:href="#DejaVuSans-32"/>
      </g>
     </g>
    </g>
    <g id="ytick_13">
     <g id="line2d_40">
      <g>
       <use xlink:href="#md323e7ce36" x="601.45" y="116.554958" style="stroke: #000000; stroke-width: 0.8"/>
      </g>
     </g>
     <g id="text_26">
      <!-- 4 -->
      <g transform="translate(608.45 120.354177) scale(0.1 -0.1)">
       <use xlink:href="#DejaVuSans-34"/>
      </g>
     </g>
    </g>
    <g id="ytick_14">
     <g id="line2d_41">
      <g>
       <use xlink:href="#md323e7ce36" x="601.45" y="74.441982" style="stroke: #000000; stroke-width: 0.8"/>
      </g>
     </g>
     <g id="text_27">
      <!-- 6 -->
      <g transform="translate(608.45 78.2412) scale(0.1 -0.1)">
       <use xlink:href="#DejaVuSans-36"/>
      </g>
     </g>
    </g>
    <g id="ytick_15">
     <g id="line2d_42">
      <g>
       <use xlink:href="#md323e7ce36" x="601.45" y="32.329005" style="stroke: #000000; stroke-width: 0.8"/>
      </g>
     </g>
     <g id="text_28">
      <!-- 8 -->
      <g transform="translate(608.45 36.128224) scale(0.1 -0.1)">
       <defs>
        <path id="DejaVuSans-38" d="M 2034 2216 
Q 1584 2216 1326 1975 
Q 1069 1734 1069 1313 
Q 1069 891 1326 650 
Q 1584 409 2034 409 
Q 2484 409 2743 651 
Q 3003 894 3003 1313 
Q 3003 1734 2745 1975 
Q 2488 2216 2034 2216 
z
M 1403 2484 
Q 997 2584 770 2862 
Q 544 3141 544 3541 
Q 544 4100 942 4425 
Q 1341 4750 2034 4750 
Q 2731 4750 3128 4425 
Q 3525 4100 3525 3541 
Q 3525 3141 3298 2862 
Q 3072 2584 2669 2484 
Q 3125 2378 3379 2068 
Q 3634 1759 3634 1313 
Q 3634 634 3220 271 
Q 2806 -91 2034 -91 
Q 1263 -91 848 271 
Q 434 634 434 1313 
Q 434 1759 690 2068 
Q 947 2378 1403 2484 
z
M 1172 3481 
Q 1172 3119 1398 2916 
Q 1625 2713 2034 2713 
Q 2441 2713 2670 2916 
Q 2900 3119 2900 3481 
Q 2900 3844 2670 4047 
Q 2441 4250 2034 4250 
Q 1625 4250 1398 4047 
Q 1172 3844 1172 3481 
z
" transform="scale(0.015625)"/>
       </defs>
       <use xlink:href="#DejaVuSans-38"/>
      </g>
     </g>
    </g>
    <g id="text_29">
     <!-- delta energy [MeV] -->
     <g transform="translate(634.790625 202.438125) rotate(-90) scale(0.1 -0.1)">
      <use xlink:href="#DejaVuSans-64"/>
      <use xlink:href="#DejaVuSans-65" transform="translate(63.476562 0)"/>
      <use xlink:href="#DejaVuSans-6c" transform="translate(125 0)"/>
      <use xlink:href="#DejaVuSans-74" transform="translate(152.783203 0)"/>
      <use xlink:href="#DejaVuSans-61" transform="translate(191.992188 0)"/>
      <use xlink:href="#DejaVuSans-20" transform="translate(253.271484 0)"/>
      <use xlink:href="#DejaVuSans-65" transform="translate(285.058594 0)"/>
      <use xlink:href="#DejaVuSans-6e" transform="translate(346.582031 0)"/>
      <use xlink:href="#DejaVuSans-65" transform="translate(409.960938 0)"/>
      <use xlink:href="#DejaVuSans-72" transform="translate(471.484375 0)"/>
      <use xlink:href="#DejaVuSans-67" transform="translate(510.847656 0)"/>
      <use xlink:href="#DejaVuSans-79" transform="translate(574.324219 0)"/>
      <use xlink:href="#DejaVuSans-20" transform="translate(633.503906 0)"/>
      <use xlink:href="#DejaVuSans-5b" transform="translate(665.291016 0)"/>
      <use xlink:href="#DejaVuSans-4d" transform="translate(704.304688 0)"/>
      <use xlink:href="#DejaVuSans-65" transform="translate(790.583984 0)"/>
      <use xlink:href="#DejaVuSans-56" transform="translate(852.107422 0)"/>
      <use xlink:href="#DejaVuSans-5d" transform="translate(920.515625 0)"/>
     </g>
    </g>
    <g id="text_30">
     <!-- 1e−11 -->
     <g transform="translate(567.829688 23.88) scale(0.1 -0.1)">
      <use xlink:href="#DejaVuSans-31"/>
      <use xlink:href="#DejaVuSans-65" transform="translate(63.623047 0)"/>
      <use xlink:href="#DejaVuSans-2212" transform="translate(125.146484 0)"/>
      <use xlink:href="#DejaVuSans-31" transform="translate(208.935547 0)"/>
      <use xlink:href="#DejaVuSans-31" transform="translate(272.558594 0)"/>
     </g>
    </g>
   </g>
   <g id="line2d_43">
    <path d="M 86.806818 200.780912 
L 89.502568 200.780912 
L 89.747636 202.935373 
L 90.727909 202.935373 
L 90.972977 200.780912 
L 92.443386 200.780912 
L 92.688455 202.935373 
L 93.423659 202.935373 
L 93.668727 200.780912 
L 95.874341 200.780912 
L 96.119409 198.626451 
L 98.079955 198.626451 
L 98.325023 196.711374 
L 102.001045 196.711374 
L 102.246114 194.556913 
L 103.716523 194.556913 
L 103.961591 196.711374 
L 104.206659 194.556913 
L 105.922136 194.556913 
L 106.167205 192.402452 
L 110.578432 192.402452 
L 110.8235 190.487376 
L 112.784045 190.487376 
L 113.029114 192.402452 
L 113.274182 190.487376 
L 113.51925 192.402452 
L 117.930477 192.402452 
L 118.175545 190.487376 
L 118.420614 192.402452 
L 118.665682 190.487376 
L 123.812114 190.487376 
L 124.057182 188.332915 
L 125.772659 188.332915 
L 126.017727 186.178454 
L 128.223341 186.178454 
L 128.468409 184.023993 
L 133.124705 184.023993 
L 133.369773 181.869532 
L 149.299205 181.869532 
L 149.544273 179.715071 
L 156.161114 179.715071 
L 156.406182 177.799994 
L 163.513159 177.799994 
L 163.758227 179.715071 
L 164.493432 179.715071 
L 164.7385 177.799994 
L 165.228636 177.799994 
L 165.473705 175.645533 
L 165.963841 175.645533 
L 166.208909 173.491072 
L 166.699045 173.491072 
L 166.944114 171.336611 
L 167.189182 173.491072 
L 168.659591 173.491072 
L 168.904659 171.336611 
L 169.639864 171.336611 
L 169.884932 169.421535 
L 170.865205 169.421535 
L 171.110273 171.336611 
L 171.355341 169.18215 
L 172.090545 169.18215 
L 172.335614 167.027689 
L 174.296159 167.027689 
L 174.541227 169.18215 
L 174.786295 167.027689 
L 175.276432 167.027689 
L 175.5215 165.112613 
L 176.011636 165.112613 
L 176.256705 162.958152 
L 176.746841 162.958152 
L 176.991909 165.112613 
L 177.236977 165.112613 
L 177.482045 162.958152 
L 177.972182 162.958152 
L 178.21725 160.803691 
L 179.197523 160.803691 
L 179.442591 158.64923 
L 179.932727 158.64923 
L 180.177795 156.734153 
L 180.422864 156.734153 
L 180.667932 158.64923 
L 180.913 156.494769 
L 181.158068 156.494769 
L 181.403136 154.340308 
L 182.138341 154.340308 
L 182.383409 152.185847 
L 182.628477 154.340308 
L 183.118614 154.340308 
L 183.363682 152.185847 
L 183.60875 152.185847 
L 183.853818 150.27077 
L 184.098886 150.27077 
L 184.343955 152.425231 
L 184.589023 152.425231 
L 184.834091 150.27077 
L 185.079159 152.425231 
L 185.324227 150.27077 
L 186.794636 150.27077 
L 187.039705 152.425231 
L 188.265045 152.425231 
L 188.510114 150.27077 
L 190.470659 150.27077 
L 190.715727 148.116309 
L 195.617091 148.116309 
L 195.862159 145.961848 
L 200.273386 145.961848 
L 200.518455 144.046772 
L 202.479 144.046772 
L 202.724068 146.201233 
L 204.929682 146.201233 
L 205.17475 144.046772 
L 208.605705 144.046772 
L 208.850773 141.892311 
L 209.095841 141.892311 
L 209.340909 144.046772 
L 213.752136 144.046772 
L 213.997205 141.892311 
L 214.487341 141.892311 
L 214.732409 139.73785 
L 215.467614 139.73785 
L 215.712682 137.583389 
L 216.447886 137.583389 
L 216.692955 135.428928 
L 217.428159 135.428928 
L 217.673227 133.513851 
L 218.163364 133.513851 
L 218.408432 131.35939 
L 218.898568 131.35939 
L 219.143636 129.204929 
L 220.123909 129.204929 
L 220.368977 127.050468 
L 220.614045 127.050468 
L 220.859114 129.204929 
L 221.34925 129.204929 
L 221.594318 127.050468 
L 222.329523 127.050468 
L 222.574591 125.135392 
L 223.064727 125.135392 
L 223.309795 122.980931 
L 224.045 122.980931 
L 224.290068 120.82647 
L 225.025273 120.82647 
L 225.270341 118.672009 
L 225.515409 118.672009 
L 225.760477 116.517548 
L 226.495682 116.517548 
L 226.74075 114.602471 
L 227.475955 114.602471 
L 227.721023 112.44801 
L 227.966091 114.363087 
L 228.211159 114.363087 
L 228.456227 112.208626 
L 229.191432 112.208626 
L 229.4365 110.054165 
L 230.416773 110.054165 
L 230.661841 107.899704 
L 231.151977 107.899704 
L 231.397045 105.984627 
L 232.377318 105.984627 
L 232.622386 103.830166 
L 232.867455 103.830166 
L 233.112523 101.675705 
L 233.602659 101.675705 
L 233.847727 99.521244 
L 234.092795 99.521244 
L 234.337864 101.675705 
L 234.582932 101.675705 
L 234.828 99.521244 
L 235.073068 101.675705 
L 235.318136 101.675705 
L 235.563205 99.521244 
L 235.808273 101.675705 
L 236.053341 99.521244 
L 236.788545 99.521244 
L 237.033614 101.675705 
L 237.768818 101.675705 
L 238.013886 99.521244 
L 238.994159 99.521244 
L 239.239227 101.675705 
L 240.954705 101.675705 
L 241.199773 99.760629 
L 241.689909 99.760629 
L 241.934977 101.91509 
L 244.140591 101.91509 
L 244.385659 104.069551 
L 245.120864 104.069551 
L 245.365932 101.91509 
L 246.346205 101.91509 
L 246.591273 103.830166 
L 248.30675 103.830166 
L 248.551818 105.984627 
L 248.796886 103.830166 
L 249.041955 105.984627 
L 250.022227 105.984627 
L 250.267295 103.830166 
L 251.247568 103.830166 
L 251.492636 105.984627 
L 251.982773 105.984627 
L 252.227841 103.830166 
L 254.433455 103.830166 
L 254.678523 105.984627 
L 255.413727 105.984627 
L 255.658795 104.069551 
L 255.903864 104.069551 
L 256.148932 106.224012 
L 257.129205 106.224012 
L 257.374273 108.139088 
L 258.354545 108.139088 
L 258.599614 105.984627 
L 259.334818 105.984627 
L 259.579886 108.139088 
L 259.824955 105.984627 
L 261.7855 105.984627 
L 262.030568 104.069551 
L 266.686864 104.069551 
L 266.931932 101.91509 
L 270.607955 101.91509 
L 270.853023 99.760629 
L 272.813568 99.760629 
L 273.058636 97.606168 
L 275.26425 97.606168 
L 275.509318 95.451707 
L 277.469864 95.451707 
L 277.714932 93.297246 
L 281.881091 93.297246 
L 282.126159 91.382169 
L 283.3515 91.382169 
L 283.596568 89.227708 
L 286.292318 89.227708 
L 286.537386 91.382169 
L 287.027523 91.382169 
L 287.272591 89.227708 
L 287.762727 89.227708 
L 288.007795 91.142785 
L 288.497932 91.142785 
L 288.743 88.988323 
L 289.233136 88.988323 
L 289.478205 87.073247 
L 289.723273 89.227708 
L 290.213409 89.227708 
L 290.458477 87.073247 
L 291.193682 87.073247 
L 291.43875 84.918786 
L 293.154227 84.918786 
L 293.399295 82.764325 
L 294.624636 82.764325 
L 294.869705 84.918786 
L 295.114773 83.00371 
L 296.095045 83.00371 
L 296.340114 80.849249 
L 297.565455 80.849249 
L 297.810523 83.00371 
L 298.055591 80.849249 
L 299.035864 80.849249 
L 299.280932 78.694788 
L 300.016136 78.694788 
L 300.261205 76.540326 
L 301.241477 76.540326 
L 301.486545 76.779711 
L 302.466818 76.779711 
L 302.711886 74.62525 
L 303.202023 74.62525 
L 303.447091 72.470789 
L 304.427364 72.470789 
L 304.672432 70.316328 
L 305.407636 70.316328 
L 305.652705 68.161867 
L 306.142841 68.161867 
L 306.387909 70.076943 
L 306.878045 70.076943 
L 307.123114 68.161867 
L 308.348455 68.161867 
L 308.593523 66.007406 
L 308.838591 68.161867 
L 310.554068 68.161867 
L 310.799136 66.007406 
L 312.759682 66.007406 
L 313.00475 63.852945 
L 313.739955 63.852945 
L 313.985023 61.937868 
L 315.455432 61.937868 
L 315.7005 59.783407 
L 317.170909 59.783407 
L 317.415977 57.628946 
L 319.376523 57.628946 
L 319.621591 55.474485 
L 319.866659 55.474485 
L 320.111727 53.559409 
L 323.052545 53.559409 
L 323.297614 51.404948 
L 323.542682 51.404948 
L 323.78775 49.250487 
L 325.503227 49.250487 
L 325.748295 47.096026 
L 327.953909 47.096026 
L 328.198977 44.941565 
L 329.669386 44.941565 
L 329.914455 42.787104 
L 330.404591 42.787104 
L 330.649659 40.632643 
L 331.384864 40.632643 
L 331.629932 38.478182 
L 334.080614 38.478182 
L 334.325682 40.632643 
L 336.776364 40.632643 
L 337.021432 42.787104 
L 337.756636 42.787104 
L 338.246773 47.096026 
L 338.491841 47.096026 
L 338.736909 49.250487 
L 339.227045 49.250487 
L 339.472114 51.165563 
L 339.96225 51.165563 
L 340.207318 53.320024 
L 341.187591 53.320024 
L 341.432659 55.474485 
L 342.903068 55.474485 
L 343.148136 57.628946 
L 343.638273 57.628946 
L 343.883341 59.783407 
L 344.863614 59.783407 
L 345.108682 61.698484 
L 345.843886 61.698484 
L 346.088955 63.852945 
L 347.559364 63.852945 
L 347.804432 66.007406 
L 348.784705 66.007406 
L 349.029773 70.316328 
L 349.764977 70.316328 
L 350.010045 72.470789 
L 350.500182 72.470789 
L 350.74525 74.385865 
L 351.970591 74.385865 
L 352.215659 76.540326 
L 352.460727 76.540326 
L 352.705795 78.694788 
L 353.686068 78.694788 
L 353.931136 80.849249 
L 355.156477 80.849249 
L 355.401545 83.00371 
L 355.646614 83.00371 
L 355.891682 84.918786 
L 356.381818 84.918786 
L 356.626886 87.073247 
L 358.8325 87.073247 
L 359.077568 85.158171 
L 359.812773 85.158171 
L 360.057841 80.849249 
L 360.547977 80.849249 
L 360.793045 78.694788 
L 362.263455 78.694788 
L 362.508523 80.849249 
L 362.998659 80.849249 
L 363.243727 83.00371 
L 363.488795 83.00371 
L 363.733864 80.849249 
L 373.781659 80.849249 
L 374.026727 83.00371 
L 380.3985 83.00371 
L 380.643568 80.849249 
L 380.888636 82.764325 
L 381.133705 82.764325 
L 381.378773 83.00371 
L 381.623841 84.918786 
L 383.829455 84.918786 
L 384.074523 87.073247 
L 384.319591 84.918786 
L 384.564659 87.073247 
L 384.809727 84.918786 
L 385.054795 84.918786 
L 385.299864 87.073247 
L 385.544932 87.073247 
L 385.79 89.227708 
L 386.280136 89.227708 
L 386.525205 91.142785 
L 387.015341 91.142785 
L 387.505477 95.451707 
L 388.240682 95.451707 
L 388.48575 97.606168 
L 389.220955 97.606168 
L 389.466023 99.521244 
L 389.711091 99.521244 
L 389.956159 101.675705 
L 390.201227 101.675705 
L 390.446295 103.830166 
L 391.1815 103.830166 
L 391.426568 105.984627 
L 392.161773 105.984627 
L 392.406841 108.139088 
L 392.651909 108.139088 
L 392.896977 110.054165 
L 393.142045 110.054165 
L 393.387114 112.208626 
L 393.632182 112.208626 
L 393.87725 114.363087 
L 394.367386 114.363087 
L 394.612455 116.517548 
L 395.347659 116.517548 
L 395.592727 118.672009 
L 396.082864 118.672009 
L 396.327932 122.741546 
L 396.573 122.741546 
L 396.818068 124.896007 
L 397.308205 124.896007 
L 397.553273 127.050468 
L 398.043409 127.050468 
L 398.288477 129.204929 
L 399.023682 129.204929 
L 399.26875 131.35939 
L 399.513818 131.35939 
L 399.758886 133.274467 
L 400.003955 133.274467 
L 400.249023 135.428928 
L 400.739159 135.428928 
L 400.984227 137.583389 
L 401.474364 137.583389 
L 401.719432 139.73785 
L 402.209568 139.73785 
L 402.454636 141.892311 
L 403.189841 141.892311 
L 403.434909 143.807387 
L 403.925045 143.807387 
L 404.170114 145.961848 
L 404.905318 145.961848 
L 405.395455 150.27077 
L 407.601068 150.27077 
L 407.846136 152.425231 
L 408.091205 152.425231 
L 408.336273 150.27077 
L 408.581341 152.425231 
L 410.541886 152.425231 
L 410.786955 154.579692 
L 411.032023 152.425231 
L 412.7475 152.425231 
L 412.992568 150.27077 
L 413.237636 152.425231 
L 414.708045 152.425231 
L 414.953114 150.27077 
L 415.933386 150.27077 
L 416.178455 152.185847 
L 418.384068 152.185847 
L 418.629136 150.031386 
L 419.609409 150.031386 
L 419.854477 152.185847 
L 420.589682 152.185847 
L 420.83475 150.27077 
L 422.060091 150.27077 
L 422.305159 148.116309 
L 423.040364 148.116309 
L 423.285432 150.27077 
L 425.000909 150.27077 
L 425.245977 148.116309 
L 426.716386 148.116309 
L 426.961455 150.27077 
L 427.451591 150.27077 
L 427.696659 148.116309 
L 430.882545 148.116309 
L 431.127614 150.27077 
L 431.372682 148.116309 
L 433.823364 148.116309 
L 434.068432 145.961848 
L 434.803636 145.961848 
L 435.048705 148.116309 
L 435.293773 146.201233 
L 435.783909 146.201233 
L 436.028977 144.046772 
L 436.519114 144.046772 
L 436.764182 145.961848 
L 437.00925 145.961848 
L 437.254318 143.807387 
L 439.459932 143.807387 
L 439.705 141.652926 
L 441.175409 141.652926 
L 441.420477 143.807387 
L 441.665545 143.807387 
L 441.910614 141.652926 
L 442.890886 141.652926 
L 443.135955 139.73785 
L 443.871159 139.73785 
L 444.116227 137.583389 
L 444.361295 137.583389 
L 444.606364 139.73785 
L 445.586636 139.73785 
L 445.831705 137.583389 
L 447.057045 137.583389 
L 447.302114 135.428928 
L 447.547182 135.428928 
L 447.79225 137.583389 
L 449.997864 137.583389 
L 450.242932 135.428928 
L 450.733068 135.428928 
L 450.978136 133.513851 
L 451.468273 133.513851 
L 451.713341 135.668312 
L 453.18375 135.668312 
L 453.428818 133.513851 
L 454.164023 133.513851 
L 454.409091 133.274467 
L 458.085114 133.274467 
L 458.330182 131.120006 
L 458.57525 133.274467 
L 459.555523 133.274467 
L 459.800591 135.428928 
L 460.290727 135.428928 
L 460.780864 139.73785 
L 461.516068 139.73785 
L 461.761136 141.652926 
L 462.496341 141.652926 
L 462.741409 143.807387 
L 462.986477 143.807387 
L 463.231545 145.961848 
L 463.721682 145.961848 
L 463.96675 148.116309 
L 464.701955 148.116309 
L 464.947023 150.27077 
L 465.682227 150.27077 
L 465.927295 154.579692 
L 466.907568 154.579692 
L 467.152636 156.494769 
L 467.887841 156.494769 
L 468.623045 162.958152 
L 469.35825 162.958152 
L 469.603318 165.112613 
L 470.093455 165.112613 
L 470.338523 167.267074 
L 470.828659 167.267074 
L 471.073727 169.18215 
L 471.318795 169.18215 
L 471.808932 173.251688 
L 472.299068 173.251688 
L 472.544136 175.406149 
L 473.034273 175.406149 
L 473.279341 177.56061 
L 474.504682 177.56061 
L 474.74975 181.869532 
L 475.730023 181.869532 
L 475.975091 184.023993 
L 476.710295 184.023993 
L 477.4455 190.247991 
L 478.425773 190.247991 
L 479.160977 196.711374 
L 479.406045 196.711374 
L 479.651114 194.556913 
L 481.856727 194.556913 
L 482.101795 192.402452 
L 482.346864 192.402452 
L 482.591932 194.556913 
L 483.082068 194.556913 
L 483.327136 196.711374 
L 484.552477 196.711374 
L 484.797545 198.865835 
L 485.777818 198.865835 
L 486.022886 200.780912 
L 487.493295 200.780912 
L 487.738364 202.935373 
L 488.2285 202.935373 
L 488.473568 205.089834 
L 489.698909 205.089834 
L 489.943977 207.244295 
L 491.659455 207.244295 
L 491.904523 209.398756 
L 492.639727 209.398756 
L 492.884795 211.313832 
L 494.110136 211.313832 
L 494.355205 213.468293 
L 495.580545 213.468293 
L 495.825614 215.622754 
L 496.805886 215.622754 
L 497.050955 217.777215 
L 498.276295 217.777215 
L 498.521364 219.931677 
L 499.746705 219.931677 
L 499.991773 221.846753 
L 501.217114 221.846753 
L 501.462182 224.001214 
L 502.932591 224.001214 
L 503.177659 226.155675 
L 506.608614 226.155675 
L 506.853682 228.310136 
L 507.588886 228.310136 
L 507.833955 226.155675 
L 508.324091 226.155675 
L 508.569159 224.001214 
L 508.814227 224.001214 
L 509.059295 221.846753 
L 510.284636 221.846753 
L 510.529705 219.692292 
L 511.755045 219.692292 
L 512.000114 217.777215 
L 512.735318 217.777215 
L 512.980386 215.622754 
L 513.960659 215.622754 
L 514.450795 211.313832 
L 515.431068 211.313832 
L 515.676136 209.159371 
L 516.901477 209.159371 
L 517.146545 207.00491 
L 518.862023 207.00491 
L 519.352159 202.935373 
L 520.332432 202.935373 
L 520.5775 200.780912 
L 522.292977 200.780912 
L 522.538045 198.626451 
L 523.27325 198.626451 
L 523.518318 196.47199 
L 524.498591 196.47199 
L 524.743659 194.317529 
L 525.233795 194.317529 
L 525.478864 192.163068 
L 526.704205 192.163068 
L 526.949273 190.247991 
L 528.174614 190.247991 
L 528.419682 188.09353 
L 528.66475 190.247991 
L 529.399955 190.247991 
L 529.645023 188.09353 
L 532.340773 188.09353 
L 532.585841 190.247991 
L 533.321045 190.247991 
L 533.566114 192.163068 
L 534.301318 192.163068 
L 534.546386 194.317529 
L 535.036523 194.317529 
L 535.281591 196.47199 
L 536.261864 196.47199 
L 536.506932 198.626451 
L 537.242136 198.626451 
L 537.487205 200.780912 
L 537.732273 200.780912 
L 537.977341 202.695988 
L 538.222409 202.695988 
L 538.712545 207.00491 
L 539.44775 207.00491 
L 539.692818 209.159371 
L 540.182955 209.159371 
L 540.428023 211.313832 
L 541.408295 211.313832 
L 541.653364 213.468293 
L 542.388568 213.468293 
L 542.633636 215.38337 
L 543.368841 215.38337 
L 543.613909 217.537831 
L 544.349114 217.537831 
L 544.594182 219.692292 
L 545.084318 219.692292 
L 545.329386 221.846753 
L 545.819523 221.846753 
L 546.309659 226.155675 
L 546.554727 226.155675 
L 546.799795 228.070751 
L 547.535 228.070751 
L 547.780068 230.225212 
L 548.025136 230.225212 
L 548.270205 232.379674 
L 548.760341 232.379674 
L 549.005409 234.534135 
L 549.250477 234.534135 
L 549.495545 236.688596 
L 549.985682 236.688596 
L 550.23075 238.603672 
L 550.965955 238.603672 
L 551.211023 240.758133 
L 551.946227 240.758133 
L 552.191295 242.912594 
L 552.436364 242.912594 
L 552.681432 245.067055 
L 553.661705 245.067055 
L 553.906773 247.221516 
L 554.641977 247.221516 
L 554.887045 242.912594 
L 556.357455 242.912594 
L 556.602523 245.067055 
L 558.072932 245.067055 
L 558.318 246.982132 
L 559.053205 246.982132 
L 559.298273 249.136593 
L 560.278545 249.136593 
L 560.523614 251.291054 
L 560.768682 251.291054 
L 561.01375 249.136593 
L 562.239091 249.136593 
L 562.484159 251.291054 
L 562.729227 251.291054 
L 562.974295 253.445515 
L 564.199636 253.445515 
L 564.444705 255.360591 
L 565.670045 255.360591 
L 565.915114 257.515052 
L 566.160182 257.515052 
L 566.40525 255.360591 
L 567.140455 255.360591 
L 567.385523 257.515052 
L 568.365795 257.515052 
L 568.610864 259.669513 
L 569.836205 259.669513 
L 570.081273 261.823974 
L 570.816477 261.823974 
L 571.061545 263.739051 
L 571.306614 263.739051 
L 571.551682 261.823974 
L 571.79675 263.978435 
L 573.267159 263.978435 
L 573.512227 266.132896 
L 574.4925 266.132896 
L 574.737568 268.287357 
L 575.472773 268.287357 
L 575.717841 270.441818 
L 576.453045 270.441818 
L 576.698114 268.287357 
L 576.943182 268.287357 
L 576.943182 268.287357 
" clip-path="url(#p7ee140af2f)" style="fill: none; stroke-dasharray: 3.7,1.6; stroke-dashoffset: 0; stroke: #808080"/>
   </g>
   <g id="patch_8">
    <path d="M 62.3 282.04 
L 62.3 26.88 
" style="fill: none; stroke: #000000; stroke-width: 0.8; stroke-linejoin: miter; stroke-linecap: square"/>
   </g>
   <g id="patch_9">
    <path d="M 601.45 282.04 
L 601.45 26.88 
" style="fill: none; stroke: #000000; stroke-width: 0.8; stroke-linejoin: miter; stroke-linecap: square"/>
   </g>
   <g id="patch_10">
    <path d="M 62.3 282.04 
L 601.45 282.04 
" style="fill: none; stroke: #000000; stroke-width: 0.8; stroke-linejoin: miter; stroke-linecap: square"/>
   </g>
   <g id="patch_11">
    <path d="M 62.3 26.88 
L 601.45 26.88 
" style="fill: none; stroke: #000000; stroke-width: 0.8; stroke-linejoin: miter; stroke-linecap: square"/>
   </g>
   <g id="legend_2">
    <g id="patch_12">
     <path d="M 512.101563 277.04 
L 594.45 277.04 
Q 596.45 277.04 596.45 275.04 
L 596.45 261.361875 
Q 596.45 259.361875 594.45 259.361875 
L 512.101563 259.361875 
Q 510.101563 259.361875 510.101563 261.361875 
L 510.101563 275.04 
Q 510.101563 277.04 512.101563 277.04 
z
" style="fill: #ffffff; opacity: 0.8; stroke: #cccccc; stroke-linejoin: miter"/>
    </g>
    <g id="line2d_44">
     <path d="M 514.101563 267.460312 
L 524.101563 267.460312 
L 534.101563 267.460312 
" style="fill: none; stroke-dasharray: 3.7,1.6; stroke-dashoffset: 0; stroke: #808080"/>
    </g>
    <g id="text_31">
     <!-- difference -->
     <g transform="translate(542.101563 270.960312) scale(0.1 -0.1)">
      <use xlink:href="#DejaVuSans-64"/>
      <use xlink:href="#DejaVuSans-69" transform="translate(63.476562 0)"/>
      <use xlink:href="#DejaVuSans-66" transform="translate(91.259766 0)"/>
      <use xlink:href="#DejaVuSans-66" transform="translate(126.464844 0)"/>
      <use xlink:href="#DejaVuSans-65" transform="translate(161.669922 0)"/>
      <use xlink:href="#DejaVuSans-72" transform="translate(223.193359 0)"/>
      <use xlink:href="#DejaVuSans-65" transform="translate(262.056641 0)"/>
      <use xlink:href="#DejaVuSans-6e" transform="translate(323.580078 0)"/>
      <use xlink:href="#DejaVuSans-63" transform="translate(386.958984 0)"/>
      <use xlink:href="#DejaVuSans-65" transform="translate(441.939453 0)"/>
     </g>
    </g>
   </g>
  </g>
 </g>
 <defs>
  <clipPath id="p7ee140af2f">
   <rect x="62.3" y="26.88" width="539.15" height="255.16"/>
  </clipPath>
 </defs>
</svg>
