<?xml version="1.0" encoding="utf-8" standalone="no"?>
<!DOCTYPE svg PUBLIC "-//W3C//DTD SVG 1.1//EN"
  "http://www.w3.org/Graphics/SVG/1.1/DTD/svg11.dtd">
<svg xmlns:xlink="http://www.w3.org/1999/xlink" width="648pt" height="324pt" viewBox="0 0 648 324" xmlns="http://www.w3.org/2000/svg" version="1.1">
 <metadata>
  <rdf:RDF xmlns:dc="http://purl.org/dc/elements/1.1/" xmlns:cc="http://creativecommons.org/ns#" xmlns:rdf="http://www.w3.org/1999/02/22-rdf-syntax-ns#">
   <cc:Work>
    <dc:type rdf:resource="http://purl.org/dc/dcmitype/StillImage"/>
    <dc:date>2026-04-26T09:11:28.727543</dc:date>
    <dc:format>image/svg+xml</dc:format>
    <dc:creator>
     <cc:Agent>
      <dc:title>Matplotlib v3.10.8, https://matplotlib.org/</dc:title>
     </cc:Agent>
    </dc:creator>
   </cc:Work>
  </rdf:RDF>
 </metadata>
 <defs>
  <style type="text/css">*{stroke-linejoin: round; stroke-linecap: butt}</style>
 </defs>
 <g id="figure_1">
  <g id="patch_1">
   <path d="M 0 324 
L 648 324 
L 648 0 
L 0 0 
z
" style="fill: #ffffff"/>
  </g>
  <g id="axes_1">
   <g id="patch_2">
    <path d="M 66.62 282.04 
L 601.45 282.04 
L 601.45 26.88 
L 66.62 26.88 
z
" style="fill: #ffffff"/>
   </g>
   <g id="matplotlib.axis_1">
    <g id="xtick_1">
     <g id="line2d_1">
      <path d="M 90.68735 282.04 
L 90.68735 26.88 
" clip-path="url(#p8883169685)" style="fill: none; stroke: #b0b0b0; stroke-width: 0.8; stroke-linecap: square"/>
     </g>
     <g id="line2d_2">
      <defs>
       <path id="mfef7812d8d" d="M 0 0 
L 0 3.5 
" style="stroke: #000000; stroke-width: 0.8"/>
      </defs>
      <g>
       <use xlink:href="#mfef7812d8d" x="90.68735" y="282.04" style="stroke: #000000; stroke-width: 0.8"/>
      </g>
     </g>
     <g id="text_1">
      <!-- 0 -->
      <g transform="translate(87.5061 296.638438) scale(0.1 -0.1)">
       <defs>
        <path id="DejaVuSans-30" d="M 2034 4250 
Q 1547 4250 1301 3770 
Q 1056 3291 1056 2328 
Q 1056 1369 1301 889 
Q 1547 409 2034 409 
Q 2525 409 2770 889 
Q 3016 1369 3016 2328 
Q 3016 3291 2770 3770 
Q 2525 4250 2034 4250 
z
M 2034 4750 
Q 2819 4750 3233 4129 
Q 3647 3509 3647 2328 
Q 3647 1150 3233 529 
Q 2819 -91 2034 -91 
Q 1250 -91 836 529 
Q 422 1150 422 2328 
Q 422 3509 836 4129 
Q 1250 4750 2034 4750 
z
" transform="scale(0.015625)"/>
       </defs>
       <use xlink:href="#DejaVuSans-30"/>
      </g>
     </g>
    </g>
    <g id="xtick_2">
     <g id="line2d_3">
      <path d="M 171.778308 282.04 
L 171.778308 26.88 
" clip-path="url(#p8883169685)" style="fill: none; stroke: #b0b0b0; stroke-width: 0.8; stroke-linecap: square"/>
     </g>
     <g id="line2d_4">
      <g>
       <use xlink:href="#mfef7812d8d" x="171.778308" y="282.04" style="stroke: #000000; stroke-width: 0.8"/>
      </g>
     </g>
     <g id="text_2">
      <!-- 10 -->
      <g transform="translate(165.415808 296.638438) scale(0.1 -0.1)">
       <defs>
        <path id="DejaVuSans-31" d="M 794 531 
L 1825 531 
L 1825 4091 
L 703 3866 
L 703 4441 
L 1819 4666 
L 2450 4666 
L 2450 531 
L 3481 531 
L 3481 0 
L 794 0 
L 794 531 
z
" transform="scale(0.015625)"/>
       </defs>
       <use xlink:href="#DejaVuSans-31"/>
       <use xlink:href="#DejaVuSans-30" transform="translate(63.623047 0)"/>
      </g>
     </g>
    </g>
    <g id="xtick_3">
     <g id="line2d_5">
      <path d="M 252.869267 282.04 
L 252.869267 26.88 
" clip-path="url(#p8883169685)" style="fill: none; stroke: #b0b0b0; stroke-width: 0.8; stroke-linecap: square"/>
     </g>
     <g id="line2d_6">
      <g>
       <use xlink:href="#mfef7812d8d" x="252.869267" y="282.04" style="stroke: #000000; stroke-width: 0.8"/>
      </g>
     </g>
     <g id="text_3">
      <!-- 20 -->
      <g transform="translate(246.506767 296.638438) scale(0.1 -0.1)">
       <defs>
        <path id="DejaVuSans-32" d="M 1228 531 
L 3431 531 
L 3431 0 
L 469 0 
L 469 531 
Q 828 903 1448 1529 
Q 2069 2156 2228 2338 
Q 2531 2678 2651 2914 
Q 2772 3150 2772 3378 
Q 2772 3750 2511 3984 
Q 2250 4219 1831 4219 
Q 1534 4219 1204 4116 
Q 875 4013 500 3803 
L 500 4441 
Q 881 4594 1212 4672 
Q 1544 4750 1819 4750 
Q 2544 4750 2975 4387 
Q 3406 4025 3406 3419 
Q 3406 3131 3298 2873 
Q 3191 2616 2906 2266 
Q 2828 2175 2409 1742 
Q 1991 1309 1228 531 
z
" transform="scale(0.015625)"/>
       </defs>
       <use xlink:href="#DejaVuSans-32"/>
       <use xlink:href="#DejaVuSans-30" transform="translate(63.623047 0)"/>
      </g>
     </g>
    </g>
    <g id="xtick_4">
     <g id="line2d_7">
      <path d="M 333.960225 282.04 
L 333.960225 26.88 
" clip-path="url(#p8883169685)" style="fill: none; stroke: #b0b0b0; stroke-width: 0.8; stroke-linecap: square"/>
     </g>
     <g id="line2d_8">
      <g>
       <use xlink:href="#mfef7812d8d" x="333.960225" y="282.04" style="stroke: #000000; stroke-width: 0.8"/>
      </g>
     </g>
     <g id="text_4">
      <!-- 30 -->
      <g transform="translate(327.597725 296.638438) scale(0.1 -0.1)">
       <defs>
        <path id="DejaVuSans-33" d="M 2597 2516 
Q 3050 2419 3304 2112 
Q 3559 1806 3559 1356 
Q 3559 666 3084 287 
Q 2609 -91 1734 -91 
Q 1441 -91 1130 -33 
Q 819 25 488 141 
L 488 750 
Q 750 597 1062 519 
Q 1375 441 1716 441 
Q 2309 441 2620 675 
Q 2931 909 2931 1356 
Q 2931 1769 2642 2001 
Q 2353 2234 1838 2234 
L 1294 2234 
L 1294 2753 
L 1863 2753 
Q 2328 2753 2575 2939 
Q 2822 3125 2822 3475 
Q 2822 3834 2567 4026 
Q 2313 4219 1838 4219 
Q 1578 4219 1281 4162 
Q 984 4106 628 3988 
L 628 4550 
Q 988 4650 1302 4700 
Q 1616 4750 1894 4750 
Q 2613 4750 3031 4423 
Q 3450 4097 3450 3541 
Q 3450 3153 3228 2886 
Q 3006 2619 2597 2516 
z
" transform="scale(0.015625)"/>
       </defs>
       <use xlink:href="#DejaVuSans-33"/>
       <use xlink:href="#DejaVuSans-30" transform="translate(63.623047 0)"/>
      </g>
     </g>
    </g>
    <g id="xtick_5">
     <g id="line2d_9">
      <path d="M 415.051183 282.04 
L 415.051183 26.88 
" clip-path="url(#p8883169685)" style="fill: none; stroke: #b0b0b0; stroke-width: 0.8; stroke-linecap: square"/>
     </g>
     <g id="line2d_10">
      <g>
       <use xlink:href="#mfef7812d8d" x="415.051183" y="282.04" style="stroke: #000000; stroke-width: 0.8"/>
      </g>
     </g>
     <g id="text_5">
      <!-- 40 -->
      <g transform="translate(408.688683 296.638438) scale(0.1 -0.1)">
       <defs>
        <path id="DejaVuSans-34" d="M 2419 4116 
L 825 1625 
L 2419 1625 
L 2419 4116 
z
M 2253 4666 
L 3047 4666 
L 3047 1625 
L 3713 1625 
L 3713 1100 
L 3047 1100 
L 3047 0 
L 2419 0 
L 2419 1100 
L 313 1100 
L 313 1709 
L 2253 4666 
z
" transform="scale(0.015625)"/>
       </defs>
       <use xlink:href="#DejaVuSans-34"/>
       <use xlink:href="#DejaVuSans-30" transform="translate(63.623047 0)"/>
      </g>
     </g>
    </g>
    <g id="xtick_6">
     <g id="line2d_11">
      <path d="M 496.142142 282.04 
L 496.142142 26.88 
" clip-path="url(#p8883169685)" style="fill: none; stroke: #b0b0b0; stroke-width: 0.8; stroke-linecap: square"/>
     </g>
     <g id="line2d_12">
      <g>
       <use xlink:href="#mfef7812d8d" x="496.142142" y="282.04" style="stroke: #000000; stroke-width: 0.8"/>
      </g>
     </g>
     <g id="text_6">
      <!-- 50 -->
      <g transform="translate(489.779642 296.638438) scale(0.1 -0.1)">
       <defs>
        <path id="DejaVuSans-35" d="M 691 4666 
L 3169 4666 
L 3169 4134 
L 1269 4134 
L 1269 2991 
Q 1406 3038 1543 3061 
Q 1681 3084 1819 3084 
Q 2600 3084 3056 2656 
Q 3513 2228 3513 1497 
Q 3513 744 3044 326 
Q 2575 -91 1722 -91 
Q 1428 -91 1123 -41 
Q 819 9 494 109 
L 494 744 
Q 775 591 1075 516 
Q 1375 441 1709 441 
Q 2250 441 2565 725 
Q 2881 1009 2881 1497 
Q 2881 1984 2565 2268 
Q 2250 2553 1709 2553 
Q 1456 2553 1204 2497 
Q 953 2441 691 2322 
L 691 4666 
z
" transform="scale(0.015625)"/>
       </defs>
       <use xlink:href="#DejaVuSans-35"/>
       <use xlink:href="#DejaVuSans-30" transform="translate(63.623047 0)"/>
      </g>
     </g>
    </g>
    <g id="xtick_7">
     <g id="line2d_13">
      <path d="M 577.2331 282.04 
L 577.2331 26.88 
" clip-path="url(#p8883169685)" style="fill: none; stroke: #b0b0b0; stroke-width: 0.8; stroke-linecap: square"/>
     </g>
     <g id="line2d_14">
      <g>
       <use xlink:href="#mfef7812d8d" x="577.2331" y="282.04" style="stroke: #000000; stroke-width: 0.8"/>
      </g>
     </g>
     <g id="text_7">
      <!-- 60 -->
      <g transform="translate(570.8706 296.638438) scale(0.1 -0.1)">
       <defs>
        <path id="DejaVuSans-36" d="M 2113 2584 
Q 1688 2584 1439 2293 
Q 1191 2003 1191 1497 
Q 1191 994 1439 701 
Q 1688 409 2113 409 
Q 2538 409 2786 701 
Q 3034 994 3034 1497 
Q 3034 2003 2786 2293 
Q 2538 2584 2113 2584 
z
M 3366 4563 
L 3366 3988 
Q 3128 4100 2886 4159 
Q 2644 4219 2406 4219 
Q 1781 4219 1451 3797 
Q 1122 3375 1075 2522 
Q 1259 2794 1537 2939 
Q 1816 3084 2150 3084 
Q 2853 3084 3261 2657 
Q 3669 2231 3669 1497 
Q 3669 778 3244 343 
Q 2819 -91 2113 -91 
Q 1303 -91 875 529 
Q 447 1150 447 2328 
Q 447 3434 972 4092 
Q 1497 4750 2381 4750 
Q 2619 4750 2861 4703 
Q 3103 4656 3366 4563 
z
" transform="scale(0.015625)"/>
       </defs>
       <use xlink:href="#DejaVuSans-36"/>
       <use xlink:href="#DejaVuSans-30" transform="translate(63.623047 0)"/>
      </g>
     </g>
    </g>
    <g id="text_8">
     <!-- s [m] -->
     <g transform="translate(321.069375 310.316563) scale(0.1 -0.1)">
      <defs>
       <path id="DejaVuSans-73" d="M 2834 3397 
L 2834 2853 
Q 2591 2978 2328 3040 
Q 2066 3103 1784 3103 
Q 1356 3103 1142 2972 
Q 928 2841 928 2578 
Q 928 2378 1081 2264 
Q 1234 2150 1697 2047 
L 1894 2003 
Q 2506 1872 2764 1633 
Q 3022 1394 3022 966 
Q 3022 478 2636 193 
Q 2250 -91 1575 -91 
Q 1294 -91 989 -36 
Q 684 19 347 128 
L 347 722 
Q 666 556 975 473 
Q 1284 391 1588 391 
Q 1994 391 2212 530 
Q 2431 669 2431 922 
Q 2431 1156 2273 1281 
Q 2116 1406 1581 1522 
L 1381 1569 
Q 847 1681 609 1914 
Q 372 2147 372 2553 
Q 372 3047 722 3315 
Q 1072 3584 1716 3584 
Q 2034 3584 2315 3537 
Q 2597 3491 2834 3397 
z
" transform="scale(0.015625)"/>
       <path id="DejaVuSans-20" transform="scale(0.015625)"/>
       <path id="DejaVuSans-5b" d="M 550 4863 
L 1875 4863 
L 1875 4416 
L 1125 4416 
L 1125 -397 
L 1875 -397 
L 1875 -844 
L 550 -844 
L 550 4863 
z
" transform="scale(0.015625)"/>
       <path id="DejaVuSans-6d" d="M 3328 2828 
Q 3544 3216 3844 3400 
Q 4144 3584 4550 3584 
Q 5097 3584 5394 3201 
Q 5691 2819 5691 2113 
L 5691 0 
L 5113 0 
L 5113 2094 
Q 5113 2597 4934 2840 
Q 4756 3084 4391 3084 
Q 3944 3084 3684 2787 
Q 3425 2491 3425 1978 
L 3425 0 
L 2847 0 
L 2847 2094 
Q 2847 2600 2669 2842 
Q 2491 3084 2119 3084 
Q 1678 3084 1418 2786 
Q 1159 2488 1159 1978 
L 1159 0 
L 581 0 
L 581 3500 
L 1159 3500 
L 1159 2956 
Q 1356 3278 1631 3431 
Q 1906 3584 2284 3584 
Q 2666 3584 2933 3390 
Q 3200 3197 3328 2828 
z
" transform="scale(0.015625)"/>
       <path id="DejaVuSans-5d" d="M 1947 4863 
L 1947 -844 
L 622 -844 
L 622 -397 
L 1369 -397 
L 1369 4416 
L 622 4416 
L 622 4863 
L 1947 4863 
z
" transform="scale(0.015625)"/>
      </defs>
      <use xlink:href="#DejaVuSans-73"/>
      <use xlink:href="#DejaVuSans-20" transform="translate(52.099609 0)"/>
      <use xlink:href="#DejaVuSans-5b" transform="translate(83.886719 0)"/>
      <use xlink:href="#DejaVuSans-6d" transform="translate(122.900391 0)"/>
      <use xlink:href="#DejaVuSans-5d" transform="translate(220.3125 0)"/>
     </g>
    </g>
   </g>
   <g id="matplotlib.axis_2">
    <g id="ytick_1">
     <g id="line2d_15">
      <path d="M 66.62 274.628784 
L 601.45 274.628784 
" clip-path="url(#p8883169685)" style="fill: none; stroke: #b0b0b0; stroke-width: 0.8; stroke-linecap: square"/>
     </g>
     <g id="line2d_16">
      <defs>
       <path id="m961735c038" d="M 0 0 
L -3.5 0 
" style="stroke: #000000; stroke-width: 0.8"/>
      </defs>
      <g>
       <use xlink:href="#m961735c038" x="66.62" y="274.628784" style="stroke: #000000; stroke-width: 0.8"/>
      </g>
     </g>
     <g id="text_9">
      <!-- 0.0000 -->
      <g transform="translate(24.629375 278.428003) scale(0.1 -0.1)">
       <defs>
        <path id="DejaVuSans-2e" d="M 684 794 
L 1344 794 
L 1344 0 
L 684 0 
L 684 794 
z
" transform="scale(0.015625)"/>
       </defs>
       <use xlink:href="#DejaVuSans-30"/>
       <use xlink:href="#DejaVuSans-2e" transform="translate(63.623047 0)"/>
       <use xlink:href="#DejaVuSans-30" transform="translate(95.410156 0)"/>
       <use xlink:href="#DejaVuSans-30" transform="translate(159.033203 0)"/>
       <use xlink:href="#DejaVuSans-30" transform="translate(222.65625 0)"/>
       <use xlink:href="#DejaVuSans-30" transform="translate(286.279297 0)"/>
      </g>
     </g>
    </g>
    <g id="ytick_2">
     <g id="line2d_17">
      <path d="M 66.62 244.347215 
L 601.45 244.347215 
" clip-path="url(#p8883169685)" style="fill: none; stroke: #b0b0b0; stroke-width: 0.8; stroke-linecap: square"/>
     </g>
     <g id="line2d_18">
      <g>
       <use xlink:href="#m961735c038" x="66.62" y="244.347215" style="stroke: #000000; stroke-width: 0.8"/>
      </g>
     </g>
     <g id="text_10">
      <!-- 0.0025 -->
      <g transform="translate(24.629375 248.146434) scale(0.1 -0.1)">
       <use xlink:href="#DejaVuSans-30"/>
       <use xlink:href="#DejaVuSans-2e" transform="translate(63.623047 0)"/>
       <use xlink:href="#DejaVuSans-30" transform="translate(95.410156 0)"/>
       <use xlink:href="#DejaVuSans-30" transform="translate(159.033203 0)"/>
       <use xlink:href="#DejaVuSans-32" transform="translate(222.65625 0)"/>
       <use xlink:href="#DejaVuSans-35" transform="translate(286.279297 0)"/>
      </g>
     </g>
    </g>
    <g id="ytick_3">
     <g id="line2d_19">
      <path d="M 66.62 214.065646 
L 601.45 214.065646 
" clip-path="url(#p8883169685)" style="fill: none; stroke: #b0b0b0; stroke-width: 0.8; stroke-linecap: square"/>
     </g>
     <g id="line2d_20">
      <g>
       <use xlink:href="#m961735c038" x="66.62" y="214.065646" style="stroke: #000000; stroke-width: 0.8"/>
      </g>
     </g>
     <g id="text_11">
      <!-- 0.0050 -->
      <g transform="translate(24.629375 217.864865) scale(0.1 -0.1)">
       <use xlink:href="#DejaVuSans-30"/>
       <use xlink:href="#DejaVuSans-2e" transform="translate(63.623047 0)"/>
       <use xlink:href="#DejaVuSans-30" transform="translate(95.410156 0)"/>
       <use xlink:href="#DejaVuSans-30" transform="translate(159.033203 0)"/>
       <use xlink:href="#DejaVuSans-35" transform="translate(222.65625 0)"/>
       <use xlink:href="#DejaVuSans-30" transform="translate(286.279297 0)"/>
      </g>
     </g>
    </g>
    <g id="ytick_4">
     <g id="line2d_21">
      <path d="M 66.62 183.784077 
L 601.45 183.784077 
" clip-path="url(#p8883169685)" style="fill: none; stroke: #b0b0b0; stroke-width: 0.8; stroke-linecap: square"/>
     </g>
     <g id="line2d_22">
      <g>
       <use xlink:href="#m961735c038" x="66.62" y="183.784077" style="stroke: #000000; stroke-width: 0.8"/>
      </g>
     </g>
     <g id="text_12">
      <!-- 0.0075 -->
      <g transform="translate(24.629375 187.583295) scale(0.1 -0.1)">
       <defs>
        <path id="DejaVuSans-37" d="M 525 4666 
L 3525 4666 
L 3525 4397 
L 1831 0 
L 1172 0 
L 2766 4134 
L 525 4134 
L 525 4666 
z
" transform="scale(0.015625)"/>
       </defs>
       <use xlink:href="#DejaVuSans-30"/>
       <use xlink:href="#DejaVuSans-2e" transform="translate(63.623047 0)"/>
       <use xlink:href="#DejaVuSans-30" transform="translate(95.410156 0)"/>
       <use xlink:href="#DejaVuSans-30" transform="translate(159.033203 0)"/>
       <use xlink:href="#DejaVuSans-37" transform="translate(222.65625 0)"/>
       <use xlink:href="#DejaVuSans-35" transform="translate(286.279297 0)"/>
      </g>
     </g>
    </g>
    <g id="ytick_5">
     <g id="line2d_23">
      <path d="M 66.62 153.502508 
L 601.45 153.502508 
" clip-path="url(#p8883169685)" style="fill: none; stroke: #b0b0b0; stroke-width: 0.8; stroke-linecap: square"/>
     </g>
     <g id="line2d_24">
      <g>
       <use xlink:href="#m961735c038" x="66.62" y="153.502508" style="stroke: #000000; stroke-width: 0.8"/>
      </g>
     </g>
     <g id="text_13">
      <!-- 0.0100 -->
      <g transform="translate(24.629375 157.301726) scale(0.1 -0.1)">
       <use xlink:href="#DejaVuSans-30"/>
       <use xlink:href="#DejaVuSans-2e" transform="translate(63.623047 0)"/>
       <use xlink:href="#DejaVuSans-30" transform="translate(95.410156 0)"/>
       <use xlink:href="#DejaVuSans-31" transform="translate(159.033203 0)"/>
       <use xlink:href="#DejaVuSans-30" transform="translate(222.65625 0)"/>
       <use xlink:href="#DejaVuSans-30" transform="translate(286.279297 0)"/>
      </g>
     </g>
    </g>
    <g id="ytick_6">
     <g id="line2d_25">
      <path d="M 66.62 123.220938 
L 601.45 123.220938 
" clip-path="url(#p8883169685)" style="fill: none; stroke: #b0b0b0; stroke-width: 0.8; stroke-linecap: square"/>
     </g>
     <g id="line2d_26">
      <g>
       <use xlink:href="#m961735c038" x="66.62" y="123.220938" style="stroke: #000000; stroke-width: 0.8"/>
      </g>
     </g>
     <g id="text_14">
      <!-- 0.0125 -->
      <g transform="translate(24.629375 127.020157) scale(0.1 -0.1)">
       <use xlink:href="#DejaVuSans-30"/>
       <use xlink:href="#DejaVuSans-2e" transform="translate(63.623047 0)"/>
       <use xlink:href="#DejaVuSans-30" transform="translate(95.410156 0)"/>
       <use xlink:href="#DejaVuSans-31" transform="translate(159.033203 0)"/>
       <use xlink:href="#DejaVuSans-32" transform="translate(222.65625 0)"/>
       <use xlink:href="#DejaVuSans-35" transform="translate(286.279297 0)"/>
      </g>
     </g>
    </g>
    <g id="ytick_7">
     <g id="line2d_27">
      <path d="M 66.62 92.939369 
L 601.45 92.939369 
" clip-path="url(#p8883169685)" style="fill: none; stroke: #b0b0b0; stroke-width: 0.8; stroke-linecap: square"/>
     </g>
     <g id="line2d_28">
      <g>
       <use xlink:href="#m961735c038" x="66.62" y="92.939369" style="stroke: #000000; stroke-width: 0.8"/>
      </g>
     </g>
     <g id="text_15">
      <!-- 0.0150 -->
      <g transform="translate(24.629375 96.738588) scale(0.1 -0.1)">
       <use xlink:href="#DejaVuSans-30"/>
       <use xlink:href="#DejaVuSans-2e" transform="translate(63.623047 0)"/>
       <use xlink:href="#DejaVuSans-30" transform="translate(95.410156 0)"/>
       <use xlink:href="#DejaVuSans-31" transform="translate(159.033203 0)"/>
       <use xlink:href="#DejaVuSans-35" transform="translate(222.65625 0)"/>
       <use xlink:href="#DejaVuSans-30" transform="translate(286.279297 0)"/>
      </g>
     </g>
    </g>
    <g id="ytick_8">
     <g id="line2d_29">
      <path d="M 66.62 62.6578 
L 601.45 62.6578 
" clip-path="url(#p8883169685)" style="fill: none; stroke: #b0b0b0; stroke-width: 0.8; stroke-linecap: square"/>
     </g>
     <g id="line2d_30">
      <g>
       <use xlink:href="#m961735c038" x="66.62" y="62.6578" style="stroke: #000000; stroke-width: 0.8"/>
      </g>
     </g>
     <g id="text_16">
      <!-- 0.0175 -->
      <g transform="translate(24.629375 66.457019) scale(0.1 -0.1)">
       <use xlink:href="#DejaVuSans-30"/>
       <use xlink:href="#DejaVuSans-2e" transform="translate(63.623047 0)"/>
       <use xlink:href="#DejaVuSans-30" transform="translate(95.410156 0)"/>
       <use xlink:href="#DejaVuSans-31" transform="translate(159.033203 0)"/>
       <use xlink:href="#DejaVuSans-37" transform="translate(222.65625 0)"/>
       <use xlink:href="#DejaVuSans-35" transform="translate(286.279297 0)"/>
      </g>
     </g>
    </g>
    <g id="ytick_9">
     <g id="line2d_31">
      <path d="M 66.62 32.376231 
L 601.45 32.376231 
" clip-path="url(#p8883169685)" style="fill: none; stroke: #b0b0b0; stroke-width: 0.8; stroke-linecap: square"/>
     </g>
     <g id="line2d_32">
      <g>
       <use xlink:href="#m961735c038" x="66.62" y="32.376231" style="stroke: #000000; stroke-width: 0.8"/>
      </g>
     </g>
     <g id="text_17">
      <!-- 0.0200 -->
      <g transform="translate(24.629375 36.17545) scale(0.1 -0.1)">
       <use xlink:href="#DejaVuSans-30"/>
       <use xlink:href="#DejaVuSans-2e" transform="translate(63.623047 0)"/>
       <use xlink:href="#DejaVuSans-30" transform="translate(95.410156 0)"/>
       <use xlink:href="#DejaVuSans-32" transform="translate(159.033203 0)"/>
       <use xlink:href="#DejaVuSans-30" transform="translate(222.65625 0)"/>
       <use xlink:href="#DejaVuSans-30" transform="translate(286.279297 0)"/>
      </g>
     </g>
    </g>
    <g id="text_18">
     <!-- rms(y) [m] -->
     <g transform="translate(18.549688 181.124844) rotate(-90) scale(0.1 -0.1)">
      <defs>
       <path id="DejaVuSans-72" d="M 2631 2963 
Q 2534 3019 2420 3045 
Q 2306 3072 2169 3072 
Q 1681 3072 1420 2755 
Q 1159 2438 1159 1844 
L 1159 0 
L 581 0 
L 581 3500 
L 1159 3500 
L 1159 2956 
Q 1341 3275 1631 3429 
Q 1922 3584 2338 3584 
Q 2397 3584 2469 3576 
Q 2541 3569 2628 3553 
L 2631 2963 
z
" transform="scale(0.015625)"/>
       <path id="DejaVuSans-28" d="M 1984 4856 
Q 1566 4138 1362 3434 
Q 1159 2731 1159 2009 
Q 1159 1288 1364 580 
Q 1569 -128 1984 -844 
L 1484 -844 
Q 1016 -109 783 600 
Q 550 1309 550 2009 
Q 550 2706 781 3412 
Q 1013 4119 1484 4856 
L 1984 4856 
z
" transform="scale(0.015625)"/>
       <path id="DejaVuSans-79" d="M 2059 -325 
Q 1816 -950 1584 -1140 
Q 1353 -1331 966 -1331 
L 506 -1331 
L 506 -850 
L 844 -850 
Q 1081 -850 1212 -737 
Q 1344 -625 1503 -206 
L 1606 56 
L 191 3500 
L 800 3500 
L 1894 763 
L 2988 3500 
L 3597 3500 
L 2059 -325 
z
" transform="scale(0.015625)"/>
       <path id="DejaVuSans-29" d="M 513 4856 
L 1013 4856 
Q 1481 4119 1714 3412 
Q 1947 2706 1947 2009 
Q 1947 1309 1714 600 
Q 1481 -109 1013 -844 
L 513 -844 
Q 928 -128 1133 580 
Q 1338 1288 1338 2009 
Q 1338 2731 1133 3434 
Q 928 4138 513 4856 
z
" transform="scale(0.015625)"/>
      </defs>
      <use xlink:href="#DejaVuSans-72"/>
      <use xlink:href="#DejaVuSans-6d" transform="translate(39.363281 0)"/>
      <use xlink:href="#DejaVuSans-73" transform="translate(136.775391 0)"/>
      <use xlink:href="#DejaVuSans-28" transform="translate(188.875 0)"/>
      <use xlink:href="#DejaVuSans-79" transform="translate(227.888672 0)"/>
      <use xlink:href="#DejaVuSans-29" transform="translate(287.068359 0)"/>
      <use xlink:href="#DejaVuSans-20" transform="translate(326.082031 0)"/>
      <use xlink:href="#DejaVuSans-5b" transform="translate(357.869141 0)"/>
      <use xlink:href="#DejaVuSans-6d" transform="translate(396.882812 0)"/>
      <use xlink:href="#DejaVuSans-5d" transform="translate(494.294922 0)"/>
     </g>
    </g>
   </g>
   <g id="line2d_33">
    <path d="M 90.930455 152.329431 
L 91.416664 152.677249 
L 91.902873 153.262093 
L 92.632186 154.58117 
L 93.3615 156.425118 
L 94.333918 159.685916 
L 96.03565 166.765992 
L 116.456432 252.374239 
L 118.644373 260.360113 
L 120.589209 266.714393 
L 121.561627 269.324229 
L 122.047836 270.173671 
L 122.290941 270.392896 
L 122.534045 270.441818 
L 122.77715 270.314639 
L 123.263359 269.603461 
L 123.992673 267.815845 
L 125.208195 264.067006 
L 128.12545 254.13038 
L 137.363423 221.561924 
L 140.523782 210.72208 
L 141.739305 207.548411 
L 142.711723 205.593394 
L 143.684141 204.151731 
L 163.861818 177.078884 
L 164.591132 175.763221 
L 165.320445 174.01481 
L 166.292864 170.99695 
L 167.265282 167.172503 
L 169.210118 157.99041 
L 188.658482 65.558612 
L 189.387795 63.377586 
L 189.874005 62.436268 
L 190.360214 61.907364 
L 190.846423 61.791902 
L 191.332632 62.090108 
L 191.818841 62.8014 
L 193.277468 66.084596 
L 212.725832 110.370249 
L 213.212041 111.050045 
L 213.69825 111.411753 
L 214.184459 111.456076 
L 214.670668 111.183102 
L 215.156877 110.592298 
L 215.643086 109.682518 
L 216.3724 107.717687 
L 237.279391 41.253049 
L 237.7656 40.511538 
L 238.251809 40.225024 
L 238.494914 40.252599 
L 238.981123 40.649347 
L 239.467332 41.500824 
L 239.953541 42.805371 
L 240.682855 45.603876 
L 262.076055 142.310603 
L 262.805368 144.457645 
L 263.534682 146.034656 
L 264.263995 147.048518 
L 264.750205 147.413849 
L 265.722623 147.663299 
L 280.308895 150.633725 
L 285.657195 151.730021 
L 286.143405 152.108298 
L 286.629614 152.724392 
L 287.358927 154.091686 
L 288.088241 155.98525 
L 289.060659 159.313937 
L 291.977914 171.427427 
L 306.321082 230.721169 
L 310.453859 247.069411 
L 311.912486 252.040862 
L 313.371114 256.215994 
L 314.586636 258.955503 
L 315.559055 260.57024 
L 316.288368 261.324235 
L 316.774577 261.568229 
L 317.260786 261.590289 
L 317.746995 261.389305 
L 318.233205 260.975122 
L 318.962518 259.996193 
L 319.934936 258.150519 
L 321.150459 255.231474 
L 322.852191 250.455088 
L 325.283236 242.90914 
L 329.416014 229.25039 
L 335.493627 209.064269 
L 336.466045 206.729521 
L 337.438464 204.916115 
L 338.410882 203.582099 
L 347.40575 191.855186 
L 358.345455 177.227726 
L 359.074768 176.008219 
L 359.804082 174.356166 
L 360.7765 171.467794 
L 361.748918 167.775033 
L 363.207545 161.022144 
L 383.385223 65.718413 
L 384.114536 63.651718 
L 384.600745 62.785943 
L 385.086955 62.331866 
L 385.573164 62.290372 
L 386.059373 62.661542 
L 386.545582 63.444653 
L 389.219732 69.42065 
L 407.452573 110.114702 
L 407.938782 110.710253 
L 408.424991 110.98699 
L 408.9112 110.945451 
L 409.397409 110.585555 
L 409.883618 109.906603 
L 410.369827 108.907277 
L 411.099141 106.819745 
L 431.763027 39.840759 
L 432.249236 38.952074 
L 432.735445 38.521436 
L 432.97855 38.478182 
L 433.464759 38.735906 
L 433.950968 39.452098 
L 434.437177 40.625364 
L 435.166491 43.237042 
L 438.32685 57.759833 
L 456.316586 140.268729 
L 457.289005 143.432563 
L 458.018318 145.133592 
L 458.747632 146.267215 
L 459.233841 146.710279 
L 459.72005 146.911414 
L 472.604591 149.401072 
L 480.383936 150.909368 
L 480.870145 151.347341 
L 481.599459 152.452566 
L 482.328773 154.091222 
L 483.058086 156.256108 
L 484.030505 159.939622 
L 499.102986 223.021318 
L 504.208182 243.561272 
L 505.909914 249.64763 
L 507.125436 253.305176 
L 508.340959 256.255415 
L 509.313377 258.040391 
L 510.042691 258.994532 
L 510.772005 259.547377 
L 511.258214 259.66968 
L 511.744423 259.588236 
L 512.230632 259.306295 
L 512.959945 258.532527 
L 513.689259 257.390331 
L 514.661677 255.410532 
L 515.8772 252.403298 
L 517.578932 247.560585 
L 520.009977 239.934377 
L 523.89965 226.927369 
L 529.977264 206.369574 
L 530.949682 203.969508 
L 531.9221 202.110574 
L 532.894518 200.787013 
L 540.187655 191.825683 
L 548.939418 180.703405 
L 553.3153 174.95376 
L 554.044614 173.533742 
L 554.773927 171.66989 
L 555.746345 168.480109 
L 556.718764 164.462115 
L 561.580855 141.212468 
L 577.139545 66.573115 
L 577.139545 66.573115 
" clip-path="url(#p8883169685)" style="fill: none; stroke: #1f77b4; stroke-width: 2; stroke-linecap: square"/>
   </g>
   <g id="line2d_34">
    <path d="M 90.930455 152.329431 
L 91.416664 152.677249 
L 91.902873 153.262093 
L 92.632186 154.58117 
L 93.3615 156.425118 
L 94.333918 159.685916 
L 96.03565 166.765992 
L 116.456432 252.374239 
L 118.644373 260.360113 
L 120.589209 266.714393 
L 121.561627 269.324229 
L 122.047836 270.173671 
L 122.290941 270.392896 
L 122.534045 270.441818 
L 122.77715 270.314639 
L 123.263359 269.603461 
L 123.992673 267.815845 
L 125.208195 264.067006 
L 128.12545 254.13038 
L 137.363423 221.561924 
L 140.523782 210.72208 
L 141.739305 207.548411 
L 142.711723 205.593394 
L 143.684141 204.151731 
L 163.861818 177.078884 
L 164.591132 175.763221 
L 165.320445 174.01481 
L 166.292864 170.99695 
L 167.265282 167.172503 
L 169.210118 157.99041 
L 188.658482 65.558612 
L 189.387795 63.377586 
L 189.874005 62.436268 
L 190.360214 61.907364 
L 190.846423 61.791902 
L 191.332632 62.090108 
L 191.818841 62.8014 
L 193.277468 66.084596 
L 212.725832 110.370249 
L 213.212041 111.050045 
L 213.69825 111.411753 
L 214.184459 111.456076 
L 214.670668 111.183102 
L 215.156877 110.592298 
L 215.643086 109.682518 
L 216.3724 107.717687 
L 237.279391 41.253049 
L 237.7656 40.511538 
L 238.251809 40.225024 
L 238.494914 40.252599 
L 238.981123 40.649347 
L 239.467332 41.500824 
L 239.953541 42.805371 
L 240.682855 45.603876 
L 262.076055 142.310603 
L 262.805368 144.457645 
L 263.534682 146.034656 
L 264.263995 147.048518 
L 264.750205 147.413849 
L 265.722623 147.663299 
L 280.308895 150.633725 
L 285.657195 151.730021 
L 286.143405 152.108298 
L 286.629614 152.724392 
L 287.358927 154.091686 
L 288.088241 155.98525 
L 289.060659 159.313937 
L 291.977914 171.427427 
L 306.321082 230.721169 
L 310.453859 247.069411 
L 311.912486 252.040862 
L 313.371114 256.215994 
L 314.586636 258.955503 
L 315.559055 260.57024 
L 316.288368 261.324235 
L 316.774577 261.568229 
L 317.260786 261.590289 
L 317.746995 261.389305 
L 318.233205 260.975122 
L 318.962518 259.996193 
L 319.934936 258.150519 
L 321.150459 255.231474 
L 322.852191 250.455088 
L 325.283236 242.90914 
L 329.416014 229.25039 
L 335.493627 209.064269 
L 336.466045 206.729521 
L 337.438464 204.916115 
L 338.410882 203.582099 
L 347.40575 191.855186 
L 358.345455 177.227726 
L 359.074768 176.008219 
L 359.804082 174.356166 
L 360.7765 171.467794 
L 361.748918 167.775033 
L 363.207545 161.022144 
L 383.385223 65.718413 
L 384.114536 63.651718 
L 384.600745 62.785943 
L 385.086955 62.331866 
L 385.573164 62.290372 
L 386.059373 62.661542 
L 386.545582 63.444653 
L 389.219732 69.42065 
L 407.452573 110.114702 
L 407.938782 110.710253 
L 408.424991 110.98699 
L 408.9112 110.945451 
L 409.397409 110.585555 
L 409.883618 109.906603 
L 410.369827 108.907277 
L 411.099141 106.819745 
L 431.763027 39.840759 
L 432.249236 38.952074 
L 432.735445 38.521436 
L 432.97855 38.478182 
L 433.464759 38.735906 
L 433.950968 39.452098 
L 434.437177 40.625364 
L 435.166491 43.237042 
L 438.32685 57.759833 
L 456.316586 140.268729 
L 457.289005 143.432563 
L 458.018318 145.133592 
L 458.747632 146.267215 
L 459.233841 146.710279 
L 459.72005 146.911414 
L 472.604591 149.401072 
L 480.383936 150.909368 
L 480.870145 151.347341 
L 481.599459 152.452566 
L 482.328773 154.091222 
L 483.058086 156.256108 
L 484.030505 159.939622 
L 499.102986 223.021318 
L 504.208182 243.561272 
L 505.909914 249.64763 
L 507.125436 253.305176 
L 508.340959 256.255415 
L 509.313377 258.040391 
L 510.042691 258.994532 
L 510.772005 259.547377 
L 511.258214 259.66968 
L 511.744423 259.588236 
L 512.230632 259.306295 
L 512.959945 258.532527 
L 513.689259 257.390331 
L 514.661677 255.410532 
L 515.8772 252.403298 
L 517.578932 247.560585 
L 520.009977 239.934377 
L 523.89965 226.927369 
L 529.977264 206.369574 
L 530.949682 203.969508 
L 531.9221 202.110574 
L 532.894518 200.787013 
L 540.187655 191.825683 
L 548.939418 180.703405 
L 553.3153 174.95376 
L 554.044614 173.533742 
L 554.773927 171.66989 
L 555.746345 168.480109 
L 556.718764 164.462115 
L 561.580855 141.212468 
L 577.139545 66.573115 
L 577.139545 66.573115 
" clip-path="url(#p8883169685)" style="fill: none; stroke: #ff7f0e; stroke-width: 2; stroke-linecap: square"/>
   </g>
   <g id="patch_3">
    <path d="M 66.62 282.04 
L 66.62 26.88 
" style="fill: none; stroke: #000000; stroke-width: 0.8; stroke-linejoin: miter; stroke-linecap: square"/>
   </g>
   <g id="patch_4">
    <path d="M 601.45 282.04 
L 601.45 26.88 
" style="fill: none; stroke: #000000; stroke-width: 0.8; stroke-linejoin: miter; stroke-linecap: square"/>
   </g>
   <g id="patch_5">
    <path d="M 66.62 282.04 
L 601.45 282.04 
" style="fill: none; stroke: #000000; stroke-width: 0.8; stroke-linejoin: miter; stroke-linecap: square"/>
   </g>
   <g id="patch_6">
    <path d="M 66.62 26.88 
L 601.45 26.88 
" style="fill: none; stroke: #000000; stroke-width: 0.8; stroke-linejoin: miter; stroke-linecap: square"/>
   </g>
   <g id="text_19">
    <!-- FodoCell-multibeam-fromfile -->
    <g transform="translate(248.653125 20.88) scale(0.12 -0.12)">
     <defs>
      <path id="DejaVuSans-46" d="M 628 4666 
L 3309 4666 
L 3309 4134 
L 1259 4134 
L 1259 2759 
L 3109 2759 
L 3109 2228 
L 1259 2228 
L 1259 0 
L 628 0 
L 628 4666 
z
" transform="scale(0.015625)"/>
      <path id="DejaVuSans-6f" d="M 1959 3097 
Q 1497 3097 1228 2736 
Q 959 2375 959 1747 
Q 959 1119 1226 758 
Q 1494 397 1959 397 
Q 2419 397 2687 759 
Q 2956 1122 2956 1747 
Q 2956 2369 2687 2733 
Q 2419 3097 1959 3097 
z
M 1959 3584 
Q 2709 3584 3137 3096 
Q 3566 2609 3566 1747 
Q 3566 888 3137 398 
Q 2709 -91 1959 -91 
Q 1206 -91 779 398 
Q 353 888 353 1747 
Q 353 2609 779 3096 
Q 1206 3584 1959 3584 
z
" transform="scale(0.015625)"/>
      <path id="DejaVuSans-64" d="M 2906 2969 
L 2906 4863 
L 3481 4863 
L 3481 0 
L 2906 0 
L 2906 525 
Q 2725 213 2448 61 
Q 2172 -91 1784 -91 
Q 1150 -91 751 415 
Q 353 922 353 1747 
Q 353 2572 751 3078 
Q 1150 3584 1784 3584 
Q 2172 3584 2448 3432 
Q 2725 3281 2906 2969 
z
M 947 1747 
Q 947 1113 1208 752 
Q 1469 391 1925 391 
Q 2381 391 2643 752 
Q 2906 1113 2906 1747 
Q 2906 2381 2643 2742 
Q 2381 3103 1925 3103 
Q 1469 3103 1208 2742 
Q 947 2381 947 1747 
z
" transform="scale(0.015625)"/>
      <path id="DejaVuSans-43" d="M 4122 4306 
L 4122 3641 
Q 3803 3938 3442 4084 
Q 3081 4231 2675 4231 
Q 1875 4231 1450 3742 
Q 1025 3253 1025 2328 
Q 1025 1406 1450 917 
Q 1875 428 2675 428 
Q 3081 428 3442 575 
Q 3803 722 4122 1019 
L 4122 359 
Q 3791 134 3420 21 
Q 3050 -91 2638 -91 
Q 1578 -91 968 557 
Q 359 1206 359 2328 
Q 359 3453 968 4101 
Q 1578 4750 2638 4750 
Q 3056 4750 3426 4639 
Q 3797 4528 4122 4306 
z
" transform="scale(0.015625)"/>
      <path id="DejaVuSans-65" d="M 3597 1894 
L 3597 1613 
L 953 1613 
Q 991 1019 1311 708 
Q 1631 397 2203 397 
Q 2534 397 2845 478 
Q 3156 559 3463 722 
L 3463 178 
Q 3153 47 2828 -22 
Q 2503 -91 2169 -91 
Q 1331 -91 842 396 
Q 353 884 353 1716 
Q 353 2575 817 3079 
Q 1281 3584 2069 3584 
Q 2775 3584 3186 3129 
Q 3597 2675 3597 1894 
z
M 3022 2063 
Q 3016 2534 2758 2815 
Q 2500 3097 2075 3097 
Q 1594 3097 1305 2825 
Q 1016 2553 972 2059 
L 3022 2063 
z
" transform="scale(0.015625)"/>
      <path id="DejaVuSans-6c" d="M 603 4863 
L 1178 4863 
L 1178 0 
L 603 0 
L 603 4863 
z
" transform="scale(0.015625)"/>
      <path id="DejaVuSans-2d" d="M 313 2009 
L 1997 2009 
L 1997 1497 
L 313 1497 
L 313 2009 
z
" transform="scale(0.015625)"/>
      <path id="DejaVuSans-75" d="M 544 1381 
L 544 3500 
L 1119 3500 
L 1119 1403 
Q 1119 906 1312 657 
Q 1506 409 1894 409 
Q 2359 409 2629 706 
Q 2900 1003 2900 1516 
L 2900 3500 
L 3475 3500 
L 3475 0 
L 2900 0 
L 2900 538 
Q 2691 219 2414 64 
Q 2138 -91 1772 -91 
Q 1169 -91 856 284 
Q 544 659 544 1381 
z
M 1991 3584 
L 1991 3584 
z
" transform="scale(0.015625)"/>
      <path id="DejaVuSans-74" d="M 1172 4494 
L 1172 3500 
L 2356 3500 
L 2356 3053 
L 1172 3053 
L 1172 1153 
Q 1172 725 1289 603 
Q 1406 481 1766 481 
L 2356 481 
L 2356 0 
L 1766 0 
Q 1100 0 847 248 
Q 594 497 594 1153 
L 594 3053 
L 172 3053 
L 172 3500 
L 594 3500 
L 594 4494 
L 1172 4494 
z
" transform="scale(0.015625)"/>
      <path id="DejaVuSans-69" d="M 603 3500 
L 1178 3500 
L 1178 0 
L 603 0 
L 603 3500 
z
M 603 4863 
L 1178 4863 
L 1178 4134 
L 603 4134 
L 603 4863 
z
" transform="scale(0.015625)"/>
      <path id="DejaVuSans-62" d="M 3116 1747 
Q 3116 2381 2855 2742 
Q 2594 3103 2138 3103 
Q 1681 3103 1420 2742 
Q 1159 2381 1159 1747 
Q 1159 1113 1420 752 
Q 1681 391 2138 391 
Q 2594 391 2855 752 
Q 3116 1113 3116 1747 
z
M 1159 2969 
Q 1341 3281 1617 3432 
Q 1894 3584 2278 3584 
Q 2916 3584 3314 3078 
Q 3713 2572 3713 1747 
Q 3713 922 3314 415 
Q 2916 -91 2278 -91 
Q 1894 -91 1617 61 
Q 1341 213 1159 525 
L 1159 0 
L 581 0 
L 581 4863 
L 1159 4863 
L 1159 2969 
z
" transform="scale(0.015625)"/>
      <path id="DejaVuSans-61" d="M 2194 1759 
Q 1497 1759 1228 1600 
Q 959 1441 959 1056 
Q 959 750 1161 570 
Q 1363 391 1709 391 
Q 2188 391 2477 730 
Q 2766 1069 2766 1631 
L 2766 1759 
L 2194 1759 
z
M 3341 1997 
L 3341 0 
L 2766 0 
L 2766 531 
Q 2569 213 2275 61 
Q 1981 -91 1556 -91 
Q 1019 -91 701 211 
Q 384 513 384 1019 
Q 384 1609 779 1909 
Q 1175 2209 1959 2209 
L 2766 2209 
L 2766 2266 
Q 2766 2663 2505 2880 
Q 2244 3097 1772 3097 
Q 1472 3097 1187 3025 
Q 903 2953 641 2809 
L 641 3341 
Q 956 3463 1253 3523 
Q 1550 3584 1831 3584 
Q 2591 3584 2966 3190 
Q 3341 2797 3341 1997 
z
" transform="scale(0.015625)"/>
      <path id="DejaVuSans-66" d="M 2375 4863 
L 2375 4384 
L 1825 4384 
Q 1516 4384 1395 4259 
Q 1275 4134 1275 3809 
L 1275 3500 
L 2222 3500 
L 2222 3053 
L 1275 3053 
L 1275 0 
L 697 0 
L 697 3053 
L 147 3053 
L 147 3500 
L 697 3500 
L 697 3744 
Q 697 4328 969 4595 
Q 1241 4863 1831 4863 
L 2375 4863 
z
" transform="scale(0.015625)"/>
     </defs>
     <use xlink:href="#DejaVuSans-46"/>
     <use xlink:href="#DejaVuSans-6f" transform="translate(53.894531 0)"/>
     <use xlink:href="#DejaVuSans-64" transform="translate(115.076172 0)"/>
     <use xlink:href="#DejaVuSans-6f" transform="translate(178.552734 0)"/>
     <use xlink:href="#DejaVuSans-43" transform="translate(239.734375 0)"/>
     <use xlink:href="#DejaVuSans-65" transform="translate(309.558594 0)"/>
     <use xlink:href="#DejaVuSans-6c" transform="translate(371.082031 0)"/>
     <use xlink:href="#DejaVuSans-6c" transform="translate(398.865234 0)"/>
     <use xlink:href="#DejaVuSans-2d" transform="translate(426.648438 0)"/>
     <use xlink:href="#DejaVuSans-6d" transform="translate(462.732422 0)"/>
     <use xlink:href="#DejaVuSans-75" transform="translate(560.144531 0)"/>
     <use xlink:href="#DejaVuSans-6c" transform="translate(623.523438 0)"/>
     <use xlink:href="#DejaVuSans-74" transform="translate(651.306641 0)"/>
     <use xlink:href="#DejaVuSans-69" transform="translate(690.515625 0)"/>
     <use xlink:href="#DejaVuSans-62" transform="translate(718.298828 0)"/>
     <use xlink:href="#DejaVuSans-65" transform="translate(781.775391 0)"/>
     <use xlink:href="#DejaVuSans-61" transform="translate(843.298828 0)"/>
     <use xlink:href="#DejaVuSans-6d" transform="translate(904.578125 0)"/>
     <use xlink:href="#DejaVuSans-2d" transform="translate(1001.990234 0)"/>
     <use xlink:href="#DejaVuSans-66" transform="translate(1038.074219 0)"/>
     <use xlink:href="#DejaVuSans-72" transform="translate(1073.279297 0)"/>
     <use xlink:href="#DejaVuSans-6f" transform="translate(1112.142578 0)"/>
     <use xlink:href="#DejaVuSans-6d" transform="translate(1173.324219 0)"/>
     <use xlink:href="#DejaVuSans-66" transform="translate(1270.736328 0)"/>
     <use xlink:href="#DejaVuSans-69" transform="translate(1305.941406 0)"/>
     <use xlink:href="#DejaVuSans-6c" transform="translate(1333.724609 0)"/>
     <use xlink:href="#DejaVuSans-65" transform="translate(1361.507812 0)"/>
    </g>
   </g>
   <g id="legend_1">
    <g id="patch_7">
     <path d="M 73.62 277.04 
L 153.360625 277.04 
Q 155.360625 277.04 155.360625 275.04 
L 155.360625 246.68375 
Q 155.360625 244.68375 153.360625 244.68375 
L 73.62 244.68375 
Q 71.62 244.68375 71.62 246.68375 
L 71.62 275.04 
Q 71.62 277.04 73.62 277.04 
z
" style="fill: #ffffff; opacity: 0.8; stroke: #cccccc; stroke-linejoin: miter"/>
    </g>
    <g id="line2d_35">
     <path d="M 75.62 252.782188 
L 85.62 252.782188 
L 95.62 252.782188 
" style="fill: none; stroke: #1f77b4; stroke-width: 2; stroke-linecap: square"/>
    </g>
    <g id="text_20">
     <!-- current -->
     <g transform="translate(103.62 256.282188) scale(0.1 -0.1)">
      <defs>
       <path id="DejaVuSans-63" d="M 3122 3366 
L 3122 2828 
Q 2878 2963 2633 3030 
Q 2388 3097 2138 3097 
Q 1578 3097 1268 2742 
Q 959 2388 959 1747 
Q 959 1106 1268 751 
Q 1578 397 2138 397 
Q 2388 397 2633 464 
Q 2878 531 3122 666 
L 3122 134 
Q 2881 22 2623 -34 
Q 2366 -91 2075 -91 
Q 1284 -91 818 406 
Q 353 903 353 1747 
Q 353 2603 823 3093 
Q 1294 3584 2113 3584 
Q 2378 3584 2631 3529 
Q 2884 3475 3122 3366 
z
" transform="scale(0.015625)"/>
       <path id="DejaVuSans-6e" d="M 3513 2113 
L 3513 0 
L 2938 0 
L 2938 2094 
Q 2938 2591 2744 2837 
Q 2550 3084 2163 3084 
Q 1697 3084 1428 2787 
Q 1159 2491 1159 1978 
L 1159 0 
L 581 0 
L 581 3500 
L 1159 3500 
L 1159 2956 
Q 1366 3272 1645 3428 
Q 1925 3584 2291 3584 
Q 2894 3584 3203 3211 
Q 3513 2838 3513 2113 
z
" transform="scale(0.015625)"/>
      </defs>
      <use xlink:href="#DejaVuSans-63"/>
      <use xlink:href="#DejaVuSans-75" transform="translate(54.980469 0)"/>
      <use xlink:href="#DejaVuSans-72" transform="translate(118.359375 0)"/>
      <use xlink:href="#DejaVuSans-72" transform="translate(157.722656 0)"/>
      <use xlink:href="#DejaVuSans-65" transform="translate(196.585938 0)"/>
      <use xlink:href="#DejaVuSans-6e" transform="translate(258.109375 0)"/>
      <use xlink:href="#DejaVuSans-74" transform="translate(321.488281 0)"/>
     </g>
    </g>
    <g id="line2d_36">
     <path d="M 75.62 267.460312 
L 85.62 267.460312 
L 95.62 267.460312 
" style="fill: none; stroke: #ff7f0e; stroke-width: 2; stroke-linecap: square"/>
    </g>
    <g id="text_21">
     <!-- reference -->
     <g transform="translate(103.62 270.960312) scale(0.1 -0.1)">
      <use xlink:href="#DejaVuSans-72"/>
      <use xlink:href="#DejaVuSans-65" transform="translate(38.863281 0)"/>
      <use xlink:href="#DejaVuSans-66" transform="translate(100.386719 0)"/>
      <use xlink:href="#DejaVuSans-65" transform="translate(135.591797 0)"/>
      <use xlink:href="#DejaVuSans-72" transform="translate(197.115234 0)"/>
      <use xlink:href="#DejaVuSans-65" transform="translate(235.978516 0)"/>
      <use xlink:href="#DejaVuSans-6e" transform="translate(297.501953 0)"/>
      <use xlink:href="#DejaVuSans-63" transform="translate(360.880859 0)"/>
      <use xlink:href="#DejaVuSans-65" transform="translate(415.861328 0)"/>
     </g>
    </g>
   </g>
  </g>
  <g id="axes_2">
   <g id="matplotlib.axis_3">
    <g id="ytick_10">
     <g id="line2d_37">
      <defs>
       <path id="md18e7c745d" d="M 0 0 
L 3.5 0 
" style="stroke: #000000; stroke-width: 0.8"/>
      </defs>
      <g>
       <use xlink:href="#md18e7c745d" x="601.45" y="247.512978" style="stroke: #000000; stroke-width: 0.8"/>
      </g>
     </g>
     <g id="text_22">
      <!-- −4 -->
      <g transform="translate(608.45 251.312197) scale(0.1 -0.1)">
       <defs>
        <path id="DejaVuSans-2212" d="M 678 2272 
L 4684 2272 
L 4684 1741 
L 678 1741 
L 678 2272 
z
" transform="scale(0.015625)"/>
       </defs>
       <use xlink:href="#DejaVuSans-2212"/>
       <use xlink:href="#DejaVuSans-34" transform="translate(83.789062 0)"/>
      </g>
     </g>
    </g>
    <g id="ytick_11">
     <g id="line2d_38">
      <g>
       <use xlink:href="#md18e7c745d" x="601.45" y="209.056923" style="stroke: #000000; stroke-width: 0.8"/>
      </g>
     </g>
     <g id="text_23">
      <!-- −2 -->
      <g transform="translate(608.45 212.856142) scale(0.1 -0.1)">
       <use xlink:href="#DejaVuSans-2212"/>
       <use xlink:href="#DejaVuSans-32" transform="translate(83.789062 0)"/>
      </g>
     </g>
    </g>
    <g id="ytick_12">
     <g id="line2d_39">
      <g>
       <use xlink:href="#md18e7c745d" x="601.45" y="170.600868" style="stroke: #000000; stroke-width: 0.8"/>
      </g>
     </g>
     <g id="text_24">
      <!-- 0 -->
      <g transform="translate(608.45 174.400087) scale(0.1 -0.1)">
       <use xlink:href="#DejaVuSans-30"/>
      </g>
     </g>
    </g>
    <g id="ytick_13">
     <g id="line2d_40">
      <g>
       <use xlink:href="#md18e7c745d" x="601.45" y="132.144813" style="stroke: #000000; stroke-width: 0.8"/>
      </g>
     </g>
     <g id="text_25">
      <!-- 2 -->
      <g transform="translate(608.45 135.944032) scale(0.1 -0.1)">
       <use xlink:href="#DejaVuSans-32"/>
      </g>
     </g>
    </g>
    <g id="ytick_14">
     <g id="line2d_41">
      <g>
       <use xlink:href="#md18e7c745d" x="601.45" y="93.688759" style="stroke: #000000; stroke-width: 0.8"/>
      </g>
     </g>
     <g id="text_26">
      <!-- 4 -->
      <g transform="translate(608.45 97.487977) scale(0.1 -0.1)">
       <use xlink:href="#DejaVuSans-34"/>
      </g>
     </g>
    </g>
    <g id="ytick_15">
     <g id="line2d_42">
      <g>
       <use xlink:href="#md18e7c745d" x="601.45" y="55.232704" style="stroke: #000000; stroke-width: 0.8"/>
      </g>
     </g>
     <g id="text_27">
      <!-- 6 -->
      <g transform="translate(608.45 59.031923) scale(0.1 -0.1)">
       <use xlink:href="#DejaVuSans-36"/>
      </g>
     </g>
    </g>
    <g id="text_28">
     <!-- delta rms(y) [m] -->
     <g transform="translate(634.790625 195.377969) rotate(-90) scale(0.1 -0.1)">
      <use xlink:href="#DejaVuSans-64"/>
      <use xlink:href="#DejaVuSans-65" transform="translate(63.476562 0)"/>
      <use xlink:href="#DejaVuSans-6c" transform="translate(125 0)"/>
      <use xlink:href="#DejaVuSans-74" transform="translate(152.783203 0)"/>
      <use xlink:href="#DejaVuSans-61" transform="translate(191.992188 0)"/>
      <use xlink:href="#DejaVuSans-20" transform="translate(253.271484 0)"/>
      <use xlink:href="#DejaVuSans-72" transform="translate(285.058594 0)"/>
      <use xlink:href="#DejaVuSans-6d" transform="translate(324.421875 0)"/>
      <use xlink:href="#DejaVuSans-73" transform="translate(421.833984 0)"/>
      <use xlink:href="#DejaVuSans-28" transform="translate(473.933594 0)"/>
      <use xlink:href="#DejaVuSans-79" transform="translate(512.947266 0)"/>
      <use xlink:href="#DejaVuSans-29" transform="translate(572.126953 0)"/>
      <use xlink:href="#DejaVuSans-20" transform="translate(611.140625 0)"/>
      <use xlink:href="#DejaVuSans-5b" transform="translate(642.927734 0)"/>
      <use xlink:href="#DejaVuSans-6d" transform="translate(681.941406 0)"/>
      <use xlink:href="#DejaVuSans-5d" transform="translate(779.353516 0)"/>
     </g>
    </g>
    <g id="text_29">
     <!-- 1e−12 -->
     <g transform="translate(567.829688 23.88) scale(0.1 -0.1)">
      <use xlink:href="#DejaVuSans-31"/>
      <use xlink:href="#DejaVuSans-65" transform="translate(63.623047 0)"/>
      <use xlink:href="#DejaVuSans-2212" transform="translate(125.146484 0)"/>
      <use xlink:href="#DejaVuSans-31" transform="translate(208.935547 0)"/>
      <use xlink:href="#DejaVuSans-32" transform="translate(272.558594 0)"/>
     </g>
    </g>
   </g>
   <g id="line2d_43">
    <path d="M 90.930455 170.600868 
L 167.265282 170.606705 
L 167.508386 180.79832 
L 167.751491 170.606672 
L 189.387795 170.613543 
L 189.6309 161.936293 
L 189.874005 170.613543 
L 212.239623 170.605471 
L 212.482727 181.186476 
L 212.725832 170.604904 
L 264.750205 170.590662 
L 264.993309 131.472988 
L 285.414091 130.46926 
L 285.657195 270.441818 
L 285.9003 124.972972 
L 286.143405 268.994531 
L 286.386509 127.926384 
L 286.629614 268.031797 
L 286.872718 126.847507 
L 287.115823 267.796342 
L 287.358927 69.37574 
L 287.602032 209.172549 
L 287.845136 209.233789 
L 288.088241 70.285306 
L 288.331345 266.265033 
L 288.57445 208.796668 
L 288.817555 71.268987 
L 289.060659 208.509179 
L 289.303764 151.842876 
L 295.867586 151.403953 
L 300.729677 150.884361 
L 304.376245 150.280429 
L 307.050395 149.62589 
L 309.238336 148.875946 
L 309.724545 148.67473 
L 309.96765 151.104189 
L 310.210755 177.517867 
L 310.696964 177.593826 
L 310.940068 150.737914 
L 311.426277 150.473156 
L 311.669382 176.113584 
L 311.912486 176.155232 
L 312.155591 150.034088 
L 312.398695 176.238545 
L 314.100427 176.425348 
L 315.072845 176.283271 
L 315.802159 175.992137 
L 316.531473 175.490035 
L 317.503891 174.504273 
L 320.178041 171.486798 
L 321.393564 170.534933 
L 322.609086 169.845917 
L 324.067714 169.26046 
L 326.01255 168.736065 
L 328.6867 168.282674 
L 332.333268 167.915516 
L 334.035 167.798922 
L 334.278105 167.497857 
L 335.007418 167.447491 
L 335.250523 175.035057 
L 335.736732 175.073098 
L 335.979836 167.498574 
L 336.222941 175.107788 
L 336.466045 167.474975 
L 336.70915 167.464118 
L 336.952255 175.153901 
L 337.195359 167.547223 
L 337.438464 175.284971 
L 337.681568 167.633463 
L 337.924673 175.41454 
L 347.40575 175.980213 
L 358.345455 176.431743 
L 358.588559 175.544926 
L 358.831664 167.227646 
L 359.317873 167.224544 
L 359.560977 175.553298 
L 359.804082 167.217806 
L 360.047186 175.565406 
L 360.290291 167.206699 
L 361.262709 167.173577 
L 361.505814 175.523545 
L 361.748918 167.151095 
L 365.395486 167.069842 
L 382.655909 166.914106 
L 382.899014 166.540259 
L 383.142118 174.30204 
L 383.385223 174.304375 
L 383.628327 166.590292 
L 383.871432 174.308178 
L 384.114536 166.585823 
L 384.357641 174.311313 
L 384.600745 174.311513 
L 384.84385 166.583555 
L 385.086955 174.311647 
L 385.330059 166.582754 
L 385.573164 174.310512 
L 386.059373 174.307444 
L 386.302477 166.528919 
L 386.545582 174.302841 
L 386.788686 166.472615 
L 406.966364 166.354337 
L 407.209468 167.134251 
L 407.452573 167.138687 
L 407.695677 176.439282 
L 407.938782 176.426173 
L 408.181886 167.022744 
L 408.668095 167.031183 
L 408.9112 176.394852 
L 409.397409 176.390216 
L 409.640514 166.891391 
L 409.883618 176.394085 
L 410.126723 166.885253 
L 410.369827 176.406594 
L 410.612932 166.873712 
L 415.475023 166.835854 
L 431.276818 166.774681 
L 431.519923 166.314377 
L 431.763027 166.311842 
L 432.006132 178.657243 
L 432.249236 166.304971 
L 433.221655 166.296299 
L 433.464759 178.908542 
L 433.707864 166.294964 
L 434.194073 166.296099 
L 434.437177 179.1477 
L 434.680282 166.298967 
L 435.166491 166.303237 
L 435.409595 179.38579 
L 455.587273 179.295397 
L 455.830377 177.104954 
L 456.073482 177.044547 
L 456.316586 153.077789 
L 456.559691 176.949384 
L 456.802795 176.894748 
L 457.0459 153.470048 
L 458.018318 153.96861 
L 458.261423 179.67418 
L 458.504527 154.179749 
L 458.747632 179.55807 
L 458.990736 154.37858 
L 459.233841 179.455002 
L 459.963155 179.352868 
L 479.897727 179.443461 
L 480.140832 177.802947 
L 480.383936 178.023059 
L 480.627041 38.478182 
L 480.870145 235.806197 
L 481.11325 177.980597 
L 501.047823 177.733926 
L 503.965077 177.504884 
L 504.208182 177.473905 
L 504.451286 176.14091 
L 506.153018 175.858999 
L 506.396123 158.571138 
L 506.639227 175.738616 
L 506.882332 175.668757 
L 507.125436 159.062799 
L 507.368541 159.265871 
L 507.611645 174.626983 
L 508.097855 174.433685 
L 508.340959 160.345023 
L 509.070273 161.588038 
L 509.799586 163.203227 
L 510.772005 165.925017 
L 513.689259 174.72524 
L 514.661677 176.757854 
L 515.634095 178.270659 
L 516.606514 179.38398 
L 517.822036 180.380929 
L 519.037559 181.08385 
L 520.496186 181.679559 
L 522.441023 182.216138 
L 524.872068 182.649824 
L 528.275532 183.024621 
L 528.518636 183.042799 
L 528.761741 174.490464 
L 529.734159 174.50881 
L 529.977264 165.185867 
L 530.220368 174.405959 
L 530.706577 174.411562 
L 530.949682 165.169189 
L 531.678995 165.161584 
L 531.9221 174.311747 
L 532.165205 165.051895 
L 532.408309 174.204793 
L 532.651414 164.943424 
L 547.237686 164.655518 
L 552.829091 164.584004 
L 553.072195 165.601774 
L 553.3153 174.647635 
L 555.260136 174.638262 
L 555.503241 165.72112 
L 555.746345 174.647968 
L 555.98945 174.654973 
L 556.232555 165.694769 
L 556.475659 165.683128 
L 556.718764 174.567382 
L 559.392914 174.579723 
L 577.139545 174.583559 
L 577.139545 174.583559 
" clip-path="url(#p8883169685)" style="fill: none; stroke-dasharray: 3.7,1.6; stroke-dashoffset: 0; stroke: #808080"/>
   </g>
   <g id="patch_8">
    <path d="M 66.62 282.04 
L 66.62 26.88 
" style="fill: none; stroke: #000000; stroke-width: 0.8; stroke-linejoin: miter; stroke-linecap: square"/>
   </g>
   <g id="patch_9">
    <path d="M 601.45 282.04 
L 601.45 26.88 
" style="fill: none; stroke: #000000; stroke-width: 0.8; stroke-linejoin: miter; stroke-linecap: square"/>
   </g>
   <g id="patch_10">
    <path d="M 66.62 282.04 
L 601.45 282.04 
" style="fill: none; stroke: #000000; stroke-width: 0.8; stroke-linejoin: miter; stroke-linecap: square"/>
   </g>
   <g id="patch_11">
    <path d="M 66.62 26.88 
L 601.45 26.88 
" style="fill: none; stroke: #000000; stroke-width: 0.8; stroke-linejoin: miter; stroke-linecap: square"/>
   </g>
   <g id="legend_2">
    <g id="patch_12">
     <path d="M 512.101562 277.04 
L 594.45 277.04 
Q 596.45 277.04 596.45 275.04 
L 596.45 261.361875 
Q 596.45 259.361875 594.45 259.361875 
L 512.101562 259.361875 
Q 510.101562 259.361875 510.101562 261.361875 
L 510.101562 275.04 
Q 510.101562 277.04 512.101562 277.04 
z
" style="fill: #ffffff; opacity: 0.8; stroke: #cccccc; stroke-linejoin: miter"/>
    </g>
    <g id="line2d_44">
     <path d="M 514.101562 267.460312 
L 524.101562 267.460312 
L 534.101562 267.460312 
" style="fill: none; stroke-dasharray: 3.7,1.6; stroke-dashoffset: 0; stroke: #808080"/>
    </g>
    <g id="text_30">
     <!-- difference -->
     <g transform="translate(542.101562 270.960312) scale(0.1 -0.1)">
      <use xlink:href="#DejaVuSans-64"/>
      <use xlink:href="#DejaVuSans-69" transform="translate(63.476562 0)"/>
      <use xlink:href="#DejaVuSans-66" transform="translate(91.259766 0)"/>
      <use xlink:href="#DejaVuSans-66" transform="translate(126.464844 0)"/>
      <use xlink:href="#DejaVuSans-65" transform="translate(161.669922 0)"/>
      <use xlink:href="#DejaVuSans-72" transform="translate(223.193359 0)"/>
      <use xlink:href="#DejaVuSans-65" transform="translate(262.056641 0)"/>
      <use xlink:href="#DejaVuSans-6e" transform="translate(323.580078 0)"/>
      <use xlink:href="#DejaVuSans-63" transform="translate(386.958984 0)"/>
      <use xlink:href="#DejaVuSans-65" transform="translate(441.939453 0)"/>
     </g>
    </g>
   </g>
  </g>
 </g>
 <defs>
  <clipPath id="p8883169685">
   <rect x="66.62" y="26.88" width="534.83" height="255.16"/>
  </clipPath>
 </defs>
</svg>
